G04*
G04 #@! TF.GenerationSoftware,Altium Limited,Altium Designer,26.4.1 (12)*
G04*
G04 Layer_Color=255*
%FSLAX44Y44*%
%MOMM*%
G71*
G04*
G04 #@! TF.SameCoordinates,5241B6CD-1196-45C0-98BA-B8BA4369621D*
G04*
G04*
G04 #@! TF.FilePolarity,Positive*
G04*
G01*
G75*
%ADD19R,0.8000X1.6000*%
%ADD20R,2.1000X3.0000*%
G04:AMPARAMS|DCode=21|XSize=0.9mm|YSize=0.8mm|CornerRadius=0.2mm|HoleSize=0mm|Usage=FLASHONLY|Rotation=0.000|XOffset=0mm|YOffset=0mm|HoleType=Round|Shape=RoundedRectangle|*
%AMROUNDEDRECTD21*
21,1,0.9000,0.4000,0,0,0.0*
21,1,0.5000,0.8000,0,0,0.0*
1,1,0.4000,0.2500,-0.2000*
1,1,0.4000,-0.2500,-0.2000*
1,1,0.4000,-0.2500,0.2000*
1,1,0.4000,0.2500,0.2000*
%
%ADD21ROUNDEDRECTD21*%
%ADD22R,3.5000X2.9500*%
%ADD23R,2.9500X3.5000*%
G04:AMPARAMS|DCode=24|XSize=1.97mm|YSize=0.59mm|CornerRadius=0.0738mm|HoleSize=0mm|Usage=FLASHONLY|Rotation=0.000|XOffset=0mm|YOffset=0mm|HoleType=Round|Shape=RoundedRectangle|*
%AMROUNDEDRECTD24*
21,1,1.9700,0.4425,0,0,0.0*
21,1,1.8225,0.5900,0,0,0.0*
1,1,0.1475,0.9113,-0.2213*
1,1,0.1475,-0.9113,-0.2213*
1,1,0.1475,-0.9113,0.2213*
1,1,0.1475,0.9113,0.2213*
%
%ADD24ROUNDEDRECTD24*%
G04:AMPARAMS|DCode=25|XSize=1.64mm|YSize=0.59mm|CornerRadius=0.1475mm|HoleSize=0mm|Usage=FLASHONLY|Rotation=270.000|XOffset=0mm|YOffset=0mm|HoleType=Round|Shape=RoundedRectangle|*
%AMROUNDEDRECTD25*
21,1,1.6400,0.2950,0,0,270.0*
21,1,1.3450,0.5900,0,0,270.0*
1,1,0.2950,-0.1475,-0.6725*
1,1,0.2950,-0.1475,0.6725*
1,1,0.2950,0.1475,0.6725*
1,1,0.2950,0.1475,-0.6725*
%
%ADD25ROUNDEDRECTD25*%
G04:AMPARAMS|DCode=26|XSize=0.65mm|YSize=0.6mm|CornerRadius=0.15mm|HoleSize=0mm|Usage=FLASHONLY|Rotation=0.000|XOffset=0mm|YOffset=0mm|HoleType=Round|Shape=RoundedRectangle|*
%AMROUNDEDRECTD26*
21,1,0.6500,0.3000,0,0,0.0*
21,1,0.3500,0.6000,0,0,0.0*
1,1,0.3000,0.1750,-0.1500*
1,1,0.3000,-0.1750,-0.1500*
1,1,0.3000,-0.1750,0.1500*
1,1,0.3000,0.1750,0.1500*
%
%ADD26ROUNDEDRECTD26*%
%ADD27R,0.6000X1.0000*%
%ADD28R,1.2500X1.8000*%
G04:AMPARAMS|DCode=29|XSize=1.2mm|YSize=1.3mm|CornerRadius=0.246mm|HoleSize=0mm|Usage=FLASHONLY|Rotation=270.000|XOffset=0mm|YOffset=0mm|HoleType=Round|Shape=RoundedRectangle|*
%AMROUNDEDRECTD29*
21,1,1.2000,0.8080,0,0,270.0*
21,1,0.7080,1.3000,0,0,270.0*
1,1,0.4920,-0.4040,-0.3540*
1,1,0.4920,-0.4040,0.3540*
1,1,0.4920,0.4040,0.3540*
1,1,0.4920,0.4040,-0.3540*
%
%ADD29ROUNDEDRECTD29*%
%ADD31R,0.2540X0.8128*%
%ADD32R,0.8128X0.2540*%
%ADD34R,1.4605X0.5334*%
%ADD36R,0.5334X1.4605*%
G04:AMPARAMS|DCode=38|XSize=0.26mm|YSize=0.82mm|CornerRadius=0.0091mm|HoleSize=0mm|Usage=FLASHONLY|Rotation=0.000|XOffset=0mm|YOffset=0mm|HoleType=Round|Shape=RoundedRectangle|*
%AMROUNDEDRECTD38*
21,1,0.2600,0.8018,0,0,0.0*
21,1,0.2418,0.8200,0,0,0.0*
1,1,0.0182,0.1209,-0.4009*
1,1,0.0182,-0.1209,-0.4009*
1,1,0.0182,-0.1209,0.4009*
1,1,0.0182,0.1209,0.4009*
%
%ADD38ROUNDEDRECTD38*%
G04:AMPARAMS|DCode=39|XSize=0.82mm|YSize=0.26mm|CornerRadius=0.0091mm|HoleSize=0mm|Usage=FLASHONLY|Rotation=0.000|XOffset=0mm|YOffset=0mm|HoleType=Round|Shape=RoundedRectangle|*
%AMROUNDEDRECTD39*
21,1,0.8200,0.2418,0,0,0.0*
21,1,0.8018,0.2600,0,0,0.0*
1,1,0.0182,0.4009,-0.1209*
1,1,0.0182,-0.4009,-0.1209*
1,1,0.0182,-0.4009,0.1209*
1,1,0.0182,0.4009,0.1209*
%
%ADD39ROUNDEDRECTD39*%
G04:AMPARAMS|DCode=40|XSize=0.84mm|YSize=0.26mm|CornerRadius=0.0091mm|HoleSize=0mm|Usage=FLASHONLY|Rotation=0.000|XOffset=0mm|YOffset=0mm|HoleType=Round|Shape=RoundedRectangle|*
%AMROUNDEDRECTD40*
21,1,0.8400,0.2418,0,0,0.0*
21,1,0.8218,0.2600,0,0,0.0*
1,1,0.0182,0.4109,-0.1209*
1,1,0.0182,-0.4109,-0.1209*
1,1,0.0182,-0.4109,0.1209*
1,1,0.0182,0.4109,0.1209*
%
%ADD40ROUNDEDRECTD40*%
%ADD42R,0.2540X1.0668*%
%ADD43R,1.0668X0.2540*%
G04:AMPARAMS|DCode=44|XSize=0.35mm|YSize=0.8mm|CornerRadius=0.0875mm|HoleSize=0mm|Usage=FLASHONLY|Rotation=270.000|XOffset=0mm|YOffset=0mm|HoleType=Round|Shape=RoundedRectangle|*
%AMROUNDEDRECTD44*
21,1,0.3500,0.6250,0,0,270.0*
21,1,0.1750,0.8000,0,0,270.0*
1,1,0.1750,-0.3125,-0.0875*
1,1,0.1750,-0.3125,0.0875*
1,1,0.1750,0.3125,0.0875*
1,1,0.1750,0.3125,-0.0875*
%
%ADD44ROUNDEDRECTD44*%
G04:AMPARAMS|DCode=45|XSize=0.35mm|YSize=0.8mm|CornerRadius=0.0875mm|HoleSize=0mm|Usage=FLASHONLY|Rotation=180.000|XOffset=0mm|YOffset=0mm|HoleType=Round|Shape=RoundedRectangle|*
%AMROUNDEDRECTD45*
21,1,0.3500,0.6250,0,0,180.0*
21,1,0.1750,0.8000,0,0,180.0*
1,1,0.1750,-0.0875,0.3125*
1,1,0.1750,0.0875,0.3125*
1,1,0.1750,0.0875,-0.3125*
1,1,0.1750,-0.0875,-0.3125*
%
%ADD45ROUNDEDRECTD45*%
G04:AMPARAMS|DCode=47|XSize=0.65mm|YSize=0.6mm|CornerRadius=0.15mm|HoleSize=0mm|Usage=FLASHONLY|Rotation=90.000|XOffset=0mm|YOffset=0mm|HoleType=Round|Shape=RoundedRectangle|*
%AMROUNDEDRECTD47*
21,1,0.6500,0.3000,0,0,90.0*
21,1,0.3500,0.6000,0,0,90.0*
1,1,0.3000,0.1500,0.1750*
1,1,0.3000,0.1500,-0.1750*
1,1,0.3000,-0.1500,-0.1750*
1,1,0.3000,-0.1500,0.1750*
%
%ADD47ROUNDEDRECTD47*%
G04:AMPARAMS|DCode=48|XSize=0.3mm|YSize=0.7mm|CornerRadius=0.075mm|HoleSize=0mm|Usage=FLASHONLY|Rotation=0.000|XOffset=0mm|YOffset=0mm|HoleType=Round|Shape=RoundedRectangle|*
%AMROUNDEDRECTD48*
21,1,0.3000,0.5500,0,0,0.0*
21,1,0.1500,0.7000,0,0,0.0*
1,1,0.1500,0.0750,-0.2750*
1,1,0.1500,-0.0750,-0.2750*
1,1,0.1500,-0.0750,0.2750*
1,1,0.1500,0.0750,0.2750*
%
%ADD48ROUNDEDRECTD48*%
%ADD49R,1.0000X0.5000*%
%ADD50R,2.4000X0.9000*%
G04:AMPARAMS|DCode=51|XSize=0.9mm|YSize=0.8mm|CornerRadius=0.2mm|HoleSize=0mm|Usage=FLASHONLY|Rotation=270.000|XOffset=0mm|YOffset=0mm|HoleType=Round|Shape=RoundedRectangle|*
%AMROUNDEDRECTD51*
21,1,0.9000,0.4000,0,0,270.0*
21,1,0.5000,0.8000,0,0,270.0*
1,1,0.4000,-0.2000,-0.2500*
1,1,0.4000,-0.2000,0.2500*
1,1,0.4000,0.2000,0.2500*
1,1,0.4000,0.2000,-0.2500*
%
%ADD51ROUNDEDRECTD51*%
%ADD52R,1.4732X0.5588*%
%ADD53O,1.4000X0.3500*%
%ADD54R,0.5000X0.8000*%
G04:AMPARAMS|DCode=55|XSize=0.95mm|YSize=0.85mm|CornerRadius=0.2125mm|HoleSize=0mm|Usage=FLASHONLY|Rotation=180.000|XOffset=0mm|YOffset=0mm|HoleType=Round|Shape=RoundedRectangle|*
%AMROUNDEDRECTD55*
21,1,0.9500,0.4250,0,0,180.0*
21,1,0.5250,0.8500,0,0,180.0*
1,1,0.4250,-0.2625,0.2125*
1,1,0.4250,0.2625,0.2125*
1,1,0.4250,0.2625,-0.2125*
1,1,0.4250,-0.2625,-0.2125*
%
%ADD55ROUNDEDRECTD55*%
G04:AMPARAMS|DCode=57|XSize=1.64mm|YSize=0.59mm|CornerRadius=0.1475mm|HoleSize=0mm|Usage=FLASHONLY|Rotation=180.000|XOffset=0mm|YOffset=0mm|HoleType=Round|Shape=RoundedRectangle|*
%AMROUNDEDRECTD57*
21,1,1.6400,0.2950,0,0,180.0*
21,1,1.3450,0.5900,0,0,180.0*
1,1,0.2950,-0.6725,0.1475*
1,1,0.2950,0.6725,0.1475*
1,1,0.2950,0.6725,-0.1475*
1,1,0.2950,-0.6725,-0.1475*
%
%ADD57ROUNDEDRECTD57*%
G04:AMPARAMS|DCode=58|XSize=1.2mm|YSize=1.3mm|CornerRadius=0.246mm|HoleSize=0mm|Usage=FLASHONLY|Rotation=180.000|XOffset=0mm|YOffset=0mm|HoleType=Round|Shape=RoundedRectangle|*
%AMROUNDEDRECTD58*
21,1,1.2000,0.8080,0,0,180.0*
21,1,0.7080,1.3000,0,0,180.0*
1,1,0.4920,-0.3540,0.4040*
1,1,0.4920,0.3540,0.4040*
1,1,0.4920,0.3540,-0.4040*
1,1,0.4920,-0.3540,-0.4040*
%
%ADD58ROUNDEDRECTD58*%
G04:AMPARAMS|DCode=59|XSize=1.21mm|YSize=0.59mm|CornerRadius=0.0738mm|HoleSize=0mm|Usage=FLASHONLY|Rotation=0.000|XOffset=0mm|YOffset=0mm|HoleType=Round|Shape=RoundedRectangle|*
%AMROUNDEDRECTD59*
21,1,1.2100,0.4425,0,0,0.0*
21,1,1.0625,0.5900,0,0,0.0*
1,1,0.1475,0.5313,-0.2213*
1,1,0.1475,-0.5313,-0.2213*
1,1,0.1475,-0.5313,0.2213*
1,1,0.1475,0.5313,0.2213*
%
%ADD59ROUNDEDRECTD59*%
G04:AMPARAMS|DCode=60|XSize=1.4605mm|YSize=0.5588mm|CornerRadius=0.1397mm|HoleSize=0mm|Usage=FLASHONLY|Rotation=180.000|XOffset=0mm|YOffset=0mm|HoleType=Round|Shape=RoundedRectangle|*
%AMROUNDEDRECTD60*
21,1,1.4605,0.2794,0,0,180.0*
21,1,1.1811,0.5588,0,0,180.0*
1,1,0.2794,-0.5906,0.1397*
1,1,0.2794,0.5906,0.1397*
1,1,0.2794,0.5906,-0.1397*
1,1,0.2794,-0.5906,-0.1397*
%
%ADD60ROUNDEDRECTD60*%
G04:AMPARAMS|DCode=61|XSize=1.4097mm|YSize=0.3556mm|CornerRadius=0.0889mm|HoleSize=0mm|Usage=FLASHONLY|Rotation=0.000|XOffset=0mm|YOffset=0mm|HoleType=Round|Shape=RoundedRectangle|*
%AMROUNDEDRECTD61*
21,1,1.4097,0.1778,0,0,0.0*
21,1,1.2319,0.3556,0,0,0.0*
1,1,0.1778,0.6160,-0.0889*
1,1,0.1778,-0.6160,-0.0889*
1,1,0.1778,-0.6160,0.0889*
1,1,0.1778,0.6160,0.0889*
%
%ADD61ROUNDEDRECTD61*%
G04:AMPARAMS|DCode=62|XSize=0.55mm|YSize=0.6mm|CornerRadius=0.1375mm|HoleSize=0mm|Usage=FLASHONLY|Rotation=0.000|XOffset=0mm|YOffset=0mm|HoleType=Round|Shape=RoundedRectangle|*
%AMROUNDEDRECTD62*
21,1,0.5500,0.3250,0,0,0.0*
21,1,0.2750,0.6000,0,0,0.0*
1,1,0.2750,0.1375,-0.1625*
1,1,0.2750,-0.1375,-0.1625*
1,1,0.2750,-0.1375,0.1625*
1,1,0.2750,0.1375,0.1625*
%
%ADD62ROUNDEDRECTD62*%
G04:AMPARAMS|DCode=63|XSize=0.55mm|YSize=0.6mm|CornerRadius=0.1375mm|HoleSize=0mm|Usage=FLASHONLY|Rotation=90.000|XOffset=0mm|YOffset=0mm|HoleType=Round|Shape=RoundedRectangle|*
%AMROUNDEDRECTD63*
21,1,0.5500,0.3250,0,0,90.0*
21,1,0.2750,0.6000,0,0,90.0*
1,1,0.2750,0.1625,0.1375*
1,1,0.2750,0.1625,-0.1375*
1,1,0.2750,-0.1625,-0.1375*
1,1,0.2750,-0.1625,0.1375*
%
%ADD63ROUNDEDRECTD63*%
G04:AMPARAMS|DCode=64|XSize=0.275mm|YSize=0.3mm|CornerRadius=0.0688mm|HoleSize=0mm|Usage=FLASHONLY|Rotation=90.000|XOffset=0mm|YOffset=0mm|HoleType=Round|Shape=RoundedRectangle|*
%AMROUNDEDRECTD64*
21,1,0.2750,0.1625,0,0,90.0*
21,1,0.1375,0.3000,0,0,90.0*
1,1,0.1375,0.0813,0.0688*
1,1,0.1375,0.0813,-0.0688*
1,1,0.1375,-0.0813,-0.0688*
1,1,0.1375,-0.0813,0.0688*
%
%ADD64ROUNDEDRECTD64*%
G04:AMPARAMS|DCode=65|XSize=0.275mm|YSize=0.3mm|CornerRadius=0.0688mm|HoleSize=0mm|Usage=FLASHONLY|Rotation=0.000|XOffset=0mm|YOffset=0mm|HoleType=Round|Shape=RoundedRectangle|*
%AMROUNDEDRECTD65*
21,1,0.2750,0.1625,0,0,0.0*
21,1,0.1375,0.3000,0,0,0.0*
1,1,0.1375,0.0688,-0.0813*
1,1,0.1375,-0.0688,-0.0813*
1,1,0.1375,-0.0688,0.0813*
1,1,0.1375,0.0688,0.0813*
%
%ADD65ROUNDEDRECTD65*%
G04:AMPARAMS|DCode=67|XSize=0.86mm|YSize=0.22mm|CornerRadius=0.055mm|HoleSize=0mm|Usage=FLASHONLY|Rotation=90.000|XOffset=0mm|YOffset=0mm|HoleType=Round|Shape=RoundedRectangle|*
%AMROUNDEDRECTD67*
21,1,0.8600,0.1100,0,0,90.0*
21,1,0.7500,0.2200,0,0,90.0*
1,1,0.1100,0.0550,0.3750*
1,1,0.1100,0.0550,-0.3750*
1,1,0.1100,-0.0550,-0.3750*
1,1,0.1100,-0.0550,0.3750*
%
%ADD67ROUNDEDRECTD67*%
%ADD68R,0.7000X1.0000*%
%ADD69R,0.6500X0.2500*%
%ADD70R,0.6500X0.3000*%
%ADD71R,0.4000X0.4000*%
%ADD72R,0.6100X0.3500*%
G04:AMPARAMS|DCode=73|XSize=1.32mm|YSize=0.6mm|CornerRadius=0.075mm|HoleSize=0mm|Usage=FLASHONLY|Rotation=90.000|XOffset=0mm|YOffset=0mm|HoleType=Round|Shape=RoundedRectangle|*
%AMROUNDEDRECTD73*
21,1,1.3200,0.4500,0,0,90.0*
21,1,1.1700,0.6000,0,0,90.0*
1,1,0.1500,0.2250,0.5850*
1,1,0.1500,0.2250,-0.5850*
1,1,0.1500,-0.2250,-0.5850*
1,1,0.1500,-0.2250,0.5850*
%
%ADD73ROUNDEDRECTD73*%
%ADD74R,1.3970X1.1938*%
G04:AMPARAMS|DCode=75|XSize=1.65mm|YSize=2.55mm|CornerRadius=0.2475mm|HoleSize=0mm|Usage=FLASHONLY|Rotation=180.000|XOffset=0mm|YOffset=0mm|HoleType=Round|Shape=RoundedRectangle|*
%AMROUNDEDRECTD75*
21,1,1.6500,2.0550,0,0,180.0*
21,1,1.1550,2.5500,0,0,180.0*
1,1,0.4950,-0.5775,1.0275*
1,1,0.4950,0.5775,1.0275*
1,1,0.4950,0.5775,-1.0275*
1,1,0.4950,-0.5775,-1.0275*
%
%ADD75ROUNDEDRECTD75*%
%ADD76R,0.2500X0.6500*%
%ADD77R,3.7000X3.7000*%
G04:AMPARAMS|DCode=78|XSize=0.3mm|YSize=0.7mm|CornerRadius=0.075mm|HoleSize=0mm|Usage=FLASHONLY|Rotation=90.000|XOffset=0mm|YOffset=0mm|HoleType=Round|Shape=RoundedRectangle|*
%AMROUNDEDRECTD78*
21,1,0.3000,0.5500,0,0,90.0*
21,1,0.1500,0.7000,0,0,90.0*
1,1,0.1500,0.2750,0.0750*
1,1,0.1500,0.2750,-0.0750*
1,1,0.1500,-0.2750,-0.0750*
1,1,0.1500,-0.2750,0.0750*
%
%ADD78ROUNDEDRECTD78*%
%ADD80R,1.1938X1.0414*%
%ADD81R,2.3876X1.0414*%
%ADD82R,2.1500X0.9500*%
%ADD83R,1.2954X1.8542*%
%ADD84R,0.9906X0.5080*%
%ADD85R,1.0922X1.0414*%
%ADD86R,0.6604X1.0414*%
%ADD87R,1.0000X0.3500*%
G04:AMPARAMS|DCode=88|XSize=0.95mm|YSize=0.85mm|CornerRadius=0.2125mm|HoleSize=0mm|Usage=FLASHONLY|Rotation=270.000|XOffset=0mm|YOffset=0mm|HoleType=Round|Shape=RoundedRectangle|*
%AMROUNDEDRECTD88*
21,1,0.9500,0.4250,0,0,270.0*
21,1,0.5250,0.8500,0,0,270.0*
1,1,0.4250,-0.2125,-0.2625*
1,1,0.4250,-0.2125,0.2625*
1,1,0.4250,0.2125,0.2625*
1,1,0.4250,0.2125,-0.2625*
%
%ADD88ROUNDEDRECTD88*%
%ADD89R,0.3000X0.6500*%
%ADD90R,2.4000X0.3000*%
%ADD91R,3.0988X5.5880*%
G04:AMPARAMS|DCode=92|XSize=0.9mm|YSize=0.95mm|CornerRadius=0.099mm|HoleSize=0mm|Usage=FLASHONLY|Rotation=180.000|XOffset=0mm|YOffset=0mm|HoleType=Round|Shape=RoundedRectangle|*
%AMROUNDEDRECTD92*
21,1,0.9000,0.7520,0,0,180.0*
21,1,0.7020,0.9500,0,0,180.0*
1,1,0.1980,-0.3510,0.3760*
1,1,0.1980,0.3510,0.3760*
1,1,0.1980,0.3510,-0.3760*
1,1,0.1980,-0.3510,-0.3760*
%
%ADD92ROUNDEDRECTD92*%
G04:AMPARAMS|DCode=93|XSize=1.75mm|YSize=1.25mm|CornerRadius=0.2438mm|HoleSize=0mm|Usage=FLASHONLY|Rotation=90.000|XOffset=0mm|YOffset=0mm|HoleType=Round|Shape=RoundedRectangle|*
%AMROUNDEDRECTD93*
21,1,1.7500,0.7625,0,0,90.0*
21,1,1.2625,1.2500,0,0,90.0*
1,1,0.4875,0.3813,0.6313*
1,1,0.4875,0.3813,-0.6313*
1,1,0.4875,-0.3813,-0.6313*
1,1,0.4875,-0.3813,0.6313*
%
%ADD93ROUNDEDRECTD93*%
G04:AMPARAMS|DCode=94|XSize=0.9mm|YSize=0.95mm|CornerRadius=0.099mm|HoleSize=0mm|Usage=FLASHONLY|Rotation=90.000|XOffset=0mm|YOffset=0mm|HoleType=Round|Shape=RoundedRectangle|*
%AMROUNDEDRECTD94*
21,1,0.9000,0.7520,0,0,90.0*
21,1,0.7020,0.9500,0,0,90.0*
1,1,0.1980,0.3760,0.3510*
1,1,0.1980,0.3760,-0.3510*
1,1,0.1980,-0.3760,-0.3510*
1,1,0.1980,-0.3760,0.3510*
%
%ADD94ROUNDEDRECTD94*%
%ADD95R,1.0700X3.2700*%
%ADD96R,0.3500X0.6100*%
%ADD97R,2.1500X3.2500*%
%ADD98R,0.5588X2.9210*%
%ADD99R,0.7874X0.7112*%
%ADD100R,0.6500X0.2286*%
%ADD101R,1.0000X1.5000*%
G04:AMPARAMS|DCode=102|XSize=0.86mm|YSize=0.22mm|CornerRadius=0.055mm|HoleSize=0mm|Usage=FLASHONLY|Rotation=0.000|XOffset=0mm|YOffset=0mm|HoleType=Round|Shape=RoundedRectangle|*
%AMROUNDEDRECTD102*
21,1,0.8600,0.1100,0,0,0.0*
21,1,0.7500,0.2200,0,0,0.0*
1,1,0.1100,0.3750,-0.0550*
1,1,0.1100,-0.3750,-0.0550*
1,1,0.1100,-0.3750,0.0550*
1,1,0.1100,0.3750,0.0550*
%
%ADD102ROUNDEDRECTD102*%
%ADD116R,3.2004X3.2004*%
%ADD117R,2.4000X3.1000*%
%ADD118R,3.1000X2.4000*%
%ADD119R,2.7000X2.7000*%
%ADD123R,3.8608X3.8608*%
%ADD128C,0.8000*%
%ADD180C,1.3000*%
%ADD183C,1.5000*%
%ADD188R,2.6000X2.6000*%
%ADD189R,4.0000X4.0000*%
%ADD190R,3.4036X2.7178*%
%ADD191R,2.6000X2.6000*%
%ADD201C,6.0000*%
%ADD202C,1.6000*%
%ADD203C,3.0450*%
%ADD204R,1.6000X1.6000*%
G36*
G01X126897Y520428D02*
G01X122170Y515701D01*
G01X122170Y526398D01*
G02X124295Y528523I2125J0D01*
G01X129545D01*
G02X131670Y526398I0J-2125D01*
G01Y515655D01*
G01X126897Y520428D01*
D02*
G37*
G36*
G01X122170Y506778D02*
G01Y513209D01*
G01X126920Y517923D01*
G01X131670Y513209D01*
G01Y506778D01*
G02X129545Y504653I-2125J0D01*
G01X124295D01*
G02X122170Y506778I0J2125D01*
D02*
G37*
G36*
G01X1138875Y359250D02*
G01X1132444D01*
G01X1127730Y364000D01*
G01X1132444Y368750D01*
G01X1138875D01*
G02X1141000Y366625I0J-2125D01*
G01Y361375D01*
G02X1138875Y359250I-2125J0D01*
D02*
G37*
G36*
G01X1125225Y363977D02*
G01X1129952Y359250D01*
G01X1119255Y359250D01*
G02X1117130Y361375I0J2125D01*
G01Y366625D01*
G02X1119255Y368750I2125J0D01*
G01X1129998D01*
G01X1125225Y363977D01*
D02*
G37*
G36*
G01X126897Y702428D02*
G01X122170Y697701D01*
G01X122170Y708398D01*
G02X124295Y710523I2125J0D01*
G01X129545D01*
G02X131670Y708398I0J-2125D01*
G01Y697655D01*
G01X126897Y702428D01*
D02*
G37*
G36*
G01X122170Y688778D02*
G01Y695209D01*
G01X126920Y699923D01*
G01X131670Y695209D01*
G01Y688778D01*
G02X129545Y686653I-2125J0D01*
G01X124295D01*
G02X122170Y688778I0J2125D01*
D02*
G37*
G36*
G01X26170D02*
G01Y695209D01*
G01X30920Y699923D01*
G01X35670Y695209D01*
G01Y688778D01*
G02X33545Y686653I-2125J0D01*
G01X28295D01*
G02X26170Y688778I0J2125D01*
D02*
G37*
G36*
G01X30897Y702428D02*
G01X26170Y697701D01*
G01X26170Y708398D01*
G02X28295Y710523I2125J0D01*
G01X33545D01*
G02X35670Y708398I0J-2125D01*
G01Y697655D01*
G01X30897Y702428D01*
D02*
G37*
G36*
G01X126897Y611428D02*
G01X122170Y606701D01*
G01X122170Y617398D01*
G02X124295Y619523I2125J0D01*
G01X129545D01*
G02X131670Y617398I0J-2125D01*
G01Y606655D01*
G01X126897Y611428D01*
D02*
G37*
G36*
G01X122170Y597778D02*
G01Y604209D01*
G01X126920Y608923D01*
G01X131670Y604209D01*
G01Y597778D01*
G02X129545Y595653I-2125J0D01*
G01X124295D01*
G02X122170Y597778I0J2125D01*
D02*
G37*
G36*
G01X26170D02*
G01Y604209D01*
G01X30920Y608923D01*
G01X35670Y604209D01*
G01Y597778D01*
G02X33545Y595653I-2125J0D01*
G01X28295D01*
G02X26170Y597778I0J2125D01*
D02*
G37*
G36*
G01X30897Y611428D02*
G01X26170Y606701D01*
G01X26170Y617398D01*
G02X28295Y619523I2125J0D01*
G01X33545D01*
G02X35670Y617398I0J-2125D01*
G01Y606655D01*
G01X30897Y611428D01*
D02*
G37*
G36*
G01Y520428D02*
G01X26170Y515701D01*
G01X26170Y526398D01*
G02X28295Y528523I2125J0D01*
G01X33545D01*
G02X35670Y526398I0J-2125D01*
G01Y515655D01*
G01X30897Y520428D01*
D02*
G37*
G36*
G01X26170Y506778D02*
G01Y513209D01*
G01X30920Y517923D01*
G01X35670Y513209D01*
G01Y506778D01*
G02X33545Y504653I-2125J0D01*
G01X28295D01*
G02X26170Y506778I0J2125D01*
D02*
G37*
G36*
G01X122170Y415778D02*
G01Y422209D01*
G01X126920Y426923D01*
G01X131670Y422209D01*
G01Y415778D01*
G02X129545Y413653I-2125J0D01*
G01X124295D01*
G02X122170Y415778I0J2125D01*
D02*
G37*
G36*
G01X126897Y429428D02*
G01X122170Y424701D01*
G01X122170Y435398D01*
G02X124295Y437523I2125J0D01*
G01X129545D01*
G02X131670Y435398I0J-2125D01*
G01Y424655D01*
G01X126897Y429428D01*
D02*
G37*
G36*
G01X30897D02*
G01X26170Y424701D01*
G01X26170Y435398D01*
G02X28295Y437523I2125J0D01*
G01X33545D01*
G02X35670Y435398I0J-2125D01*
G01Y424655D01*
G01X30897Y429428D01*
D02*
G37*
G36*
G01X26170Y415778D02*
G01Y422209D01*
G01X30920Y426923D01*
G01X35670Y422209D01*
G01Y415778D01*
G02X33545Y413653I-2125J0D01*
G01X28295D01*
G02X26170Y415778I0J2125D01*
D02*
G37*
G36*
G01X700250Y498125D02*
G01Y504556D01*
G01X705000Y509270D01*
G01X709750Y504556D01*
G01Y498125D01*
G02X707625Y496000I-2125J0D01*
G01X702375D01*
G02X700250Y498125I0J2125D01*
D02*
G37*
G36*
G01X704977Y511775D02*
G01X700250Y507048D01*
G01X700250Y517745D01*
G02X702375Y519870I2125J0D01*
G01X707625D01*
G02X709750Y517745I0J-2125D01*
G01Y507002D01*
G01X704977Y511775D01*
D02*
G37*
G36*
G01X780500Y699500D02*
G02X784500Y695500I0J-4000D01*
G01Y689500D01*
G01X772500D01*
G01Y695500D01*
G02X776500Y699500I4000J0D01*
G01X780500D01*
D02*
G37*
G36*
G01X636000Y633000D02*
G02X640000Y629000I0J-4000D01*
G01Y623000D01*
G01X628000D01*
G01Y629000D01*
G02X632000Y633000I4000J0D01*
G01X636000D01*
D02*
G37*
G36*
G01X388049Y600491D02*
G02X384049Y596491I-4000J0D01*
G01X378049D01*
G01Y608491D01*
G01X384049D01*
G02X388049Y604491I0J-4000D01*
G01Y600491D01*
D02*
G37*
G36*
G01X298000Y601000D02*
G02X294000Y597000I-4000J0D01*
G01X288000D01*
G01Y609000D01*
G01X294000D01*
G02X298000Y605000I0J-4000D01*
G01Y601000D01*
D02*
G37*
G36*
G01X476750Y335710D02*
G02X480750Y331710I0J-4000D01*
G01Y325710D01*
G01X468750D01*
G01Y331710D01*
G02X472750Y335710I4000J0D01*
G01X476750D01*
D02*
G37*
G36*
G01X434250Y162290D02*
G02X430250Y166290I0J4000D01*
G01Y172290D01*
G01X442250D01*
G01Y166290D01*
G02X438250Y162290I-4000J0D01*
G01X434250D01*
D02*
G37*
G36*
G01X282000Y609000D02*
G01Y597000D01*
G01X276000D01*
G02X272000Y601000I0J4000D01*
G01Y605000D01*
G02X276000Y609000I4000J0D01*
G01X282000D01*
D02*
G37*
G36*
G01X442250Y178290D02*
G01X430250D01*
G01Y184290D01*
G02X434250Y188290I4000J0D01*
G01X438250D01*
G02X442250Y184290I0J-4000D01*
G01Y178290D01*
D02*
G37*
G36*
G01X372049Y608491D02*
G01Y596491D01*
G01X366049D01*
G02X362049Y600491I0J4000D01*
G01Y604491D01*
G02X366049Y608491I4000J0D01*
G01X372049D01*
D02*
G37*
G36*
G01X628000Y617000D02*
G01X640000D01*
G01Y611000D01*
G02X636000Y607000I-4000J0D01*
G01X632000D01*
G02X628000Y611000I0J4000D01*
G01Y617000D01*
D02*
G37*
G36*
G01X468750Y319710D02*
G01X480750D01*
G01Y313710D01*
G02X476750Y309710I-4000J0D01*
G01X472750D01*
G02X468750Y313710I0J4000D01*
G01Y319710D01*
D02*
G37*
G36*
G01X772500Y683500D02*
G01X784500D01*
G01Y677500D01*
G02X780500Y673500I-4000J0D01*
G01X776500D01*
G02X772500Y677500I0J4000D01*
G01Y683500D01*
D02*
G37*
D19*
X311750Y733000D02*
D03*
X299250D02*
D03*
X286750D02*
D03*
X274250D02*
D03*
X128750Y733500D02*
D03*
X141250D02*
D03*
X153750D02*
D03*
X166250D02*
D03*
X178750D02*
D03*
X191250D02*
D03*
X1423750Y735500D02*
D03*
X1273750D02*
D03*
X927500Y736000D02*
D03*
X570000D02*
D03*
X607500D02*
D03*
X557500D02*
D03*
X940000D02*
D03*
X1436250Y735500D02*
D03*
X1286250D02*
D03*
X582500Y736000D02*
D03*
X595000D02*
D03*
X620000D02*
D03*
X632500D02*
D03*
X645000D02*
D03*
X657500D02*
D03*
X670000D02*
D03*
X682500D02*
D03*
X915000D02*
D03*
X902500D02*
D03*
X890000D02*
D03*
X877500D02*
D03*
X865000D02*
D03*
X852500D02*
D03*
X840000D02*
D03*
X1311250Y735500D02*
D03*
X1298750D02*
D03*
X1261250D02*
D03*
X1248750D02*
D03*
X1461250D02*
D03*
X1448750D02*
D03*
X1411250D02*
D03*
X1398750D02*
D03*
D20*
X248750Y762000D02*
D03*
X337250D02*
D03*
X103250Y762500D02*
D03*
X216750D02*
D03*
X1486750Y764500D02*
D03*
X1336750D02*
D03*
X1373250D02*
D03*
X1223250D02*
D03*
X965500Y765000D02*
D03*
X814500D02*
D03*
X708000D02*
D03*
X532000D02*
D03*
D21*
X275000Y589000D02*
D03*
Y573000D02*
D03*
X365000Y588000D02*
D03*
Y572000D02*
D03*
X1283000Y597000D02*
D03*
X1269000Y596000D02*
D03*
X1421000Y534000D02*
D03*
X1438000D02*
D03*
Y518000D02*
D03*
X1421000D02*
D03*
X1269000Y612000D02*
D03*
X1283000Y581000D02*
D03*
D22*
X301002Y337250D02*
D03*
Y282750D02*
D03*
Y248250D02*
D03*
Y193750D02*
D03*
D23*
X357900Y310243D02*
D03*
X412400D02*
D03*
D24*
X1146750Y256050D02*
D03*
Y243350D02*
D03*
Y230650D02*
D03*
Y217950D02*
D03*
X1097250D02*
D03*
Y230650D02*
D03*
Y243350D02*
D03*
Y256050D02*
D03*
X1067750D02*
D03*
Y243350D02*
D03*
Y230650D02*
D03*
Y217950D02*
D03*
X1018250D02*
D03*
Y230650D02*
D03*
Y243350D02*
D03*
Y256050D02*
D03*
X983750D02*
D03*
Y243350D02*
D03*
Y230650D02*
D03*
Y217950D02*
D03*
X934250D02*
D03*
Y230650D02*
D03*
Y243350D02*
D03*
Y256050D02*
D03*
D25*
X1409350Y408650D02*
D03*
X1396650D02*
D03*
X1383950D02*
D03*
X1396650Y461350D02*
D03*
X1409350D02*
D03*
X1422050D02*
D03*
Y408650D02*
D03*
X1383950Y461350D02*
D03*
X1341050Y653350D02*
D03*
X1328350D02*
D03*
X234650Y574650D02*
D03*
X247350D02*
D03*
X221950D02*
D03*
X260050D02*
D03*
X221950Y627350D02*
D03*
X234650D02*
D03*
X247350D02*
D03*
X260050D02*
D03*
X1328350Y600650D02*
D03*
X1341050D02*
D03*
X1315650Y653350D02*
D03*
X1302950D02*
D03*
Y600650D02*
D03*
X1315650D02*
D03*
D26*
X1317000Y345000D02*
D03*
X1327000D02*
D03*
X1381500Y310000D02*
D03*
X1371500D02*
D03*
Y319000D02*
D03*
X1381500D02*
D03*
X565000Y279000D02*
D03*
X555000Y260000D02*
D03*
X222983Y483019D02*
D03*
Y474007D02*
D03*
X397995Y430269D02*
D03*
X432990Y493770D02*
D03*
Y474770D02*
D03*
X555000Y333000D02*
D03*
X767756Y598000D02*
D03*
X808000Y589000D02*
D03*
X808250Y598000D02*
D03*
X747750Y628000D02*
D03*
X798378D02*
D03*
X747902Y618000D02*
D03*
X798378D02*
D03*
X778000Y568000D02*
D03*
X768378D02*
D03*
X778378Y545000D02*
D03*
X768547D02*
D03*
X397995Y412169D02*
D03*
Y421169D02*
D03*
X806000Y535000D02*
D03*
X808378Y618000D02*
D03*
X718378Y628000D02*
D03*
X718000Y618000D02*
D03*
X778000Y536000D02*
D03*
X718000Y598000D02*
D03*
X718000Y546000D02*
D03*
Y537000D02*
D03*
X717750Y578000D02*
D03*
X1393500Y713400D02*
D03*
Y686000D02*
D03*
X1232500Y713400D02*
D03*
Y686000D02*
D03*
X1449000Y407000D02*
D03*
X1185125Y503625D02*
D03*
X1185096Y493404D02*
D03*
X1185000Y418500D02*
D03*
X818378Y618000D02*
D03*
X707000Y687000D02*
D03*
Y661000D02*
D03*
X728378Y628000D02*
D03*
X728000Y618000D02*
D03*
Y598000D02*
D03*
X727750Y578000D02*
D03*
X1082786Y545800D02*
D03*
X973000Y546000D02*
D03*
X982500Y518500D02*
D03*
X983000Y508500D02*
D03*
Y498500D02*
D03*
X1024000Y483000D02*
D03*
X983000Y398500D02*
D03*
X816000Y535000D02*
D03*
X788000Y536000D02*
D03*
X728000Y546000D02*
D03*
Y537000D02*
D03*
X1464000Y311000D02*
D03*
X1557500Y269000D02*
D03*
X1557500Y260000D02*
D03*
X1553000Y212600D02*
D03*
Y222500D02*
D03*
X1477751Y270502D02*
D03*
X1453500Y269000D02*
D03*
X1453500Y260000D02*
D03*
X1381500Y346000D02*
D03*
X1317000Y336000D02*
D03*
Y319000D02*
D03*
X1373751Y270502D02*
D03*
X1449000Y222500D02*
D03*
Y212600D02*
D03*
X1308750Y188000D02*
D03*
X1224000Y244000D02*
D03*
Y234000D02*
D03*
X1557500Y180000D02*
D03*
X1557500Y171000D02*
D03*
X1553000Y123600D02*
D03*
Y133500D02*
D03*
X1477751Y181502D02*
D03*
X1453500Y180000D02*
D03*
X1453500Y171000D02*
D03*
X1373751Y181502D02*
D03*
X1449000Y133500D02*
D03*
Y123600D02*
D03*
X1309000Y101000D02*
D03*
X1162000Y364000D02*
D03*
X1185000Y363500D02*
D03*
X983000Y378500D02*
D03*
Y368500D02*
D03*
X1131000Y162000D02*
D03*
X1013000D02*
D03*
Y121000D02*
D03*
X1131000D02*
D03*
Y112000D02*
D03*
X1013000D02*
D03*
X895000Y162000D02*
D03*
X777000D02*
D03*
X895000Y121000D02*
D03*
Y112000D02*
D03*
X777000Y121000D02*
D03*
Y112000D02*
D03*
X492000Y657000D02*
D03*
Y648000D02*
D03*
X367500Y757000D02*
D03*
X404995Y494269D02*
D03*
X407995Y421169D02*
D03*
Y412169D02*
D03*
X659000Y162000D02*
D03*
Y121000D02*
D03*
Y112000D02*
D03*
X565000Y288000D02*
D03*
X555000Y249900D02*
D03*
X201500Y277000D02*
D03*
X113000Y297000D02*
D03*
X25000Y297100D02*
D03*
X113000Y288000D02*
D03*
X25000Y288100D02*
D03*
X432000Y155000D02*
D03*
Y146000D02*
D03*
Y137000D02*
D03*
Y128000D02*
D03*
X201000Y186000D02*
D03*
X24000Y98000D02*
D03*
Y83000D02*
D03*
X555000Y315000D02*
D03*
X758547Y545000D02*
D03*
X788378D02*
D03*
X757902Y618000D02*
D03*
X757750Y628000D02*
D03*
X788000Y568000D02*
D03*
X758378D02*
D03*
X777756Y598000D02*
D03*
X798250D02*
D03*
X798000Y589000D02*
D03*
X788378Y628000D02*
D03*
Y618000D02*
D03*
X1003000Y162000D02*
D03*
X690000Y164000D02*
D03*
X680000D02*
D03*
Y119000D02*
D03*
X690000D02*
D03*
X680000Y128000D02*
D03*
X690000D02*
D03*
X680000Y137000D02*
D03*
X690000D02*
D03*
X680000Y146000D02*
D03*
X690000D02*
D03*
Y155000D02*
D03*
X680000D02*
D03*
X324000Y608000D02*
D03*
X314000D02*
D03*
X407995Y430269D02*
D03*
X222995Y434269D02*
D03*
X232995D02*
D03*
X232983Y443269D02*
D03*
X222983D02*
D03*
X232983Y474007D02*
D03*
X422990Y493770D02*
D03*
X394995Y494269D02*
D03*
X422990Y474770D02*
D03*
X232983Y483019D02*
D03*
X774000Y391000D02*
D03*
X554000Y358000D02*
D03*
X927000Y411000D02*
D03*
X367500Y722500D02*
D03*
X357500D02*
D03*
Y739000D02*
D03*
X367500D02*
D03*
X357500Y748000D02*
D03*
X367500D02*
D03*
X357500Y757000D02*
D03*
X367500Y713500D02*
D03*
X357500D02*
D03*
X237000Y680000D02*
D03*
X227000D02*
D03*
X257000D02*
D03*
X247000D02*
D03*
X35000Y297100D02*
D03*
Y288100D02*
D03*
X35000Y278100D02*
D03*
X25000D02*
D03*
X35000Y269100D02*
D03*
X25000D02*
D03*
X123000Y288000D02*
D03*
Y297000D02*
D03*
X211500Y277000D02*
D03*
X222000D02*
D03*
X232000D02*
D03*
X222000Y186000D02*
D03*
X232000D02*
D03*
X211000D02*
D03*
X405000Y607000D02*
D03*
X415000D02*
D03*
X502000Y648000D02*
D03*
Y657000D02*
D03*
X492000Y677000D02*
D03*
X502000D02*
D03*
X492000Y686000D02*
D03*
X502000D02*
D03*
Y695000D02*
D03*
X492000D02*
D03*
Y704000D02*
D03*
X502000D02*
D03*
X492000Y713000D02*
D03*
X502000D02*
D03*
X523000D02*
D03*
X513000D02*
D03*
X565000Y315000D02*
D03*
Y324000D02*
D03*
X555000D02*
D03*
X565000Y333000D02*
D03*
X555000Y342000D02*
D03*
X565000D02*
D03*
X564000Y358000D02*
D03*
X555000Y279000D02*
D03*
Y288000D02*
D03*
X565000Y260000D02*
D03*
Y249900D02*
D03*
X680000Y110000D02*
D03*
X690000D02*
D03*
X649000Y112000D02*
D03*
Y121000D02*
D03*
Y130000D02*
D03*
X659000D02*
D03*
Y144000D02*
D03*
X649000D02*
D03*
X659000Y153000D02*
D03*
X649000D02*
D03*
Y162000D02*
D03*
X916000Y110000D02*
D03*
X926000D02*
D03*
X916000Y119000D02*
D03*
X926000D02*
D03*
Y128000D02*
D03*
X916000D02*
D03*
Y137000D02*
D03*
X926000D02*
D03*
X916000Y146000D02*
D03*
X926000D02*
D03*
Y155000D02*
D03*
X916000D02*
D03*
X926000Y164000D02*
D03*
X916000D02*
D03*
X885000Y112000D02*
D03*
Y121000D02*
D03*
Y130000D02*
D03*
X895000D02*
D03*
X885000Y144000D02*
D03*
X895000D02*
D03*
Y153000D02*
D03*
X885000D02*
D03*
Y162000D02*
D03*
X798000Y110000D02*
D03*
X808000D02*
D03*
X808000Y119000D02*
D03*
X798000D02*
D03*
X808000Y128000D02*
D03*
X798000D02*
D03*
Y137000D02*
D03*
X808000D02*
D03*
Y146000D02*
D03*
X798000D02*
D03*
Y155000D02*
D03*
X808000D02*
D03*
Y164000D02*
D03*
X798000D02*
D03*
X777000Y153000D02*
D03*
X767000D02*
D03*
Y144000D02*
D03*
X777000D02*
D03*
X767000Y112000D02*
D03*
Y130000D02*
D03*
X777000D02*
D03*
X767000Y121000D02*
D03*
Y162000D02*
D03*
X1280000Y101000D02*
D03*
X1290000D02*
D03*
X1289750Y188000D02*
D03*
X1279750D02*
D03*
X1299000Y101000D02*
D03*
X1298750Y188000D02*
D03*
X1214000Y234000D02*
D03*
Y244000D02*
D03*
X1163000Y463000D02*
D03*
X1173000D02*
D03*
X937000Y493000D02*
D03*
X927000D02*
D03*
X937000Y520000D02*
D03*
X927000D02*
D03*
X1072786Y545800D02*
D03*
X1073000Y535000D02*
D03*
X1083000D02*
D03*
X1106000Y548000D02*
D03*
X1116000D02*
D03*
X1064000Y575000D02*
D03*
X1054000D02*
D03*
X1064250Y588000D02*
D03*
X1054250D02*
D03*
X1054000Y602000D02*
D03*
X1064000D02*
D03*
X1034000D02*
D03*
X1044000D02*
D03*
X1155786Y545800D02*
D03*
X1145786D02*
D03*
X1403500Y686000D02*
D03*
X1242500D02*
D03*
X1443500Y269000D02*
D03*
X1195125Y503625D02*
D03*
X1195000Y418500D02*
D03*
X973000Y508500D02*
D03*
Y378500D02*
D03*
Y398500D02*
D03*
X1034000Y483000D02*
D03*
X1327000Y319000D02*
D03*
Y336000D02*
D03*
X1439000Y407000D02*
D03*
X1547500Y269000D02*
D03*
Y180000D02*
D03*
X1443500D02*
D03*
X572000Y110000D02*
D03*
X113000Y269000D02*
D03*
Y278000D02*
D03*
X562000Y164000D02*
D03*
X1023500Y454000D02*
D03*
Y463000D02*
D03*
X1464000Y349000D02*
D03*
X1013000Y130000D02*
D03*
X1131000D02*
D03*
X1381500Y355000D02*
D03*
X1044000Y110000D02*
D03*
X1034000Y164000D02*
D03*
X1024000Y509000D02*
D03*
X1449000Y420000D02*
D03*
X1449000Y440000D02*
D03*
X1449000Y430000D02*
D03*
X1024000Y496000D02*
D03*
X1317000Y354000D02*
D03*
X1023000Y415000D02*
D03*
X1232500Y695400D02*
D03*
Y704400D02*
D03*
X1393500Y695400D02*
D03*
Y704400D02*
D03*
X1464000Y320000D02*
D03*
X1443500Y189000D02*
D03*
Y278000D02*
D03*
X1547500Y189000D02*
D03*
Y278000D02*
D03*
X1182000Y581000D02*
D03*
X1034000Y509000D02*
D03*
Y496000D02*
D03*
X1152000Y504000D02*
D03*
X1162000D02*
D03*
X1195096Y493404D02*
D03*
X983000Y438500D02*
D03*
X973000D02*
D03*
X1033500Y463000D02*
D03*
Y454000D02*
D03*
Y445000D02*
D03*
X1023500D02*
D03*
X1033000Y436000D02*
D03*
X1023000D02*
D03*
Y424000D02*
D03*
X1033000D02*
D03*
Y415000D02*
D03*
Y406000D02*
D03*
X1023000D02*
D03*
Y397000D02*
D03*
X1033000D02*
D03*
Y388000D02*
D03*
X1023000D02*
D03*
X1152000Y364000D02*
D03*
X1195000Y363500D02*
D03*
X1121000Y162000D02*
D03*
Y153000D02*
D03*
X1131000D02*
D03*
X1121000Y144000D02*
D03*
X1131000D02*
D03*
X1121000Y130000D02*
D03*
Y121000D02*
D03*
Y112000D02*
D03*
X422000Y155000D02*
D03*
Y146000D02*
D03*
Y137000D02*
D03*
Y128000D02*
D03*
X34000Y83000D02*
D03*
Y98000D02*
D03*
X572000Y164000D02*
D03*
X562000Y137000D02*
D03*
X572000D02*
D03*
Y128000D02*
D03*
X562000D02*
D03*
Y119000D02*
D03*
X572000D02*
D03*
X562000Y110000D02*
D03*
X572000Y155000D02*
D03*
X562000D02*
D03*
X572000Y146000D02*
D03*
X562000D02*
D03*
X1371500Y355000D02*
D03*
Y346000D02*
D03*
X1327000Y354000D02*
D03*
X1371500Y328000D02*
D03*
X1381500D02*
D03*
Y337000D02*
D03*
X1371500D02*
D03*
X1454000Y311000D02*
D03*
Y320000D02*
D03*
Y331000D02*
D03*
X1464000D02*
D03*
X1454000Y340000D02*
D03*
X1464000D02*
D03*
X1454000Y349000D02*
D03*
X784000Y391000D02*
D03*
X1439000Y420000D02*
D03*
Y430000D02*
D03*
X1439000Y440000D02*
D03*
X1172000Y590000D02*
D03*
X1182000D02*
D03*
X1172000Y581000D02*
D03*
X717000Y687000D02*
D03*
Y661000D02*
D03*
X1242500Y695400D02*
D03*
Y713400D02*
D03*
Y704400D02*
D03*
X1403500Y713400D02*
D03*
Y704400D02*
D03*
Y695400D02*
D03*
X1068000Y343000D02*
D03*
X1058000D02*
D03*
X973000Y555000D02*
D03*
X983000D02*
D03*
X973000Y533500D02*
D03*
X983000D02*
D03*
X983000Y546000D02*
D03*
X972500Y518500D02*
D03*
X973000Y498500D02*
D03*
Y368500D02*
D03*
X937000Y438000D02*
D03*
X927000D02*
D03*
Y474000D02*
D03*
X937000D02*
D03*
Y465000D02*
D03*
X927000D02*
D03*
X937000Y456000D02*
D03*
X927000D02*
D03*
X937000Y447000D02*
D03*
X927000D02*
D03*
Y429000D02*
D03*
X937000D02*
D03*
Y420000D02*
D03*
X927000D02*
D03*
X937000Y411000D02*
D03*
Y402000D02*
D03*
X927000D02*
D03*
X937000Y393000D02*
D03*
X927000D02*
D03*
X937000Y381000D02*
D03*
X927000D02*
D03*
X774000Y382000D02*
D03*
X784000D02*
D03*
Y373000D02*
D03*
X774000D02*
D03*
X784000Y364000D02*
D03*
X774000D02*
D03*
X784000Y355000D02*
D03*
X774000D02*
D03*
Y346000D02*
D03*
X784000D02*
D03*
X774000Y337000D02*
D03*
X784000D02*
D03*
Y328000D02*
D03*
X774000D02*
D03*
X784000Y319000D02*
D03*
X774000D02*
D03*
Y310000D02*
D03*
X784000D02*
D03*
X774000Y301000D02*
D03*
X784000D02*
D03*
Y292000D02*
D03*
X774000D02*
D03*
X784000Y283000D02*
D03*
X774000D02*
D03*
X784000Y268000D02*
D03*
X774000D02*
D03*
Y259000D02*
D03*
X784000D02*
D03*
X1543000Y212600D02*
D03*
Y222500D02*
D03*
Y123600D02*
D03*
Y133500D02*
D03*
X1400000Y97000D02*
D03*
X1410000D02*
D03*
X1470500Y96500D02*
D03*
X1460500D02*
D03*
X1477751Y261502D02*
D03*
X1487751D02*
D03*
X1477751Y172502D02*
D03*
X1487751D02*
D03*
Y270502D02*
D03*
Y181502D02*
D03*
X1439000Y212600D02*
D03*
Y222500D02*
D03*
Y123600D02*
D03*
Y133500D02*
D03*
X1441000Y97000D02*
D03*
X1431000D02*
D03*
X1500000Y96000D02*
D03*
X1490000D02*
D03*
X1383751Y261502D02*
D03*
X1373751D02*
D03*
Y172502D02*
D03*
X1383751D02*
D03*
Y270502D02*
D03*
Y181502D02*
D03*
X1003000Y153000D02*
D03*
X1013000D02*
D03*
X1003000Y144000D02*
D03*
X1013000D02*
D03*
X1003000Y121000D02*
D03*
X1557500Y278000D02*
D03*
Y189000D02*
D03*
X1547500Y260000D02*
D03*
Y171000D02*
D03*
X1453500Y278000D02*
D03*
Y189000D02*
D03*
X1443500Y260000D02*
D03*
Y171000D02*
D03*
X1044000Y164000D02*
D03*
X1034000Y110000D02*
D03*
X1044000Y119000D02*
D03*
X1034000D02*
D03*
Y146000D02*
D03*
X1044000D02*
D03*
X1034000Y137000D02*
D03*
X1044000D02*
D03*
X1034000Y128000D02*
D03*
X1044000D02*
D03*
X1034000Y155000D02*
D03*
X1044000D02*
D03*
X1003000Y130000D02*
D03*
Y112000D02*
D03*
X123000Y278000D02*
D03*
Y269000D02*
D03*
D27*
X305000Y78700D02*
D03*
X320000D02*
D03*
X395000D02*
D03*
X410000D02*
D03*
X440000D02*
D03*
X455000D02*
D03*
X350000D02*
D03*
X365000D02*
D03*
X335000D02*
D03*
X380000D02*
D03*
X425000D02*
D03*
X1162500Y721300D02*
D03*
X1132500D02*
D03*
X1072500D02*
D03*
X1102500D02*
D03*
X577500Y78700D02*
D03*
X592500D02*
D03*
X607500D02*
D03*
X622500D02*
D03*
X637500D02*
D03*
X652500D02*
D03*
X667500D02*
D03*
X682500D02*
D03*
X952500D02*
D03*
X937500D02*
D03*
X922500D02*
D03*
X907500D02*
D03*
X892500D02*
D03*
X877500D02*
D03*
X862500D02*
D03*
X847500D02*
D03*
X1037500D02*
D03*
X1052500D02*
D03*
X1067500D02*
D03*
X1082500D02*
D03*
X1097500D02*
D03*
X1112500D02*
D03*
X1127500D02*
D03*
X1142500D02*
D03*
X1322500D02*
D03*
X1292500D02*
D03*
X1262500D02*
D03*
X1232500D02*
D03*
X1217500D02*
D03*
X1247500D02*
D03*
X1277500D02*
D03*
X1307500D02*
D03*
X1397500D02*
D03*
X1412500D02*
D03*
X1427500D02*
D03*
X1442500D02*
D03*
X1457500D02*
D03*
X1472500D02*
D03*
X1487500D02*
D03*
X1502500D02*
D03*
X1682500D02*
D03*
X1667500D02*
D03*
X1652500D02*
D03*
X1637500D02*
D03*
X1622500D02*
D03*
X1607500D02*
D03*
X1592500D02*
D03*
X1577500D02*
D03*
X1057500Y721300D02*
D03*
X1087500D02*
D03*
X1117500D02*
D03*
X1147500D02*
D03*
D28*
X278950Y26800D02*
D03*
X481050D02*
D03*
X1188550Y773200D02*
D03*
X1031450D02*
D03*
X1708550Y26800D02*
D03*
X1551450D02*
D03*
X1528550D02*
D03*
X1371450D02*
D03*
X1348550D02*
D03*
X1191450D02*
D03*
X1168550D02*
D03*
X978550D02*
D03*
X1011450D02*
D03*
X821450D02*
D03*
X708550D02*
D03*
X551450D02*
D03*
D29*
X1301002Y536000D02*
D03*
Y554000D02*
D03*
D31*
X828500Y159003D02*
D03*
X833500D02*
D03*
X838500D02*
D03*
X843500D02*
D03*
X848500D02*
D03*
X853500D02*
D03*
X858500D02*
D03*
X863500D02*
D03*
Y110997D02*
D03*
X858500D02*
D03*
X853500D02*
D03*
X848500D02*
D03*
X843500D02*
D03*
X838500D02*
D03*
X833500D02*
D03*
X828500D02*
D03*
X710500D02*
D03*
X715500D02*
D03*
X720500D02*
D03*
X725500D02*
D03*
X730500D02*
D03*
X735500D02*
D03*
X740500D02*
D03*
X745500D02*
D03*
Y159003D02*
D03*
X740500D02*
D03*
X735500D02*
D03*
X730500D02*
D03*
X725500D02*
D03*
X720500D02*
D03*
X715500D02*
D03*
X710500D02*
D03*
X1064500D02*
D03*
X1069500D02*
D03*
X1074500D02*
D03*
X1079500D02*
D03*
X1084500D02*
D03*
X1089500D02*
D03*
X1094500D02*
D03*
X1099500D02*
D03*
Y110997D02*
D03*
X1094500D02*
D03*
X1089500D02*
D03*
X1084500D02*
D03*
X1079500D02*
D03*
X1074500D02*
D03*
X1069500D02*
D03*
X1064500D02*
D03*
X946500D02*
D03*
X951500D02*
D03*
X956500D02*
D03*
X961500D02*
D03*
X966500D02*
D03*
X971500D02*
D03*
X976500D02*
D03*
X981500D02*
D03*
Y159003D02*
D03*
X976500D02*
D03*
X971500D02*
D03*
X966500D02*
D03*
X961500D02*
D03*
X956500D02*
D03*
X951500D02*
D03*
X946500D02*
D03*
X592500D02*
D03*
X597500D02*
D03*
X602500D02*
D03*
X607500D02*
D03*
X612500D02*
D03*
X617500D02*
D03*
X622500D02*
D03*
X627500D02*
D03*
Y110997D02*
D03*
X622500D02*
D03*
X617500D02*
D03*
X612500D02*
D03*
X607500D02*
D03*
X602500D02*
D03*
X597500D02*
D03*
X592500D02*
D03*
D32*
X870003Y152500D02*
D03*
Y147500D02*
D03*
Y142500D02*
D03*
Y137500D02*
D03*
Y132500D02*
D03*
Y127500D02*
D03*
Y122500D02*
D03*
Y117500D02*
D03*
X821997D02*
D03*
Y122500D02*
D03*
Y127500D02*
D03*
Y132500D02*
D03*
Y137500D02*
D03*
Y142500D02*
D03*
Y147500D02*
D03*
Y152500D02*
D03*
X703997D02*
D03*
Y147500D02*
D03*
Y142500D02*
D03*
Y137500D02*
D03*
Y132500D02*
D03*
Y127500D02*
D03*
Y122500D02*
D03*
Y117500D02*
D03*
X752003D02*
D03*
Y122500D02*
D03*
Y127500D02*
D03*
Y132500D02*
D03*
Y137500D02*
D03*
Y142500D02*
D03*
Y147500D02*
D03*
Y152500D02*
D03*
X1106003D02*
D03*
Y147500D02*
D03*
Y142500D02*
D03*
Y137500D02*
D03*
Y132500D02*
D03*
Y127500D02*
D03*
Y122500D02*
D03*
Y117500D02*
D03*
X1057997D02*
D03*
Y122500D02*
D03*
Y127500D02*
D03*
Y132500D02*
D03*
Y137500D02*
D03*
Y142500D02*
D03*
Y147500D02*
D03*
Y152500D02*
D03*
X939997D02*
D03*
Y147500D02*
D03*
Y142500D02*
D03*
Y137500D02*
D03*
Y132500D02*
D03*
Y127500D02*
D03*
Y122500D02*
D03*
Y117500D02*
D03*
X988003D02*
D03*
Y122500D02*
D03*
Y127500D02*
D03*
Y132500D02*
D03*
Y137500D02*
D03*
Y142500D02*
D03*
Y147500D02*
D03*
Y152500D02*
D03*
X634003D02*
D03*
Y147500D02*
D03*
Y142500D02*
D03*
Y137500D02*
D03*
Y132500D02*
D03*
Y127500D02*
D03*
Y122500D02*
D03*
Y117500D02*
D03*
X585997D02*
D03*
Y122500D02*
D03*
Y127500D02*
D03*
Y132500D02*
D03*
Y137500D02*
D03*
Y142500D02*
D03*
Y147500D02*
D03*
Y152500D02*
D03*
D34*
X254000Y330700D02*
D03*
Y318000D02*
D03*
Y305300D02*
D03*
Y292600D02*
D03*
X199517D02*
D03*
Y305300D02*
D03*
Y318000D02*
D03*
Y330700D02*
D03*
Y240200D02*
D03*
Y227500D02*
D03*
Y214800D02*
D03*
Y202100D02*
D03*
X254000D02*
D03*
Y214800D02*
D03*
Y227500D02*
D03*
Y240200D02*
D03*
D36*
X364450Y263242D02*
D03*
X377150D02*
D03*
X389850D02*
D03*
X402550D02*
D03*
Y208759D02*
D03*
X389850D02*
D03*
X377150D02*
D03*
X364450D02*
D03*
D38*
X524500Y691550D02*
D03*
X529500D02*
D03*
X534500D02*
D03*
X549500D02*
D03*
X544500D02*
D03*
X539500D02*
D03*
X549500Y652450D02*
D03*
X544500D02*
D03*
X539500D02*
D03*
X524500D02*
D03*
X529500D02*
D03*
X534500D02*
D03*
D39*
X556550Y684500D02*
D03*
Y679500D02*
D03*
Y674500D02*
D03*
Y659500D02*
D03*
Y664500D02*
D03*
Y669500D02*
D03*
X517450Y659500D02*
D03*
Y664500D02*
D03*
Y669500D02*
D03*
Y679500D02*
D03*
Y674500D02*
D03*
D40*
X517300Y684500D02*
D03*
D42*
X333320Y623552D02*
D03*
X328240D02*
D03*
X323160D02*
D03*
X318080D02*
D03*
X313000D02*
D03*
X307920D02*
D03*
X302840D02*
D03*
X297760D02*
D03*
X292680D02*
D03*
Y680448D02*
D03*
X297760D02*
D03*
X302840D02*
D03*
X307920D02*
D03*
X313000D02*
D03*
X318080D02*
D03*
X323160D02*
D03*
X328240D02*
D03*
X333320D02*
D03*
X423369Y679939D02*
D03*
X418289D02*
D03*
X413209D02*
D03*
X408129D02*
D03*
X403049D02*
D03*
X397969D02*
D03*
X392889D02*
D03*
X387809D02*
D03*
X382729D02*
D03*
Y623043D02*
D03*
X387809D02*
D03*
X392889D02*
D03*
X397969D02*
D03*
X403049D02*
D03*
X408129D02*
D03*
X413209D02*
D03*
X418289D02*
D03*
X423369D02*
D03*
D43*
X284552Y631680D02*
D03*
Y636760D02*
D03*
Y641840D02*
D03*
Y646920D02*
D03*
Y652000D02*
D03*
Y657080D02*
D03*
Y662160D02*
D03*
Y667240D02*
D03*
Y672320D02*
D03*
X341448D02*
D03*
Y667240D02*
D03*
Y662160D02*
D03*
Y657080D02*
D03*
Y652000D02*
D03*
Y646920D02*
D03*
Y641840D02*
D03*
Y636760D02*
D03*
Y631680D02*
D03*
X431497Y631171D02*
D03*
Y636251D02*
D03*
Y641331D02*
D03*
Y646411D02*
D03*
Y651491D02*
D03*
Y656571D02*
D03*
Y661651D02*
D03*
Y666731D02*
D03*
Y671811D02*
D03*
X374601D02*
D03*
Y666731D02*
D03*
Y661651D02*
D03*
Y656571D02*
D03*
Y651491D02*
D03*
Y646411D02*
D03*
Y641331D02*
D03*
Y636251D02*
D03*
Y631171D02*
D03*
D44*
X409745Y458519D02*
D03*
X369745Y452019D02*
D03*
Y458519D02*
D03*
Y471519D02*
D03*
X409745Y452019D02*
D03*
X369745Y465019D02*
D03*
X409745Y471519D02*
D03*
Y465019D02*
D03*
X91000Y292250D02*
D03*
Y298750D02*
D03*
Y305250D02*
D03*
Y311750D02*
D03*
X51000D02*
D03*
Y305250D02*
D03*
Y292250D02*
D03*
Y298750D02*
D03*
X138000Y292250D02*
D03*
Y305250D02*
D03*
Y311750D02*
D03*
X178000D02*
D03*
Y305250D02*
D03*
Y298750D02*
D03*
Y292250D02*
D03*
X138000Y298750D02*
D03*
D45*
X392995Y441769D02*
D03*
X386495D02*
D03*
X379995D02*
D03*
Y481769D02*
D03*
X386495D02*
D03*
X399495D02*
D03*
X392995D02*
D03*
X399495Y441769D02*
D03*
X161250Y282000D02*
D03*
X74250D02*
D03*
X61250D02*
D03*
X80750D02*
D03*
Y322000D02*
D03*
X74250D02*
D03*
X67750D02*
D03*
X61250D02*
D03*
X67750Y282000D02*
D03*
X148250Y322000D02*
D03*
X154750D02*
D03*
X161250D02*
D03*
X167750D02*
D03*
Y282000D02*
D03*
X148250D02*
D03*
X154750D02*
D03*
D47*
X718000Y245000D02*
D03*
X657000Y600000D02*
D03*
X422995Y445269D02*
D03*
X431995Y455269D02*
D03*
X422995D02*
D03*
X738378Y618000D02*
D03*
X810000Y574000D02*
D03*
X794000Y697000D02*
D03*
X628000Y218000D02*
D03*
X637000D02*
D03*
X717000Y520000D02*
D03*
X1197500Y703000D02*
D03*
X1188500D02*
D03*
X1165000D02*
D03*
X1133000D02*
D03*
X1156000D02*
D03*
X1123000D02*
D03*
X1526000Y489000D02*
D03*
X1533000Y461000D02*
D03*
X1126000Y651000D02*
D03*
X1171500Y546500D02*
D03*
X1168000Y481000D02*
D03*
X1163000Y453000D02*
D03*
X1134000Y452000D02*
D03*
Y430000D02*
D03*
X1086000Y703000D02*
D03*
X1077000D02*
D03*
X1054000D02*
D03*
X1045000D02*
D03*
X1022000D02*
D03*
X1012000D02*
D03*
X1015000Y652000D02*
D03*
X810000Y564000D02*
D03*
X738378Y628000D02*
D03*
X1061500Y546500D02*
D03*
X1026596Y546596D02*
D03*
X1105000Y391000D02*
D03*
X1518900Y375950D02*
D03*
X1491900D02*
D03*
X1500900D02*
D03*
X1557000Y239000D02*
D03*
X1547000D02*
D03*
X1490000D02*
D03*
X1480000D02*
D03*
X1477000Y223000D02*
D03*
X1453000Y239000D02*
D03*
X1399000Y343000D02*
D03*
Y323000D02*
D03*
X1443000Y239000D02*
D03*
X1386000D02*
D03*
X1376000D02*
D03*
X1373000Y223000D02*
D03*
X1263000Y217000D02*
D03*
X1212250D02*
D03*
X1547000Y150000D02*
D03*
X1557000D02*
D03*
X1490000D02*
D03*
X1480000D02*
D03*
X1443000D02*
D03*
X1386000D02*
D03*
X1263625Y154000D02*
D03*
X1376000Y150000D02*
D03*
X1213750Y154000D02*
D03*
X1477000Y134000D02*
D03*
X1453000Y150000D02*
D03*
X1373000Y134000D02*
D03*
X1105000Y365000D02*
D03*
X1088000Y375000D02*
D03*
X1101500Y345500D02*
D03*
X1046500D02*
D03*
X1001000Y344500D02*
D03*
X1019000D02*
D03*
X1028000Y344307D02*
D03*
X1010000Y344500D02*
D03*
X1092000Y191000D02*
D03*
X1104000D02*
D03*
X1025280D02*
D03*
X1047000Y191000D02*
D03*
X1119000D02*
D03*
X1013780Y191000D02*
D03*
X999000Y201000D02*
D03*
X940000Y191000D02*
D03*
X956000Y191000D02*
D03*
X929000Y191000D02*
D03*
X846500Y196000D02*
D03*
X688000Y624000D02*
D03*
X648000Y630000D02*
D03*
X679000Y624000D02*
D03*
X519000Y628000D02*
D03*
X509000D02*
D03*
X459000Y746500D02*
D03*
X417000Y746500D02*
D03*
X418400Y711500D02*
D03*
X409400D02*
D03*
X442049Y578491D02*
D03*
X386049Y588491D02*
D03*
X422995Y465269D02*
D03*
X431995D02*
D03*
X327350Y711450D02*
D03*
X318350D02*
D03*
X169920Y712653D02*
D03*
Y621653D02*
D03*
X141920Y713653D02*
D03*
X150920D02*
D03*
X73920Y712653D02*
D03*
X45920Y713653D02*
D03*
X54920D02*
D03*
X143920Y639653D02*
D03*
X125920Y659653D02*
D03*
Y639653D02*
D03*
X141920Y622653D02*
D03*
X150920D02*
D03*
X29920Y659653D02*
D03*
X47920Y639653D02*
D03*
X29920D02*
D03*
X54920Y622653D02*
D03*
X73920Y621653D02*
D03*
X45920Y622653D02*
D03*
X352000Y579000D02*
D03*
X296000Y589000D02*
D03*
X169920Y530653D02*
D03*
Y439653D02*
D03*
X143920Y548653D02*
D03*
X125920Y569153D02*
D03*
X125920Y548653D02*
D03*
X141920Y531653D02*
D03*
X150920D02*
D03*
X29920Y569153D02*
D03*
X47920Y548653D02*
D03*
X29920D02*
D03*
X45920Y531653D02*
D03*
X73920Y530653D02*
D03*
X54920Y531653D02*
D03*
X143920Y457653D02*
D03*
X125920Y478153D02*
D03*
Y457653D02*
D03*
X141920Y440653D02*
D03*
X150920D02*
D03*
X29920Y476653D02*
D03*
X47920Y457653D02*
D03*
X29920D02*
D03*
X54920Y440653D02*
D03*
X73920Y439653D02*
D03*
X45920Y440393D02*
D03*
X598000Y219000D02*
D03*
X490750Y320710D02*
D03*
X428000Y209000D02*
D03*
X418000D02*
D03*
X187000Y257000D02*
D03*
X125940Y386356D02*
D03*
X143920Y366653D02*
D03*
X125920D02*
D03*
X55920Y366153D02*
D03*
X38920Y386153D02*
D03*
X154000Y257000D02*
D03*
X145000D02*
D03*
X58000D02*
D03*
X67000Y257000D02*
D03*
X423000Y166000D02*
D03*
X709000Y245000D02*
D03*
X470000Y95000D02*
D03*
Y105000D02*
D03*
X455000D02*
D03*
Y95000D02*
D03*
X422995Y435269D02*
D03*
X502250Y320710D02*
D03*
X423000Y176000D02*
D03*
X296000Y579000D02*
D03*
X287000Y589000D02*
D03*
Y579000D02*
D03*
X417000Y736500D02*
D03*
X459000Y736500D02*
D03*
X409400Y701500D02*
D03*
X418400D02*
D03*
X318350Y701450D02*
D03*
X327350D02*
D03*
X418000Y239000D02*
D03*
Y229000D02*
D03*
X428000Y239000D02*
D03*
Y229000D02*
D03*
X418000Y219000D02*
D03*
X428000D02*
D03*
X442049Y588491D02*
D03*
X539000Y628000D02*
D03*
Y638000D02*
D03*
X519000D02*
D03*
X559000Y638000D02*
D03*
Y628000D02*
D03*
X549000Y638000D02*
D03*
Y628000D02*
D03*
X529000Y638000D02*
D03*
Y628000D02*
D03*
X509000Y638000D02*
D03*
X679000Y614000D02*
D03*
X688000D02*
D03*
X648000Y620000D02*
D03*
X657000Y610000D02*
D03*
X648000Y600000D02*
D03*
Y610000D02*
D03*
X490750Y330710D02*
D03*
X502250D02*
D03*
X1263625Y125000D02*
D03*
Y135000D02*
D03*
Y144000D02*
D03*
X1213750Y125000D02*
D03*
Y135000D02*
D03*
Y144000D02*
D03*
X1263000Y188000D02*
D03*
Y198000D02*
D03*
Y207000D02*
D03*
X1212250Y198000D02*
D03*
Y188000D02*
D03*
Y207000D02*
D03*
X1134000Y440000D02*
D03*
Y462000D02*
D03*
X1163000Y443000D02*
D03*
X1061500Y556500D02*
D03*
X1044000Y577000D02*
D03*
Y587000D02*
D03*
X1132000Y522000D02*
D03*
X1088000Y385000D02*
D03*
X1126000Y641000D02*
D03*
X1171500Y556500D02*
D03*
X1104000Y201000D02*
D03*
X1092000D02*
D03*
X1015000Y642000D02*
D03*
X1026596Y556596D02*
D03*
X1046500Y335500D02*
D03*
X1105000Y401000D02*
D03*
X1518900Y365950D02*
D03*
X1399000Y353000D02*
D03*
Y333000D02*
D03*
X1533000Y451000D02*
D03*
X67000Y267000D02*
D03*
X58000Y267000D02*
D03*
X154000D02*
D03*
X145000D02*
D03*
X1001000Y334500D02*
D03*
X99000Y257000D02*
D03*
X1550900Y375950D02*
D03*
X1172000Y391000D02*
D03*
X1544000Y461000D02*
D03*
X1504000D02*
D03*
X1513000D02*
D03*
X1495000D02*
D03*
X1522000D02*
D03*
X840000Y700000D02*
D03*
X852000D02*
D03*
X865000D02*
D03*
X878000D02*
D03*
X1541900Y375950D02*
D03*
X1133500Y491000D02*
D03*
X1152000Y532000D02*
D03*
Y522000D02*
D03*
X1132000Y532000D02*
D03*
X1145000Y491000D02*
D03*
Y481000D02*
D03*
X1168000Y491000D02*
D03*
X1156500D02*
D03*
Y481000D02*
D03*
X1133500D02*
D03*
X1163000Y391000D02*
D03*
Y401000D02*
D03*
X1172000D02*
D03*
X1105000Y375000D02*
D03*
X1130000Y191000D02*
D03*
Y201000D02*
D03*
X989000D02*
D03*
Y191000D02*
D03*
X1152000Y201000D02*
D03*
Y191000D02*
D03*
X1141000D02*
D03*
Y201000D02*
D03*
X1119000D02*
D03*
X1047000D02*
D03*
X1059000Y191000D02*
D03*
Y201000D02*
D03*
X1025280Y201000D02*
D03*
X999000Y191000D02*
D03*
X956000Y201000D02*
D03*
X978000Y201000D02*
D03*
Y191000D02*
D03*
X967000Y201000D02*
D03*
Y191000D02*
D03*
X940000Y201000D02*
D03*
X929000D02*
D03*
X1013780D02*
D03*
X759000Y428000D02*
D03*
Y438000D02*
D03*
X768000Y428000D02*
D03*
Y438000D02*
D03*
X750000Y448000D02*
D03*
Y458000D02*
D03*
X739000Y448000D02*
D03*
Y458000D02*
D03*
X715500D02*
D03*
Y448000D02*
D03*
X727000Y458000D02*
D03*
Y448000D02*
D03*
X687000Y469000D02*
D03*
Y459000D02*
D03*
X696500Y469000D02*
D03*
Y459000D02*
D03*
X669000D02*
D03*
Y469000D02*
D03*
X678000D02*
D03*
Y459000D02*
D03*
X705500Y469000D02*
D03*
Y459000D02*
D03*
X717000Y490000D02*
D03*
Y500000D02*
D03*
Y510000D02*
D03*
X846500Y186000D02*
D03*
X682000Y245000D02*
D03*
Y255000D02*
D03*
X709000D02*
D03*
X718000D02*
D03*
X700000Y245000D02*
D03*
Y255000D02*
D03*
X691000D02*
D03*
Y245000D02*
D03*
X673000D02*
D03*
Y255000D02*
D03*
X637000Y228000D02*
D03*
X628000D02*
D03*
X637000Y255000D02*
D03*
Y245000D02*
D03*
X628000Y255000D02*
D03*
Y245000D02*
D03*
X598000Y209000D02*
D03*
X1504000Y451000D02*
D03*
X1509900Y375950D02*
D03*
X1513000Y451000D02*
D03*
X1532900Y375950D02*
D03*
X1509900Y365950D02*
D03*
X1532900D02*
D03*
X1550900D02*
D03*
X1541900D02*
D03*
X1500900D02*
D03*
X1491900D02*
D03*
X1544000Y451000D02*
D03*
X1495000D02*
D03*
X1522000D02*
D03*
X1526000Y499000D02*
D03*
X657488Y712000D02*
D03*
Y702000D02*
D03*
X632488Y712000D02*
D03*
Y702000D02*
D03*
X669988D02*
D03*
Y712000D02*
D03*
X620000Y702000D02*
D03*
Y712000D02*
D03*
X644988Y702000D02*
D03*
Y712000D02*
D03*
X595012D02*
D03*
Y702000D02*
D03*
X582512D02*
D03*
Y712000D02*
D03*
X682488D02*
D03*
Y702000D02*
D03*
X805500Y697000D02*
D03*
Y687000D02*
D03*
X794000D02*
D03*
X1206500Y693000D02*
D03*
Y703000D02*
D03*
X1197500Y693000D02*
D03*
X1165000D02*
D03*
X1156000D02*
D03*
X1123000D02*
D03*
X1133000D02*
D03*
X1188500D02*
D03*
X1176000Y703000D02*
D03*
Y693000D02*
D03*
X902000Y710000D02*
D03*
Y700000D02*
D03*
X890000Y710000D02*
D03*
Y700000D02*
D03*
X878000Y710000D02*
D03*
X865000D02*
D03*
X852000D02*
D03*
X915000D02*
D03*
Y700000D02*
D03*
X840000Y710000D02*
D03*
X1144000Y703000D02*
D03*
Y693000D02*
D03*
X1095000D02*
D03*
Y703000D02*
D03*
X1086000Y693000D02*
D03*
X1077000D02*
D03*
X1065000Y703000D02*
D03*
Y693000D02*
D03*
X1012000D02*
D03*
X1022000D02*
D03*
X1033000Y703000D02*
D03*
Y693000D02*
D03*
X1045000D02*
D03*
X1054000D02*
D03*
X1015000Y676804D02*
D03*
Y666804D02*
D03*
X1126000Y676804D02*
D03*
Y666804D02*
D03*
X1101500Y335500D02*
D03*
X1028000Y334307D02*
D03*
X1010000Y334500D02*
D03*
X1019000D02*
D03*
X992000Y344500D02*
D03*
Y334500D02*
D03*
X1016500Y546500D02*
D03*
Y556500D02*
D03*
X664000Y255000D02*
D03*
Y245000D02*
D03*
X1490000Y249000D02*
D03*
X1547000D02*
D03*
X1557000D02*
D03*
X1480000D02*
D03*
X1490000Y160000D02*
D03*
X1547000D02*
D03*
X1557000D02*
D03*
X1480000D02*
D03*
X1477000Y213000D02*
D03*
Y124000D02*
D03*
X1386000Y249000D02*
D03*
X1443000D02*
D03*
X1453000D02*
D03*
X1376000D02*
D03*
X1386000Y160000D02*
D03*
X1443000D02*
D03*
X1453000D02*
D03*
X1376000D02*
D03*
X1373000Y213000D02*
D03*
Y124000D02*
D03*
X125920Y488153D02*
D03*
X141920Y521653D02*
D03*
X169920Y520653D02*
D03*
X125920Y669653D02*
D03*
X141920Y703653D02*
D03*
X169920Y702653D02*
D03*
X29920Y669653D02*
D03*
X45920Y703653D02*
D03*
X73920Y702653D02*
D03*
X125920Y579153D02*
D03*
X141920Y612653D02*
D03*
X169920Y611653D02*
D03*
X29920Y579153D02*
D03*
X45920Y612653D02*
D03*
X73920Y611653D02*
D03*
X29920Y486653D02*
D03*
X45920Y521653D02*
D03*
X73920Y520653D02*
D03*
X352000Y589000D02*
D03*
X386049Y578491D02*
D03*
X125940Y396356D02*
D03*
X141920Y430653D02*
D03*
X169920Y429653D02*
D03*
X220000Y692000D02*
D03*
Y702000D02*
D03*
X38920Y548653D02*
D03*
Y558653D02*
D03*
Y579153D02*
D03*
Y569153D02*
D03*
X70920Y558653D02*
D03*
Y548653D02*
D03*
X79920D02*
D03*
Y558653D02*
D03*
X47920D02*
D03*
X29920D02*
D03*
X54920Y612653D02*
D03*
X38920Y457653D02*
D03*
Y467653D02*
D03*
Y486653D02*
D03*
Y476653D02*
D03*
X70920Y467653D02*
D03*
Y457653D02*
D03*
X79920Y467653D02*
D03*
Y457653D02*
D03*
X81000Y267000D02*
D03*
Y257000D02*
D03*
X169000D02*
D03*
Y267000D02*
D03*
X47920Y467653D02*
D03*
X29920D02*
D03*
X134920Y457653D02*
D03*
Y467653D02*
D03*
Y488153D02*
D03*
Y478153D02*
D03*
X166920Y467653D02*
D03*
Y457653D02*
D03*
X175920D02*
D03*
Y467653D02*
D03*
X143920D02*
D03*
X125920D02*
D03*
X150920Y521653D02*
D03*
X54920D02*
D03*
X377049Y578491D02*
D03*
Y588491D02*
D03*
X134920Y639653D02*
D03*
Y649653D02*
D03*
Y669653D02*
D03*
Y659653D02*
D03*
X166920Y649653D02*
D03*
Y639653D02*
D03*
X175920D02*
D03*
Y649653D02*
D03*
X143920D02*
D03*
X125920D02*
D03*
X150920Y703653D02*
D03*
X38920Y639653D02*
D03*
Y649653D02*
D03*
Y669653D02*
D03*
Y659653D02*
D03*
X70920Y649653D02*
D03*
Y639653D02*
D03*
X79920D02*
D03*
Y649653D02*
D03*
X47920D02*
D03*
X29920D02*
D03*
X54920Y703653D02*
D03*
X134908Y548639D02*
D03*
Y558639D02*
D03*
X134920Y579153D02*
D03*
Y569153D02*
D03*
X166920Y558653D02*
D03*
Y548653D02*
D03*
X175920D02*
D03*
Y558653D02*
D03*
X143920D02*
D03*
X125920D02*
D03*
X150920Y612653D02*
D03*
X134920Y376653D02*
D03*
Y366653D02*
D03*
X134940Y386356D02*
D03*
Y396356D02*
D03*
X166920Y366653D02*
D03*
Y376653D02*
D03*
X175920D02*
D03*
Y366653D02*
D03*
X143920Y376653D02*
D03*
X125920D02*
D03*
X150920Y430653D02*
D03*
X38920Y396153D02*
D03*
X45920Y430393D02*
D03*
X73920Y429653D02*
D03*
X29920Y396153D02*
D03*
Y386153D02*
D03*
X70920Y376653D02*
D03*
Y366653D02*
D03*
X79920D02*
D03*
Y376653D02*
D03*
X29920Y376153D02*
D03*
Y366153D02*
D03*
X55920Y376153D02*
D03*
X54920Y430653D02*
D03*
X99000Y267000D02*
D03*
X187000D02*
D03*
X90000Y257000D02*
D03*
Y267000D02*
D03*
X178000D02*
D03*
Y257000D02*
D03*
D48*
X263493Y432769D02*
D03*
X283493Y482769D02*
D03*
Y432769D02*
D03*
X278493Y482769D02*
D03*
Y432769D02*
D03*
X268493D02*
D03*
X293493D02*
D03*
Y482769D02*
D03*
X268493D02*
D03*
X273493D02*
D03*
X288493D02*
D03*
X298493D02*
D03*
Y432769D02*
D03*
X263493Y482769D02*
D03*
X288493Y432769D02*
D03*
X273493D02*
D03*
D49*
X330495Y375269D02*
D03*
Y363269D02*
D03*
X360495D02*
D03*
Y375269D02*
D03*
X371245Y388269D02*
D03*
Y400269D02*
D03*
X401245D02*
D03*
Y388269D02*
D03*
X323000Y542019D02*
D03*
Y554019D02*
D03*
X353000D02*
D03*
Y542019D02*
D03*
X401245Y514019D02*
D03*
Y526019D02*
D03*
X371245D02*
D03*
Y514019D02*
D03*
X76000Y354000D02*
D03*
Y342000D02*
D03*
X46000D02*
D03*
Y354000D02*
D03*
X140000D02*
D03*
Y342000D02*
D03*
X170000D02*
D03*
Y354000D02*
D03*
D50*
X232621Y395894D02*
D03*
Y415894D02*
D03*
X232245Y499769D02*
D03*
Y519769D02*
D03*
X329745Y499769D02*
D03*
Y519769D02*
D03*
X329745Y395519D02*
D03*
Y415519D02*
D03*
D51*
X254995Y397769D02*
D03*
X292210Y517371D02*
D03*
X271245Y517269D02*
D03*
X290745Y397769D02*
D03*
X270995D02*
D03*
X306745D02*
D03*
X308210Y517371D02*
D03*
X255245Y517269D02*
D03*
D52*
X805576Y519050D02*
D03*
X1152152Y601100D02*
D03*
X732424Y480950D02*
D03*
X1079000Y575700D02*
D03*
Y588400D02*
D03*
Y601100D02*
D03*
X1152152Y588400D02*
D03*
Y575700D02*
D03*
Y563000D02*
D03*
X1079000D02*
D03*
X732424Y519050D02*
D03*
Y506350D02*
D03*
Y493650D02*
D03*
X805576Y480950D02*
D03*
Y493650D02*
D03*
Y506350D02*
D03*
D53*
X1461500Y709750D02*
D03*
X1300500D02*
D03*
Y690250D02*
D03*
X1259500D02*
D03*
X1461500D02*
D03*
X1420500D02*
D03*
X1259500Y709750D02*
D03*
Y703250D02*
D03*
Y696750D02*
D03*
X1300500Y703250D02*
D03*
Y696750D02*
D03*
X1420500Y709750D02*
D03*
Y703250D02*
D03*
Y696750D02*
D03*
X1461500Y703250D02*
D03*
Y696750D02*
D03*
D54*
X1511000Y414000D02*
D03*
X1535000Y436000D02*
D03*
X1511000D02*
D03*
X1519000D02*
D03*
X1543000D02*
D03*
X1527000D02*
D03*
X1519000Y414000D02*
D03*
X1527000D02*
D03*
X1535000D02*
D03*
X1543000D02*
D03*
D55*
X1283000Y657000D02*
D03*
X524000Y102000D02*
D03*
X404500Y751750D02*
D03*
Y736250D02*
D03*
X446500Y736250D02*
D03*
Y751750D02*
D03*
X1283000Y611000D02*
D03*
X1150000Y460750D02*
D03*
Y445250D02*
D03*
X834000Y185750D02*
D03*
Y201250D02*
D03*
X584000Y222750D02*
D03*
Y207250D02*
D03*
X524000Y86000D02*
D03*
X1539000Y482250D02*
D03*
Y497750D02*
D03*
X1283000Y641000D02*
D03*
X1283000Y627000D02*
D03*
D57*
X1196350Y679050D02*
D03*
X1085350D02*
D03*
X1143650Y640950D02*
D03*
X1032650D02*
D03*
X1143650Y653650D02*
D03*
Y666350D02*
D03*
Y679050D02*
D03*
X1196350Y666350D02*
D03*
Y653650D02*
D03*
Y640950D02*
D03*
X1032650Y653650D02*
D03*
Y666350D02*
D03*
Y679050D02*
D03*
X1085350Y666350D02*
D03*
Y653650D02*
D03*
Y640950D02*
D03*
D58*
X1181000Y518498D02*
D03*
X1180000Y435498D02*
D03*
X1198000D02*
D03*
X1199000Y518498D02*
D03*
D59*
X1121450Y391000D02*
D03*
X253090Y657250D02*
D03*
Y666750D02*
D03*
Y647750D02*
D03*
X227990D02*
D03*
Y666750D02*
D03*
Y657250D02*
D03*
X1121450Y400500D02*
D03*
X1146550D02*
D03*
Y391000D02*
D03*
Y381500D02*
D03*
X1121450D02*
D03*
D60*
X1111242Y521050D02*
D03*
X1056758Y482950D02*
D03*
X1111242D02*
D03*
Y495650D02*
D03*
Y508350D02*
D03*
X1056758Y521050D02*
D03*
Y508350D02*
D03*
Y495650D02*
D03*
D61*
X1052473Y416250D02*
D03*
X1111527Y455250D02*
D03*
Y448750D02*
D03*
Y442250D02*
D03*
Y435750D02*
D03*
Y429250D02*
D03*
Y422750D02*
D03*
Y416250D02*
D03*
X1052473Y422750D02*
D03*
Y429250D02*
D03*
Y435750D02*
D03*
Y442250D02*
D03*
Y448750D02*
D03*
Y455250D02*
D03*
Y461749D02*
D03*
X1111527D02*
D03*
D62*
X738077Y432000D02*
D03*
X739500Y315000D02*
D03*
X530550Y588750D02*
D03*
X486000Y613000D02*
D03*
X591800Y430250D02*
D03*
X288460Y501871D02*
D03*
X274245Y501769D02*
D03*
X330495Y468769D02*
D03*
X330995Y457769D02*
D03*
X330495Y442769D02*
D03*
X286495Y413519D02*
D03*
X234500Y461000D02*
D03*
X274245Y413519D02*
D03*
X619535Y353769D02*
D03*
X599050Y351750D02*
D03*
X729077Y432000D02*
D03*
X608050Y351750D02*
D03*
X600800Y430250D02*
D03*
X243500Y461000D02*
D03*
X295495Y413519D02*
D03*
X265245Y413519D02*
D03*
X321995Y457769D02*
D03*
X321495Y468769D02*
D03*
Y442769D02*
D03*
X265245Y501769D02*
D03*
X297460Y501871D02*
D03*
X730500Y315000D02*
D03*
X495000Y613000D02*
D03*
X539550Y588750D02*
D03*
X628535Y353769D02*
D03*
D63*
X715000Y434500D02*
D03*
X613329Y294907D02*
D03*
X594000Y277500D02*
D03*
X585000D02*
D03*
X613329Y303906D02*
D03*
X715000Y425500D02*
D03*
X585000Y286500D02*
D03*
X594000D02*
D03*
D64*
X707550Y429625D02*
D03*
X715066Y401125D02*
D03*
X697746Y392137D02*
D03*
X704554Y391375D02*
D03*
X711000Y313375D02*
D03*
X707550Y299875D02*
D03*
X560862Y594040D02*
D03*
X560550Y578125D02*
D03*
X546550Y570125D02*
D03*
X484550Y591375D02*
D03*
X560550Y482125D02*
D03*
X611050Y437750D02*
D03*
X649151Y433545D02*
D03*
X560550Y567375D02*
D03*
X560550Y552750D02*
D03*
X560550Y498125D02*
D03*
X688050Y429625D02*
D03*
X629550Y427875D02*
D03*
X611050Y432375D02*
D03*
X546550Y559375D02*
D03*
X502080Y531294D02*
D03*
X484550Y562125D02*
D03*
X484550Y551375D02*
D03*
X474320Y519497D02*
D03*
X476451Y498125D02*
D03*
X476550Y482125D02*
D03*
X681550Y410125D02*
D03*
X658000Y409625D02*
D03*
X643300Y406375D02*
D03*
X645792Y382959D02*
D03*
X671800Y365375D02*
D03*
X694550Y341375D02*
D03*
X662443Y343230D02*
D03*
X661535Y361992D02*
D03*
X655848Y343137D02*
D03*
X632845Y398032D02*
D03*
X626229D02*
D03*
X639427Y326246D02*
D03*
X632561Y331664D02*
D03*
X626300Y331625D02*
D03*
X681233Y315742D02*
D03*
X655550Y318625D02*
D03*
X688050Y299875D02*
D03*
X668550Y299875D02*
D03*
X650034Y299859D02*
D03*
X644233Y313069D02*
D03*
X644233Y296375D02*
D03*
X629550Y299875D02*
D03*
X602800Y297125D02*
D03*
X643300Y401125D02*
D03*
X632845Y403283D02*
D03*
X626229D02*
D03*
X707550Y424375D02*
D03*
X602800Y302375D02*
D03*
X688050Y424375D02*
D03*
X649151Y428295D02*
D03*
X629550Y433125D02*
D03*
X611050Y427125D02*
D03*
X611050Y443000D02*
D03*
X650034Y305109D02*
D03*
X629550Y305125D02*
D03*
X681233Y320992D02*
D03*
X668550Y305125D02*
D03*
X707550D02*
D03*
X688050Y305125D02*
D03*
X681550Y404875D02*
D03*
X655550Y323875D02*
D03*
X639427Y331496D02*
D03*
X715066Y406375D02*
D03*
X655848Y348387D02*
D03*
X694550Y336125D02*
D03*
X711000Y318625D02*
D03*
X658000Y404375D02*
D03*
X671800Y370625D02*
D03*
X661535Y367242D02*
D03*
X645792Y377709D02*
D03*
X484550Y546125D02*
D03*
X546550Y554125D02*
D03*
X560550Y562125D02*
D03*
X484550Y567375D02*
D03*
X546550Y575375D02*
D03*
X484550Y586125D02*
D03*
X560550Y583375D02*
D03*
X560862Y599290D02*
D03*
X560550Y503375D02*
D03*
X476451D02*
D03*
X560550Y487375D02*
D03*
X476550D02*
D03*
X502080Y526044D02*
D03*
X474320Y524748D02*
D03*
X560550Y547500D02*
D03*
X626300Y326375D02*
D03*
X632561Y326414D02*
D03*
X697746Y397387D02*
D03*
X704554Y396625D02*
D03*
X644233Y307819D02*
D03*
X644233Y301625D02*
D03*
X662443Y348480D02*
D03*
D65*
X736300Y422871D02*
D03*
X733695Y406492D02*
D03*
X735969Y384197D02*
D03*
X695175Y405173D02*
D03*
X705375Y383000D02*
D03*
X733425Y364750D02*
D03*
X733248Y344551D02*
D03*
X714164Y377419D02*
D03*
X714127Y351852D02*
D03*
X707079Y328897D02*
D03*
X736180Y307293D02*
D03*
X733625Y326000D02*
D03*
X695175Y322500D02*
D03*
X487925Y602750D02*
D03*
X536425Y596750D02*
D03*
X497175Y576750D02*
D03*
X597424Y419752D02*
D03*
X497425Y556750D02*
D03*
X539925Y536750D02*
D03*
X480550Y516750D02*
D03*
X676300Y390750D02*
D03*
X693625Y381000D02*
D03*
X681608Y381064D02*
D03*
X690675Y352500D02*
D03*
X659423Y335407D02*
D03*
X637012Y393925D02*
D03*
X598523Y402988D02*
D03*
X600669Y383996D02*
D03*
X623350Y377750D02*
D03*
X638310Y346676D02*
D03*
X603863Y344218D02*
D03*
X603600Y364750D02*
D03*
X603675Y325750D02*
D03*
X694443Y314711D02*
D03*
X639334Y318282D02*
D03*
X642262Y393925D02*
D03*
X731050Y422871D02*
D03*
X608925Y325750D02*
D03*
X609113Y344218D02*
D03*
X608850Y364750D02*
D03*
X605919Y383996D02*
D03*
X603773Y402988D02*
D03*
X602674Y419752D02*
D03*
X692425Y413695D02*
D03*
X676358Y381064D02*
D03*
X654173Y335407D02*
D03*
X708914Y377419D02*
D03*
X708877Y351852D02*
D03*
X727998Y344551D02*
D03*
X700425Y405173D02*
D03*
X685425Y352500D02*
D03*
X688375Y381000D02*
D03*
X728445Y406492D02*
D03*
X730719Y384197D02*
D03*
X728175Y364750D02*
D03*
X730930Y307293D02*
D03*
X728375Y326000D02*
D03*
X700425Y322500D02*
D03*
X701829Y328897D02*
D03*
X681550Y390750D02*
D03*
X628600Y377750D02*
D03*
X493175Y602750D02*
D03*
X545175Y536750D02*
D03*
X502675Y556750D02*
D03*
X491925Y576750D02*
D03*
X541675Y596750D02*
D03*
X485800Y516750D02*
D03*
X633060Y346676D02*
D03*
X697675Y413695D02*
D03*
X644585Y318282D02*
D03*
X710625Y383000D02*
D03*
X689193Y314711D02*
D03*
D67*
X1519000Y347350D02*
D03*
Y308650D02*
D03*
X1515000Y347350D02*
D03*
X1507000Y308650D02*
D03*
X1511000D02*
D03*
X1515000D02*
D03*
X1523000D02*
D03*
X1527000D02*
D03*
X1531000D02*
D03*
Y347350D02*
D03*
X1527000D02*
D03*
X1523000D02*
D03*
X1511000D02*
D03*
X1507000D02*
D03*
D68*
X1522501Y254000D02*
D03*
X1513501D02*
D03*
X1409501D02*
D03*
X1418501D02*
D03*
X1522501Y165000D02*
D03*
X1513501D02*
D03*
X1409501D02*
D03*
X1418501D02*
D03*
D69*
X1532251Y247000D02*
D03*
X1503751Y267000D02*
D03*
Y247000D02*
D03*
X1399751Y267000D02*
D03*
X1428251Y247000D02*
D03*
X1399751D02*
D03*
X1503751Y178000D02*
D03*
X1532251Y158000D02*
D03*
X1503751D02*
D03*
X1399751Y178000D02*
D03*
X1428251Y158000D02*
D03*
X1399751D02*
D03*
X147250Y673271D02*
D03*
Y687741D02*
D03*
X164750Y687741D02*
D03*
Y673241D02*
D03*
X51250Y673271D02*
D03*
Y687741D02*
D03*
X68750Y687741D02*
D03*
Y673241D02*
D03*
X147250Y582271D02*
D03*
Y596741D02*
D03*
X164750Y596741D02*
D03*
Y582241D02*
D03*
X51250Y491271D02*
D03*
Y505741D02*
D03*
X68750Y505741D02*
D03*
Y491241D02*
D03*
X147250Y491271D02*
D03*
Y505741D02*
D03*
X164750Y505741D02*
D03*
Y491241D02*
D03*
X147250Y400271D02*
D03*
Y414741D02*
D03*
X164750Y414741D02*
D03*
Y400241D02*
D03*
X68750D02*
D03*
Y414741D02*
D03*
X51250Y414741D02*
D03*
Y400271D02*
D03*
Y582271D02*
D03*
Y596741D02*
D03*
X68750Y596741D02*
D03*
Y582241D02*
D03*
X1428251Y267000D02*
D03*
X1532251D02*
D03*
Y178000D02*
D03*
X1428251D02*
D03*
X1399751Y262000D02*
D03*
Y257000D02*
D03*
Y252000D02*
D03*
X1428251D02*
D03*
Y262000D02*
D03*
X1532251D02*
D03*
Y252000D02*
D03*
X1503751D02*
D03*
Y257000D02*
D03*
Y262000D02*
D03*
X1399751Y173000D02*
D03*
Y168000D02*
D03*
Y163000D02*
D03*
X1428251D02*
D03*
Y173000D02*
D03*
X1532251D02*
D03*
Y163000D02*
D03*
X1503751D02*
D03*
Y168000D02*
D03*
Y173000D02*
D03*
D70*
X1513251Y263502D02*
D03*
X1409251D02*
D03*
X1513251Y174502D02*
D03*
X1409251D02*
D03*
X1418751Y263502D02*
D03*
X1522751D02*
D03*
X1418751Y174502D02*
D03*
X1522751D02*
D03*
D71*
X1437000Y351000D02*
D03*
X1413000Y343000D02*
D03*
Y335000D02*
D03*
Y351000D02*
D03*
X1437000Y343000D02*
D03*
Y335000D02*
D03*
Y327000D02*
D03*
X1413000D02*
D03*
D72*
X1339900Y329000D02*
D03*
Y324000D02*
D03*
Y334000D02*
D03*
X1358100Y324000D02*
D03*
Y329000D02*
D03*
Y334000D02*
D03*
D73*
X1300250Y203000D02*
D03*
X1230500Y212000D02*
D03*
X1300500Y116000D02*
D03*
X1231125Y149000D02*
D03*
X1065000Y370000D02*
D03*
X1179750Y212000D02*
D03*
X1181250Y149000D02*
D03*
X251500Y695000D02*
D03*
X232500D02*
D03*
X242000Y715000D02*
D03*
X1281500Y116000D02*
D03*
X1291000Y136000D02*
D03*
X1250125Y149000D02*
D03*
X1240625Y129000D02*
D03*
X1200250Y149000D02*
D03*
X1190750Y129000D02*
D03*
X1290750Y223000D02*
D03*
X1281250Y203000D02*
D03*
X1198750Y212000D02*
D03*
X1189250Y192000D02*
D03*
X1240000D02*
D03*
X1249500Y212000D02*
D03*
X1074500Y390000D02*
D03*
X1055500D02*
D03*
D74*
X425098Y573982D02*
D03*
X403000Y591000D02*
D03*
X312951Y591509D02*
D03*
X335049Y574491D02*
D03*
X312951D02*
D03*
X335049Y591509D02*
D03*
X425098Y591000D02*
D03*
X403000Y573982D02*
D03*
D75*
X191920Y704153D02*
D03*
Y613153D02*
D03*
X95920Y704153D02*
D03*
Y613153D02*
D03*
X191920Y522153D02*
D03*
Y431153D02*
D03*
X95920Y522153D02*
D03*
Y431153D02*
D03*
X191920Y663153D02*
D03*
Y572153D02*
D03*
X95920Y481153D02*
D03*
X191920D02*
D03*
Y390153D02*
D03*
X95920D02*
D03*
Y572153D02*
D03*
Y663153D02*
D03*
X1331000Y575500D02*
D03*
Y534500D02*
D03*
D76*
X158248Y689741D02*
D03*
X62248D02*
D03*
X158248Y598741D02*
D03*
X62248D02*
D03*
Y507741D02*
D03*
X158248D02*
D03*
Y416741D02*
D03*
X62248D02*
D03*
X153757Y671271D02*
D03*
X158248Y671241D02*
D03*
X153757Y689741D02*
D03*
X57757Y671271D02*
D03*
X62248Y671241D02*
D03*
X57757Y689741D02*
D03*
X153757Y580271D02*
D03*
X158248Y580241D02*
D03*
X153757Y598741D02*
D03*
X57757Y489271D02*
D03*
X62248Y489241D02*
D03*
X57757Y507741D02*
D03*
X153757Y489271D02*
D03*
X158248Y489241D02*
D03*
X153757Y507741D02*
D03*
Y398271D02*
D03*
X158248Y398241D02*
D03*
X153757Y416741D02*
D03*
X57757D02*
D03*
X62248Y398241D02*
D03*
X57757Y398271D02*
D03*
Y580271D02*
D03*
X62248Y580241D02*
D03*
X57757Y598741D02*
D03*
X1406501Y242900D02*
D03*
X1411501D02*
D03*
X1416501D02*
D03*
X1421501Y271100D02*
D03*
Y242900D02*
D03*
X1416501Y271100D02*
D03*
X1411501D02*
D03*
X1406501D02*
D03*
X1510501D02*
D03*
X1515501D02*
D03*
X1520501D02*
D03*
X1510501Y242900D02*
D03*
X1515501D02*
D03*
X1525501D02*
D03*
Y271100D02*
D03*
X1520501Y242900D02*
D03*
X1406501Y182100D02*
D03*
X1411501D02*
D03*
X1416501D02*
D03*
X1406501Y153900D02*
D03*
X1411501D02*
D03*
X1416501D02*
D03*
X1421501Y182100D02*
D03*
Y153900D02*
D03*
X1510501Y182100D02*
D03*
X1515501D02*
D03*
X1520501D02*
D03*
X1525501Y153900D02*
D03*
Y182100D02*
D03*
X1520501Y153900D02*
D03*
X1515501D02*
D03*
X1510501D02*
D03*
D77*
X280995Y457769D02*
D03*
D78*
X255993Y465269D02*
D03*
Y460269D02*
D03*
X305993Y455269D02*
D03*
Y465269D02*
D03*
Y450269D02*
D03*
X255993Y470269D02*
D03*
X305993Y460269D02*
D03*
Y470269D02*
D03*
X255993Y440269D02*
D03*
Y455269D02*
D03*
X305993Y475269D02*
D03*
X255993D02*
D03*
Y445269D02*
D03*
X305993D02*
D03*
X255993Y450269D02*
D03*
X305993Y440269D02*
D03*
D80*
X154723Y223250D02*
D03*
X160423Y116750D02*
D03*
D81*
X122873Y223250D02*
D03*
D82*
X276766Y166708D02*
D03*
X191000Y165000D02*
D03*
X276766Y120708D02*
D03*
X191000Y142000D02*
D03*
Y119000D02*
D03*
X276766Y143708D02*
D03*
D83*
X250550Y26800D02*
D03*
X84450D02*
D03*
D84*
X94823Y189500D02*
D03*
Y211500D02*
D03*
Y200500D02*
D03*
Y178500D02*
D03*
Y156500D02*
D03*
Y145500D02*
D03*
Y134500D02*
D03*
Y167500D02*
D03*
D85*
X134323Y116750D02*
D03*
D86*
X167500Y78700D02*
D03*
X182500D02*
D03*
X152500D02*
D03*
X212500D02*
D03*
X227500D02*
D03*
X197500D02*
D03*
X137500D02*
D03*
X122500D02*
D03*
X107500D02*
D03*
D87*
X360495Y369269D02*
D03*
X330495D02*
D03*
X371245Y394269D02*
D03*
X401245D02*
D03*
X323000Y548019D02*
D03*
X353000D02*
D03*
X401245Y520019D02*
D03*
X371245D02*
D03*
X76000Y348000D02*
D03*
X46000D02*
D03*
X140000D02*
D03*
X170000D02*
D03*
D88*
X391250Y145000D02*
D03*
X1186250Y237000D02*
D03*
X1201750D02*
D03*
X61750Y98000D02*
D03*
X391250Y173000D02*
D03*
X406750D02*
D03*
X391250Y159000D02*
D03*
X406750D02*
D03*
Y145000D02*
D03*
X391250Y131000D02*
D03*
X406750D02*
D03*
X46250Y98000D02*
D03*
X61750Y83000D02*
D03*
X46250D02*
D03*
X730250Y661000D02*
D03*
X745750D02*
D03*
X745750Y687000D02*
D03*
X730250D02*
D03*
D89*
X149000Y671271D02*
D03*
X163000Y689741D02*
D03*
Y671241D02*
D03*
X149000Y689741D02*
D03*
X53000Y671271D02*
D03*
X67000Y689741D02*
D03*
Y671241D02*
D03*
X53000Y689741D02*
D03*
X149000Y580271D02*
D03*
X163000Y598741D02*
D03*
Y580241D02*
D03*
X149000Y598741D02*
D03*
X53000Y489271D02*
D03*
X67000Y507741D02*
D03*
Y489241D02*
D03*
X53000Y507741D02*
D03*
X149000Y489271D02*
D03*
X163000Y507741D02*
D03*
Y489241D02*
D03*
X149000Y507741D02*
D03*
X149000Y398271D02*
D03*
X163000Y416741D02*
D03*
Y398241D02*
D03*
X149000Y416741D02*
D03*
X53000D02*
D03*
X67000Y398241D02*
D03*
Y416741D02*
D03*
X53000Y398271D02*
D03*
Y580271D02*
D03*
X67000Y598741D02*
D03*
Y580241D02*
D03*
X53000Y598741D02*
D03*
D90*
X155989Y683000D02*
D03*
X156000Y678000D02*
D03*
X60000D02*
D03*
X59989Y683000D02*
D03*
X155989Y592000D02*
D03*
X156000Y587000D02*
D03*
X59989Y501000D02*
D03*
X60000Y496000D02*
D03*
X155989Y501000D02*
D03*
X156000Y496000D02*
D03*
X155989Y410000D02*
D03*
X156000Y405000D02*
D03*
X60000D02*
D03*
X59989Y410000D02*
D03*
Y592000D02*
D03*
X60000Y587000D02*
D03*
D91*
X1467546Y613000D02*
D03*
X1366454D02*
D03*
D92*
X1494810Y524968D02*
D03*
X1461200Y525000D02*
D03*
X1229815Y109032D02*
D03*
X1263425Y109000D02*
D03*
X1179940Y109032D02*
D03*
X1213550Y109000D02*
D03*
X1229189Y172032D02*
D03*
X1262800Y172000D02*
D03*
X1178439Y172032D02*
D03*
X1212050Y172000D02*
D03*
D93*
X1395000Y526000D02*
D03*
X1367000D02*
D03*
D94*
X1342968Y104190D02*
D03*
X1343000Y137800D02*
D03*
X1320968Y104190D02*
D03*
X1321000Y137800D02*
D03*
X1342718Y191189D02*
D03*
X1342750Y224800D02*
D03*
X1320718Y191189D02*
D03*
X1320750Y224800D02*
D03*
D95*
X1283450Y164000D02*
D03*
X1344550D02*
D03*
X1283200Y251000D02*
D03*
X1344300D02*
D03*
D96*
X1341500Y317400D02*
D03*
X1356500Y340600D02*
D03*
X1351500D02*
D03*
X1346500D02*
D03*
X1341500D02*
D03*
X1346500Y317400D02*
D03*
X1351500D02*
D03*
X1356500D02*
D03*
D97*
X249000Y142000D02*
D03*
X334766Y143708D02*
D03*
D98*
X167173Y149550D02*
D03*
Y191450D02*
D03*
D99*
X121623Y116900D02*
D03*
D100*
X1428251Y257000D02*
D03*
X1532251D02*
D03*
X1428251Y168000D02*
D03*
X1532251D02*
D03*
D101*
X1417849Y127315D02*
D03*
X1389387D02*
D03*
X1493387D02*
D03*
X1521849D02*
D03*
Y216315D02*
D03*
X1493387D02*
D03*
X1417849D02*
D03*
X1389387D02*
D03*
D102*
X1499650Y340000D02*
D03*
Y336000D02*
D03*
Y332000D02*
D03*
Y328000D02*
D03*
Y324000D02*
D03*
Y320000D02*
D03*
Y316000D02*
D03*
X1538350D02*
D03*
Y320000D02*
D03*
Y324000D02*
D03*
Y328000D02*
D03*
Y332000D02*
D03*
Y336000D02*
D03*
Y340000D02*
D03*
D116*
X846000Y135000D02*
D03*
X728000D02*
D03*
X1082000D02*
D03*
X964000D02*
D03*
X610000D02*
D03*
D117*
X226758Y311650D02*
D03*
Y221150D02*
D03*
D118*
X383500Y236000D02*
D03*
D119*
X537000Y672000D02*
D03*
D123*
X313000Y652000D02*
D03*
X403049Y651491D02*
D03*
D128*
X250000Y372000D02*
D03*
X472000Y593000D02*
D03*
X597000Y486000D02*
D03*
X468300Y478000D02*
D03*
X318369Y434011D02*
D03*
X335369Y387010D02*
D03*
X386000Y365000D02*
D03*
X401370Y379011D02*
D03*
X348369Y489011D02*
D03*
X400369Y536011D02*
D03*
X306000Y554000D02*
D03*
X353000Y521000D02*
D03*
X369000Y554000D02*
D03*
X521000Y440000D02*
D03*
X510000D02*
D03*
X515000Y354000D02*
D03*
X1208000Y468000D02*
D03*
X1191000Y380000D02*
D03*
D180*
X158000Y242000D02*
D03*
X75000Y730000D02*
D03*
X27000Y311000D02*
D03*
X118000Y257000D02*
D03*
Y242000D02*
D03*
X68000D02*
D03*
X27000Y257000D02*
D03*
Y242000D02*
D03*
Y327000D02*
D03*
D183*
X1741200Y444700D02*
D03*
X1588800Y470100D02*
D03*
X1741200D02*
D03*
Y419300D02*
D03*
Y393900D02*
D03*
Y368500D02*
D03*
Y343100D02*
D03*
Y317700D02*
D03*
Y292300D02*
D03*
Y266900D02*
D03*
Y241500D02*
D03*
Y139900D02*
D03*
X1588800Y444700D02*
D03*
Y266900D02*
D03*
Y241500D02*
D03*
Y292300D02*
D03*
Y216100D02*
D03*
Y317700D02*
D03*
Y190700D02*
D03*
Y343100D02*
D03*
Y165300D02*
D03*
Y368500D02*
D03*
Y139900D02*
D03*
Y393900D02*
D03*
Y419300D02*
D03*
X1741200Y165300D02*
D03*
Y190700D02*
D03*
Y216100D02*
D03*
D188*
X389745Y461769D02*
D03*
X1519000Y328000D02*
D03*
D189*
X1620000Y660000D02*
D03*
D190*
X1322000Y627000D02*
D03*
D191*
X158000Y302000D02*
D03*
X71000D02*
D03*
D201*
X1760000Y760000D02*
D03*
X760000D02*
D03*
X1300000Y400000D02*
D03*
X1760000Y40000D02*
D03*
X760000D02*
D03*
X40000Y760000D02*
D03*
Y40000D02*
D03*
D202*
X1697400Y518000D02*
D03*
X1570400D02*
D03*
X1672000D02*
D03*
X1646600D02*
D03*
X1595800D02*
D03*
X1722800D02*
D03*
X1621200D02*
D03*
D203*
X1727950Y660000D02*
D03*
X1512050D02*
D03*
D204*
X1748200Y518000D02*
D03*
M02*
