G04*
G04 #@! TF.GenerationSoftware,Altium Limited,Altium Designer,26.4.1 (12)*
G04*
G04 Layer_Color=16711935*
%FSLAX44Y44*%
%MOMM*%
G71*
G04*
G04 #@! TF.SameCoordinates,5241B6CD-1196-45C0-98BA-B8BA4369621D*
G04*
G04*
G04 #@! TF.FilePolarity,Negative*
G04*
G01*
G75*
%ADD83R,1.2954X1.8542*%
%ADD86R,0.6604X1.0414*%
%ADD103R,0.9524X1.7524*%
%ADD104R,2.2524X3.1524*%
%ADD105R,2.3032X3.2032*%
%ADD106R,1.0032X1.8032*%
G04:AMPARAMS|DCode=107|XSize=1.1032mm|YSize=1.0032mm|CornerRadius=0.3016mm|HoleSize=0mm|Usage=FLASHONLY|Rotation=0.000|XOffset=0mm|YOffset=0mm|HoleType=Round|Shape=RoundedRectangle|*
%AMROUNDEDRECTD107*
21,1,1.1032,0.4000,0,0,0.0*
21,1,0.5000,1.0032,0,0,0.0*
1,1,0.6032,0.2500,-0.2000*
1,1,0.6032,-0.2500,-0.2000*
1,1,0.6032,-0.2500,0.2000*
1,1,0.6032,0.2500,0.2000*
%
%ADD107ROUNDEDRECTD107*%
G04:AMPARAMS|DCode=112|XSize=0.75mm|YSize=0.7mm|CornerRadius=0.2mm|HoleSize=0mm|Usage=FLASHONLY|Rotation=0.000|XOffset=0mm|YOffset=0mm|HoleType=Round|Shape=RoundedRectangle|*
%AMROUNDEDRECTD112*
21,1,0.7500,0.3000,0,0,0.0*
21,1,0.3500,0.7000,0,0,0.0*
1,1,0.4000,0.1750,-0.1500*
1,1,0.4000,-0.1750,-0.1500*
1,1,0.4000,-0.1750,0.1500*
1,1,0.4000,0.1750,0.1500*
%
%ADD112ROUNDEDRECTD112*%
%ADD113R,0.7524X1.1524*%
%ADD114R,1.4024X1.9524*%
G04:AMPARAMS|DCode=127|XSize=0.75mm|YSize=0.7mm|CornerRadius=0.2mm|HoleSize=0mm|Usage=FLASHONLY|Rotation=90.000|XOffset=0mm|YOffset=0mm|HoleType=Round|Shape=RoundedRectangle|*
%AMROUNDEDRECTD127*
21,1,0.7500,0.3000,0,0,90.0*
21,1,0.3500,0.7000,0,0,90.0*
1,1,0.4000,0.1500,0.1750*
1,1,0.4000,0.1500,-0.1750*
1,1,0.4000,-0.1500,-0.1750*
1,1,0.4000,-0.1500,0.1750*
%
%ADD127ROUNDEDRECTD127*%
%ADD128C,0.8000*%
G04:AMPARAMS|DCode=132|XSize=1.1032mm|YSize=1.0032mm|CornerRadius=0.3016mm|HoleSize=0mm|Usage=FLASHONLY|Rotation=270.000|XOffset=0mm|YOffset=0mm|HoleType=Round|Shape=RoundedRectangle|*
%AMROUNDEDRECTD132*
21,1,1.1032,0.4000,0,0,270.0*
21,1,0.5000,1.0032,0,0,270.0*
1,1,0.6032,-0.2000,-0.2500*
1,1,0.6032,-0.2000,0.2500*
1,1,0.6032,0.2000,0.2500*
1,1,0.6032,0.2000,-0.2500*
%
%ADD132ROUNDEDRECTD132*%
%ADD133O,1.5016X0.4516*%
G04:AMPARAMS|DCode=136|XSize=1.1532mm|YSize=1.0532mm|CornerRadius=0.3141mm|HoleSize=0mm|Usage=FLASHONLY|Rotation=180.000|XOffset=0mm|YOffset=0mm|HoleType=Round|Shape=RoundedRectangle|*
%AMROUNDEDRECTD136*
21,1,1.1532,0.4250,0,0,180.0*
21,1,0.5250,1.0532,0,0,180.0*
1,1,0.6282,-0.2625,0.2125*
1,1,0.6282,0.2625,0.2125*
1,1,0.6282,0.2625,-0.2125*
1,1,0.6282,-0.2625,-0.2125*
%
%ADD136ROUNDEDRECTD136*%
G04:AMPARAMS|DCode=138|XSize=1.8432mm|YSize=0.7932mm|CornerRadius=0.2491mm|HoleSize=0mm|Usage=FLASHONLY|Rotation=180.000|XOffset=0mm|YOffset=0mm|HoleType=Round|Shape=RoundedRectangle|*
%AMROUNDEDRECTD138*
21,1,1.8432,0.2950,0,0,180.0*
21,1,1.3450,0.7932,0,0,180.0*
1,1,0.4982,-0.6725,0.1475*
1,1,0.4982,0.6725,0.1475*
1,1,0.4982,0.6725,-0.1475*
1,1,0.4982,-0.6725,-0.1475*
%
%ADD138ROUNDEDRECTD138*%
G04:AMPARAMS|DCode=139|XSize=1.4032mm|YSize=1.5032mm|CornerRadius=0.3476mm|HoleSize=0mm|Usage=FLASHONLY|Rotation=180.000|XOffset=0mm|YOffset=0mm|HoleType=Round|Shape=RoundedRectangle|*
%AMROUNDEDRECTD139*
21,1,1.4032,0.8080,0,0,180.0*
21,1,0.7080,1.5032,0,0,180.0*
1,1,0.6952,-0.3540,0.4040*
1,1,0.6952,0.3540,0.4040*
1,1,0.6952,0.3540,-0.4040*
1,1,0.6952,-0.3540,-0.4040*
%
%ADD139ROUNDEDRECTD139*%
G04:AMPARAMS|DCode=140|XSize=1.4132mm|YSize=0.7932mm|CornerRadius=0.1754mm|HoleSize=0mm|Usage=FLASHONLY|Rotation=0.000|XOffset=0mm|YOffset=0mm|HoleType=Round|Shape=RoundedRectangle|*
%AMROUNDEDRECTD140*
21,1,1.4132,0.4425,0,0,0.0*
21,1,1.0625,0.7932,0,0,0.0*
1,1,0.3507,0.5313,-0.2213*
1,1,0.3507,-0.5313,-0.2213*
1,1,0.3507,-0.5313,0.2213*
1,1,0.3507,0.5313,0.2213*
%
%ADD140ROUNDEDRECTD140*%
G04:AMPARAMS|DCode=144|XSize=0.65mm|YSize=0.7mm|CornerRadius=0.1875mm|HoleSize=0mm|Usage=FLASHONLY|Rotation=90.000|XOffset=0mm|YOffset=0mm|HoleType=Round|Shape=RoundedRectangle|*
%AMROUNDEDRECTD144*
21,1,0.6500,0.3250,0,0,90.0*
21,1,0.2750,0.7000,0,0,90.0*
1,1,0.3750,0.1625,0.1375*
1,1,0.3750,0.1625,-0.1375*
1,1,0.3750,-0.1625,-0.1375*
1,1,0.3750,-0.1625,0.1375*
%
%ADD144ROUNDEDRECTD144*%
G04:AMPARAMS|DCode=146|XSize=0.375mm|YSize=0.4mm|CornerRadius=0.1188mm|HoleSize=0mm|Usage=FLASHONLY|Rotation=0.000|XOffset=0mm|YOffset=0mm|HoleType=Round|Shape=RoundedRectangle|*
%AMROUNDEDRECTD146*
21,1,0.3750,0.1625,0,0,0.0*
21,1,0.1375,0.4000,0,0,0.0*
1,1,0.2375,0.0688,-0.0813*
1,1,0.2375,-0.0688,-0.0813*
1,1,0.2375,-0.0688,0.0813*
1,1,0.2375,0.0688,0.0813*
%
%ADD146ROUNDEDRECTD146*%
G04:AMPARAMS|DCode=150|XSize=1.5232mm|YSize=0.8032mm|CornerRadius=0.1766mm|HoleSize=0mm|Usage=FLASHONLY|Rotation=90.000|XOffset=0mm|YOffset=0mm|HoleType=Round|Shape=RoundedRectangle|*
%AMROUNDEDRECTD150*
21,1,1.5232,0.4500,0,0,90.0*
21,1,1.1700,0.8032,0,0,90.0*
1,1,0.3532,0.2250,0.5850*
1,1,0.3532,0.2250,-0.5850*
1,1,0.3532,-0.2250,-0.5850*
1,1,0.3532,-0.2250,0.5850*
%
%ADD150ROUNDEDRECTD150*%
%ADD151R,1.6002X1.3970*%
G04:AMPARAMS|DCode=152|XSize=1.8532mm|YSize=2.7532mm|CornerRadius=0.3491mm|HoleSize=0mm|Usage=FLASHONLY|Rotation=180.000|XOffset=0mm|YOffset=0mm|HoleType=Round|Shape=RoundedRectangle|*
%AMROUNDEDRECTD152*
21,1,1.8532,2.0550,0,0,180.0*
21,1,1.1550,2.7532,0,0,180.0*
1,1,0.6982,-0.5775,1.0275*
1,1,0.6982,0.5775,1.0275*
1,1,0.6982,0.5775,-1.0275*
1,1,0.6982,-0.5775,-1.0275*
%
%ADD152ROUNDEDRECTD152*%
G04:AMPARAMS|DCode=165|XSize=1.1532mm|YSize=1.0532mm|CornerRadius=0.3141mm|HoleSize=0mm|Usage=FLASHONLY|Rotation=270.000|XOffset=0mm|YOffset=0mm|HoleType=Round|Shape=RoundedRectangle|*
%AMROUNDEDRECTD165*
21,1,1.1532,0.4250,0,0,270.0*
21,1,0.5250,1.0532,0,0,270.0*
1,1,0.6282,-0.2125,-0.2625*
1,1,0.6282,-0.2125,0.2625*
1,1,0.6282,0.2125,0.2625*
1,1,0.6282,0.2125,-0.2625*
%
%ADD165ROUNDEDRECTD165*%
G04:AMPARAMS|DCode=170|XSize=1.1032mm|YSize=1.1532mm|CornerRadius=0.2006mm|HoleSize=0mm|Usage=FLASHONLY|Rotation=180.000|XOffset=0mm|YOffset=0mm|HoleType=Round|Shape=RoundedRectangle|*
%AMROUNDEDRECTD170*
21,1,1.1032,0.7520,0,0,180.0*
21,1,0.7020,1.1532,0,0,180.0*
1,1,0.4012,-0.3510,0.3760*
1,1,0.4012,0.3510,0.3760*
1,1,0.4012,0.3510,-0.3760*
1,1,0.4012,-0.3510,-0.3760*
%
%ADD170ROUNDEDRECTD170*%
G04:AMPARAMS|DCode=172|XSize=1.1032mm|YSize=1.1532mm|CornerRadius=0.2006mm|HoleSize=0mm|Usage=FLASHONLY|Rotation=90.000|XOffset=0mm|YOffset=0mm|HoleType=Round|Shape=RoundedRectangle|*
%AMROUNDEDRECTD172*
21,1,1.1032,0.7520,0,0,90.0*
21,1,0.7020,1.1532,0,0,90.0*
1,1,0.4012,0.3760,0.3510*
1,1,0.4012,0.3760,-0.3510*
1,1,0.4012,-0.3760,-0.3510*
1,1,0.4012,-0.3760,0.3510*
%
%ADD172ROUNDEDRECTD172*%
%ADD173R,1.2732X3.4732*%
%ADD180C,1.3000*%
%ADD181C,6.2032*%
%ADD182C,1.8032*%
%ADD183C,1.5000*%
%ADD184C,3.2482*%
%ADD185R,1.8032X1.8032*%
%ADD186C,0.6032*%
%ADD187C,0.8032*%
%ADD209R,1.7526X2.9464*%
%ADD210R,1.3335X0.4318*%
%ADD225C,0.4064*%
%ADD231C,0.3500*%
%ADD232R,1.4732X1.2192*%
G04:AMPARAMS|DCode=233|XSize=0.7032mm|YSize=0.9032mm|CornerRadius=0.2266mm|HoleSize=0mm|Usage=FLASHONLY|Rotation=180.000|XOffset=0mm|YOffset=0mm|HoleType=Round|Shape=RoundedRectangle|*
%AMROUNDEDRECTD233*
21,1,0.7032,0.4500,0,0,180.0*
21,1,0.2500,0.9032,0,0,180.0*
1,1,0.4532,-0.1250,0.2250*
1,1,0.4532,0.1250,0.2250*
1,1,0.4532,0.1250,-0.2250*
1,1,0.4532,-0.1250,-0.2250*
%
%ADD233ROUNDEDRECTD233*%
%ADD234C,0.6932*%
G04:AMPARAMS|DCode=235|XSize=1.5232mm|YSize=0.8032mm|CornerRadius=0.1766mm|HoleSize=0mm|Usage=FLASHONLY|Rotation=0.000|XOffset=0mm|YOffset=0mm|HoleType=Round|Shape=RoundedRectangle|*
%AMROUNDEDRECTD235*
21,1,1.5232,0.4500,0,0,0.0*
21,1,1.1700,0.8032,0,0,0.0*
1,1,0.3532,0.5850,-0.2250*
1,1,0.3532,-0.5850,-0.2250*
1,1,0.3532,-0.5850,0.2250*
1,1,0.3532,0.5850,0.2250*
%
%ADD235ROUNDEDRECTD235*%
G04:AMPARAMS|DCode=236|XSize=0.6604mm|YSize=1.5748mm|CornerRadius=0.2159mm|HoleSize=0mm|Usage=FLASHONLY|Rotation=180.000|XOffset=0mm|YOffset=0mm|HoleType=Round|Shape=RoundedRectangle|*
%AMROUNDEDRECTD236*
21,1,0.6604,1.1430,0,0,180.0*
21,1,0.2286,1.5748,0,0,180.0*
1,1,0.4318,-0.1143,0.5715*
1,1,0.4318,0.1143,0.5715*
1,1,0.4318,0.1143,-0.5715*
1,1,0.4318,-0.1143,-0.5715*
%
%ADD236ROUNDEDRECTD236*%
%ADD237R,1.2032X1.8032*%
%ADD238R,1.5032X1.8032*%
%ADD239R,2.0032X1.8032*%
%ADD240R,1.7526X1.6256*%
G04:AMPARAMS|DCode=241|XSize=0.8532mm|YSize=1.1032mm|CornerRadius=0.2641mm|HoleSize=0mm|Usage=FLASHONLY|Rotation=90.000|XOffset=0mm|YOffset=0mm|HoleType=Round|Shape=RoundedRectangle|*
%AMROUNDEDRECTD241*
21,1,0.8532,0.5750,0,0,90.0*
21,1,0.3250,1.1032,0,0,90.0*
1,1,0.5282,0.2875,0.1625*
1,1,0.5282,0.2875,-0.1625*
1,1,0.5282,-0.2875,-0.1625*
1,1,0.5282,-0.2875,0.1625*
%
%ADD241ROUNDEDRECTD241*%
%ADD242O,0.4516X1.5016*%
%ADD243O,1.9032X0.5032*%
%ADD244O,0.5032X1.9032*%
G04:AMPARAMS|DCode=245|XSize=2.9032mm|YSize=1.5032mm|CornerRadius=0.3486mm|HoleSize=0mm|Usage=FLASHONLY|Rotation=180.000|XOffset=0mm|YOffset=0mm|HoleType=Round|Shape=RoundedRectangle|*
%AMROUNDEDRECTD245*
21,1,2.9032,0.8060,0,0,180.0*
21,1,2.2060,1.5032,0,0,180.0*
1,1,0.6972,-1.1030,0.4030*
1,1,0.6972,1.1030,0.4030*
1,1,0.6972,1.1030,-0.4030*
1,1,0.6972,-1.1030,-0.4030*
%
%ADD245ROUNDEDRECTD245*%
G04:AMPARAMS|DCode=246|XSize=2.9032mm|YSize=1.5032mm|CornerRadius=0.3486mm|HoleSize=0mm|Usage=FLASHONLY|Rotation=90.000|XOffset=0mm|YOffset=0mm|HoleType=Round|Shape=RoundedRectangle|*
%AMROUNDEDRECTD246*
21,1,2.9032,0.8060,0,0,90.0*
21,1,2.2060,1.5032,0,0,90.0*
1,1,0.6972,0.4030,1.1030*
1,1,0.6972,0.4030,-1.1030*
1,1,0.6972,-0.4030,-1.1030*
1,1,0.6972,-0.4030,1.1030*
%
%ADD246ROUNDEDRECTD246*%
G04:AMPARAMS|DCode=247|XSize=1.8532mm|YSize=2.7532mm|CornerRadius=0.3491mm|HoleSize=0mm|Usage=FLASHONLY|Rotation=270.000|XOffset=0mm|YOffset=0mm|HoleType=Round|Shape=RoundedRectangle|*
%AMROUNDEDRECTD247*
21,1,1.8532,2.0550,0,0,270.0*
21,1,1.1550,2.7532,0,0,270.0*
1,1,0.6982,-1.0275,-0.5775*
1,1,0.6982,-1.0275,0.5775*
1,1,0.6982,1.0275,0.5775*
1,1,0.6982,1.0275,-0.5775*
%
%ADD247ROUNDEDRECTD247*%
%ADD248R,0.5500X1.2000*%
%ADD249R,0.7000X1.2000*%
G36*
X1766843Y794401D02*
X1771275Y793214D01*
X1775513Y791458D01*
X1779487Y789164D01*
X1783127Y786371D01*
X1786371Y783127D01*
X1789164Y779487D01*
X1791458Y775513D01*
X1793214Y771274D01*
X1794401Y766843D01*
X1795000Y762294D01*
Y760000D01*
Y730000D01*
Y40000D01*
X1795000Y37706D01*
X1794401Y33157D01*
X1793214Y28725D01*
X1791458Y24487D01*
X1789164Y20513D01*
X1786371Y16873D01*
X1783127Y13629D01*
X1779487Y10836D01*
X1775513Y8542D01*
X1771275Y6786D01*
X1766843Y5599D01*
X1762294Y5000D01*
X1760000Y5000D01*
X1760000D01*
X1757999Y5154D01*
X1754064Y5951D01*
X1750257Y7224D01*
X1746634Y8955D01*
X1743252Y11118D01*
X1740160Y13679D01*
X1738914Y15000D01*
X61086D01*
X59840Y13679D01*
X56748Y11118D01*
X53366Y8955D01*
X49743Y7224D01*
X45936Y5951D01*
X42001Y5154D01*
X40000Y5000D01*
X40000D01*
X37706Y5000D01*
X33157Y5599D01*
X28725Y6786D01*
X24486Y8542D01*
X20513Y10836D01*
X16873Y13629D01*
X13629Y16873D01*
X10836Y20513D01*
X8542Y24487D01*
X6786Y28725D01*
X5599Y33157D01*
X5000Y37706D01*
X5000Y40000D01*
X5000Y730000D01*
Y760000D01*
Y762294D01*
X5599Y766843D01*
X6786Y771274D01*
X8542Y775513D01*
X10836Y779487D01*
X13629Y783127D01*
X16873Y786371D01*
X20513Y789164D01*
X24487Y791458D01*
X28726Y793214D01*
X33157Y794401D01*
X37706Y795000D01*
X41966D01*
X45865Y794487D01*
X49664Y793469D01*
X53297Y791964D01*
X56703Y789998D01*
X59823Y787604D01*
X62426Y785000D01*
X1737574D01*
X1740177Y787604D01*
X1743297Y789998D01*
X1746703Y791964D01*
X1750336Y793469D01*
X1754135Y794487D01*
X1758034Y795000D01*
X1762294D01*
X1766843Y794401D01*
D02*
G37*
%LPC*%
G36*
X1731670Y775000D02*
X68330D01*
X68469Y774664D01*
X69487Y770865D01*
X70000Y766966D01*
Y765000D01*
Y760000D01*
Y758034D01*
X69487Y754135D01*
X68469Y750336D01*
X66964Y746703D01*
X64998Y743297D01*
X62604Y740177D01*
X59823Y737396D01*
X56703Y735002D01*
X53297Y733036D01*
X49664Y731531D01*
X45865Y730513D01*
X41966Y730000D01*
X40000D01*
X25000Y730000D01*
X25000Y730000D01*
X24020Y729952D01*
X22097Y729569D01*
X20286Y728819D01*
X18656Y727730D01*
X17270Y726344D01*
X16181Y724714D01*
X15431Y722903D01*
X15048Y720980D01*
X15000Y720000D01*
X15100Y80100D01*
X15100Y80100D01*
X15148Y79130D01*
X15526Y77226D01*
X16269Y75433D01*
X17347Y73819D01*
X18719Y72447D01*
X20333Y71369D01*
X22126Y70626D01*
X24030Y70248D01*
X25000Y70200D01*
X42316Y70200D01*
X42316Y70200D01*
X44317Y70019D01*
X48238Y69139D01*
X52010Y67754D01*
X55569Y65889D01*
X58855Y63575D01*
X61810Y60853D01*
X64384Y57767D01*
X66534Y54373D01*
X68222Y50726D01*
X69420Y46891D01*
X70107Y42931D01*
X70271Y38916D01*
X70091Y36915D01*
X70090Y36915D01*
X70054Y34908D01*
X69491Y30934D01*
X68443Y27058D01*
X67605Y25000D01*
X1732395D01*
X1731557Y27058D01*
X1730509Y30934D01*
X1729945Y34908D01*
X1729909Y36915D01*
X1729909Y36915D01*
X1729729Y38916D01*
X1729893Y42931D01*
X1730580Y46891D01*
X1731778Y50726D01*
X1733466Y54373D01*
X1735616Y57767D01*
X1738190Y60853D01*
X1741145Y63575D01*
X1744431Y65889D01*
X1747990Y67754D01*
X1751762Y69139D01*
X1755683Y70019D01*
X1757684Y70200D01*
X1757684Y70200D01*
X1775000Y70200D01*
X1775970Y70248D01*
X1777874Y70626D01*
X1779667Y71369D01*
X1781281Y72447D01*
X1782653Y73819D01*
X1783731Y75433D01*
X1784474Y77226D01*
X1784852Y79130D01*
X1784900Y80100D01*
X1784900Y80100D01*
X1785000Y720000D01*
X1784952Y720980D01*
X1784569Y722903D01*
X1783819Y724714D01*
X1782730Y726344D01*
X1781344Y727730D01*
X1779714Y728819D01*
X1777903Y729569D01*
X1775980Y729952D01*
X1775000Y730000D01*
Y730000D01*
X1760000Y730000D01*
X1758034D01*
X1754135Y730513D01*
X1750336Y731531D01*
X1746703Y733036D01*
X1743297Y735002D01*
X1740177Y737396D01*
X1737396Y740177D01*
X1735002Y743297D01*
X1733036Y746703D01*
X1731531Y750336D01*
X1730513Y754135D01*
X1730000Y758034D01*
Y760000D01*
Y765000D01*
Y766966D01*
X1730513Y770865D01*
X1731531Y774664D01*
X1731670Y775000D01*
D02*
G37*
%LPD*%
D83*
X463550Y771480D02*
D03*
X396450D02*
D03*
D86*
X437500Y719580D02*
D03*
X422500D02*
D03*
D103*
X286750Y733000D02*
D03*
X299250D02*
D03*
X274250D02*
D03*
X311750D02*
D03*
X1578750Y736000D02*
D03*
X1676250D02*
D03*
X850000D02*
D03*
X570000D02*
D03*
X557500D02*
D03*
X582500D02*
D03*
X595000D02*
D03*
X607500D02*
D03*
X620000D02*
D03*
X632500D02*
D03*
X645000D02*
D03*
X657500D02*
D03*
X670000D02*
D03*
X682500D02*
D03*
X837500D02*
D03*
X862500D02*
D03*
X875000D02*
D03*
X887500D02*
D03*
X900000D02*
D03*
X912500D02*
D03*
X925000D02*
D03*
X937500D02*
D03*
X950000D02*
D03*
X962500D02*
D03*
X1566250D02*
D03*
X1553750D02*
D03*
X1541250D02*
D03*
X1663750D02*
D03*
D104*
X248750Y762000D02*
D03*
X337250D02*
D03*
X1638250Y765000D02*
D03*
X1701750D02*
D03*
X1604250D02*
D03*
X1515750D02*
D03*
X988000D02*
D03*
X812000D02*
D03*
X708000D02*
D03*
X532000D02*
D03*
D105*
X216750Y762500D02*
D03*
X103250D02*
D03*
X1486750Y764500D02*
D03*
X1373250D02*
D03*
X1336750D02*
D03*
X1223250D02*
D03*
D106*
X191250Y733500D02*
D03*
X178750D02*
D03*
X166250D02*
D03*
X153750D02*
D03*
X141250D02*
D03*
X128750D02*
D03*
X1436250Y735500D02*
D03*
X1286250D02*
D03*
X1423750D02*
D03*
X1273750D02*
D03*
X1461250D02*
D03*
X1448750D02*
D03*
X1411250D02*
D03*
X1398750D02*
D03*
X1311250D02*
D03*
X1298750D02*
D03*
X1261250D02*
D03*
X1248750D02*
D03*
D107*
X435000Y670000D02*
D03*
X410000D02*
D03*
X320000D02*
D03*
X345000D02*
D03*
X215000Y716000D02*
D03*
X348150Y223242D02*
D03*
Y239242D02*
D03*
X215000Y732000D02*
D03*
X320000Y686000D02*
D03*
X345000D02*
D03*
X410000D02*
D03*
X435000D02*
D03*
D112*
X226500Y570400D02*
D03*
X236500D02*
D03*
X730000Y506000D02*
D03*
X720000D02*
D03*
X383873Y432459D02*
D03*
X393873D02*
D03*
X259002Y67500D02*
D03*
X269002D02*
D03*
X259002Y76500D02*
D03*
X269002D02*
D03*
X259002Y87500D02*
D03*
X269002D02*
D03*
X269000Y97000D02*
D03*
X259000D02*
D03*
X364000Y134500D02*
D03*
X374000D02*
D03*
Y123500D02*
D03*
X364000D02*
D03*
X374000Y144500D02*
D03*
X364000D02*
D03*
Y154500D02*
D03*
X374000D02*
D03*
X385000Y165000D02*
D03*
X375000D02*
D03*
X394000Y113000D02*
D03*
X384000D02*
D03*
X405000D02*
D03*
X415000D02*
D03*
X446000D02*
D03*
X436000D02*
D03*
X469000Y126000D02*
D03*
X479000D02*
D03*
X469000Y135000D02*
D03*
X479000D02*
D03*
X469000Y144000D02*
D03*
X479000D02*
D03*
Y153000D02*
D03*
X469000D02*
D03*
X565000Y332500D02*
D03*
X555000Y297000D02*
D03*
X1674000Y716000D02*
D03*
X1542500D02*
D03*
Y688560D02*
D03*
X1393500Y714000D02*
D03*
Y686600D02*
D03*
X1327500Y713400D02*
D03*
Y686400D02*
D03*
X1622000Y422500D02*
D03*
Y399000D02*
D03*
X927000Y520000D02*
D03*
Y493000D02*
D03*
Y429000D02*
D03*
X927000Y420000D02*
D03*
Y411000D02*
D03*
X927000Y402000D02*
D03*
X927000Y393000D02*
D03*
Y456000D02*
D03*
Y447000D02*
D03*
Y438000D02*
D03*
Y474000D02*
D03*
Y465000D02*
D03*
X783000Y382000D02*
D03*
X1307000Y264000D02*
D03*
X1307000Y177000D02*
D03*
X803000Y373000D02*
D03*
X783000Y364000D02*
D03*
X379601Y655491D02*
D03*
Y664491D02*
D03*
X423049Y650491D02*
D03*
X379601Y646491D02*
D03*
Y637491D02*
D03*
X333000Y651000D02*
D03*
X289552Y665000D02*
D03*
Y656000D02*
D03*
Y638000D02*
D03*
Y647000D02*
D03*
X250000Y626000D02*
D03*
X239000Y626000D02*
D03*
X246500Y579400D02*
D03*
Y570400D02*
D03*
X330995Y435869D02*
D03*
X535000Y332500D02*
D03*
X365500Y340000D02*
D03*
X66823Y189500D02*
D03*
Y154500D02*
D03*
X67000Y120000D02*
D03*
X66823Y111500D02*
D03*
X1170000Y611000D02*
D03*
X1180000D02*
D03*
X1278000Y177000D02*
D03*
X1288000D02*
D03*
X1297000D02*
D03*
X1297000Y264000D02*
D03*
X1288000D02*
D03*
X1278000D02*
D03*
X1244000Y315000D02*
D03*
X1234000D02*
D03*
X1244000Y324000D02*
D03*
X1234000D02*
D03*
X1234000Y333000D02*
D03*
X1244000D02*
D03*
X1234000Y351000D02*
D03*
X1244000D02*
D03*
X1234000Y360000D02*
D03*
X1244000D02*
D03*
X1244000Y369000D02*
D03*
X1234000D02*
D03*
X1244000Y378000D02*
D03*
X1234000D02*
D03*
Y387000D02*
D03*
X1244000D02*
D03*
X1244000Y396000D02*
D03*
X1234000D02*
D03*
X1234000Y405000D02*
D03*
X1244000D02*
D03*
Y414000D02*
D03*
X1234000D02*
D03*
X1244000Y423000D02*
D03*
X1234000D02*
D03*
X1244000Y432000D02*
D03*
X1234000D02*
D03*
X1234000Y441000D02*
D03*
X1244000D02*
D03*
Y450000D02*
D03*
X1234000D02*
D03*
X1234000Y459000D02*
D03*
X1244000D02*
D03*
Y468000D02*
D03*
X1234000D02*
D03*
X1244000Y477000D02*
D03*
X1234000D02*
D03*
Y486000D02*
D03*
X1244000D02*
D03*
Y504000D02*
D03*
X1234000D02*
D03*
X1244000Y495000D02*
D03*
X1234000D02*
D03*
X1244000Y513000D02*
D03*
X1234000D02*
D03*
X1244000Y522000D02*
D03*
X1234000D02*
D03*
X1234000Y576000D02*
D03*
X1244000D02*
D03*
Y567000D02*
D03*
X1234000D02*
D03*
X1234000Y558000D02*
D03*
X1244000D02*
D03*
X1234000Y549000D02*
D03*
X1244000D02*
D03*
X1244000Y540000D02*
D03*
X1234000D02*
D03*
X937000Y336000D02*
D03*
X927000D02*
D03*
X937000Y345000D02*
D03*
X927000D02*
D03*
X937000Y354000D02*
D03*
X927000D02*
D03*
Y363000D02*
D03*
X937000D02*
D03*
X927000Y372000D02*
D03*
X937000D02*
D03*
X927000Y540000D02*
D03*
X937000D02*
D03*
Y530000D02*
D03*
X927000D02*
D03*
X937000Y520000D02*
D03*
X927000Y511000D02*
D03*
X937000D02*
D03*
Y502000D02*
D03*
X927000D02*
D03*
X937000Y493000D02*
D03*
X937000Y483000D02*
D03*
X927000D02*
D03*
X937000Y474000D02*
D03*
Y465000D02*
D03*
Y456000D02*
D03*
Y447000D02*
D03*
Y438000D02*
D03*
X937000Y429000D02*
D03*
X937000Y420000D02*
D03*
Y411000D02*
D03*
X937000Y402000D02*
D03*
X803000Y382000D02*
D03*
X793000D02*
D03*
Y373000D02*
D03*
X937000Y393000D02*
D03*
X773000Y382000D02*
D03*
X783000Y464000D02*
D03*
X773000D02*
D03*
X783000Y446000D02*
D03*
X773000D02*
D03*
X783000Y437000D02*
D03*
X773000D02*
D03*
X783000Y419000D02*
D03*
X773000D02*
D03*
Y409000D02*
D03*
X783000D02*
D03*
Y400000D02*
D03*
X773000D02*
D03*
X783000Y373000D02*
D03*
X773000D02*
D03*
Y364000D02*
D03*
Y355000D02*
D03*
X783000D02*
D03*
Y340000D02*
D03*
X773000D02*
D03*
Y331000D02*
D03*
X783000D02*
D03*
X773000Y319000D02*
D03*
X783000D02*
D03*
X773000Y301000D02*
D03*
X783000D02*
D03*
Y292000D02*
D03*
X773000D02*
D03*
X545000Y332500D02*
D03*
X555000D02*
D03*
Y315000D02*
D03*
X565000D02*
D03*
Y324000D02*
D03*
X555000D02*
D03*
X565000Y342000D02*
D03*
X555000D02*
D03*
X565000Y297000D02*
D03*
X555000Y279000D02*
D03*
X565000D02*
D03*
X555000Y288000D02*
D03*
X565000D02*
D03*
X555000Y270000D02*
D03*
X565000D02*
D03*
X507000Y320000D02*
D03*
X497000D02*
D03*
X375500Y340000D02*
D03*
X89823Y111500D02*
D03*
X99823D02*
D03*
X76823D02*
D03*
X77000Y120000D02*
D03*
X76823Y134000D02*
D03*
X66823D02*
D03*
Y144500D02*
D03*
X76823D02*
D03*
Y154500D02*
D03*
X66823Y164500D02*
D03*
X76823D02*
D03*
Y179500D02*
D03*
X66823D02*
D03*
X76823Y189500D02*
D03*
X77323Y200000D02*
D03*
X67323D02*
D03*
X66823Y209500D02*
D03*
X76823D02*
D03*
X330990Y444738D02*
D03*
X320990D02*
D03*
X320995Y435869D02*
D03*
X237000Y680000D02*
D03*
X227000D02*
D03*
X257000D02*
D03*
X247000D02*
D03*
X280000Y688000D02*
D03*
X290000D02*
D03*
Y697000D02*
D03*
X280000D02*
D03*
X290000Y706000D02*
D03*
X280000D02*
D03*
Y715000D02*
D03*
X290000D02*
D03*
X256500Y570400D02*
D03*
Y579400D02*
D03*
Y588400D02*
D03*
X246500D02*
D03*
X236500D02*
D03*
X226500D02*
D03*
X229000Y626000D02*
D03*
X260000Y626000D02*
D03*
X279552Y665000D02*
D03*
Y656000D02*
D03*
Y647000D02*
D03*
Y638000D02*
D03*
X343000Y651000D02*
D03*
X279552Y629000D02*
D03*
X289552D02*
D03*
X369601Y664491D02*
D03*
Y655491D02*
D03*
Y646491D02*
D03*
Y637491D02*
D03*
X379601Y628000D02*
D03*
X369601D02*
D03*
X433049Y650491D02*
D03*
X1242500Y704400D02*
D03*
X1232500D02*
D03*
X1242500Y695400D02*
D03*
X1232500D02*
D03*
X1317500Y686400D02*
D03*
Y695400D02*
D03*
X1327500D02*
D03*
X1317500Y704400D02*
D03*
X1327500D02*
D03*
X1317500Y713400D02*
D03*
X1403500Y714000D02*
D03*
Y704600D02*
D03*
X1393500D02*
D03*
X1403500Y695600D02*
D03*
X1393500D02*
D03*
X1403500Y686600D02*
D03*
X1552500Y716000D02*
D03*
Y706560D02*
D03*
X1542500D02*
D03*
X1552500Y697560D02*
D03*
X1542500D02*
D03*
X1552500Y688560D02*
D03*
X1664000Y716000D02*
D03*
X1612000Y422500D02*
D03*
X1622000Y413500D02*
D03*
X1612000D02*
D03*
Y399000D02*
D03*
X1622000Y390000D02*
D03*
X1612000D02*
D03*
D113*
X305000Y78700D02*
D03*
X365000D02*
D03*
X350000D02*
D03*
X335000D02*
D03*
X320000D02*
D03*
X380000D02*
D03*
X952500D02*
D03*
X937500D02*
D03*
X922500D02*
D03*
X907500D02*
D03*
X892500D02*
D03*
X877500D02*
D03*
X862500D02*
D03*
X847500D02*
D03*
X1097500D02*
D03*
X1112500D02*
D03*
X1037500D02*
D03*
X1052500D02*
D03*
X1067500D02*
D03*
X1082500D02*
D03*
X1127500D02*
D03*
X1142500D02*
D03*
X1322500D02*
D03*
X1307500D02*
D03*
X1292500D02*
D03*
X1277500D02*
D03*
X1262500D02*
D03*
X1247500D02*
D03*
X1232500D02*
D03*
X1217500D02*
D03*
X1412500D02*
D03*
X1472500D02*
D03*
X1502500D02*
D03*
X1442500D02*
D03*
X1397500D02*
D03*
X1427500D02*
D03*
X1457500D02*
D03*
X1487500D02*
D03*
X1577500D02*
D03*
X1592500D02*
D03*
X1607500D02*
D03*
X1622500D02*
D03*
X1637500D02*
D03*
X1652500D02*
D03*
X1667500D02*
D03*
X1682500D02*
D03*
X1147500Y721300D02*
D03*
X1057500D02*
D03*
X1117500D02*
D03*
X1087500D02*
D03*
X107500Y78700D02*
D03*
X137500D02*
D03*
X152500D02*
D03*
X167500D02*
D03*
X182500D02*
D03*
X197500D02*
D03*
X212500D02*
D03*
X122500D02*
D03*
X1132500Y721300D02*
D03*
X1162500D02*
D03*
X1072500D02*
D03*
X1102500D02*
D03*
D114*
X406050Y26800D02*
D03*
X278950D02*
D03*
X1188550Y773200D02*
D03*
X1031450D02*
D03*
X1708550Y26800D02*
D03*
X1551450D02*
D03*
X1528550D02*
D03*
X1348550D02*
D03*
X1371450D02*
D03*
X1191450D02*
D03*
X1168550D02*
D03*
X978550D02*
D03*
X1011450D02*
D03*
X821450D02*
D03*
X238550D02*
D03*
X81450D02*
D03*
D127*
X227000Y733000D02*
D03*
Y723000D02*
D03*
X704000Y476000D02*
D03*
Y486000D02*
D03*
X670000Y499000D02*
D03*
Y489000D02*
D03*
X704000Y506000D02*
D03*
Y496000D02*
D03*
X748000Y480000D02*
D03*
Y490000D02*
D03*
X385000Y124500D02*
D03*
Y134500D02*
D03*
Y154500D02*
D03*
Y144500D02*
D03*
X349000Y96000D02*
D03*
Y106000D02*
D03*
X339000D02*
D03*
Y96000D02*
D03*
X369500D02*
D03*
Y106000D02*
D03*
X359500D02*
D03*
Y96000D02*
D03*
X509000Y105000D02*
D03*
Y95000D02*
D03*
X499000D02*
D03*
Y105000D02*
D03*
X647000Y218000D02*
D03*
X541000Y262000D02*
D03*
X790000Y255000D02*
D03*
X475000Y332000D02*
D03*
X528000Y251000D02*
D03*
X1205000Y703000D02*
D03*
X1195000D02*
D03*
X1131000D02*
D03*
X1172000D02*
D03*
X1163000D02*
D03*
X1140000D02*
D03*
X1640000Y457000D02*
D03*
X1723000Y453000D02*
D03*
X1612000Y461000D02*
D03*
X1202000Y651000D02*
D03*
X1062000Y703000D02*
D03*
X1096000D02*
D03*
X1086000D02*
D03*
X1030000D02*
D03*
X1053000D02*
D03*
X1092000Y651000D02*
D03*
X1021000Y703000D02*
D03*
X1671000Y360000D02*
D03*
X1644000D02*
D03*
X1229000Y217000D02*
D03*
X1230125Y154000D02*
D03*
X1178240Y217032D02*
D03*
X911350Y297550D02*
D03*
Y285550D02*
D03*
X781000Y255000D02*
D03*
X1179815Y154032D02*
D03*
X1082000Y151000D02*
D03*
X964000D02*
D03*
X1082000Y119000D02*
D03*
X964000D02*
D03*
X846000Y151000D02*
D03*
X728000D02*
D03*
X846000Y119000D02*
D03*
X728000D02*
D03*
X423329Y669899D02*
D03*
X398049Y669491D02*
D03*
X434000Y639000D02*
D03*
X425000Y630491D02*
D03*
X416000D02*
D03*
X398049D02*
D03*
X407000D02*
D03*
X389049D02*
D03*
X333000Y670000D02*
D03*
X308000Y670000D02*
D03*
X344000Y639000D02*
D03*
X326000Y631000D02*
D03*
X335000D02*
D03*
X317000D02*
D03*
X299000Y631000D02*
D03*
X308000D02*
D03*
X488000Y331000D02*
D03*
X610000Y151000D02*
D03*
X528000Y261000D02*
D03*
X610000Y119000D02*
D03*
X466000Y332000D02*
D03*
X330000Y331000D02*
D03*
X474000Y299000D02*
D03*
Y288000D02*
D03*
X278000Y330000D02*
D03*
X330000Y240500D02*
D03*
X278000Y240000D02*
D03*
X1172000Y693000D02*
D03*
X1131000D02*
D03*
X1012000Y693000D02*
D03*
Y703000D02*
D03*
X1021000Y693000D02*
D03*
X1042000Y703000D02*
D03*
Y693000D02*
D03*
X1030000D02*
D03*
X1053000D02*
D03*
X1062000D02*
D03*
X1075000Y703000D02*
D03*
Y693000D02*
D03*
X1096000D02*
D03*
X1086000D02*
D03*
X1122000Y693000D02*
D03*
Y703000D02*
D03*
X1140000Y693000D02*
D03*
X1152000Y703000D02*
D03*
Y693000D02*
D03*
X1163000D02*
D03*
X1184000Y703000D02*
D03*
Y693000D02*
D03*
X1195000D02*
D03*
X1205000D02*
D03*
X1008000Y590750D02*
D03*
Y600750D02*
D03*
X1044000Y590750D02*
D03*
Y600750D02*
D03*
X1071000Y590750D02*
D03*
Y600750D02*
D03*
X1143000Y590750D02*
D03*
Y600750D02*
D03*
X1197000D02*
D03*
Y590750D02*
D03*
X972000Y590750D02*
D03*
Y600750D02*
D03*
X981000D02*
D03*
Y590750D02*
D03*
X999000D02*
D03*
Y600750D02*
D03*
X1053000D02*
D03*
Y590750D02*
D03*
X1134000D02*
D03*
Y600750D02*
D03*
X1206000Y590750D02*
D03*
Y600750D02*
D03*
X1026000Y590750D02*
D03*
Y600750D02*
D03*
X1080000Y590750D02*
D03*
Y600750D02*
D03*
X1089000Y590750D02*
D03*
Y600750D02*
D03*
X1098000Y600750D02*
D03*
Y590750D02*
D03*
X1107000Y600750D02*
D03*
Y590750D02*
D03*
X1116000Y590750D02*
D03*
Y600750D02*
D03*
X1161000Y590750D02*
D03*
Y600750D02*
D03*
X1179000Y600750D02*
D03*
Y590750D02*
D03*
X990000Y600750D02*
D03*
Y590750D02*
D03*
X1035000D02*
D03*
Y600750D02*
D03*
X1062000D02*
D03*
Y590750D02*
D03*
X1125000Y600750D02*
D03*
Y590750D02*
D03*
X1170000Y600750D02*
D03*
Y590750D02*
D03*
X1152000Y590750D02*
D03*
Y600750D02*
D03*
X1179815Y144032D02*
D03*
Y135032D02*
D03*
Y125032D02*
D03*
X1230125Y125000D02*
D03*
Y135000D02*
D03*
Y144000D02*
D03*
X1178240Y207032D02*
D03*
Y198032D02*
D03*
Y188032D02*
D03*
X1229000Y198000D02*
D03*
Y188000D02*
D03*
Y207000D02*
D03*
X610000Y109000D02*
D03*
Y161000D02*
D03*
X728000D02*
D03*
Y109000D02*
D03*
X846000D02*
D03*
Y161000D02*
D03*
X1082000Y109000D02*
D03*
Y161000D02*
D03*
X964000Y109000D02*
D03*
Y161000D02*
D03*
X1070000Y285000D02*
D03*
Y295000D02*
D03*
X1142000Y295000D02*
D03*
Y285000D02*
D03*
X1025000Y295000D02*
D03*
Y285000D02*
D03*
X1007000Y295000D02*
D03*
Y285000D02*
D03*
X1016000Y295000D02*
D03*
Y285000D02*
D03*
X1043000Y295000D02*
D03*
Y285000D02*
D03*
X1052000Y295000D02*
D03*
Y285000D02*
D03*
X1088000Y285000D02*
D03*
Y295000D02*
D03*
X1061000Y295000D02*
D03*
Y285000D02*
D03*
X1079000D02*
D03*
Y295000D02*
D03*
X1097000Y295000D02*
D03*
Y285000D02*
D03*
X1106000Y285000D02*
D03*
Y295000D02*
D03*
X1115000Y285000D02*
D03*
Y295000D02*
D03*
X1133000Y285000D02*
D03*
Y295000D02*
D03*
X1124000Y285000D02*
D03*
Y295000D02*
D03*
X1169000D02*
D03*
Y285000D02*
D03*
X1160000Y285000D02*
D03*
Y295000D02*
D03*
X1151000D02*
D03*
Y285000D02*
D03*
X1178000Y295000D02*
D03*
Y285000D02*
D03*
X1196000Y285000D02*
D03*
Y295000D02*
D03*
X1187000Y295000D02*
D03*
Y285000D02*
D03*
X1222250Y295250D02*
D03*
Y285250D02*
D03*
X1213250D02*
D03*
Y295250D02*
D03*
X971000Y302000D02*
D03*
Y292000D02*
D03*
X911350Y275550D02*
D03*
Y307550D02*
D03*
X637000Y255000D02*
D03*
Y245000D02*
D03*
X619000Y255000D02*
D03*
Y245000D02*
D03*
X646000Y255000D02*
D03*
Y245000D02*
D03*
X628000Y255000D02*
D03*
Y245000D02*
D03*
X647000Y228000D02*
D03*
X700000Y245000D02*
D03*
Y255000D02*
D03*
X664000Y245000D02*
D03*
Y255000D02*
D03*
X691000D02*
D03*
Y245000D02*
D03*
X718000D02*
D03*
Y255000D02*
D03*
X736000D02*
D03*
Y245000D02*
D03*
X763000Y255000D02*
D03*
Y245000D02*
D03*
X754000D02*
D03*
Y255000D02*
D03*
X745000Y245000D02*
D03*
Y255000D02*
D03*
X709000Y245000D02*
D03*
Y255000D02*
D03*
X673000D02*
D03*
Y245000D02*
D03*
X682000D02*
D03*
Y255000D02*
D03*
X727000Y245000D02*
D03*
Y255000D02*
D03*
X772000Y245000D02*
D03*
Y255000D02*
D03*
X781000Y245000D02*
D03*
X790000D02*
D03*
X541000Y272000D02*
D03*
X474000Y278000D02*
D03*
Y309000D02*
D03*
X497000Y331000D02*
D03*
Y341000D02*
D03*
X506000D02*
D03*
Y331000D02*
D03*
X515000D02*
D03*
Y341000D02*
D03*
X488000D02*
D03*
X475000Y342000D02*
D03*
X466000D02*
D03*
X330000Y321000D02*
D03*
X278000Y320000D02*
D03*
X330000Y230500D02*
D03*
X278000Y230000D02*
D03*
X264000Y702000D02*
D03*
Y692000D02*
D03*
X344000Y629000D02*
D03*
X317000Y621000D02*
D03*
X335000D02*
D03*
X299000Y621000D02*
D03*
X308000D02*
D03*
X326000Y621000D02*
D03*
X308000Y680000D02*
D03*
X333000Y680000D02*
D03*
X398049Y679491D02*
D03*
X423329Y679899D02*
D03*
X434000Y629000D02*
D03*
X398049Y620491D02*
D03*
X416000D02*
D03*
X407000D02*
D03*
X389049D02*
D03*
X425000D02*
D03*
X620012Y704000D02*
D03*
Y714000D02*
D03*
X595012D02*
D03*
Y704000D02*
D03*
X582488Y714000D02*
D03*
Y704000D02*
D03*
X607512Y714000D02*
D03*
Y704000D02*
D03*
X632512Y714000D02*
D03*
Y704000D02*
D03*
X657512Y714000D02*
D03*
Y704000D02*
D03*
X891000Y700000D02*
D03*
Y710000D02*
D03*
X925000Y710000D02*
D03*
Y700000D02*
D03*
X913000Y710000D02*
D03*
Y700000D02*
D03*
X937000Y710000D02*
D03*
Y700000D02*
D03*
X1092000Y676804D02*
D03*
Y666804D02*
D03*
Y641000D02*
D03*
X1202000Y676804D02*
D03*
Y666804D02*
D03*
Y641000D02*
D03*
X1644000Y370000D02*
D03*
X1653000Y360000D02*
D03*
Y370000D02*
D03*
X1662000D02*
D03*
Y360000D02*
D03*
X1671000Y370000D02*
D03*
X1612000Y451000D02*
D03*
X1640000Y447000D02*
D03*
X1649500D02*
D03*
Y457000D02*
D03*
X1658500D02*
D03*
Y447000D02*
D03*
X1668000Y457000D02*
D03*
Y447000D02*
D03*
X1677000Y457000D02*
D03*
Y447000D02*
D03*
X1723000Y463000D02*
D03*
D128*
X452000Y592000D02*
D03*
X617000Y617000D02*
D03*
X627050Y618750D02*
D03*
X614000Y605000D02*
D03*
X515000Y455487D02*
D03*
X490000Y460000D02*
D03*
X495000Y444000D02*
D03*
D132*
X97000Y715000D02*
D03*
X230000Y347000D02*
D03*
X214000D02*
D03*
X214000Y256000D02*
D03*
X230000D02*
D03*
X113000Y715000D02*
D03*
D133*
X1610500Y692210D02*
D03*
X1461500Y690250D02*
D03*
X1259500Y709750D02*
D03*
X1300500D02*
D03*
Y703250D02*
D03*
Y696750D02*
D03*
X1259500Y703250D02*
D03*
Y696750D02*
D03*
X1300500Y690250D02*
D03*
X1259500D02*
D03*
X1420500Y690250D02*
D03*
Y696750D02*
D03*
Y703250D02*
D03*
X1461500Y696750D02*
D03*
Y703250D02*
D03*
Y709750D02*
D03*
X1420500D02*
D03*
X1569500Y692210D02*
D03*
Y698710D02*
D03*
Y705210D02*
D03*
X1610500Y698710D02*
D03*
Y705210D02*
D03*
Y711710D02*
D03*
X1569500D02*
D03*
D136*
X252000Y533000D02*
D03*
Y517000D02*
D03*
Y549000D02*
D03*
D138*
X1131650Y679050D02*
D03*
X1021650Y679050D02*
D03*
X1184350Y653650D02*
D03*
Y666350D02*
D03*
Y679050D02*
D03*
X1131650Y666350D02*
D03*
Y653650D02*
D03*
Y640950D02*
D03*
X1184350D02*
D03*
X1074350Y640950D02*
D03*
X1021650D02*
D03*
Y653650D02*
D03*
Y666350D02*
D03*
X1074350Y679050D02*
D03*
Y666350D02*
D03*
Y653650D02*
D03*
D139*
X312000Y118998D02*
D03*
X226000Y117998D02*
D03*
X294000Y118998D02*
D03*
X208000Y117998D02*
D03*
D140*
X253090Y657250D02*
D03*
X125373Y195500D02*
D03*
Y150500D02*
D03*
X100273Y195500D02*
D03*
Y205000D02*
D03*
Y186000D02*
D03*
X125373D02*
D03*
Y205000D02*
D03*
X100273Y150500D02*
D03*
Y160000D02*
D03*
Y141000D02*
D03*
X125373D02*
D03*
Y160000D02*
D03*
X253090Y647750D02*
D03*
Y666750D02*
D03*
X227990D02*
D03*
Y657250D02*
D03*
Y647750D02*
D03*
D144*
X592454Y480475D02*
D03*
Y471475D02*
D03*
D146*
X585505Y484636D02*
D03*
Y479171D02*
D03*
X585367Y472915D02*
D03*
X580117D02*
D03*
X585374Y467486D02*
D03*
X580124D02*
D03*
X580255Y479171D02*
D03*
Y484636D02*
D03*
X565175Y463750D02*
D03*
X559925D02*
D03*
D150*
X1298500Y249000D02*
D03*
X1261500Y212000D02*
D03*
X1210740Y212032D02*
D03*
X1298500Y162000D02*
D03*
X1262625Y149000D02*
D03*
X1212315Y149032D02*
D03*
X1193315D02*
D03*
X1202814Y129032D02*
D03*
X1253125Y129000D02*
D03*
X1243625Y149000D02*
D03*
X1201239Y192032D02*
D03*
X1191740Y212032D02*
D03*
X1252000Y192000D02*
D03*
X1242500Y212000D02*
D03*
X1289000Y142000D02*
D03*
X1279500Y162000D02*
D03*
X1279500Y249000D02*
D03*
X1289000Y229000D02*
D03*
X251500Y695000D02*
D03*
X232500D02*
D03*
X242000Y715000D02*
D03*
D151*
X514049Y303509D02*
D03*
X491951Y286491D02*
D03*
X514049D02*
D03*
X491951Y303509D02*
D03*
D152*
X254000Y234500D02*
D03*
Y193500D02*
D03*
Y284000D02*
D03*
Y325000D02*
D03*
D165*
X355373Y460009D02*
D03*
X371374D02*
D03*
X354995Y444769D02*
D03*
X370995D02*
D03*
X335000Y699000D02*
D03*
X319000D02*
D03*
X409000D02*
D03*
X425000D02*
D03*
D170*
X1230325Y109000D02*
D03*
X1263935Y109032D02*
D03*
X1180014Y109032D02*
D03*
X1213625Y109064D02*
D03*
X1212050Y172063D02*
D03*
X1178439Y172032D02*
D03*
X1229200Y172000D02*
D03*
X1262811Y172032D02*
D03*
D172*
X1319000Y140200D02*
D03*
X1318968Y173811D02*
D03*
X1341000Y140200D02*
D03*
X1340968Y173811D02*
D03*
X1318968Y260811D02*
D03*
X1319000Y227200D02*
D03*
X1341000D02*
D03*
X1340968Y260811D02*
D03*
D173*
X1281450Y114000D02*
D03*
X1342550D02*
D03*
X1342550Y201000D02*
D03*
X1281450D02*
D03*
D180*
X158000Y242000D02*
D03*
X75000Y730000D02*
D03*
X27000Y311000D02*
D03*
X118000Y257000D02*
D03*
Y242000D02*
D03*
X68000D02*
D03*
X27000Y257000D02*
D03*
Y242000D02*
D03*
Y327000D02*
D03*
D181*
X1760000Y760000D02*
D03*
X760000D02*
D03*
X1300000Y400000D02*
D03*
X1760000Y40000D02*
D03*
X760000D02*
D03*
X40000Y760000D02*
D03*
Y40000D02*
D03*
D182*
X1697400Y518000D02*
D03*
X1570400D02*
D03*
X1672000D02*
D03*
X1646600D02*
D03*
X1595800D02*
D03*
X1722800D02*
D03*
X1621200D02*
D03*
D183*
X1741200Y444700D02*
D03*
X1588800Y470100D02*
D03*
X1741200D02*
D03*
Y419300D02*
D03*
Y393900D02*
D03*
Y368500D02*
D03*
Y343100D02*
D03*
Y317700D02*
D03*
Y292300D02*
D03*
Y266900D02*
D03*
Y241500D02*
D03*
Y139900D02*
D03*
X1588800Y444700D02*
D03*
Y266900D02*
D03*
Y241500D02*
D03*
Y292300D02*
D03*
Y216100D02*
D03*
Y317700D02*
D03*
Y190700D02*
D03*
Y343100D02*
D03*
Y165300D02*
D03*
Y368500D02*
D03*
Y139900D02*
D03*
Y393900D02*
D03*
Y419300D02*
D03*
X1741200Y165300D02*
D03*
Y190700D02*
D03*
Y216100D02*
D03*
D184*
X1727950Y660000D02*
D03*
X1512050D02*
D03*
D185*
X1748200Y518000D02*
D03*
D186*
X357000Y565000D02*
D03*
X267000Y572000D02*
D03*
X1650000Y241000D02*
D03*
X1633000Y267000D02*
D03*
X1629000Y173000D02*
D03*
X1627959Y190267D02*
D03*
X1621000Y293000D02*
D03*
D187*
X1762537Y789484D02*
D03*
X1771282Y787357D02*
D03*
X1753557Y788886D02*
D03*
X1745171Y785619D02*
D03*
X1778984Y782702D02*
D03*
X1737516Y780885D02*
D03*
X1647580Y779816D02*
D03*
X1656580D02*
D03*
X1602580D02*
D03*
X1611580D02*
D03*
X1584580D02*
D03*
X1593580D02*
D03*
X1629580D02*
D03*
X1638580D02*
D03*
X1620580D02*
D03*
X1719580D02*
D03*
X1728580D02*
D03*
X1701580D02*
D03*
X1710580D02*
D03*
X1788579Y767720D02*
D03*
X1789621Y758780D02*
D03*
X1784933Y775948D02*
D03*
X1683580Y779816D02*
D03*
X1692580D02*
D03*
X1665580D02*
D03*
X1674580D02*
D03*
X1530580D02*
D03*
X1539580D02*
D03*
X1512580D02*
D03*
X1521580D02*
D03*
X1566580D02*
D03*
X1575580D02*
D03*
X1548580D02*
D03*
X1557580D02*
D03*
X1485580D02*
D03*
X1494580D02*
D03*
X1467580D02*
D03*
X1476580D02*
D03*
X1503580D02*
D03*
X1386580Y779816D02*
D03*
X1377580D02*
D03*
X1449580D02*
D03*
X1458580D02*
D03*
X1431580D02*
D03*
X1440580D02*
D03*
X1413580D02*
D03*
X1422580D02*
D03*
X1395580D02*
D03*
X1404580D02*
D03*
X1789623Y749780D02*
D03*
X1789626Y740780D02*
D03*
X1789816Y724003D02*
D03*
Y715003D02*
D03*
X1789628Y731780D02*
D03*
X1789816Y706003D02*
D03*
Y697003D02*
D03*
X1789816Y688003D02*
D03*
X1332580Y779816D02*
D03*
X1341580D02*
D03*
X1314580D02*
D03*
X1323580D02*
D03*
X1359580D02*
D03*
X1368580D02*
D03*
X1350580D02*
D03*
X1269581D02*
D03*
X1278580D02*
D03*
X1251581D02*
D03*
X1260581D02*
D03*
X1296581D02*
D03*
X1305580D02*
D03*
X1287581D02*
D03*
X1206581D02*
D03*
X1215581D02*
D03*
X1188581D02*
D03*
X1197581D02*
D03*
X1233581D02*
D03*
X1242581D02*
D03*
X1224581D02*
D03*
X1179581Y779816D02*
D03*
X1134581D02*
D03*
X1143581D02*
D03*
X1116581D02*
D03*
X1125581D02*
D03*
X1161581D02*
D03*
X1170581D02*
D03*
X1152581D02*
D03*
X1789816Y634003D02*
D03*
Y625003D02*
D03*
Y652003D02*
D03*
Y643003D02*
D03*
X1789816Y598003D02*
D03*
Y589003D02*
D03*
Y616003D02*
D03*
Y607003D02*
D03*
X1789816Y679003D02*
D03*
Y670003D02*
D03*
Y661003D02*
D03*
X1789816Y508004D02*
D03*
Y499004D02*
D03*
X1789816Y526003D02*
D03*
X1789816Y517004D02*
D03*
X1789816Y481004D02*
D03*
Y472004D02*
D03*
X1789816Y490004D02*
D03*
X1789816Y562004D02*
D03*
X1789816Y553004D02*
D03*
X1789816Y580003D02*
D03*
Y571003D02*
D03*
X1789816Y544003D02*
D03*
Y535004D02*
D03*
X1789816Y463004D02*
D03*
Y454004D02*
D03*
X1789816Y445004D02*
D03*
Y418004D02*
D03*
X1789816Y409004D02*
D03*
X1789816Y436004D02*
D03*
Y427004D02*
D03*
X1789816Y391004D02*
D03*
X1789816Y382004D02*
D03*
X1789816Y400004D02*
D03*
X1062581Y779816D02*
D03*
X1071581D02*
D03*
X1044581D02*
D03*
X1053581D02*
D03*
X1098581D02*
D03*
X1107581D02*
D03*
X1080581D02*
D03*
X1089581D02*
D03*
X1008581D02*
D03*
X1017581D02*
D03*
X990581D02*
D03*
X999581D02*
D03*
X1035581D02*
D03*
X1026581D02*
D03*
X936581D02*
D03*
X945581D02*
D03*
X918581D02*
D03*
X927581D02*
D03*
X972581D02*
D03*
X981581D02*
D03*
X954581D02*
D03*
X963581D02*
D03*
X909581D02*
D03*
X828581Y779816D02*
D03*
X810581D02*
D03*
X819581D02*
D03*
X846581D02*
D03*
X855581D02*
D03*
X837581D02*
D03*
X891581D02*
D03*
X900581D02*
D03*
X873581D02*
D03*
X882581D02*
D03*
X864581D02*
D03*
X792581D02*
D03*
X801581D02*
D03*
X774582D02*
D03*
X783581D02*
D03*
X756581D02*
D03*
X765582D02*
D03*
X738582D02*
D03*
X747582D02*
D03*
X720582D02*
D03*
X729582D02*
D03*
X711582D02*
D03*
X702582D02*
D03*
X1789816Y373004D02*
D03*
Y364004D02*
D03*
Y355004D02*
D03*
X1789816Y346004D02*
D03*
X1789816Y310004D02*
D03*
Y301004D02*
D03*
X1789816Y328004D02*
D03*
Y319004D02*
D03*
X1789816Y283004D02*
D03*
X1789816Y274004D02*
D03*
X1789816Y292004D02*
D03*
X1789816Y337004D02*
D03*
X1789816Y247004D02*
D03*
Y265004D02*
D03*
Y256004D02*
D03*
X1789816Y229004D02*
D03*
Y220004D02*
D03*
Y238004D02*
D03*
X1789816Y202004D02*
D03*
Y193004D02*
D03*
Y211004D02*
D03*
X1789816Y148004D02*
D03*
X1789816Y139004D02*
D03*
X1789816Y166004D02*
D03*
Y157004D02*
D03*
X1789816Y112004D02*
D03*
X1789816Y103004D02*
D03*
X1789816Y130004D02*
D03*
Y121004D02*
D03*
X1789816Y184004D02*
D03*
X1789816Y175004D02*
D03*
X1789816Y76004D02*
D03*
X1789816Y67004D02*
D03*
X1789816Y94004D02*
D03*
Y85004D02*
D03*
X1789816Y58004D02*
D03*
Y49005D02*
D03*
X1789752Y40005D02*
D03*
X1788301Y31123D02*
D03*
X1784320Y23051D02*
D03*
X1727417Y20184D02*
D03*
X1709417D02*
D03*
X1718417D02*
D03*
X1664417D02*
D03*
X1673417D02*
D03*
X1691417D02*
D03*
X1700417D02*
D03*
X1682417D02*
D03*
X1778102Y16545D02*
D03*
X1744196Y14978D02*
D03*
X1736387Y19452D02*
D03*
X1770218Y12203D02*
D03*
X1761396Y10426D02*
D03*
X1752446Y11381D02*
D03*
X1529418Y20184D02*
D03*
X1484418D02*
D03*
X1493418D02*
D03*
X1511418D02*
D03*
X1520417D02*
D03*
X1502417D02*
D03*
X1619417D02*
D03*
X1628417D02*
D03*
X1601417D02*
D03*
X1610417D02*
D03*
X1646417D02*
D03*
X1655417D02*
D03*
X1637417D02*
D03*
X1556417D02*
D03*
X1565417D02*
D03*
X1538418D02*
D03*
X1547417D02*
D03*
X1583417D02*
D03*
X1592417D02*
D03*
X1574417D02*
D03*
X1457418D02*
D03*
X1466418D02*
D03*
X1475418D02*
D03*
X1412418Y20184D02*
D03*
X1421418D02*
D03*
X1439418D02*
D03*
X1448418D02*
D03*
X1430418D02*
D03*
X1367418D02*
D03*
X1376418D02*
D03*
X1349418D02*
D03*
X1358418D02*
D03*
X1394418D02*
D03*
X1403418D02*
D03*
X1385418D02*
D03*
X1214418D02*
D03*
X1304418D02*
D03*
X1313418D02*
D03*
X1286418D02*
D03*
X1295418D02*
D03*
X1331418D02*
D03*
X1340418D02*
D03*
X1322418D02*
D03*
X1241418D02*
D03*
X1250418D02*
D03*
X1223418D02*
D03*
X1232418D02*
D03*
X1268418D02*
D03*
X1277418D02*
D03*
X1259418D02*
D03*
X1196418D02*
D03*
X1178418D02*
D03*
X1187418D02*
D03*
X1205418D02*
D03*
X1169418Y20184D02*
D03*
X1160418D02*
D03*
X1115418D02*
D03*
X1124418D02*
D03*
X1097418D02*
D03*
X1106418D02*
D03*
X1142418D02*
D03*
X1151418D02*
D03*
X1133418D02*
D03*
X971419D02*
D03*
X1052418D02*
D03*
X1061418D02*
D03*
X1034418D02*
D03*
X1043419D02*
D03*
X1079418D02*
D03*
X1088418D02*
D03*
X1070418D02*
D03*
X989419D02*
D03*
X998419D02*
D03*
X980419D02*
D03*
X1016419D02*
D03*
X1025418D02*
D03*
X1007419D02*
D03*
X899419D02*
D03*
X926419D02*
D03*
X935419D02*
D03*
X908419D02*
D03*
X917419D02*
D03*
X953419D02*
D03*
X962419D02*
D03*
X944419D02*
D03*
X863419Y20184D02*
D03*
X881419D02*
D03*
X890419D02*
D03*
X872419D02*
D03*
X827419D02*
D03*
X845419D02*
D03*
X854419D02*
D03*
X836419D02*
D03*
X701419D02*
D03*
X719419D02*
D03*
X710419D02*
D03*
X791419D02*
D03*
X809419D02*
D03*
X818419D02*
D03*
X800419D02*
D03*
X746419D02*
D03*
X755419D02*
D03*
X728419D02*
D03*
X737419D02*
D03*
X773419D02*
D03*
X782419D02*
D03*
X764419D02*
D03*
X657582Y779816D02*
D03*
X666582D02*
D03*
X639582D02*
D03*
X648582D02*
D03*
X693582D02*
D03*
X675582D02*
D03*
X684582D02*
D03*
X630582D02*
D03*
X594582Y779816D02*
D03*
X576582D02*
D03*
X585582D02*
D03*
X612582D02*
D03*
X621582D02*
D03*
X603582D02*
D03*
X549582D02*
D03*
X558582D02*
D03*
X531582D02*
D03*
X540582D02*
D03*
X567582D02*
D03*
X513582D02*
D03*
X522582D02*
D03*
X495582D02*
D03*
X504582D02*
D03*
X450582D02*
D03*
X459582D02*
D03*
X432582D02*
D03*
X441582D02*
D03*
X477582D02*
D03*
X486582D02*
D03*
X468582D02*
D03*
X423582D02*
D03*
X405582D02*
D03*
X414582D02*
D03*
X396582D02*
D03*
X378582D02*
D03*
X387582D02*
D03*
X360582D02*
D03*
X369582D02*
D03*
X351582D02*
D03*
X324582Y779816D02*
D03*
X306582D02*
D03*
X315582D02*
D03*
X333582D02*
D03*
X342582D02*
D03*
X261583D02*
D03*
X270583D02*
D03*
X243583D02*
D03*
X252583D02*
D03*
X288582D02*
D03*
X297582D02*
D03*
X279583D02*
D03*
X207583D02*
D03*
X216583D02*
D03*
X189583D02*
D03*
X198583D02*
D03*
X225583D02*
D03*
X234583D02*
D03*
X180583D02*
D03*
X162583D02*
D03*
X171583D02*
D03*
X126583D02*
D03*
X135583D02*
D03*
X108583D02*
D03*
X117583D02*
D03*
X144583D02*
D03*
X153583D02*
D03*
X99583D02*
D03*
X90583D02*
D03*
X47554Y788619D02*
D03*
X55803Y785022D02*
D03*
X38605Y789574D02*
D03*
X29782Y787797D02*
D03*
X72583Y779816D02*
D03*
X81583D02*
D03*
X21898Y783456D02*
D03*
X63613Y780548D02*
D03*
X15680Y776949D02*
D03*
X11699Y768877D02*
D03*
X10248Y759995D02*
D03*
X10184Y750995D02*
D03*
Y732996D02*
D03*
Y741995D02*
D03*
X10184Y723996D02*
D03*
Y714996D02*
D03*
Y696996D02*
D03*
Y705996D02*
D03*
X10184Y669996D02*
D03*
Y687996D02*
D03*
Y678996D02*
D03*
X10184Y651996D02*
D03*
Y642996D02*
D03*
X10184Y660996D02*
D03*
X10184Y633996D02*
D03*
Y624996D02*
D03*
X10184Y606996D02*
D03*
Y615996D02*
D03*
X10184Y579996D02*
D03*
Y570996D02*
D03*
X10184Y597996D02*
D03*
Y588996D02*
D03*
X10184Y552996D02*
D03*
X10184Y561996D02*
D03*
X10184Y543996D02*
D03*
Y534996D02*
D03*
X10184Y516996D02*
D03*
Y507996D02*
D03*
X10184Y525996D02*
D03*
X10184Y480996D02*
D03*
X10184Y498996D02*
D03*
Y489996D02*
D03*
X10184Y462996D02*
D03*
Y471996D02*
D03*
Y453996D02*
D03*
X10184Y444996D02*
D03*
Y426996D02*
D03*
Y417996D02*
D03*
Y435996D02*
D03*
X683419Y20184D02*
D03*
X692419D02*
D03*
X674419D02*
D03*
X656419D02*
D03*
X665419D02*
D03*
X647419D02*
D03*
X629419D02*
D03*
X638419D02*
D03*
X620419D02*
D03*
X575419Y20184D02*
D03*
X584419D02*
D03*
X557419D02*
D03*
X566419D02*
D03*
X602419D02*
D03*
X611419D02*
D03*
X593419D02*
D03*
X539420D02*
D03*
X548419D02*
D03*
X530420D02*
D03*
X521419D02*
D03*
X485420D02*
D03*
X503419D02*
D03*
X512420D02*
D03*
X494420D02*
D03*
X10184Y390996D02*
D03*
Y408996D02*
D03*
Y399996D02*
D03*
X10184Y372996D02*
D03*
Y363996D02*
D03*
Y381996D02*
D03*
X10184Y336996D02*
D03*
Y327996D02*
D03*
X10184Y354996D02*
D03*
X10184Y345996D02*
D03*
X10184Y309996D02*
D03*
Y300996D02*
D03*
X10184Y318996D02*
D03*
X10184Y282996D02*
D03*
X10184Y273997D02*
D03*
Y264996D02*
D03*
X10184Y291996D02*
D03*
X10184Y192997D02*
D03*
X10184Y237997D02*
D03*
Y228997D02*
D03*
X10184Y255996D02*
D03*
Y246996D02*
D03*
X10184Y210997D02*
D03*
Y201997D02*
D03*
X10184Y219997D02*
D03*
X449420Y20184D02*
D03*
X467420D02*
D03*
X476420D02*
D03*
X458420D02*
D03*
X404420D02*
D03*
X413420D02*
D03*
X386420D02*
D03*
X395420D02*
D03*
X431420D02*
D03*
X440420D02*
D03*
X422420D02*
D03*
X350420D02*
D03*
X359420D02*
D03*
X341420D02*
D03*
X368420D02*
D03*
X377420D02*
D03*
X296420Y20184D02*
D03*
X305420D02*
D03*
X323420D02*
D03*
X332420D02*
D03*
X314420D02*
D03*
X251420D02*
D03*
X260420D02*
D03*
X233420D02*
D03*
X242420D02*
D03*
X278420D02*
D03*
X287420D02*
D03*
X269420D02*
D03*
X10184Y183997D02*
D03*
X10184Y174997D02*
D03*
Y156997D02*
D03*
Y147997D02*
D03*
Y165997D02*
D03*
X10184Y138997D02*
D03*
Y129997D02*
D03*
Y111997D02*
D03*
Y120997D02*
D03*
X89420Y20184D02*
D03*
X107420D02*
D03*
X116420D02*
D03*
X98420D02*
D03*
X188420D02*
D03*
X197420D02*
D03*
X170420D02*
D03*
X179420D02*
D03*
X215420D02*
D03*
X224420D02*
D03*
X206420D02*
D03*
X125420D02*
D03*
X134420D02*
D03*
X152420D02*
D03*
X161420D02*
D03*
X143420D02*
D03*
X10379Y41220D02*
D03*
X10184Y84997D02*
D03*
Y75997D02*
D03*
Y102997D02*
D03*
Y93997D02*
D03*
X10374Y59220D02*
D03*
X10377Y50220D02*
D03*
X10372Y68220D02*
D03*
X71420Y20184D02*
D03*
X80420D02*
D03*
X62484Y19115D02*
D03*
X21016Y17298D02*
D03*
X54829Y14381D02*
D03*
X11421Y32280D02*
D03*
X15067Y24052D02*
D03*
X46443Y11114D02*
D03*
X37463Y10516D02*
D03*
X28718Y12643D02*
D03*
D209*
X425000Y140000D02*
D03*
D210*
X402839Y156256D02*
D03*
Y149754D02*
D03*
Y143251D02*
D03*
Y136749D02*
D03*
Y130246D02*
D03*
Y123744D02*
D03*
X447161D02*
D03*
Y130246D02*
D03*
Y136749D02*
D03*
Y143251D02*
D03*
Y149754D02*
D03*
Y156256D02*
D03*
D225*
X550550Y592750D02*
D03*
Y576750D02*
D03*
X486550Y600750D02*
D03*
X534550Y592750D02*
D03*
X486550D02*
D03*
X494550Y576750D02*
D03*
X550550Y568750D02*
D03*
Y552750D02*
D03*
Y480750D02*
D03*
X542550Y536750D02*
D03*
Y568750D02*
D03*
X550550Y512750D02*
D03*
X494550Y568750D02*
D03*
X486550Y552750D02*
D03*
Y560750D02*
D03*
X494550Y552750D02*
D03*
Y536750D02*
D03*
X486550Y512750D02*
D03*
Y496750D02*
D03*
X550550D02*
D03*
X486550Y480750D02*
D03*
X550550Y600750D02*
D03*
Y584750D02*
D03*
X542550Y592750D02*
D03*
X550550Y560750D02*
D03*
X542550Y576750D02*
D03*
X494550Y600750D02*
D03*
X486550Y576750D02*
D03*
Y584750D02*
D03*
X502550Y552750D02*
D03*
X486550Y568750D02*
D03*
X542550Y544750D02*
D03*
Y528750D02*
D03*
X486550Y544750D02*
D03*
X494550Y528750D02*
D03*
X550550Y504750D02*
D03*
X486550D02*
D03*
X550550Y488750D02*
D03*
X486550D02*
D03*
X494550Y512750D02*
D03*
X550550Y544750D02*
D03*
X542550Y600750D02*
D03*
X534550D02*
D03*
X502550D02*
D03*
Y592750D02*
D03*
X494550D02*
D03*
X542550Y584750D02*
D03*
X534550D02*
D03*
X502550D02*
D03*
X494550D02*
D03*
X534550Y576750D02*
D03*
X502550D02*
D03*
X534550Y568750D02*
D03*
X502550D02*
D03*
X542550Y560750D02*
D03*
X534550D02*
D03*
X502550D02*
D03*
X494550D02*
D03*
X542550Y552750D02*
D03*
X534550D02*
D03*
Y544750D02*
D03*
X502550D02*
D03*
X494550D02*
D03*
X550550Y536750D02*
D03*
X534550D02*
D03*
X502550D02*
D03*
X486550D02*
D03*
X550550Y528750D02*
D03*
X534550D02*
D03*
X502550D02*
D03*
X486550D02*
D03*
X550550Y520750D02*
D03*
X542550D02*
D03*
X534550D02*
D03*
X502550D02*
D03*
X494550D02*
D03*
X486550D02*
D03*
X542550Y512750D02*
D03*
X534550D02*
D03*
X502550D02*
D03*
X542550Y504750D02*
D03*
X534550D02*
D03*
X502550D02*
D03*
X494550D02*
D03*
X542550Y496750D02*
D03*
X534550D02*
D03*
X502550D02*
D03*
X494550D02*
D03*
X542550Y488750D02*
D03*
X534550D02*
D03*
X502550D02*
D03*
X494550D02*
D03*
X542550Y480750D02*
D03*
X534550D02*
D03*
X502550D02*
D03*
X494550D02*
D03*
D231*
X694550Y351750D02*
D03*
X642550D02*
D03*
X720550Y319250D02*
D03*
X694550Y429750D02*
D03*
X655550Y390750D02*
D03*
X629550Y429750D02*
D03*
X649050Y416750D02*
D03*
X636050Y403750D02*
D03*
X629550D02*
D03*
X610050Y423250D02*
D03*
X616550Y403750D02*
D03*
X681550Y384250D02*
D03*
X655550Y397250D02*
D03*
Y377750D02*
D03*
X675050D02*
D03*
X668550Y371250D02*
D03*
X642550Y397250D02*
D03*
X636050D02*
D03*
Y377750D02*
D03*
X616550Y384250D02*
D03*
X662050Y390750D02*
D03*
X603550Y423250D02*
D03*
X636050Y332250D02*
D03*
X655550D02*
D03*
X694550D02*
D03*
X655550Y351750D02*
D03*
X681550D02*
D03*
X616550Y364750D02*
D03*
X720550D02*
D03*
X681550Y377750D02*
D03*
X720550Y384250D02*
D03*
X701050Y403750D02*
D03*
X707550D02*
D03*
X720550D02*
D03*
X707550Y416750D02*
D03*
X727050Y423250D02*
D03*
X610050Y306250D02*
D03*
X629550Y312750D02*
D03*
X649050D02*
D03*
X668550D02*
D03*
X688050D02*
D03*
X707550D02*
D03*
X616550Y325750D02*
D03*
X642550Y332250D02*
D03*
X681550D02*
D03*
X616550Y345250D02*
D03*
X720550D02*
D03*
X701050Y351750D02*
D03*
Y377750D02*
D03*
X668550Y384250D02*
D03*
X681550Y397250D02*
D03*
X688050Y416750D02*
D03*
X727050Y306250D02*
D03*
X701050Y325750D02*
D03*
X707550D02*
D03*
X720550D02*
D03*
X701050Y332250D02*
D03*
X610050Y299750D02*
D03*
X616550D02*
D03*
X623050D02*
D03*
X642550D02*
D03*
X655550D02*
D03*
X681550D02*
D03*
X694550D02*
D03*
X701050D02*
D03*
X714050D02*
D03*
X720550D02*
D03*
X727050D02*
D03*
X603550Y306250D02*
D03*
X616550D02*
D03*
X623050D02*
D03*
X642550D02*
D03*
X655550D02*
D03*
X681550D02*
D03*
X694550D02*
D03*
X701050D02*
D03*
X714050D02*
D03*
X720550D02*
D03*
X733550D02*
D03*
X603550Y312750D02*
D03*
X610050D02*
D03*
X616550D02*
D03*
X623050D02*
D03*
X636050D02*
D03*
X642550D02*
D03*
X694550D02*
D03*
X701050D02*
D03*
X714050D02*
D03*
X720550D02*
D03*
X727050D02*
D03*
X733550D02*
D03*
X603550Y319250D02*
D03*
X610050D02*
D03*
X616550D02*
D03*
X623050D02*
D03*
X629550D02*
D03*
X636050D02*
D03*
X642550D02*
D03*
X649050D02*
D03*
X688050D02*
D03*
X694550D02*
D03*
X701050D02*
D03*
X707550D02*
D03*
X714050D02*
D03*
X727050D02*
D03*
X733550D02*
D03*
X623050Y325750D02*
D03*
X629550D02*
D03*
X636050D02*
D03*
X649050D02*
D03*
X688050D02*
D03*
X714050D02*
D03*
X603550Y332250D02*
D03*
X610050D02*
D03*
X616550D02*
D03*
X623050D02*
D03*
X649050D02*
D03*
X688050D02*
D03*
X714050D02*
D03*
X720550D02*
D03*
X727050D02*
D03*
X733550D02*
D03*
X603550Y338750D02*
D03*
X610050D02*
D03*
X616550D02*
D03*
X623050D02*
D03*
X636050D02*
D03*
X649050D02*
D03*
X655550D02*
D03*
X662050D02*
D03*
X675050D02*
D03*
X681550D02*
D03*
X688050D02*
D03*
X701050D02*
D03*
X714050D02*
D03*
X720550D02*
D03*
X727050D02*
D03*
X733550D02*
D03*
X623050Y345250D02*
D03*
X629550D02*
D03*
X636050D02*
D03*
X642550D02*
D03*
X655550D02*
D03*
X662050D02*
D03*
X668550D02*
D03*
X675050D02*
D03*
X681550D02*
D03*
X694550D02*
D03*
X701050D02*
D03*
X707550D02*
D03*
X714050D02*
D03*
X603550Y351750D02*
D03*
X610050D02*
D03*
X649050D02*
D03*
X662050D02*
D03*
X668550D02*
D03*
X675050D02*
D03*
X688050D02*
D03*
X727050D02*
D03*
X733550D02*
D03*
X642550Y358250D02*
D03*
X649050D02*
D03*
X655550D02*
D03*
X662050D02*
D03*
X675050D02*
D03*
X681550D02*
D03*
X688050D02*
D03*
X694550D02*
D03*
X649050Y364750D02*
D03*
X655550D02*
D03*
X681550D02*
D03*
X688050D02*
D03*
X642550Y371250D02*
D03*
X649050D02*
D03*
X655550D02*
D03*
X662050D02*
D03*
X675050D02*
D03*
X681550D02*
D03*
X688050D02*
D03*
X694550D02*
D03*
X603550Y377750D02*
D03*
X610050D02*
D03*
X642550D02*
D03*
X649050D02*
D03*
X662050D02*
D03*
X668550D02*
D03*
X688050D02*
D03*
X694550D02*
D03*
X727050D02*
D03*
X733550D02*
D03*
X623050Y384250D02*
D03*
X629550D02*
D03*
X636050D02*
D03*
X642550D02*
D03*
X655550D02*
D03*
X662050D02*
D03*
X675050D02*
D03*
X694550D02*
D03*
X701050D02*
D03*
X707550D02*
D03*
X714050D02*
D03*
X603550Y390750D02*
D03*
X610050D02*
D03*
X616550D02*
D03*
X623050D02*
D03*
X636050D02*
D03*
X649050D02*
D03*
X675050D02*
D03*
X681550D02*
D03*
X688050D02*
D03*
X701050D02*
D03*
X714050D02*
D03*
X720550D02*
D03*
X727050D02*
D03*
X733550D02*
D03*
X603550Y397250D02*
D03*
X610050D02*
D03*
X616550D02*
D03*
X623050D02*
D03*
X649050D02*
D03*
X688050D02*
D03*
X694550D02*
D03*
X701050D02*
D03*
X714050D02*
D03*
X720550D02*
D03*
X727050D02*
D03*
X733550D02*
D03*
X623050Y403750D02*
D03*
X649050D02*
D03*
X688050D02*
D03*
X714050D02*
D03*
X603550Y410250D02*
D03*
X610050D02*
D03*
X616550D02*
D03*
X623050D02*
D03*
X629550D02*
D03*
X636050D02*
D03*
X642550D02*
D03*
X649050D02*
D03*
X688050D02*
D03*
X694550D02*
D03*
X701050D02*
D03*
X707550D02*
D03*
X714050D02*
D03*
X720550D02*
D03*
X727050D02*
D03*
X733550D02*
D03*
X603550Y416750D02*
D03*
X610050D02*
D03*
X616550D02*
D03*
X623050D02*
D03*
X636050D02*
D03*
X642550D02*
D03*
X668550D02*
D03*
X694550D02*
D03*
X701050D02*
D03*
X714050D02*
D03*
X720550D02*
D03*
X727050D02*
D03*
X733550D02*
D03*
X616550Y423250D02*
D03*
X623050D02*
D03*
X636050D02*
D03*
X642550D02*
D03*
X655550D02*
D03*
X681550D02*
D03*
X694550D02*
D03*
X701050D02*
D03*
X714050D02*
D03*
X720550D02*
D03*
X733550D02*
D03*
X610050Y429750D02*
D03*
X616550D02*
D03*
X623050D02*
D03*
X636050D02*
D03*
X642550D02*
D03*
X681550D02*
D03*
X701050D02*
D03*
X714050D02*
D03*
X720550D02*
D03*
X727050D02*
D03*
X636050Y351750D02*
D03*
Y299750D02*
D03*
Y306250D02*
D03*
X603550Y299750D02*
D03*
Y325750D02*
D03*
X629550Y299750D02*
D03*
Y332250D02*
D03*
X649050Y299750D02*
D03*
X668550D02*
D03*
X688050D02*
D03*
X642550Y325750D02*
D03*
X655550Y319250D02*
D03*
X668550Y338750D02*
D03*
X681550Y319250D02*
D03*
X603550Y345250D02*
D03*
Y364750D02*
D03*
Y384250D02*
D03*
X629550Y338750D02*
D03*
X623050Y351750D02*
D03*
Y377750D02*
D03*
X603550Y403750D02*
D03*
X629550Y390750D02*
D03*
Y397250D02*
D03*
Y416750D02*
D03*
X642550Y338750D02*
D03*
X649050Y345250D02*
D03*
X642550Y364750D02*
D03*
X668550Y358250D02*
D03*
X688050Y345250D02*
D03*
X668550Y364750D02*
D03*
X642550Y390750D02*
D03*
X649050Y384250D02*
D03*
X642550Y403750D02*
D03*
X655550Y410250D02*
D03*
X688050Y384250D02*
D03*
X668550Y390750D02*
D03*
X681550Y410250D02*
D03*
X603550Y429750D02*
D03*
X649050D02*
D03*
X655550D02*
D03*
X668550D02*
D03*
X688050D02*
D03*
X707550Y299750D02*
D03*
X733550D02*
D03*
Y325750D02*
D03*
X694550D02*
D03*
X707550Y332250D02*
D03*
X694550Y338750D02*
D03*
X707550D02*
D03*
X714050Y351750D02*
D03*
X733550Y345250D02*
D03*
X694550Y364750D02*
D03*
Y390750D02*
D03*
X714050Y377750D02*
D03*
X733550Y364750D02*
D03*
Y384250D02*
D03*
X707550Y390750D02*
D03*
Y397250D02*
D03*
X694550Y403750D02*
D03*
X707550Y429750D02*
D03*
X733550Y403750D02*
D03*
Y429750D02*
D03*
D232*
X687000Y499620D02*
D03*
Y484380D02*
D03*
D233*
X733750Y491250D02*
D03*
X733750Y480750D02*
D03*
X718250Y491250D02*
D03*
Y480750D02*
D03*
D234*
X758000Y558000D02*
D03*
X768000Y628000D02*
D03*
X798000Y618000D02*
D03*
X768000Y608000D02*
D03*
Y578000D02*
D03*
X738000Y618000D02*
D03*
X718000Y628000D02*
D03*
Y618000D02*
D03*
Y598000D02*
D03*
Y608000D02*
D03*
Y578000D02*
D03*
Y588000D02*
D03*
X798000Y568000D02*
D03*
X768000Y558000D02*
D03*
X738000Y568000D02*
D03*
X718000D02*
D03*
Y558000D02*
D03*
X668000Y638000D02*
D03*
Y628000D02*
D03*
Y558000D02*
D03*
Y548000D02*
D03*
X678000Y638000D02*
D03*
Y548000D02*
D03*
X698000Y628000D02*
D03*
Y618000D02*
D03*
Y608000D02*
D03*
Y598000D02*
D03*
Y588000D02*
D03*
Y578000D02*
D03*
Y568000D02*
D03*
Y558000D02*
D03*
X708000Y628000D02*
D03*
Y618000D02*
D03*
Y608000D02*
D03*
Y598000D02*
D03*
Y588000D02*
D03*
Y578000D02*
D03*
Y568000D02*
D03*
Y558000D02*
D03*
X738000Y608000D02*
D03*
Y598000D02*
D03*
Y588000D02*
D03*
Y578000D02*
D03*
X748000Y628000D02*
D03*
Y618000D02*
D03*
Y608000D02*
D03*
Y588000D02*
D03*
Y578000D02*
D03*
Y568000D02*
D03*
Y558000D02*
D03*
X758000Y628000D02*
D03*
Y618000D02*
D03*
Y608000D02*
D03*
Y598000D02*
D03*
Y588000D02*
D03*
Y578000D02*
D03*
Y568000D02*
D03*
X768000Y598000D02*
D03*
Y588000D02*
D03*
X778000Y628000D02*
D03*
Y618000D02*
D03*
Y598000D02*
D03*
Y588000D02*
D03*
Y568000D02*
D03*
Y558000D02*
D03*
X788000Y628000D02*
D03*
Y618000D02*
D03*
Y608000D02*
D03*
Y598000D02*
D03*
Y588000D02*
D03*
Y578000D02*
D03*
Y568000D02*
D03*
Y558000D02*
D03*
X798000Y608000D02*
D03*
Y598000D02*
D03*
Y588000D02*
D03*
Y578000D02*
D03*
X818000Y638000D02*
D03*
Y548000D02*
D03*
X828000Y638000D02*
D03*
Y628000D02*
D03*
Y558000D02*
D03*
Y548000D02*
D03*
X728000Y568000D02*
D03*
Y558000D02*
D03*
Y588000D02*
D03*
Y578000D02*
D03*
Y598000D02*
D03*
Y608000D02*
D03*
X738000Y558000D02*
D03*
X768000Y568000D02*
D03*
X748000Y598000D02*
D03*
X728000Y618000D02*
D03*
Y628000D02*
D03*
X768000Y618000D02*
D03*
X738000Y628000D02*
D03*
X798000Y558000D02*
D03*
X778000Y578000D02*
D03*
Y608000D02*
D03*
X798000Y628000D02*
D03*
D235*
X377119Y421010D02*
D03*
X357119Y411510D02*
D03*
Y430510D02*
D03*
D236*
X501000Y59802D02*
D03*
X494500D02*
D03*
X507500D02*
D03*
X514000D02*
D03*
X488000D02*
D03*
D237*
X485506Y33202D02*
D03*
D238*
X467250D02*
D03*
X534750D02*
D03*
X929500Y312000D02*
D03*
X952500Y274000D02*
D03*
Y312000D02*
D03*
X929500Y274000D02*
D03*
D239*
X512500Y33202D02*
D03*
D240*
X476125Y58952D02*
D03*
X525875D02*
D03*
D241*
X511000Y247750D02*
D03*
X495000Y264250D02*
D03*
Y247750D02*
D03*
X511000Y264250D02*
D03*
D242*
X1667750Y427500D02*
D03*
X1654750Y386500D02*
D03*
X1661250D02*
D03*
X1648250D02*
D03*
X1654750Y427500D02*
D03*
X1661250D02*
D03*
X1667750Y386500D02*
D03*
X1648250Y427500D02*
D03*
D243*
X1190000Y423500D02*
D03*
X978000Y393500D02*
D03*
X1190000Y498500D02*
D03*
Y418500D02*
D03*
X978000Y503500D02*
D03*
Y398500D02*
D03*
Y378500D02*
D03*
X1190000Y358500D02*
D03*
Y363500D02*
D03*
Y368500D02*
D03*
Y373500D02*
D03*
Y378500D02*
D03*
Y383500D02*
D03*
Y388500D02*
D03*
Y393500D02*
D03*
Y398500D02*
D03*
Y403500D02*
D03*
Y408500D02*
D03*
Y413500D02*
D03*
Y428500D02*
D03*
Y433500D02*
D03*
Y438500D02*
D03*
Y443500D02*
D03*
Y448500D02*
D03*
Y453500D02*
D03*
Y458500D02*
D03*
Y463500D02*
D03*
Y468500D02*
D03*
Y473500D02*
D03*
Y478500D02*
D03*
Y488500D02*
D03*
Y493500D02*
D03*
Y503500D02*
D03*
Y508500D02*
D03*
Y513500D02*
D03*
Y518500D02*
D03*
Y523500D02*
D03*
Y528500D02*
D03*
Y533500D02*
D03*
X978000D02*
D03*
Y528500D02*
D03*
Y523500D02*
D03*
Y518500D02*
D03*
Y513500D02*
D03*
Y508500D02*
D03*
Y498500D02*
D03*
Y493500D02*
D03*
Y488500D02*
D03*
Y483500D02*
D03*
Y478500D02*
D03*
Y473500D02*
D03*
Y468500D02*
D03*
Y463500D02*
D03*
Y458500D02*
D03*
Y453500D02*
D03*
Y448500D02*
D03*
Y443500D02*
D03*
Y438500D02*
D03*
Y433500D02*
D03*
Y428500D02*
D03*
Y423500D02*
D03*
Y418500D02*
D03*
Y413500D02*
D03*
Y408500D02*
D03*
Y403500D02*
D03*
Y388500D02*
D03*
Y383500D02*
D03*
Y373500D02*
D03*
Y368500D02*
D03*
Y363500D02*
D03*
Y358500D02*
D03*
X1190000Y483500D02*
D03*
D244*
X1116500Y551500D02*
D03*
X1031500D02*
D03*
X1141500Y340500D02*
D03*
X1026500D02*
D03*
X1041500D02*
D03*
X1171500Y551500D02*
D03*
X1026500D02*
D03*
X1046500Y340500D02*
D03*
X1001500D02*
D03*
X996500D02*
D03*
X1006500D02*
D03*
X1011500D02*
D03*
X1016500D02*
D03*
X1021500D02*
D03*
X1051500D02*
D03*
X1056500D02*
D03*
X1061500D02*
D03*
X1066500D02*
D03*
X1071500D02*
D03*
X1076500D02*
D03*
X1081500D02*
D03*
X1086500D02*
D03*
X1091500D02*
D03*
X1096500D02*
D03*
X1101500D02*
D03*
X1106500D02*
D03*
X1111500D02*
D03*
X1116500D02*
D03*
X1121500D02*
D03*
X1126500D02*
D03*
X1131500D02*
D03*
X1136500D02*
D03*
X1146500D02*
D03*
X1151500D02*
D03*
X1156500D02*
D03*
X1161500D02*
D03*
X1166500D02*
D03*
X1171500D02*
D03*
X1166500Y551500D02*
D03*
X1161500D02*
D03*
X1156500D02*
D03*
X1151500D02*
D03*
X1146500D02*
D03*
X1141500D02*
D03*
X1136500D02*
D03*
X1131500D02*
D03*
X1126500D02*
D03*
X1121500D02*
D03*
X1111500D02*
D03*
X1106500D02*
D03*
X1101500D02*
D03*
X1096500D02*
D03*
X1091500D02*
D03*
X1086500D02*
D03*
X1081500D02*
D03*
X1076500D02*
D03*
X1071500D02*
D03*
X1066500D02*
D03*
X1061500D02*
D03*
X1056500D02*
D03*
X1051500D02*
D03*
X1046500D02*
D03*
X1041500D02*
D03*
X1036500D02*
D03*
X1021500D02*
D03*
X1016500D02*
D03*
X1011500D02*
D03*
X1006500D02*
D03*
X1001500D02*
D03*
X996500D02*
D03*
X1036500Y340500D02*
D03*
X1031500D02*
D03*
D245*
X194920Y683653D02*
D03*
X163920D02*
D03*
X98920D02*
D03*
X67920D02*
D03*
X194920Y592653D02*
D03*
Y501653D02*
D03*
X163920Y592653D02*
D03*
X67920D02*
D03*
X98920D02*
D03*
X163920Y501653D02*
D03*
X98920D02*
D03*
X67920D02*
D03*
X194920Y410653D02*
D03*
X322000Y278000D02*
D03*
Y188000D02*
D03*
X290000Y278000D02*
D03*
X163920Y410653D02*
D03*
X98920D02*
D03*
X67920D02*
D03*
X315000Y167000D02*
D03*
X290000Y188000D02*
D03*
X283000Y167000D02*
D03*
X201000Y166000D02*
D03*
X233000D02*
D03*
X290000Y306000D02*
D03*
X322000D02*
D03*
X290000Y216000D02*
D03*
X322000D02*
D03*
X283000Y139000D02*
D03*
X315000D02*
D03*
X233000Y138000D02*
D03*
X201000D02*
D03*
X67920Y382653D02*
D03*
X98920D02*
D03*
X194920D02*
D03*
X163920D02*
D03*
X194920Y473653D02*
D03*
X163920D02*
D03*
X98920D02*
D03*
X67920D02*
D03*
X194920Y655653D02*
D03*
X163920D02*
D03*
X98920D02*
D03*
X67920D02*
D03*
X98920Y564653D02*
D03*
X67920D02*
D03*
X194920D02*
D03*
X163920D02*
D03*
D246*
X168920Y705653D02*
D03*
Y614653D02*
D03*
X72920Y705653D02*
D03*
Y614653D02*
D03*
X168920Y432653D02*
D03*
Y523653D02*
D03*
X72920D02*
D03*
Y432653D02*
D03*
X417150Y331241D02*
D03*
Y299242D02*
D03*
X389150D02*
D03*
Y331241D02*
D03*
X44920Y432653D02*
D03*
X140920D02*
D03*
X44920Y523653D02*
D03*
Y705653D02*
D03*
X140920D02*
D03*
X44920Y614653D02*
D03*
X140920Y523653D02*
D03*
Y614653D02*
D03*
D247*
X411150Y263242D02*
D03*
X370150D02*
D03*
D248*
X210000Y427788D02*
D03*
Y457788D02*
D03*
X114000Y458000D02*
D03*
Y428000D02*
D03*
Y549000D02*
D03*
Y519000D02*
D03*
Y640000D02*
D03*
Y610000D02*
D03*
X210000Y519000D02*
D03*
Y549000D02*
D03*
X209000Y640000D02*
D03*
Y610000D02*
D03*
D249*
X216000Y427788D02*
D03*
X204000D02*
D03*
Y457788D02*
D03*
X216000D02*
D03*
X120000Y458000D02*
D03*
X108000D02*
D03*
Y428000D02*
D03*
X120000D02*
D03*
Y549000D02*
D03*
X108000D02*
D03*
Y519000D02*
D03*
X120000D02*
D03*
Y640000D02*
D03*
X108000D02*
D03*
Y610000D02*
D03*
X120000D02*
D03*
X216000Y519000D02*
D03*
X204000D02*
D03*
Y549000D02*
D03*
X216000D02*
D03*
X215000Y640000D02*
D03*
X203000D02*
D03*
Y610000D02*
D03*
X215000D02*
D03*
M02*
