M48
;Layer_Color=9474304
;FILE_FORMAT=4:3
METRIC,TZ
;TYPE=PLATED
T01F00S00C0.200
T02F00S00C0.300
T03F00S00C0.800
T04F00S00C1.000
T05F00S00C1.100
T06F00S00C2.030
T07F00S00C3.200
%
T01
X148500Y4500
X150500Y4500
X152500
X154500
Y6500
Y8500
X152500Y6500
X151500Y7000
X150250
X148700Y6900
X172500Y6500
Y4500
X170500
X146500
X144500Y4500
X142500Y4500
X141000Y4500
X138500Y4500
X136500
Y6500
X134500
Y4500
X132500
Y6500
X131200Y6000
X130500Y4500
X128500
X129255Y6712
X126255
X124500Y6500
Y4500
X122500Y6300
X120500Y6500
Y4500
X118500
Y6500
X116500
Y8500
Y4500
X114500
Y6500
X111200Y5900
X110500Y6500
X109700Y5800
Y3700
X111200Y4300
X112500Y4000
X141250Y7000
X142700Y6900
X144250Y7000
X145800Y6900
X147250Y7000
X108300Y5800
X106800Y5600
X105200Y5400
X103800
X98500Y4500
X96500
Y6500
X94500Y4500
X88900Y5600
X88588Y6777
X88600Y7800
X87100
X87048Y6965
X86300Y6700
X84800Y6590
X85600Y7800
X84800Y8800
X87800Y6300
X72500Y6500
Y4500
X70500
Y6500
X68500
Y4500
X66500
Y6500
X64500
Y4500
X62500
Y6500
X62200Y7000
X60700Y6900
X59200Y7000
X58500Y6500
X57800Y7000
X58000Y5500
X58500Y4500
X60500
X61500Y5500
X56500Y4500
Y6500
X54500
Y4500
X52500
X50500
X48500
X46500
Y6500
X48800Y7300
X52400Y7600
X42600Y7000
X42500Y4500
X44500
X40500
Y6500
X38500
X37900Y6800
X38500Y4500
X36500
X34500
X32500
X30500
X29000Y6500
Y9000
X31200Y8737
X32000
X31200Y7937
X33500Y6900
X28100Y6950
Y7450
X28500Y8500
X28100Y8975
X28500Y4500
X26500
X24500
X22500
X20500
X18500
X16500
X14500
Y6500
X15300Y6400
Y7000
X16200
Y6400
X17200
X13800Y7000
X12900
X11800
X10800
X9700
Y7800
X8500Y6500
Y4500
X10500
X12500
X11750Y9200
X11250
X6500Y6500
X7682Y10550
X8982
X11000Y10500
X11382Y11650
X13482Y10650
X13800Y9300
X15200
X15482Y10750
X14582Y11250
X18300Y11100
X19000
X19700
Y9600
X21750Y9700
X22250
X23600Y11200
Y12100
X23500Y15100
X22700
X22300Y14700
X23100
X21900Y15100
X21500Y14700
X19767Y17588
X19100Y17600
X18400
X18500Y18500
X20100Y19250
X21400Y21550
Y22650
X22600
Y21550
X24000
Y22650
Y23950
X22600
X21400
X20400Y24600
Y25100
X19600Y24600
X18500Y24500
X17700Y25000
X16800
X16500Y22500
X15482Y23150
X14182Y22550
X12482Y23250
X10500Y22500
X8500
X8382Y21150
X8782Y20050
X8382Y19350
X8482Y18450
X8782Y17850
X8682Y16750
Y15950
X8270Y15338
X8382Y14550
X8782Y13450
X8382Y12050
X5982Y12150
X5882Y13450
Y14450
X6082Y15450
X5982Y16450
Y17950
X6082Y18950
X4500Y18500
Y20500
X5982Y20950
X6500Y22500
X4500
X2500
Y20500
Y18500
Y16500
Y14500
Y12500
X4500
Y14500
Y16500
X2400Y10400
X1857Y27810
X4100Y26900
X5100Y26700
X7400Y27300
X8000Y29300
X7100Y30200
X8000Y31100
X6200
Y29300
X4200Y28800
X3200Y34400
X2600
Y35300
X3200
X6300Y36600
X9284Y36531
X9300Y37100
X9884Y37131
Y36531
X12592Y36215
X13492
X14392Y36215
X15400Y37100
X14384Y38487
X12000Y38600
Y37700
X12000Y35300
X12600
Y34400
X12000
X13600Y32800
Y32300
X12600Y31100
Y30600
X11300Y30300
X10100Y30600
Y31100
X9900Y32500
X9400
X10600Y27800
Y25700
X9000Y25000
X8100
X8500Y24500
X12900Y26900
X13800Y26700
X13000Y28800
X14900Y29300
X16700
X15800Y30200
X16700Y31100
X14900
X18200Y32000
X18700
X17600Y32600
Y33100
X19965Y34397
X20400Y34900
X19500
X19484Y36531
X18884
Y37131
X19484
X21511Y37611
X22500Y36500
X24500
X24512Y38151
X24537Y38651
X25062
Y39151
X25562Y39126
X25562Y38651
X25562Y38151
X25037
X27087Y38801
X27587
X28112
X28637
X28112Y39451
Y40076
Y40676
Y41301
Y41926
Y42551
X27362Y42576
Y42126
X26887
X25937Y41851
Y41376
Y40926
X26500Y40500
X24500
X22500
X22412Y42376
X22987
X23562
X24162
X24200Y45100
X23500
X22700Y46100
X22300Y46800
X23862Y46726
X24437
X24037Y47401
Y48001
X26899Y46977
X28099
X28099Y45777
X28099Y44577
X26899
Y45777
X28884Y42576
Y42126
X28500Y36500
X26500
X25800Y34800
Y34100
X24900
Y34800
X24000Y33000
Y31700
Y30600
X22600
Y31700
X21400
Y30600
Y33000
X22600
X27000
X27100Y31600
Y30900
Y30300
X26500Y26500
X25800Y25750
Y25050
X24900
Y25750
X24500Y26500
X22500
X19400Y25700
X20100Y28300
X16100Y27400
X18500Y22500
X27203Y22518
X27100Y21850
Y21250
X27000Y24000
X26400Y17000
Y16400
X26877Y11271
X27577
X28277
X28100Y9475
X21000Y41979
X21594Y43600
X21700Y44300
X21000Y44800
X20400Y43600
X18084Y43631
Y43031
Y42431
Y44231
X18500Y45600
Y46200
X19200
Y45600
X20500Y48500
X14100Y48200
X14384Y47587
X14392Y45315
X13492Y45315
X12700Y45300
X13000Y44200
X12400
X11800Y43600
X11000
X11400Y45000
X9600Y45600
Y46200
X8900
Y45600
X8484Y44231
Y43631
Y43031
Y42431
X11400Y42000
X12600Y41100
Y40500
X13500
Y41100
X15885Y44231
X15400Y46200
X12000Y47700
X4784Y47587
X4500Y48500
X2400Y47700
Y46800
X2992Y45315
X3892
X4792Y45315
X5800Y46200
X6285Y44231
X3400Y44200
X2800
X3000Y41100
Y40500
X3900
Y41100
X4535Y38583
X29137Y38801
X31162Y38651
X31687
X32212
X32712
X32684Y42376
X33259
X33834
X32084
X30309Y41851
Y41376
Y40926
X29359Y42126
X29299Y44577
Y45777
Y46977
X31437Y47701
X32171Y47710
X33837Y48101
X33712Y46876
Y45876
X33737Y44351
X32487Y45226
X31437Y44376
X35700Y42400
X36400Y41900
X36312Y40051
X36212Y39451
X36287Y38851
X37500Y37500
Y36900
X38087Y37476
X38612Y37476
X38500Y38500
X41437Y38901
Y39401
Y39901
Y41201
Y42101
X43000Y42500
X42800Y40200
X43237Y44901
X39874Y45277
X38974Y46177
X39874Y47077
X38074
X37037Y47801
X38074Y45277
X39312Y42601
X41684Y48384
X44334Y48534
X48305Y48475
X48040Y48051
X48055Y47500
Y46900
X48040Y48899
X53855Y48475
X54629Y48475
X55655Y48875
Y48075
X53855Y47675
X59143Y48518
X59165Y46681
X60626Y43810
X60664Y43311
X60680Y42650
X60710Y42017
Y41312
X61355Y41325
X61980Y41350
Y41974
X62630Y41350
Y40700
X61980Y40700
Y40050
Y39400
X62637Y39456
X63280Y39375
X63303Y38756
X63930Y38750
X64580Y38750
X65203Y38731
X65230Y38100
Y37450
Y36800
X64598Y36175
X63880Y36423
X63916Y38107
X63230Y37793
X61956Y37775
X61455Y37793
X61005Y38400
X59655
X59505Y40375
X60820Y40287
X61330Y40050
X63930Y40050
X63990Y40607
X63991Y41334
X64583Y41354
X63289Y41357
X63283Y41996
X62927Y42408
X62955Y43700
X64913Y43800
X65847Y43800
X66900Y43500
X67600Y44400
X67500Y45100
X66800
X66300Y45400
X65894Y42000
Y41350
X66276Y40700
X65903Y40081
X65179Y40049
X65230Y39400
X64580Y39400
X62653Y38731
X63262Y40730
X64921Y42487
X68130Y41347
X68128Y40103
X68503Y38773
X67203Y38756
X67178Y38106
X67180Y37450
X66544Y36867
X66538Y36091
X66508Y35513
X67153Y36156
X67881Y36149
X67853Y36770
X68480Y37450
X68480Y34850
X68489Y33566
X68154Y32583
X68600Y32200
X68152Y31101
X66855Y30900
X66859Y29506
X68537Y29344
X64870Y29511
X64905Y30900
X63930Y30901
X63929Y30299
X62978Y30881
X63259Y31611
X63254Y32228
X62630Y32250
Y33550
X62637Y34215
X63265Y34225
X63907Y34224
X63930Y33550
X64580Y33540
X64580Y32900
X64609Y32268
X64000Y32266
X65546Y32741
X65555Y31500
X65202Y34287
X65226Y34829
X64555Y34850
X64597Y34185
X63390Y35176
X61490
X61280Y34525
X61980Y34200
X61989Y33510
X61341Y33515
X61281Y32575
X59980Y32589
X59505Y31275
X59805Y30125
X59295Y29781
X60641Y29650
X60680Y30300
X60340Y28785
X60100Y28200
X58500Y27200
X57125Y27900
X57100Y29200
X54900Y28800
X54200Y29700
Y27900
X54900Y27000
X52800Y26700
X53400Y25000
X55500Y24200
X57500Y22300
X60500Y21900
X61900Y20400
X62900Y21000
X64400Y21800
X64200Y23600
X63500
X62800Y23800
X65200Y23700
X66700Y23400
X67300Y21200
X66300Y20700
X65900Y16900
X68000Y17100
X67000Y13700
X66500Y13000
X67400Y12800
X66600Y11900
X66600Y11200
X67200Y11000
X67300Y10100
X68500Y10500
X64100Y10800
X63097Y10600
X61000Y10300
X61000Y12500
Y13500
Y14500
X62200Y14700
Y13500
Y12300
X59800
Y13500
Y14700
X59700Y16600
X58903Y16400
X60200Y17100
X61000Y16700
X61800
X62300Y17100
X63203Y16400
X56200Y17000
X54500Y16500
Y14500
X54600Y13700
X54500Y12500
X55500Y12800
X54600Y11000
X53600Y10300
X52700Y11100
X52100
X52500Y12500
X50650Y11700
X50150
X49500Y12600
X48800Y13700
X49400Y14400
X50300Y14500
X52300Y15300
X45800Y14975
X46050Y14325
X45800Y12950
X45779Y12471
X42500Y11300
X40700Y10500
X40500Y9500
X40000
X39000Y9500
X39400Y10600
X41500Y9500
X36700Y11500
X36200
X34650Y11500
X34150
X32200Y11400
Y12300
X32000Y15200
X31600Y14900
X31100Y15200
X30700Y14900
X30300Y15200
X29900Y14900
X35500Y14700
Y15200
X35600Y13150
Y12650
X35700Y18400
X35200
X34500Y18500
X36500
X37700Y18500
X37400Y19100
X37046Y19454
X37200Y17300
X38400Y17200
X39100Y18400
X42100
X41215Y21024
X40100Y22300
Y23500
X38915Y23524
X37815
Y22324
X38915
X36515
Y23524
Y24924
X37815
X38915
X41815Y24750
X42750Y24500
X43500Y24700
X44900Y24200
X45433Y24222
X44500Y23500
X45500Y21500
X46300Y20800
X46800
X48000Y21500
X46500Y22500
X48600Y26400
X46800Y28800
Y29900
X46500Y30500
X45300Y31300
X46000Y33100
X47500Y32271
X48811Y32399
X49100Y31300
X50300Y31400
X52800Y33300
X53100Y34400
X54500Y34200
X54425Y32525
X54800Y31500
X57225Y32875
X59968Y34412
X59993Y36459
X61280Y36461
X65880Y37450
Y38100
X67187Y34833
X66865Y33512
X62923Y29455
X59993Y42423
X59236Y42380
X51500Y34700
X47500Y35000
X44500Y34500
X40615Y33724
X40115Y33324
Y34124
X35815Y33924
X34500Y34500
Y36500
X32500Y34500
X33000Y33700
X33200Y29400
X32400
X32800Y28900
X32500Y26500
X33000Y24650
X34715Y25824
X35415
Y26724
X34715
X37915Y28024
X38615
X39215
X40198Y28502
X43400Y28600
X44600Y16700
X35118Y20889
X34615Y21324
Y20424
X33200Y20350
X32400
X32800Y19850
X30500Y22500
Y36500
X55500Y10100
X57800Y11000
X58900Y10500
X69600Y11000
X70700Y10500
X72800Y10300
X72800Y12500
Y13500
Y14500
X74000Y14700
Y13500
Y12300
X71600
Y13500
Y14700
X71500Y16600
X70703Y16400
X72000Y17100
X72800Y16700
X73600
X74100Y17100
X75004Y16400
X77700Y16900
X79800Y17000
X82504Y16400
X83300Y16600
X83800Y17100
X84600Y16700
X85400
X85900Y17100
X86803Y16400
X86500Y18500
X88500
X89500Y16900
X91600Y16900
X94303Y16400
X95100Y16600
X95600Y17100
X96400Y16700
X97200
X97700Y17100
X98604Y16400
X98500Y18500
X99900Y18300
X101400Y18400
X102500
X103400Y17000
X101300Y16900
Y20800
X100500Y20500
X99900Y20800
X96700Y23450
Y23950
X96250Y27250
X97800Y28100
X98500Y28500
X99000Y29000
X99700Y27600
X101600Y27500
X103000Y27000
X104300Y27500
X106100
X105200Y23950
Y23450
X103200Y24400
X106500Y20500
X106600Y19100
X106500Y18500
X104700Y18500
X106104Y16400
X106900Y16600
X107400Y17100
X108200Y16700
X108186Y14417
Y13417
Y12417
X106986Y12217
Y13417
Y14617
X107400Y10300
X108200
X106900Y9900
X106100Y10500
X105150Y10924
X102600Y11000
X102000Y11200
X102000Y11900
Y13000
X102800Y12800
X102400Y13700
X97600Y13400
Y14600
X96400Y14400
Y13400
Y12400
X97600Y12200
X95200
Y13400
Y14600
X94800Y19100
X92900Y20800
X90500Y22500
X91400Y24500
X90580Y28555
Y29755
X92000Y31500
X91900Y33600
Y35400
X91700Y36300
X91500Y37300
X92000Y38100
X91100Y38400
X90800Y39300
X90900Y39900
X91838Y40244
X91900Y39284
X94500Y39300
X94400Y40200
Y42000
Y43800
X95100Y44300
X95600Y42900
Y41100
X96600Y39700
X96500Y38000
X96600Y37000
X99244Y36852
X99250Y37850
X99200Y39900
X100786Y39421
X101400Y39600
Y38840
Y40400
X101500Y41475
Y42400
X101449Y43651
X100607Y43729
X99050Y43850
X99200Y45200
X100900Y46200
X101600Y46300
X101700Y48300
X103400Y47700
X104100Y46500
Y44600
Y42900
X104250Y41500
X106600Y42300
X107161Y43007
X107300Y44200
X108000Y47500
X107200Y48300
X104800Y38000
X105750Y37000
X106700Y35300
X104645Y35274
X102795
X101895
X100995
X100095
X99200Y35300
Y32500
X100100Y32800
X101700Y32700
X101500Y32000
X102473Y32936
X104650Y33000
X98000Y31500
X94600Y38100
X92120Y42346
X90800Y42600
Y42000
X89550Y42450
X89840Y44001
X90800Y43800
Y44400
X91700Y46500
Y47425
X92190Y46050
X94400Y45600
X95100Y46500
X94400Y47400
X89700Y47200
X85350Y48050
X85400Y48700
X83352Y48923
X81900Y47300
X81000Y46400
Y44600
X81900Y45500
X83000Y43675
X82400Y41800
X81000Y40900
X81900Y40000
X81750Y39000
X81800Y38200
Y37300
X80800Y35800
X79800Y36500
X78968Y36030
X79200Y35500
X79300Y34300
X79900Y33800
X80900Y33400
X80200Y32400
X79100Y32860
X79300Y31000
X80900
X81000Y29300
X80100Y29200
X80000Y28400
X79200Y28300
X80100Y27400
X79188Y26500
X76500Y27700
X75825Y27600
X74680Y30442
X73680Y30300
X73030
X72380Y30950
Y31600
X72430Y32575
X71696Y32869
X71094Y32872
X71080Y32250
X70430
Y31625
X69776Y31645
X69781Y30949
X69800Y30300
X70755Y30900
X71730Y30950
X70738Y29501
X68801Y30900
X69130Y32250
X69100Y32900
X69130Y33550
Y34850
X69126Y36146
X69106Y36798
X69123Y37457
X69801Y38108
X69829Y38750
X70430Y38750
X71080
Y39400
Y40050
Y40700
X70430
Y40050
X69780
X69130Y40700
X69112Y39413
X71740Y39384
X71739Y38771
X71780Y37775
X72285Y37855
X72710Y38422
X73985Y38430
X75000Y38300
Y37800
X75900Y37900
X75500Y39200
Y39700
X73735Y40361
X72532Y40350
X72339Y39445
X71700Y41300
X70430Y41350
X70755Y42050
X69768Y41975
X68832Y42043
Y43350
X70074Y43609
X70755Y43350
X69900Y44500
X69264Y44499
X69300Y45100
X72600Y46800
X72258Y48008
X74300Y47000
X75750Y48000
X73788Y42735
X73033Y42650
X72419Y36468
X73730Y36475
X73718Y34422
X72403
X71682Y34261
X71080Y34200
X71078Y33581
X72360Y33549
X72255Y35175
X71754
X70480
X69800Y34200
X69780Y32900
X70006Y36525
X70506Y37775
X73813Y32575
X74325Y32582
X75100Y33200
X76700Y34700
X79100Y39500
X81000Y42800
X87870Y42899
X88100Y35600
X88800Y32400
X85900Y33300
X85125Y36650
X82100Y31800
X82500Y30200
X83600Y27000
X85400Y26700
X86260Y26100
X87300Y26900
X86000Y23000
Y21000
X86500Y20500
X85300Y19600
X84000Y21000
X82500Y20500
X83400Y14700
Y13500
X84600
Y12500
X85800Y12300
Y13500
Y14700
X84600Y14500
X83400Y12300
X82500Y10500
X81400Y11000
X79000Y11000
X78400Y11200
X78400Y11900
X78300Y13000
X79200Y12800
X78800Y13700
X74896Y10600
X84600Y10300
X86697Y10600
X90200Y11200
X90200Y11900
X90100Y13000
X91000Y12800
X90600Y13700
X90800Y11000
X93200Y11000
X94300Y10500
X96400Y10300
X98496Y10600
X74500Y23800
X71800Y22600
X71100Y23200
X69900Y23800
X70500Y20500
X108500Y20100
X109200Y18400
X110400
X111900
X114500Y18500
X115800Y19100
X117199Y18803
X117150Y21200
X117824Y22153
X121225Y22150
X121800Y21200
X122400
X122900Y22150
X123000Y23400
Y24400
X124500Y26000
X121500
X119700
X118800Y26840
Y27800
X119700
X117800Y27800
X116900Y27000
X116000
X115100Y27800
X114200Y26400
X112200Y26500
X111500Y27800
X109700
X108700Y27100
X111200Y24400
X113100Y23950
Y23450
X113400Y25100
X113752Y16200
X113800Y13000
Y12100
Y11200
X114507Y10200
X115007
X115500Y9500
X115700Y11400
X117356Y12503
X117300Y14900
X117981Y15853
X118699Y17203
X120350Y17200
X121375Y15850
X121900Y14900
X122500
X123012Y15850
X123775Y17200
X124500Y16500
X125425Y17200
X127200Y17700
X126925Y18800
X127200Y19500
X126975Y21200
X126300Y22150
X129200Y24200
X130600Y24900
X130800Y25825
X130900Y27400
X134200Y27700
X135900Y27000
X136700Y26200
X136900Y25200
Y24700
X137300Y23100
X136500Y22500
X135250Y22500
X135500Y25500
X132500Y24500
Y20500
X130700Y20300
X130800Y19400
X129100Y19600
X130700Y17000
X130500Y16100
X129487Y15266
X127088Y14900
X126363Y15850
X126987Y12500
X127300Y10100
X125487Y10900
X123888Y10900
X122200Y12100
Y12900
X120500Y10900
X118856Y10903
X110297Y10600
X109500Y10400
X109000Y9900
X109386Y12217
Y13417
Y14617
X109000Y16700
X109500Y17100
X110404Y16400
X122000Y18400
Y19100
X122800Y28600
X125300Y33300
X125000Y34000
X125700Y35100
X125200Y36000
X125600Y37800
X125162Y38654
X125600Y39600
X125100Y40500
X125848Y40988
X125200Y43200
X125800Y44100
X126900
X126400Y45000
X125200
Y48600
X130200Y48200
X131000Y48100
X132500Y47500
X130500Y44500
X132500Y42500
X136500
Y44500
X138400Y45000
X140900Y44900
X143000Y46600
X144500Y46500
X146500
Y44500
X145600Y44000
X142500Y42500
X143900Y40100
X144900Y40000
X147800Y40200
X146500Y36500
X144500
X143700Y35600
X142500Y36500
Y34500
X139100Y34600
X138900Y35500
X138800Y33700
Y32800
X139400Y33300
X139200Y31900
X139800Y31700
X140300Y27900
X140000Y27100
X140925Y26350
X140800Y25700
X141400
X142000
Y25100
X141400
X140800
X139900Y24100
X141050Y23400
X143100Y24300
X143600Y24300
X143500Y25700
X143783Y26200
X143800Y26900
X146000
Y26000
X145900Y25200
Y24700
X147300
Y25200
X147100Y26200
X147700Y27700
X147200Y31075
X147100Y32000
X147050Y33100
Y34000
X147100Y34900
X140500Y36500
X139000Y38500
X138400Y39200
X139700
X136500Y36500
X134700Y36400
X135100Y37300
X133200Y32700
X131700Y32750
X131800Y30500
X132700Y31300
X130000Y31700
X128500Y30500
Y34500
X130800Y34500
X120131Y34569
X120300Y36300
X117600Y36400
X117700Y37800
X117800Y38500
X116724Y37776
X115900Y38100
X113700Y38200
Y39100
X112888Y41355
X113500Y42250
X112200Y42300
Y44200
X113933Y45280
X113400Y46800
X117300Y46900
X117675Y47350
X116900Y45300
X117000Y43500
X117600Y41800
X116300Y41700
X120300Y41900
X127600Y42900
X139500Y48000
X138500Y28500
X136500
X137300Y27700
X141150Y28212
X142000Y27900
X141875Y26350
X141200Y19600
X142000Y19000
X141875Y17450
X142000Y16800
Y16200
X141400
Y16800
X140800
Y16200
X140925Y17450
X140000Y18200
X140300Y19000
X138900Y20500
X137300Y18800
X136700Y17300
X136900Y16300
Y15800
X136500Y14500
X137300Y14200
X135250Y13800
X136500Y10500
X138900Y11600
X140100Y10400
X141000
X143100Y10500
X144100
X143600Y15400
X143100Y15400
X143500Y16800
X143783Y17300
X143800Y18000
X146000
Y17100
X145900Y16300
Y15800
X147300
Y16300
X147100Y17300
X147700Y18800
X145400Y19600
X144000Y20700
X147700Y23100
Y14200
X146500Y14500
X141050Y14500
X139900Y15200
X140500Y12500
X130600Y11500
X130800Y10700
X116250Y35750
X114200Y35300
X110145Y35274
X109750Y36500
X108750Y36750
X108800Y39300
X109750Y39000
X110500Y40800
X109700Y41600
X109900Y43600
X108481Y43451
X110200Y32800
X148100Y33200
X148700Y32600
X148100Y31900
X148700Y34000
X148500Y36500
Y38500
X149200Y38400
X150990Y38245
X151900Y38400
X153290Y38245
X155100Y38300
X152500Y36600
X151900Y35700
Y33600
Y32800
Y32000
X151100
Y32800
Y33600
X152700Y33600
Y32800
Y32000
X156500Y32500
X155900Y33400
X157000Y34200
X156500Y30500
X155800Y28500
X156400Y26900
Y26000
X156300Y25200
Y24700
X154000Y24300
X153500Y24300
X153900Y25700
X154183Y26200
X154200Y26900
X152275Y26350
X152400Y25700
X151800
X151200
Y25100
X151800
X152400
X151325Y26350
X150400Y27100
X150700Y27900
X151550Y28212
X152400Y27900
X151450Y23400
X150500Y22500
X150300Y24100
X149300Y20500
X150700Y19000
X150400Y18200
X151325Y17450
X151200Y16800
X151800
X152400
Y16200
X151800
X151200
X150300Y15200
X151450Y14500
X153500Y15400
X154000Y15400
X153900Y16800
X154183Y17300
X154200Y18000
X156400
Y17100
X156300Y16300
Y15800
X155800Y19600
X154400Y20700
X152400Y19000
X151550Y19312
X152275Y17450
X148500Y14500
X149300Y11600
X154500Y10500
X162900Y17300
X162796Y19027
X165000Y24100
X163300Y26700
X162100Y29300
X163700Y36000
X163800Y37100
X165300Y35300
X167800Y36000
X166800Y39900
X166500Y40500
X164500
X162900Y39900
Y41300
Y42200
X162500Y44500
X163200Y44700
X164000Y46400
X165000Y46800
X166800
X168500Y46500
X167700Y44100
X167600Y43300
X165800Y44100
X170500Y44500
X172200Y44600
X161300Y46700
X160500Y46500
Y42500
Y40500
X158500
X161400Y38100
X151100Y40700
X148500Y40500
Y42500
X148500Y44000
Y45100
X150400Y44500
X151300Y44500
X152200Y44535
X153300Y44500
Y46900
X154400
X152600Y48200
X151300Y46900
X149500
X152500Y42500
X153000Y53300
X154000Y53500
X152500Y56500
Y58500
Y60500
Y62500
X150600Y62500
Y60800
X152500Y64500
X148500
Y66500
X149500Y69300
X150384Y69420
X150400Y70600
X150500Y72500
X150300Y73600
X150500Y74500
X152500
Y72500
X153600Y71600
X154300Y68200
X156500Y68500
X158500Y72500
X157900Y74700
X158500Y76500
X156500
X154500
X148500Y74500
X166500Y76500
X168500
X168500Y73600
Y71600
X170500Y72500
X172500
X174500
X176500
Y70500
Y68500
Y66500
X174500Y68500
Y70500
X172500Y68500
Y74500
Y76500
X170500Y74500
X165500Y71250
X166500Y68500
X162800Y66800
Y66000
Y65200
X162000
Y66000
X161200
Y66800
X162000Y66800
X161200Y65200
X160500Y50500
X162500
X164500
X168500
X170500
X172500
X174500
X176500
Y52500
Y54500
X168500Y52500
X158500
Y50500
X156500
X148500
X146500
X145600Y51500
X144800
Y52100
X144500Y50500
X142500
Y54500
X144500
X145100Y53900
X146000
Y54600
X144500Y56500
Y58500
X142500
Y56500
X140500
Y58500
Y54500
X139695Y54305
X138500Y54500
Y56500
Y64500
X140500
X142500
Y66500
X144500
Y68500
X145500Y68500
X146600Y68550
X147600Y69400
Y70600
X146700Y71500
X145000Y70900
X143600Y72400
X140500Y72500
X140830Y71940
X138700Y71400
X138500Y70500
X138600Y68700
Y68000
X138500Y66500
X140500
X140400Y68000
X142500Y68500
X136500
Y70500
Y72500
X135200Y72900
X133700Y73550
X134500Y74500
X136500
X138500
Y72500
X133500Y71300
Y70400
X132800Y68000
X131700
X132000Y66700
X132800Y66800
X133724
X136500Y66500
Y64500
X135900Y64900
X133400Y63400
Y61900
X131000
Y63400
X127500Y63400
X125500Y63000
X125200Y61940
X125300Y61300
X123500Y62800
X120200Y63400
X120900Y64100
Y65100
X121100Y67900
X121500Y69300
X122400Y68600
Y70500
Y71400
X122500Y72500
X120700Y71000
X119800
X118800
X116400Y70900
X114100Y70900
X113300Y70900
X112200Y71000
X111400Y69300
X110400Y69500
X110000Y67900
X111800
X111900Y65100
Y64100
X111400Y63700
X112600Y63400
X112500Y60700
X113387Y61206
X114300Y60800
X115200Y60900
X116100
Y61500
X118600Y61100
X119700Y60900
X120500
X122500Y58500
X126700Y58600
X127300
X129600Y58000
X130264Y57998
X130300Y57300
X131000
Y58000
X129600Y57300
X128800Y53600
Y52675
X130100Y51100
X132000Y50800
X125800Y51300
X126100Y52200
X126000Y54800
X127200
X125200Y54000
Y55800
X125300Y49500
X121700Y49600
X120900Y50400
X120300Y49300
X117700
X117694Y50359
X117046Y50346
X116300Y49700
X115000Y49800
X113300Y49700
X112500Y50500
X112160Y52160
X111600Y54000
X110600Y53700
X109250Y53750
X109238Y52769
X109100Y52100
X109800Y50329
X109800Y49600
X113200Y53900
X114000
X116000Y53700
X117100Y53900
Y51800
X120218Y52659
X117700Y55700
X118300Y57100
X116500Y64500
Y66500
X118500Y68500
X114500
X114800Y73300
X113300
X111800
X110250Y73250
X108800Y73300
X108500Y71000
X109500
X109800Y65100
Y64100
X109200Y63500
X108900Y60700
X110700
X122500Y66500
X124200Y68100
X125900Y68400
X126500Y66500
X129200Y65700
X130700Y67000
X130100Y68200
X128500Y68500
X128200Y69700
Y70400
X126949Y71003
X124942Y71158
X124900Y74800
X127300
X129900
X130500
X131100
X132500Y74500
X130500Y72500
X131100Y71600
X128600Y72400
X116300Y73200
X142400Y74900
X143500Y76300
X144200
X145500Y75600
X146100
X146500Y76500
X147400Y73400
X146500Y64500
X139600Y49300
X107507Y49925
X106900Y50800
X104500Y50500
Y52500
X106150Y53850
X106700Y53500
Y56700
X106200Y56300
X105400Y56900
X102700Y56300
X102650Y53850
X101700Y53800
X101500Y52000
X100900Y52400
X99100Y51900
X99065Y50810
X99065Y49809
X96600Y49874
X96400Y50800
X96700Y51900
X94900Y52000
X94500Y52500
X96100Y53400
X96000Y54500
X96700Y55500
X98900Y54600
X99000Y60800
X99900
X100800
X103500
X104400
X104500Y64500
Y66500
X106500Y68500
X105300Y70900
X107700Y71000
X107250Y73250
X105800Y73300
X102500Y72500
X102800Y71000
X101800
X100900
X100500Y70500
X100400Y69300
X100500Y68500
X100800Y67900
Y65200
Y64100
X101500Y63400
X96400Y63300
X95100Y62000
X94500Y62500
Y61300
X92500Y60500
X97200Y60800
X98100
X95900Y66200
X94600Y67000
X94300Y67500
X93600Y68505
X94600Y70000
X95400Y70400
X95000Y71500
X96300Y72000
X97600Y71400
X98180Y72400
X98200Y73400
X99900Y73100
X100900Y77300
X94300Y74800
X93700
X92800Y75000
X92500Y71800
X89200
Y68800
X90200Y69000
X91300Y69300
X91100Y67300
X92139Y66518
X92600Y65900
X91600Y65700
X88700
X88500Y64500
X88400Y63300
X88400Y61800
X86100Y62700
X86500Y63500
X85225Y63713
X84900Y64200
X84262Y65700
X85700Y66200
X86500Y66000
X87500Y66200
X87000Y67054
X85800Y67800
X85200Y69300
X84000
Y68600
X82800Y68900
X82300Y69700
Y72600
X83450Y74800
X84050
X85000Y74900
X85200Y72000
X86500Y69300
X87820
X87100Y65200
X90100Y63900
X86400Y58300
X86800Y57400
X84000Y57200
X80300Y57300
Y56300
X79300
X77300
Y55300
X76300
X75300Y56300
X73300
Y55300
X73300Y57300
Y58300
Y59300
X74263Y59288
X73300Y60300
Y61300
Y62300
X73338Y63300
X74338Y61300
X76300Y61300
X76300Y62300
X76300Y63400
X77200Y63300
X78200Y62300
X78300Y61300
Y60300
X79300Y60300
X80500Y60500
X80300Y62300
X80338Y63300
X81863Y62488
X81700Y65300
X81000Y66400
X83400Y67300
X79400Y70500
X76900Y69400
X70700Y67200
X69000Y67000
X68863Y63088
X71300Y62300
X71300Y61300
X71300Y60300
X71300Y59300
X71300Y58300
Y57300
Y56300
Y55300
X70500Y54500
X71100Y53700
X70600Y52300
X74500Y54500
X77800Y53100
X79463Y53688
X79900Y52900
X81800
X81300Y54200
X81325Y59300
X80263Y58388
X78300Y58300
X78263Y59288
X77300Y57300
X76300Y60300
X75300Y60300
X70300Y61300
X74750Y50000
X88800
X88400Y50900
X89000Y51800
X88500Y52300
X87000
X89000Y53500
X88500Y54500
X91800Y54100
X91750Y53000
X91850Y52060
X91900Y51100
Y50200
X91800Y49400
X94600Y49300
X101700Y49600
X96700Y68300
X72500Y76500
X67874Y69300
X67374
X66200Y69350
X65374Y69300
X64874
X63700Y69375
X62874Y69300
X62374
X60800Y69500
X59500
X58200
X57200Y69100
X58866Y68537
X60000Y68200
Y67000
X60500Y66500
X61500Y67300
X66000Y68100
X67800Y67100
X67963Y63088
X68500Y60500
X66500Y60750
X67600Y57000
X66800Y51900
Y51200
X55655Y50475
X55628Y49685
X54655Y50075
X54652Y50870
X53880Y50900
X53855Y51675
X54655Y51675
X53855Y52475
X53055Y52475
Y53275
X53855Y53275
X54655Y53275
Y54875
X55655Y55275
Y54475
Y56075
Y56875
Y57675
Y58475
Y59275
Y60075
X54655Y58875
Y58075
Y56475
X50655Y55675
X49855Y56475
X49855Y57275
X49055Y57275
X48055Y56875
Y56075
Y55275
Y54475
Y52475
Y51275
X48044Y50478
X48051Y49674
X49055Y49275
X49055Y50075
X49855Y50075
X49855Y50875
X49055Y50875
X49055Y51675
X49855
X50655
X50655Y52475
Y53275
X49855
X49855Y52475
X49055Y53275
X49855Y54875
X46500Y56500
X44500
X44000Y55500
X44500Y54500
Y52500
X44000Y52000
X42500Y52500
X41037Y52626
Y51426
X41200Y50200
X41537Y49401
X44100Y49400
X44500Y50500
X42500Y54500
X40500
X40000Y55500
X36200Y55401
Y54200
X34037Y54401
X33537
X34500Y52500
X34937Y50201
Y49701
X33809Y49211
X33234
X32659
X32059
X30359Y49736
Y50211
Y50661
X30500Y52500
X29134Y52786
X30500Y54500
Y56500
X29000Y56400
X29500Y61400
X30266Y61000
X30654Y60646
X31300Y60091
X32400Y61500
X33500Y61300
X34400Y62300
X35100Y62900
X35454Y63254
X35200Y64000
X35554Y64354
X36105Y64649
Y65349
X35200Y65100
X35500Y66000
X36305Y66449
X36500Y68500
Y70500
X37550Y71300
X39500Y72250
X39705Y70049
Y69049
X40205Y69549
X42337Y68841
X43205Y69249
Y70049
X43705Y69649
X45000Y69500
X44500Y68500
X45000Y68000
X46500Y68500
X48500
X48400Y67700
X48004Y69483
X48500Y70400
X48400Y71300
X47750Y71000
X46500Y72500
X44500
X43900Y75200
X43200
Y75700
X42400
Y75200
X41700
X39200Y74600
X37450Y74800
Y75700
X32600Y73200
X32500Y72500
X31000Y71200
X30700Y70100
X30000Y69800
Y70600
X31200Y69600
X30700Y69100
X33300Y68900
X34200Y69300
Y70100
X34700Y69700
X32500Y66400
X31300
X30100
Y65200
X31300
X32500
Y64000
X31300
X30100
X36005Y63749
X36460Y62350
X37079Y61923
X37800Y61700
X38505Y61349
X39271Y60949
X39658Y60596
X39200Y60000
X41500Y61400
X42500Y61300
X42500Y60500
X43500Y61500
X43205Y62249
X44500Y60500
X46500
X48655Y60675
X49455
X49366Y62766
X50100Y63800
X50800Y64800
X49200
X48600
X45600Y65600
X45100
X44205Y65049
X41505Y65149
Y66349
X40305
X39105
Y65149
X40305
Y63949
X41505
X39105
X35500Y61000
X35200Y57200
X35700Y56500
X34500Y56500
X37400Y57200
X43500
X48055Y58475
Y59275
X53055Y59675
X52900Y66400
Y67200
Y68000
X53700Y68000
Y67200
Y66400
X54500
Y67200
Y68000
X56750Y71500
X57000Y74800
X56050
X55450
X52500Y72500
X50500
X48000Y75300
X42500Y71100
X60700Y74800
X64750Y64250
X53855Y50075
X53855Y49275
X54655
X36500Y50500
X29334Y49461
X28859
Y49011
X28109Y49036
Y49661
Y50286
Y50911
Y51511
Y52136
Y52786
X28634
X27584
X27084
X26500Y52500
Y54500
X26600Y56400
X27400
X28300
X28700Y57200
X26700
X26650Y57900
X25600Y59400
X24700Y59500
X25020Y61637
X26000Y61600
X27455Y62450
X28200Y62100
X28700Y61600
X27000Y63800
X27100Y64700
Y65400
X26300Y65475
Y65975
X26500Y66500
X27300Y66500
X26400Y67700
Y68400
X25900Y70800
X27400Y70900
X26200Y73700
X26500Y74500
X28500
Y76500
X26500
X24500
Y74500
X23600Y73300
X22700Y71700
X21500Y70900
X22461Y69700
X22000Y68600
Y68000
X21901Y66020
X21900Y65400
X23900Y65475
Y65975
X24500Y65700
X24700Y63800
X23500
X23200Y61600
X22200
X21200Y61900
X20634
X20900Y63300
X19200Y63800
Y64400
X18500
Y63800
X18084Y62431
Y61831
Y61231
Y60631
X20900Y60200
X22700Y56200
X23500
X25100Y56000
X22500Y54500
X21000Y54100
X21400Y52700
X20600
X21000Y51100
X22387Y49211
X22962
X23537
X24137
X25912Y49736
Y50211
Y50661
X26862Y49461
X27337
Y49011
X28500Y54500
X19200Y54700
Y55300
X18500
Y54700
X18084Y53331
Y52731
Y52131
Y51531
X15885Y53331
X15400Y55300
X14392Y54415
X13492Y54415
X12800Y54327
X13000Y53300
X12400
X11800Y52700
X11000
X11400Y54100
X9600Y54700
Y55300
X8900
Y54700
X8484Y53331
Y52731
Y52131
Y51531
X5577Y51637
X6285Y53331
X5800Y55300
X4792Y54415
X3892Y54415
X2992
X2800Y53300
X3400
X3000Y50200
Y49600
X3900
Y50200
X2400Y55900
Y56800
X4784Y56687
X3900Y58700
Y59300
X3000
Y58700
X2800Y62400
X3400
X2992Y63515
X3892
X4792Y63515
X5800Y64400
X6500Y64500
X6285Y62431
X8484
Y61831
Y61231
Y60631
X11400Y60200
X11800Y61800
X11000
X11400Y63200
X12800Y63500
X13492Y63515
X14392Y63515
X15400Y64400
X14384Y65787
X14200Y66500
X13500Y67800
Y68400
X12600
Y67800
X12000Y65900
X12400Y62400
X13000
X15885Y62431
X13500Y59300
Y58700
X12600
Y59300
X11750Y57450
X12000Y56800
X14384Y56687
X14200Y57400
X13500Y50200
Y49600
X12600
Y50200
X11400Y51100
X9600Y63800
Y64400
X8900
Y63800
X4784Y65787
X4500Y66500
X3900Y67800
Y68400
X3000
Y67800
X2400Y65900
Y65000
X2800Y71500
X3400
X2500Y72500
X4500
X6500
X6285Y71531
X8484
Y70931
Y70331
Y69731
X8500Y72500
X9700Y72500
X11800Y73000
X12400Y71500
X13000
X15885Y71531
X18084
Y70931
Y70331
Y69731
X19400Y72200
X19000Y74700
X17900Y74800
X17500Y75400
X17000
X16600Y74800
X15400
X15000Y75400
X14500
X14100Y74800
X12900Y75000
X21500Y74100
X26500Y64500
T02
X148442Y2018
X149342
X150242
X151142
X152042
X152942
X153842
X154742
X155642
X156542
X157442
X158342
X159242
X160142
X161042
X161942
X162842
X163742
X164642
X165542
X166442
X167342
X168242
X169142
X170042
X170942
X171842
X172742
X173639Y1945
X174420Y1498
X175245Y1138
X176140Y1043
X177022Y1220
X177810Y1654
X178432Y2305
X178830Y3112
X178975Y4000
X178982Y4900
Y5800
Y6700
X178982Y7600
Y8500
X147542Y2018
X146642
X145742
X144842Y2018
X143942
X143042
X142142
X141242
X140342
X139442
X138542
X137642
X136742
X135842
X134942
X134042
X133142
X132242
X131342
X130442
X129542
X128642
X127742
X126842
X125942
X125042
X124142
X123242
X122342
X121442
X120542
X119642
X118742
X117842
X116942Y2018
X116042
X115142
X114242
X113342
X112442
X111542
X110642
X109742
X108842
X107942
X107042
X106142
X105242
X104342
X103442
X102542
X101642
X100742
X99842
X98942
X98042
X97142
X96242
X95342
X94442
X93542
X92642
X91742
X90842
X89942
X89042Y2018
X88142
X87242
X86342
X85442
X84542
X83642
X82742
X81842
X80942
X80042
X79142
X78242
X77342
X76442
X75542
X74642
X73742
X72842
X71942
X71042
X70142
X69242
X68342
X67442
X66542
X65642
X64742
X63842
X62942
X62042
X61142Y2018
X60242
X59342
X58442
X57542
X56642
X55742
X54842
X53942
X53042
X52142
X51242
X50342
X49442
X48542
X47642
X46742
X45842
X44942
X44042
X43142
X42242
X41342
X40442
X39542
X38642
X37742
X36842
X35942
X35042
X34142
X33242Y2018
X32342
X31442
X30542
X29642
X28742
X27842
X26942
X26042
X25142
X24242
X23342
X22442
X21542
X20642
X19742
X18842
X17942
X17042
X16142
X15242
X14342
X13442
X12542
X11642
X10742
X9842
X8942
X8042
X7142
X6248Y1911
X5483Y1438
X4644Y1111
X3746Y1052
X2872Y1264
X2102Y1730
X1507Y2405
X1142Y3228
X1038Y4122
X1038Y5022
X1037Y5922
X1037Y6822
X1018Y7600
Y8500
Y9400
Y10300
X1018Y11200
Y12100
Y13000
Y13900
X1018Y14800
Y15700
Y16600
Y17500
X1018Y18400
Y19300
Y20200
Y21100
X1018Y22000
Y22900
Y23800
X1018Y24700
Y25600
Y26500
Y27400
X1018Y28300
Y29200
Y30100
Y31000
X1018Y31900
Y32800
Y33700
Y34600
X1018Y35500
Y36400
Y37300
Y38200
X1018Y39100
Y40000
Y40900
X1018Y41800
Y42700
Y43600
Y44500
X1018Y45400
Y46300
Y47200
Y48100
X178982Y48100
Y47200
Y46300
Y45400
X178982Y44500
Y43600
Y42700
Y41800
X178982Y40900
Y40000
Y39100
X178982Y38200
Y37300
Y36400
Y35500
X178982Y34600
Y33700
Y32800
Y31900
X178982Y31000
Y30100
Y29200
Y28300
X178982Y27400
Y26500
Y25600
Y24700
X178982Y23800
Y22900
Y22000
X178982Y21100
Y20200
Y19300
Y18400
X178982Y17500
Y16600
Y15700
Y14800
X178982Y13900
Y13000
Y12100
Y11200
X178982Y10300
Y9400
X178982Y49000
Y49900
Y50800
Y51700
X178982Y52600
Y53500
Y54400
Y55300
X178982Y56200
Y57100
Y58000
X178982Y58900
Y59800
Y60700
Y61600
X178982Y62500
Y63400
Y64300
Y65200
X178982Y66100
Y67000
Y67900
Y68800
X178982Y69700
Y70600
Y71500
Y72400
X178963Y73178
X178963Y74078
X178962Y74978
X178962Y75878
X178858Y76772
X178493Y77595
X177898Y78270
X177128Y78736
X176254Y78948
X175356Y78889
X174517Y78562
X173752Y78089
X172858Y77982
X171958
X171058
X170158
X169258
X168358
X167458
X166558
X165658
X164758
X163858
X162958
X162058
X161158
X160258
X159358
X158458
X157558
X156658
X155758
X154858
X153958
X153058
X152158
X151258
X150358
X149458
X148558
X147658
X146758
X145858Y77982
X144958
X144058
X143158
X142258
X141358
X140458
X139558
X138658
X137758
X136858
X135958
X135058
X134158
X133258
X132358
X131458
X130558
X129658
X128758
X127858
X126958
X126058
X125158
X124258
X123358
X122458
X121558
X120658
X119758
X118858
X117958Y77982
X117058
X116158
X115258
X114358
X113458
X112558
X111658
X110758
X109858
X108958
X108058
X107158
X106258
X105358
X104458
X103558
X102658
X101758
X100858
X99958
X99058
X98158
X97258
X96358
X95458
X94558
X93658
X92758
X91858
X90958
X90058Y77982
X89158
X88258
X87358
X86458
X85558
X84658
X83758
X82858
X81958
X81058
X80158
X79258
X78358
X77458
X76558
X75658
X74758
X73858
X72958
X72058
X71158
X70258
X69358
X68458
X67558
X66658
X65758
X64858
X63958
X63058
X62158Y77982
X61258
X60358
X59458
X58558
X57658
X56758
X55858
X54958
X54058
X53158
X52258
X51358
X50458
X49558
X48658
X47758
X46858
X45958
X45058
X44158
X43258
X42358
X41458
X40558
X39658
X38758
X37858
X36958
X36058
X35158
X34258Y77982
X33358
X32458
X31558
X30658
X29758
X28858
X27958
X27058
X26158
X25258
X24358
X23458
X22558
X21658
X20758
X19858
X18958
X18058
X17158
X16258
X15358
X14458
X13558
X12658
X11758
X10858
X9958
X9058
X8158
X7258
X6361Y78055
X5580Y78502
X4755Y78862
X3860Y78957
X2978Y78780
X2190Y78346
X1568Y77695
X1170Y76888
X1025Y76000
X1018Y75100
Y74200
Y73300
X1018Y72400
Y71500
Y70600
Y69700
X1018Y68800
Y67900
Y67000
Y66100
X1018Y65200
Y64300
Y63400
Y62500
X1018Y61600
Y60700
Y59800
Y58900
X1018Y58000
Y57100
Y56200
X1018Y55300
Y54400
Y53500
Y52600
X1018Y51700
Y50800
Y49900
Y49000
T03
X2700Y24200
Y25700
Y31100
Y32700
X6800Y24200
X11800
Y25700
X15800Y24200
X7500Y73000
T04
X158880Y13990
Y16530
Y19070
Y21610
Y24150
Y26690
Y29230
Y31770
Y34310
Y36850
Y39390
Y41930
Y44470
Y47010
X174120
Y44470
Y41930
Y39390
Y36850
Y34310
Y31770
Y29230
Y26690
Y24150
Y21610
Y19070
Y16530
Y13990
T05
X157040Y51800
X159580
X162120
X164660
X167200
X169740
X172280
X174820
T06
X151205Y66000
X172795
T07
X176000Y4000
X76000
X4000
X130000Y40000
X176000Y76000
X76000
X4000
M30
