G04*
G04 #@! TF.GenerationSoftware,Altium Limited,Altium Designer,26.4.1 (12)*
G04*
G04 Layer_Color=8388736*
%FSLAX44Y44*%
%MOMM*%
G71*
G04*
G04 #@! TF.SameCoordinates,E2285CC4-37D2-4E38-8E19-D44F887F3DFF*
G04*
G04*
G04 #@! TF.FilePolarity,Negative*
G04*
G01*
G75*
%ADD32R,0.2540X0.8128*%
%ADD33R,0.8128X0.2540*%
%ADD35R,1.4605X0.5334*%
%ADD37R,0.5334X1.4605*%
%ADD43R,0.2540X1.0668*%
%ADD44R,1.0668X0.2540*%
%ADD53R,1.4732X0.5588*%
G04:AMPARAMS|DCode=68|XSize=0.86mm|YSize=0.22mm|CornerRadius=0.055mm|HoleSize=0mm|Usage=FLASHONLY|Rotation=90.000|XOffset=0mm|YOffset=0mm|HoleType=Round|Shape=RoundedRectangle|*
%AMROUNDEDRECTD68*
21,1,0.8600,0.1100,0,0,90.0*
21,1,0.7500,0.2200,0,0,90.0*
1,1,0.1100,0.0550,0.3750*
1,1,0.1100,0.0550,-0.3750*
1,1,0.1100,-0.0550,-0.3750*
1,1,0.1100,-0.0550,0.3750*
%
%ADD68ROUNDEDRECTD68*%
%ADD69R,0.7000X1.0000*%
%ADD73R,0.6100X0.3500*%
%ADD87R,0.6604X1.0414*%
%ADD91R,3.0988X5.5880*%
%ADD96R,0.3500X0.6100*%
G04:AMPARAMS|DCode=102|XSize=0.86mm|YSize=0.22mm|CornerRadius=0.055mm|HoleSize=0mm|Usage=FLASHONLY|Rotation=0.000|XOffset=0mm|YOffset=0mm|HoleType=Round|Shape=RoundedRectangle|*
%AMROUNDEDRECTD102*
21,1,0.8600,0.1100,0,0,0.0*
21,1,0.7500,0.2200,0,0,0.0*
1,1,0.1100,0.3750,-0.0550*
1,1,0.1100,-0.3750,-0.0550*
1,1,0.1100,-0.3750,0.0550*
1,1,0.1100,0.3750,0.0550*
%
%ADD102ROUNDEDRECTD102*%
G04:AMPARAMS|DCode=103|XSize=1.1532mm|YSize=1.0532mm|CornerRadius=0.3141mm|HoleSize=0mm|Usage=FLASHONLY|Rotation=90.000|XOffset=0mm|YOffset=0mm|HoleType=Round|Shape=RoundedRectangle|*
%AMROUNDEDRECTD103*
21,1,1.1532,0.4250,0,0,90.0*
21,1,0.5250,1.0532,0,0,90.0*
1,1,0.6282,0.2125,0.2625*
1,1,0.6282,0.2125,-0.2625*
1,1,0.6282,-0.2125,-0.2625*
1,1,0.6282,-0.2125,0.2625*
%
%ADD103ROUNDEDRECTD103*%
%ADD104R,0.9524X1.7524*%
%ADD105R,2.2524X3.1524*%
%ADD106R,2.3032X3.2032*%
%ADD107R,1.0032X1.8032*%
G04:AMPARAMS|DCode=108|XSize=1.1032mm|YSize=1.0032mm|CornerRadius=0.3016mm|HoleSize=0mm|Usage=FLASHONLY|Rotation=0.000|XOffset=0mm|YOffset=0mm|HoleType=Round|Shape=RoundedRectangle|*
%AMROUNDEDRECTD108*
21,1,1.1032,0.4000,0,0,0.0*
21,1,0.5000,1.0032,0,0,0.0*
1,1,0.6032,0.2500,-0.2000*
1,1,0.6032,-0.2500,-0.2000*
1,1,0.6032,-0.2500,0.2000*
1,1,0.6032,0.2500,0.2000*
%
%ADD108ROUNDEDRECTD108*%
%ADD109R,3.7032X3.1532*%
%ADD110R,3.1532X3.7032*%
G04:AMPARAMS|DCode=111|XSize=2.174mm|YSize=0.794mm|CornerRadius=0.1758mm|HoleSize=0mm|Usage=FLASHONLY|Rotation=0.000|XOffset=0mm|YOffset=0mm|HoleType=Round|Shape=RoundedRectangle|*
%AMROUNDEDRECTD111*
21,1,2.1740,0.4425,0,0,0.0*
21,1,1.8225,0.7940,0,0,0.0*
1,1,0.3515,0.9113,-0.2213*
1,1,0.3515,-0.9113,-0.2213*
1,1,0.3515,-0.9113,0.2213*
1,1,0.3515,0.9113,0.2213*
%
%ADD111ROUNDEDRECTD111*%
G04:AMPARAMS|DCode=112|XSize=1.8432mm|YSize=0.7932mm|CornerRadius=0.2491mm|HoleSize=0mm|Usage=FLASHONLY|Rotation=270.000|XOffset=0mm|YOffset=0mm|HoleType=Round|Shape=RoundedRectangle|*
%AMROUNDEDRECTD112*
21,1,1.8432,0.2950,0,0,270.0*
21,1,1.3450,0.7932,0,0,270.0*
1,1,0.4982,-0.1475,-0.6725*
1,1,0.4982,-0.1475,0.6725*
1,1,0.4982,0.1475,0.6725*
1,1,0.4982,0.1475,-0.6725*
%
%ADD112ROUNDEDRECTD112*%
G04:AMPARAMS|DCode=113|XSize=0.75mm|YSize=0.7mm|CornerRadius=0.2mm|HoleSize=0mm|Usage=FLASHONLY|Rotation=0.000|XOffset=0mm|YOffset=0mm|HoleType=Round|Shape=RoundedRectangle|*
%AMROUNDEDRECTD113*
21,1,0.7500,0.3000,0,0,0.0*
21,1,0.3500,0.7000,0,0,0.0*
1,1,0.4000,0.1750,-0.1500*
1,1,0.4000,-0.1750,-0.1500*
1,1,0.4000,-0.1750,0.1500*
1,1,0.4000,0.1750,0.1500*
%
%ADD113ROUNDEDRECTD113*%
%ADD114R,0.7524X1.1524*%
%ADD115R,1.4024X1.9524*%
G04:AMPARAMS|DCode=116|XSize=1.4032mm|YSize=1.5032mm|CornerRadius=0.3476mm|HoleSize=0mm|Usage=FLASHONLY|Rotation=270.000|XOffset=0mm|YOffset=0mm|HoleType=Round|Shape=RoundedRectangle|*
%AMROUNDEDRECTD116*
21,1,1.4032,0.8080,0,0,270.0*
21,1,0.7080,1.5032,0,0,270.0*
1,1,0.6952,-0.4040,-0.3540*
1,1,0.6952,-0.4040,0.3540*
1,1,0.6952,0.4040,0.3540*
1,1,0.6952,0.4040,-0.3540*
%
%ADD116ROUNDEDRECTD116*%
%ADD117R,3.2004X3.2004*%
%ADD118R,2.4000X3.1000*%
%ADD119R,3.1000X2.4000*%
%ADD120R,2.7000X2.7000*%
G04:AMPARAMS|DCode=121|XSize=0.36mm|YSize=0.92mm|CornerRadius=0.0591mm|HoleSize=0mm|Usage=FLASHONLY|Rotation=0.000|XOffset=0mm|YOffset=0mm|HoleType=Round|Shape=RoundedRectangle|*
%AMROUNDEDRECTD121*
21,1,0.3600,0.8018,0,0,0.0*
21,1,0.2418,0.9200,0,0,0.0*
1,1,0.1182,0.1209,-0.4009*
1,1,0.1182,-0.1209,-0.4009*
1,1,0.1182,-0.1209,0.4009*
1,1,0.1182,0.1209,0.4009*
%
%ADD121ROUNDEDRECTD121*%
G04:AMPARAMS|DCode=122|XSize=0.92mm|YSize=0.36mm|CornerRadius=0.0591mm|HoleSize=0mm|Usage=FLASHONLY|Rotation=0.000|XOffset=0mm|YOffset=0mm|HoleType=Round|Shape=RoundedRectangle|*
%AMROUNDEDRECTD122*
21,1,0.9200,0.2418,0,0,0.0*
21,1,0.8018,0.3600,0,0,0.0*
1,1,0.1182,0.4009,-0.1209*
1,1,0.1182,-0.4009,-0.1209*
1,1,0.1182,-0.4009,0.1209*
1,1,0.1182,0.4009,0.1209*
%
%ADD122ROUNDEDRECTD122*%
G04:AMPARAMS|DCode=123|XSize=0.94mm|YSize=0.36mm|CornerRadius=0.0591mm|HoleSize=0mm|Usage=FLASHONLY|Rotation=0.000|XOffset=0mm|YOffset=0mm|HoleType=Round|Shape=RoundedRectangle|*
%AMROUNDEDRECTD123*
21,1,0.9400,0.2418,0,0,0.0*
21,1,0.8218,0.3600,0,0,0.0*
1,1,0.1182,0.4109,-0.1209*
1,1,0.1182,-0.4109,-0.1209*
1,1,0.1182,-0.4109,0.1209*
1,1,0.1182,0.4109,0.1209*
%
%ADD123ROUNDEDRECTD123*%
%ADD124R,3.8608X3.8608*%
G04:AMPARAMS|DCode=125|XSize=0.5mm|YSize=0.95mm|CornerRadius=0.1625mm|HoleSize=0mm|Usage=FLASHONLY|Rotation=270.000|XOffset=0mm|YOffset=0mm|HoleType=Round|Shape=RoundedRectangle|*
%AMROUNDEDRECTD125*
21,1,0.5000,0.6250,0,0,270.0*
21,1,0.1750,0.9500,0,0,270.0*
1,1,0.3250,-0.3125,-0.0875*
1,1,0.3250,-0.3125,0.0875*
1,1,0.3250,0.3125,0.0875*
1,1,0.3250,0.3125,-0.0875*
%
%ADD125ROUNDEDRECTD125*%
G04:AMPARAMS|DCode=126|XSize=0.464mm|YSize=0.914mm|CornerRadius=0.1445mm|HoleSize=0mm|Usage=FLASHONLY|Rotation=180.000|XOffset=0mm|YOffset=0mm|HoleType=Round|Shape=RoundedRectangle|*
%AMROUNDEDRECTD126*
21,1,0.4640,0.6250,0,0,180.0*
21,1,0.1750,0.9140,0,0,180.0*
1,1,0.2890,-0.0875,0.3125*
1,1,0.2890,0.0875,0.3125*
1,1,0.2890,0.0875,-0.3125*
1,1,0.2890,-0.0875,-0.3125*
%
%ADD126ROUNDEDRECTD126*%
%ADD127R,2.7500X2.7500*%
G04:AMPARAMS|DCode=128|XSize=0.75mm|YSize=0.7mm|CornerRadius=0.2mm|HoleSize=0mm|Usage=FLASHONLY|Rotation=90.000|XOffset=0mm|YOffset=0mm|HoleType=Round|Shape=RoundedRectangle|*
%AMROUNDEDRECTD128*
21,1,0.7500,0.3000,0,0,90.0*
21,1,0.3500,0.7000,0,0,90.0*
1,1,0.4000,0.1500,0.1750*
1,1,0.4000,0.1500,-0.1750*
1,1,0.4000,-0.1500,-0.1750*
1,1,0.4000,-0.1500,0.1750*
%
%ADD128ROUNDEDRECTD128*%
%ADD129C,0.8000*%
G04:AMPARAMS|DCode=130|XSize=0.38mm|YSize=0.78mm|CornerRadius=0.115mm|HoleSize=0mm|Usage=FLASHONLY|Rotation=0.000|XOffset=0mm|YOffset=0mm|HoleType=Round|Shape=RoundedRectangle|*
%AMROUNDEDRECTD130*
21,1,0.3800,0.5500,0,0,0.0*
21,1,0.1500,0.7800,0,0,0.0*
1,1,0.2300,0.0750,-0.2750*
1,1,0.2300,-0.0750,-0.2750*
1,1,0.2300,-0.0750,0.2750*
1,1,0.2300,0.0750,0.2750*
%
%ADD130ROUNDEDRECTD130*%
%ADD131R,1.2000X0.7000*%
%ADD132R,2.5500X1.0500*%
G04:AMPARAMS|DCode=133|XSize=1.1032mm|YSize=1.0032mm|CornerRadius=0.3016mm|HoleSize=0mm|Usage=FLASHONLY|Rotation=270.000|XOffset=0mm|YOffset=0mm|HoleType=Round|Shape=RoundedRectangle|*
%AMROUNDEDRECTD133*
21,1,1.1032,0.4000,0,0,270.0*
21,1,0.5000,1.0032,0,0,270.0*
1,1,0.6032,-0.2000,-0.2500*
1,1,0.6032,-0.2000,0.2500*
1,1,0.6032,0.2000,0.2500*
1,1,0.6032,0.2000,-0.2500*
%
%ADD133ROUNDEDRECTD133*%
%ADD134O,1.5016X0.4516*%
%ADD135R,4.2032X4.2032*%
%ADD136R,0.6000X0.9000*%
G04:AMPARAMS|DCode=137|XSize=1.1532mm|YSize=1.0532mm|CornerRadius=0.3141mm|HoleSize=0mm|Usage=FLASHONLY|Rotation=180.000|XOffset=0mm|YOffset=0mm|HoleType=Round|Shape=RoundedRectangle|*
%AMROUNDEDRECTD137*
21,1,1.1532,0.4250,0,0,180.0*
21,1,0.5250,1.0532,0,0,180.0*
1,1,0.6282,-0.2625,0.2125*
1,1,0.6282,0.2625,0.2125*
1,1,0.6282,0.2625,-0.2125*
1,1,0.6282,-0.2625,-0.2125*
%
%ADD137ROUNDEDRECTD137*%
%ADD138R,3.6068X2.9210*%
G04:AMPARAMS|DCode=139|XSize=1.8432mm|YSize=0.7932mm|CornerRadius=0.2491mm|HoleSize=0mm|Usage=FLASHONLY|Rotation=180.000|XOffset=0mm|YOffset=0mm|HoleType=Round|Shape=RoundedRectangle|*
%AMROUNDEDRECTD139*
21,1,1.8432,0.2950,0,0,180.0*
21,1,1.3450,0.7932,0,0,180.0*
1,1,0.4982,-0.6725,0.1475*
1,1,0.4982,0.6725,0.1475*
1,1,0.4982,0.6725,-0.1475*
1,1,0.4982,-0.6725,-0.1475*
%
%ADD139ROUNDEDRECTD139*%
G04:AMPARAMS|DCode=140|XSize=1.4032mm|YSize=1.5032mm|CornerRadius=0.3476mm|HoleSize=0mm|Usage=FLASHONLY|Rotation=180.000|XOffset=0mm|YOffset=0mm|HoleType=Round|Shape=RoundedRectangle|*
%AMROUNDEDRECTD140*
21,1,1.4032,0.8080,0,0,180.0*
21,1,0.7080,1.5032,0,0,180.0*
1,1,0.6952,-0.3540,0.4040*
1,1,0.6952,0.3540,0.4040*
1,1,0.6952,0.3540,-0.4040*
1,1,0.6952,-0.3540,-0.4040*
%
%ADD140ROUNDEDRECTD140*%
G04:AMPARAMS|DCode=141|XSize=1.4132mm|YSize=0.7932mm|CornerRadius=0.1754mm|HoleSize=0mm|Usage=FLASHONLY|Rotation=0.000|XOffset=0mm|YOffset=0mm|HoleType=Round|Shape=RoundedRectangle|*
%AMROUNDEDRECTD141*
21,1,1.4132,0.4425,0,0,0.0*
21,1,1.0625,0.7932,0,0,0.0*
1,1,0.3507,0.5313,-0.2213*
1,1,0.3507,-0.5313,-0.2213*
1,1,0.3507,-0.5313,0.2213*
1,1,0.3507,0.5313,0.2213*
%
%ADD141ROUNDEDRECTD141*%
G04:AMPARAMS|DCode=142|XSize=1.6637mm|YSize=0.762mm|CornerRadius=0.2413mm|HoleSize=0mm|Usage=FLASHONLY|Rotation=180.000|XOffset=0mm|YOffset=0mm|HoleType=Round|Shape=RoundedRectangle|*
%AMROUNDEDRECTD142*
21,1,1.6637,0.2794,0,0,180.0*
21,1,1.1811,0.7620,0,0,180.0*
1,1,0.4826,-0.5906,0.1397*
1,1,0.4826,0.5906,0.1397*
1,1,0.4826,0.5906,-0.1397*
1,1,0.4826,-0.5906,-0.1397*
%
%ADD142ROUNDEDRECTD142*%
G04:AMPARAMS|DCode=143|XSize=1.5097mm|YSize=0.4556mm|CornerRadius=0.1389mm|HoleSize=0mm|Usage=FLASHONLY|Rotation=0.000|XOffset=0mm|YOffset=0mm|HoleType=Round|Shape=RoundedRectangle|*
%AMROUNDEDRECTD143*
21,1,1.5097,0.1778,0,0,0.0*
21,1,1.2319,0.4556,0,0,0.0*
1,1,0.2778,0.6160,-0.0889*
1,1,0.2778,-0.6160,-0.0889*
1,1,0.2778,-0.6160,0.0889*
1,1,0.2778,0.6160,0.0889*
%
%ADD143ROUNDEDRECTD143*%
G04:AMPARAMS|DCode=144|XSize=0.65mm|YSize=0.7mm|CornerRadius=0.1875mm|HoleSize=0mm|Usage=FLASHONLY|Rotation=0.000|XOffset=0mm|YOffset=0mm|HoleType=Round|Shape=RoundedRectangle|*
%AMROUNDEDRECTD144*
21,1,0.6500,0.3250,0,0,0.0*
21,1,0.2750,0.7000,0,0,0.0*
1,1,0.3750,0.1375,-0.1625*
1,1,0.3750,-0.1375,-0.1625*
1,1,0.3750,-0.1375,0.1625*
1,1,0.3750,0.1375,0.1625*
%
%ADD144ROUNDEDRECTD144*%
G04:AMPARAMS|DCode=145|XSize=0.65mm|YSize=0.7mm|CornerRadius=0.1875mm|HoleSize=0mm|Usage=FLASHONLY|Rotation=90.000|XOffset=0mm|YOffset=0mm|HoleType=Round|Shape=RoundedRectangle|*
%AMROUNDEDRECTD145*
21,1,0.6500,0.3250,0,0,90.0*
21,1,0.2750,0.7000,0,0,90.0*
1,1,0.3750,0.1625,0.1375*
1,1,0.3750,0.1625,-0.1375*
1,1,0.3750,-0.1625,-0.1375*
1,1,0.3750,-0.1625,0.1375*
%
%ADD145ROUNDEDRECTD145*%
G04:AMPARAMS|DCode=146|XSize=0.375mm|YSize=0.4mm|CornerRadius=0.1188mm|HoleSize=0mm|Usage=FLASHONLY|Rotation=90.000|XOffset=0mm|YOffset=0mm|HoleType=Round|Shape=RoundedRectangle|*
%AMROUNDEDRECTD146*
21,1,0.3750,0.1625,0,0,90.0*
21,1,0.1375,0.4000,0,0,90.0*
1,1,0.2375,0.0813,0.0688*
1,1,0.2375,0.0813,-0.0688*
1,1,0.2375,-0.0813,-0.0688*
1,1,0.2375,-0.0813,0.0688*
%
%ADD146ROUNDEDRECTD146*%
G04:AMPARAMS|DCode=147|XSize=0.375mm|YSize=0.4mm|CornerRadius=0.1188mm|HoleSize=0mm|Usage=FLASHONLY|Rotation=0.000|XOffset=0mm|YOffset=0mm|HoleType=Round|Shape=RoundedRectangle|*
%AMROUNDEDRECTD147*
21,1,0.3750,0.1625,0,0,0.0*
21,1,0.1375,0.4000,0,0,0.0*
1,1,0.2375,0.0688,-0.0813*
1,1,0.2375,-0.0688,-0.0813*
1,1,0.2375,-0.0688,0.0813*
1,1,0.2375,0.0688,0.0813*
%
%ADD147ROUNDEDRECTD147*%
%ADD148R,0.7500X0.3500*%
%ADD149R,0.7500X0.4000*%
%ADD150R,0.6032X0.6032*%
G04:AMPARAMS|DCode=151|XSize=1.5232mm|YSize=0.8032mm|CornerRadius=0.1766mm|HoleSize=0mm|Usage=FLASHONLY|Rotation=90.000|XOffset=0mm|YOffset=0mm|HoleType=Round|Shape=RoundedRectangle|*
%AMROUNDEDRECTD151*
21,1,1.5232,0.4500,0,0,90.0*
21,1,1.1700,0.8032,0,0,90.0*
1,1,0.3532,0.2250,0.5850*
1,1,0.3532,0.2250,-0.5850*
1,1,0.3532,-0.2250,-0.5850*
1,1,0.3532,-0.2250,0.5850*
%
%ADD151ROUNDEDRECTD151*%
%ADD152R,1.6002X1.3970*%
G04:AMPARAMS|DCode=153|XSize=1.8532mm|YSize=2.7532mm|CornerRadius=0.3491mm|HoleSize=0mm|Usage=FLASHONLY|Rotation=180.000|XOffset=0mm|YOffset=0mm|HoleType=Round|Shape=RoundedRectangle|*
%AMROUNDEDRECTD153*
21,1,1.8532,2.0550,0,0,180.0*
21,1,1.1550,2.7532,0,0,180.0*
1,1,0.6982,-0.5775,1.0275*
1,1,0.6982,0.5775,1.0275*
1,1,0.6982,0.5775,-1.0275*
1,1,0.6982,-0.5775,-1.0275*
%
%ADD153ROUNDEDRECTD153*%
%ADD154R,0.4532X0.8532*%
%ADD155R,3.8000X3.8000*%
G04:AMPARAMS|DCode=156|XSize=0.38mm|YSize=0.78mm|CornerRadius=0.115mm|HoleSize=0mm|Usage=FLASHONLY|Rotation=90.000|XOffset=0mm|YOffset=0mm|HoleType=Round|Shape=RoundedRectangle|*
%AMROUNDEDRECTD156*
21,1,0.3800,0.5500,0,0,90.0*
21,1,0.1500,0.7800,0,0,90.0*
1,1,0.2300,0.2750,0.0750*
1,1,0.2300,0.2750,-0.0750*
1,1,0.2300,-0.2750,-0.0750*
1,1,0.2300,-0.2750,0.0750*
%
%ADD156ROUNDEDRECTD156*%
G04:AMPARAMS|DCode=157|XSize=0.5mm|YSize=0.95mm|CornerRadius=0.1625mm|HoleSize=0mm|Usage=FLASHONLY|Rotation=180.000|XOffset=0mm|YOffset=0mm|HoleType=Round|Shape=RoundedRectangle|*
%AMROUNDEDRECTD157*
21,1,0.5000,0.6250,0,0,180.0*
21,1,0.1750,0.9500,0,0,180.0*
1,1,0.3250,-0.0875,0.3125*
1,1,0.3250,0.0875,0.3125*
1,1,0.3250,0.0875,-0.3125*
1,1,0.3250,-0.0875,-0.3125*
%
%ADD157ROUNDEDRECTD157*%
%ADD158R,2.7500X2.7500*%
%ADD159R,1.3970X1.2446*%
%ADD160R,2.5908X1.2446*%
%ADD161R,2.3532X1.1532*%
%ADD162R,1.4986X2.0574*%
%ADD163R,1.1938X0.7112*%
%ADD164R,1.2954X1.2446*%
%ADD165R,1.2000X0.5500*%
%ADD166R,0.5032X0.8532*%
%ADD167R,0.8532X0.4532*%
%ADD168R,2.6032X0.5032*%
G04:AMPARAMS|DCode=169|XSize=0.464mm|YSize=0.914mm|CornerRadius=0.1445mm|HoleSize=0mm|Usage=FLASHONLY|Rotation=90.000|XOffset=0mm|YOffset=0mm|HoleType=Round|Shape=RoundedRectangle|*
%AMROUNDEDRECTD169*
21,1,0.4640,0.6250,0,0,90.0*
21,1,0.1750,0.9140,0,0,90.0*
1,1,0.2890,0.3125,0.0875*
1,1,0.2890,0.3125,-0.0875*
1,1,0.2890,-0.3125,-0.0875*
1,1,0.2890,-0.3125,0.0875*
%
%ADD169ROUNDEDRECTD169*%
G04:AMPARAMS|DCode=170|XSize=1.1032mm|YSize=1.1532mm|CornerRadius=0.2006mm|HoleSize=0mm|Usage=FLASHONLY|Rotation=180.000|XOffset=0mm|YOffset=0mm|HoleType=Round|Shape=RoundedRectangle|*
%AMROUNDEDRECTD170*
21,1,1.1032,0.7520,0,0,180.0*
21,1,0.7020,1.1532,0,0,180.0*
1,1,0.4012,-0.3510,0.3760*
1,1,0.4012,0.3510,0.3760*
1,1,0.4012,0.3510,-0.3760*
1,1,0.4012,-0.3510,-0.3760*
%
%ADD170ROUNDEDRECTD170*%
G04:AMPARAMS|DCode=171|XSize=1.9532mm|YSize=1.4532mm|CornerRadius=0.3454mm|HoleSize=0mm|Usage=FLASHONLY|Rotation=90.000|XOffset=0mm|YOffset=0mm|HoleType=Round|Shape=RoundedRectangle|*
%AMROUNDEDRECTD171*
21,1,1.9532,0.7625,0,0,90.0*
21,1,1.2625,1.4532,0,0,90.0*
1,1,0.6907,0.3813,0.6313*
1,1,0.6907,0.3813,-0.6313*
1,1,0.6907,-0.3813,-0.6313*
1,1,0.6907,-0.3813,0.6313*
%
%ADD171ROUNDEDRECTD171*%
G04:AMPARAMS|DCode=172|XSize=1.1032mm|YSize=1.1532mm|CornerRadius=0.2006mm|HoleSize=0mm|Usage=FLASHONLY|Rotation=90.000|XOffset=0mm|YOffset=0mm|HoleType=Round|Shape=RoundedRectangle|*
%AMROUNDEDRECTD172*
21,1,1.1032,0.7520,0,0,90.0*
21,1,0.7020,1.1532,0,0,90.0*
1,1,0.4012,0.3760,0.3510*
1,1,0.4012,0.3760,-0.3510*
1,1,0.4012,-0.3760,-0.3510*
1,1,0.4012,-0.3760,0.3510*
%
%ADD172ROUNDEDRECTD172*%
%ADD173R,1.2732X3.4732*%
%ADD174R,2.3532X3.4532*%
%ADD175R,0.7620X3.1242*%
%ADD176R,0.9906X0.9144*%
%ADD177R,0.3500X0.7500*%
%ADD178R,0.7500X0.3286*%
%ADD179R,1.2032X1.7032*%
%ADD180C,1.3000*%
%ADD181C,6.2032*%
%ADD182C,1.8032*%
%ADD183C,1.5000*%
%ADD184C,3.2482*%
%ADD185R,1.8032X1.8032*%
%ADD186C,0.8032*%
G36*
X1766843Y794401D02*
X1771275Y793214D01*
X1775513Y791458D01*
X1779487Y789164D01*
X1783127Y786371D01*
X1786371Y783127D01*
X1789164Y779487D01*
X1791458Y775513D01*
X1793214Y771274D01*
X1794401Y766843D01*
X1795000Y762294D01*
Y760000D01*
Y730000D01*
Y40000D01*
X1795000Y37706D01*
X1794401Y33157D01*
X1793214Y28725D01*
X1791458Y24487D01*
X1789164Y20513D01*
X1786371Y16873D01*
X1783127Y13629D01*
X1779487Y10836D01*
X1775513Y8542D01*
X1771275Y6786D01*
X1766843Y5599D01*
X1762294Y5000D01*
X1760000Y5000D01*
X1760000D01*
X1757999Y5154D01*
X1754064Y5951D01*
X1750257Y7224D01*
X1746634Y8955D01*
X1743252Y11118D01*
X1740160Y13679D01*
X1738914Y15000D01*
X61086D01*
X59840Y13679D01*
X56748Y11118D01*
X53366Y8955D01*
X49743Y7224D01*
X45936Y5951D01*
X42001Y5154D01*
X40000Y5000D01*
X40000D01*
X37706Y5000D01*
X33157Y5599D01*
X28725Y6786D01*
X24486Y8542D01*
X20513Y10836D01*
X16873Y13629D01*
X13629Y16873D01*
X10836Y20513D01*
X8542Y24487D01*
X6786Y28725D01*
X5599Y33157D01*
X5000Y37706D01*
X5000Y40000D01*
X5000Y730000D01*
Y760000D01*
Y762294D01*
X5599Y766843D01*
X6786Y771274D01*
X8542Y775513D01*
X10836Y779487D01*
X13629Y783127D01*
X16873Y786371D01*
X20513Y789164D01*
X24487Y791458D01*
X28726Y793214D01*
X33157Y794401D01*
X37706Y795000D01*
X41966D01*
X45865Y794487D01*
X49664Y793469D01*
X53297Y791964D01*
X56703Y789998D01*
X59823Y787604D01*
X62426Y785000D01*
X1737574D01*
X1740177Y787604D01*
X1743297Y789998D01*
X1746703Y791964D01*
X1750336Y793469D01*
X1754135Y794487D01*
X1758034Y795000D01*
X1762294D01*
X1766843Y794401D01*
D02*
G37*
%LPC*%
G36*
X1731670Y775000D02*
X68330D01*
X68469Y774664D01*
X69487Y770865D01*
X70000Y766966D01*
Y765000D01*
Y760000D01*
Y758034D01*
X69487Y754135D01*
X68469Y750336D01*
X66964Y746703D01*
X64998Y743297D01*
X62604Y740177D01*
X59823Y737396D01*
X56703Y735002D01*
X53297Y733036D01*
X49664Y731531D01*
X45865Y730513D01*
X41966Y730000D01*
X40000D01*
X25000Y730000D01*
X25000Y730000D01*
X24020Y729952D01*
X22097Y729569D01*
X20286Y728819D01*
X18656Y727730D01*
X17270Y726344D01*
X16181Y724714D01*
X15431Y722903D01*
X15048Y720980D01*
X15000Y720000D01*
X15100Y80100D01*
X15100Y80100D01*
X15148Y79130D01*
X15526Y77226D01*
X16269Y75433D01*
X17347Y73819D01*
X18719Y72447D01*
X20333Y71369D01*
X22126Y70626D01*
X24030Y70248D01*
X25000Y70200D01*
X42316Y70200D01*
X42316Y70200D01*
X44317Y70019D01*
X48238Y69139D01*
X52010Y67754D01*
X55569Y65889D01*
X58855Y63575D01*
X61810Y60853D01*
X64384Y57767D01*
X66534Y54373D01*
X68222Y50726D01*
X69420Y46891D01*
X70107Y42931D01*
X70271Y38916D01*
X70091Y36915D01*
X70090Y36915D01*
X70054Y34908D01*
X69491Y30934D01*
X68443Y27058D01*
X67605Y25000D01*
X1732395D01*
X1731557Y27058D01*
X1730509Y30934D01*
X1729945Y34908D01*
X1729909Y36915D01*
X1729909Y36915D01*
X1729729Y38916D01*
X1729893Y42931D01*
X1730580Y46891D01*
X1731778Y50726D01*
X1733466Y54373D01*
X1735616Y57767D01*
X1738190Y60853D01*
X1741145Y63575D01*
X1744431Y65889D01*
X1747990Y67754D01*
X1751762Y69139D01*
X1755683Y70019D01*
X1757684Y70200D01*
X1757684Y70200D01*
X1775000Y70200D01*
X1775970Y70248D01*
X1777874Y70626D01*
X1779667Y71369D01*
X1781281Y72447D01*
X1782653Y73819D01*
X1783731Y75433D01*
X1784474Y77226D01*
X1784852Y79130D01*
X1784900Y80100D01*
X1784900Y80100D01*
X1785000Y720000D01*
X1784952Y720980D01*
X1784569Y722903D01*
X1783819Y724714D01*
X1782730Y726344D01*
X1781344Y727730D01*
X1779714Y728819D01*
X1777903Y729569D01*
X1775980Y729952D01*
X1775000Y730000D01*
Y730000D01*
X1760000Y730000D01*
X1758034D01*
X1754135Y730513D01*
X1750336Y731531D01*
X1746703Y733036D01*
X1743297Y735002D01*
X1740177Y737396D01*
X1737396Y740177D01*
X1735002Y743297D01*
X1733036Y746703D01*
X1731531Y750336D01*
X1730513Y754135D01*
X1730000Y758034D01*
Y760000D01*
Y765000D01*
Y766966D01*
X1730513Y770865D01*
X1731531Y774664D01*
X1731670Y775000D01*
D02*
G37*
%LPD*%
G36*
X780894Y700002D02*
X780992Y699993D01*
X780992Y699993D01*
X781765Y699839D01*
X781765D01*
X781793Y699830D01*
X781859Y699810D01*
X781859Y699810D01*
X782587Y699509D01*
X782587Y699509D01*
X782674Y699463D01*
X783329Y699025D01*
X783329Y699025D01*
X783405Y698962D01*
X783962Y698405D01*
X783962Y698405D01*
X784025Y698329D01*
X784463Y697674D01*
X784509Y697587D01*
X784509Y697587D01*
X784810Y696859D01*
X784810Y696859D01*
X784839Y696765D01*
X784993Y695992D01*
X785002Y695894D01*
Y695500D01*
Y689500D01*
X784993Y689402D01*
X784964Y689308D01*
X784918Y689221D01*
X784855Y689145D01*
X784779Y689082D01*
X784692Y689036D01*
X784598Y689007D01*
X784500Y688998D01*
X772500D01*
X772402Y689007D01*
X772308Y689036D01*
X772221Y689082D01*
X772145Y689145D01*
X772082Y689221D01*
X772036Y689308D01*
X772007Y689402D01*
X771998Y689500D01*
Y695500D01*
D01*
Y695500D01*
X771998Y695894D01*
X772007Y695992D01*
X772007Y695992D01*
X772161Y696765D01*
Y696765D01*
X772170Y696793D01*
X772189Y696859D01*
X772190Y696859D01*
X772491Y697587D01*
X772491Y697587D01*
X772538Y697674D01*
X772975Y698329D01*
X772975Y698329D01*
X773038Y698405D01*
X773595Y698962D01*
X773595Y698962D01*
X773671Y699025D01*
X774326Y699463D01*
X774413Y699509D01*
X774413Y699509D01*
X775141Y699810D01*
X775141Y699810D01*
X775235Y699839D01*
X776008Y699993D01*
X776106Y700002D01*
X780500D01*
X780500D01*
D01*
X780894Y700002D01*
D02*
G37*
G36*
X129788Y711539D02*
X129821D01*
X129854Y711535D01*
X129887Y711532D01*
X129920Y711526D01*
X129953Y711522D01*
X130364Y711440D01*
X130396Y711431D01*
X130429Y711425D01*
X130460Y711414D01*
X130492Y711405D01*
X130523Y711393D01*
X130555Y711382D01*
X130941Y711222D01*
X130971Y711207D01*
X131002Y711194D01*
X131031Y711178D01*
X131061Y711163D01*
X131089Y711144D01*
X131117Y711128D01*
X131466Y710895D01*
X131492Y710875D01*
X131520Y710856D01*
X131545Y710834D01*
X131571Y710814D01*
X131595Y710790D01*
X131620Y710769D01*
X131916Y710472D01*
X131938Y710447D01*
X131961Y710424D01*
X131981Y710397D01*
X132004Y710372D01*
X132022Y710345D01*
X132042Y710318D01*
X132275Y709970D01*
X132292Y709941D01*
X132310Y709914D01*
X132325Y709884D01*
X132342Y709855D01*
X132354Y709824D01*
X132369Y709794D01*
X132529Y709407D01*
X132540Y709376D01*
X132553Y709345D01*
X132561Y709313D01*
X132572Y709281D01*
X132579Y709249D01*
X132587Y709217D01*
X132669Y708806D01*
X132673Y708773D01*
X132680Y708740D01*
X132682Y708707D01*
X132686Y708674D01*
Y708641D01*
X132688Y708607D01*
Y708398D01*
Y697655D01*
X132680Y697522D01*
X132654Y697392D01*
X132611Y697265D01*
X132552Y697146D01*
X132478Y697035D01*
X132390Y696935D01*
X132290Y696847D01*
X132179Y696773D01*
X132060Y696714D01*
X131934Y696672D01*
X131803Y696646D01*
X131677Y696637D01*
X132387Y695932D01*
X132389Y695930D01*
X132390Y695929D01*
X132434Y695880D01*
X132476Y695832D01*
X132477Y695830D01*
X132478Y695829D01*
X132514Y695775D01*
X132550Y695722D01*
X132551Y695720D01*
X132552Y695718D01*
X132580Y695661D01*
X132609Y695602D01*
X132610Y695601D01*
X132611Y695599D01*
X132632Y695538D01*
X132653Y695476D01*
X132653Y695474D01*
X132654Y695473D01*
X132667Y695407D01*
X132679Y695346D01*
X132679Y695344D01*
X132680Y695342D01*
X132684Y695273D01*
X132688Y695213D01*
X132688Y695211D01*
X132688Y695209D01*
Y688778D01*
Y688569D01*
X132686Y688535D01*
Y688502D01*
X132682Y688469D01*
X132680Y688436D01*
X132673Y688403D01*
X132669Y688370D01*
X132587Y687960D01*
X132579Y687927D01*
X132572Y687895D01*
X132561Y687863D01*
X132553Y687831D01*
X132540Y687800D01*
X132529Y687768D01*
X132369Y687382D01*
X132354Y687352D01*
X132342Y687321D01*
X132325Y687292D01*
X132310Y687262D01*
X132292Y687235D01*
X132275Y687206D01*
X132042Y686858D01*
X132022Y686831D01*
X132004Y686804D01*
X131982Y686779D01*
X131961Y686752D01*
X131938Y686728D01*
X131916Y686703D01*
X131620Y686407D01*
X131595Y686385D01*
X131571Y686362D01*
X131545Y686342D01*
X131520Y686320D01*
X131492Y686301D01*
X131466Y686281D01*
X131117Y686048D01*
X131089Y686031D01*
X131061Y686013D01*
X131031Y685998D01*
X131002Y685982D01*
X130971Y685969D01*
X130941Y685954D01*
X130555Y685794D01*
X130523Y685783D01*
X130492Y685770D01*
X130460Y685762D01*
X130429Y685751D01*
X130396Y685745D01*
X130364Y685736D01*
X129953Y685654D01*
X129920Y685650D01*
X129887Y685643D01*
X129854Y685641D01*
X129821Y685637D01*
X129788D01*
X129754Y685635D01*
X124086D01*
X124053Y685637D01*
X124019D01*
X123986Y685641D01*
X123953Y685643D01*
X123920Y685650D01*
X123887Y685654D01*
X123477Y685736D01*
X123445Y685745D01*
X123412Y685751D01*
X123380Y685762D01*
X123348Y685770D01*
X123317Y685783D01*
X123286Y685794D01*
X122899Y685954D01*
X122869Y685969D01*
X122838Y685982D01*
X122809Y685998D01*
X122780Y686013D01*
X122752Y686031D01*
X122723Y686048D01*
X122375Y686281D01*
X122348Y686301D01*
X122321Y686320D01*
X122296Y686341D01*
X122269Y686362D01*
X122246Y686385D01*
X122221Y686407D01*
X121925Y686703D01*
X121903Y686729D01*
X121879Y686752D01*
X121859Y686778D01*
X121837Y686804D01*
X121818Y686831D01*
X121798Y686858D01*
X121566Y687206D01*
X121549Y687235D01*
X121530Y687262D01*
X121516Y687292D01*
X121499Y687321D01*
X121486Y687352D01*
X121471Y687382D01*
X121311Y687768D01*
X121300Y687800D01*
X121288Y687831D01*
X121279Y687863D01*
X121268Y687895D01*
X121262Y687927D01*
X121253Y687960D01*
X121172Y688370D01*
X121167Y688403D01*
X121161Y688436D01*
X121159Y688469D01*
X121154Y688502D01*
Y688535D01*
X121152Y688569D01*
Y688778D01*
Y688778D01*
Y695209D01*
X121152Y695211D01*
X121152Y695213D01*
X121157Y695279D01*
X121161Y695342D01*
X121161Y695344D01*
X121161Y695346D01*
X121174Y695410D01*
X121187Y695473D01*
X121187Y695474D01*
X121188Y695476D01*
X121209Y695538D01*
X121230Y695599D01*
X121230Y695601D01*
X121231Y695602D01*
X121261Y695662D01*
X121288Y695718D01*
X121290Y695720D01*
X121290Y695722D01*
X121328Y695777D01*
X121362Y695829D01*
X121364Y695830D01*
X121365Y695832D01*
X121409Y695882D01*
X121450Y695929D01*
X121452Y695930D01*
X121453Y695932D01*
X122213Y696686D01*
X122170Y696683D01*
X122037Y696692D01*
X121907Y696718D01*
X121781Y696760D01*
X121661Y696819D01*
X121550Y696893D01*
X121450Y696981D01*
X121362Y697081D01*
X121288Y697192D01*
X121229Y697311D01*
X121187Y697438D01*
X121161Y697568D01*
X121152Y697701D01*
X121152Y708398D01*
Y708607D01*
X121154Y708641D01*
Y708674D01*
X121159Y708707D01*
X121161Y708740D01*
X121167Y708773D01*
X121172Y708806D01*
X121253Y709217D01*
X121262Y709249D01*
X121268Y709281D01*
X121279Y709313D01*
X121288Y709345D01*
X121300Y709376D01*
X121311Y709407D01*
X121471Y709794D01*
X121486Y709824D01*
X121499Y709855D01*
X121516Y709884D01*
X121530Y709914D01*
X121549Y709941D01*
X121566Y709970D01*
X121798Y710318D01*
X121819Y710345D01*
X121837Y710372D01*
X121859Y710397D01*
X121879Y710424D01*
X121903Y710448D01*
X121925Y710472D01*
X122221Y710769D01*
X122246Y710791D01*
X122269Y710814D01*
X122296Y710834D01*
X122321Y710856D01*
X122348Y710875D01*
X122375Y710895D01*
X122723Y711128D01*
X122752Y711144D01*
X122780Y711163D01*
X122809Y711178D01*
X122838Y711194D01*
X122869Y711207D01*
X122899Y711222D01*
X123286Y711382D01*
X123317Y711393D01*
X123348Y711405D01*
X123380Y711414D01*
X123412Y711425D01*
X123445Y711431D01*
X123477Y711440D01*
X123887Y711522D01*
X123920Y711526D01*
X123953Y711532D01*
X123986Y711535D01*
X124019Y711539D01*
X124053D01*
X124086Y711541D01*
X129754D01*
X129788Y711539D01*
D02*
G37*
G36*
X33788D02*
X33821D01*
X33854Y711535D01*
X33887Y711532D01*
X33920Y711526D01*
X33953Y711522D01*
X34364Y711440D01*
X34396Y711431D01*
X34429Y711425D01*
X34460Y711414D01*
X34492Y711405D01*
X34523Y711393D01*
X34555Y711382D01*
X34941Y711222D01*
X34971Y711207D01*
X35002Y711194D01*
X35031Y711178D01*
X35061Y711163D01*
X35089Y711144D01*
X35117Y711128D01*
X35466Y710895D01*
X35492Y710875D01*
X35520Y710856D01*
X35545Y710834D01*
X35571Y710814D01*
X35595Y710790D01*
X35620Y710769D01*
X35916Y710472D01*
X35938Y710447D01*
X35961Y710424D01*
X35982Y710397D01*
X36004Y710372D01*
X36022Y710345D01*
X36042Y710318D01*
X36275Y709970D01*
X36292Y709941D01*
X36310Y709914D01*
X36325Y709884D01*
X36342Y709855D01*
X36354Y709824D01*
X36369Y709794D01*
X36529Y709407D01*
X36540Y709376D01*
X36553Y709345D01*
X36561Y709313D01*
X36572Y709281D01*
X36579Y709249D01*
X36587Y709217D01*
X36669Y708806D01*
X36673Y708773D01*
X36680Y708740D01*
X36682Y708707D01*
X36686Y708674D01*
Y708641D01*
X36688Y708607D01*
Y708398D01*
Y697655D01*
X36680Y697522D01*
X36654Y697392D01*
X36611Y697265D01*
X36552Y697146D01*
X36478Y697035D01*
X36390Y696935D01*
X36290Y696847D01*
X36179Y696773D01*
X36060Y696714D01*
X35934Y696672D01*
X35803Y696646D01*
X35677Y696637D01*
X36388Y695932D01*
X36389Y695930D01*
X36390Y695929D01*
X36434Y695880D01*
X36476Y695832D01*
X36477Y695830D01*
X36478Y695829D01*
X36514Y695775D01*
X36550Y695722D01*
X36551Y695720D01*
X36552Y695718D01*
X36580Y695661D01*
X36609Y695602D01*
X36610Y695601D01*
X36611Y695599D01*
X36632Y695538D01*
X36653Y695476D01*
X36653Y695474D01*
X36654Y695473D01*
X36667Y695407D01*
X36679Y695346D01*
X36679Y695344D01*
X36680Y695342D01*
X36684Y695273D01*
X36688Y695213D01*
X36688Y695211D01*
X36688Y695209D01*
Y688778D01*
Y688569D01*
X36686Y688535D01*
Y688502D01*
X36682Y688469D01*
X36680Y688436D01*
X36673Y688403D01*
X36669Y688370D01*
X36587Y687960D01*
X36579Y687927D01*
X36572Y687895D01*
X36561Y687863D01*
X36553Y687831D01*
X36540Y687800D01*
X36529Y687768D01*
X36369Y687382D01*
X36354Y687352D01*
X36342Y687321D01*
X36325Y687292D01*
X36310Y687262D01*
X36292Y687235D01*
X36275Y687206D01*
X36042Y686858D01*
X36022Y686831D01*
X36004Y686804D01*
X35982Y686779D01*
X35961Y686752D01*
X35938Y686728D01*
X35916Y686703D01*
X35620Y686407D01*
X35595Y686385D01*
X35571Y686362D01*
X35545Y686342D01*
X35520Y686320D01*
X35492Y686301D01*
X35466Y686281D01*
X35117Y686048D01*
X35089Y686031D01*
X35061Y686013D01*
X35031Y685998D01*
X35002Y685982D01*
X34971Y685969D01*
X34941Y685954D01*
X34555Y685794D01*
X34523Y685783D01*
X34492Y685770D01*
X34460Y685762D01*
X34429Y685751D01*
X34396Y685745D01*
X34364Y685736D01*
X33953Y685654D01*
X33920Y685650D01*
X33887Y685643D01*
X33854Y685641D01*
X33821Y685637D01*
X33788D01*
X33754Y685635D01*
X28086D01*
X28053Y685637D01*
X28019D01*
X27986Y685641D01*
X27953Y685643D01*
X27920Y685650D01*
X27887Y685654D01*
X27477Y685736D01*
X27445Y685745D01*
X27412Y685751D01*
X27380Y685762D01*
X27348Y685770D01*
X27317Y685783D01*
X27286Y685794D01*
X26899Y685954D01*
X26869Y685969D01*
X26838Y685982D01*
X26809Y685998D01*
X26780Y686013D01*
X26752Y686031D01*
X26723Y686048D01*
X26375Y686281D01*
X26348Y686301D01*
X26321Y686320D01*
X26296Y686341D01*
X26269Y686362D01*
X26246Y686385D01*
X26221Y686407D01*
X25925Y686703D01*
X25903Y686729D01*
X25879Y686752D01*
X25859Y686778D01*
X25837Y686804D01*
X25818Y686831D01*
X25798Y686858D01*
X25566Y687206D01*
X25549Y687235D01*
X25530Y687262D01*
X25516Y687292D01*
X25499Y687321D01*
X25486Y687352D01*
X25471Y687382D01*
X25311Y687768D01*
X25301Y687800D01*
X25288Y687831D01*
X25279Y687863D01*
X25268Y687895D01*
X25262Y687927D01*
X25253Y687960D01*
X25172Y688370D01*
X25167Y688403D01*
X25161Y688436D01*
X25159Y688469D01*
X25154Y688502D01*
Y688535D01*
X25152Y688569D01*
Y688778D01*
Y688778D01*
Y695209D01*
X25152Y695211D01*
X25152Y695213D01*
X25157Y695279D01*
X25161Y695342D01*
X25161Y695344D01*
X25161Y695346D01*
X25174Y695410D01*
X25187Y695473D01*
X25187Y695474D01*
X25188Y695476D01*
X25209Y695538D01*
X25230Y695599D01*
X25230Y695601D01*
X25231Y695602D01*
X25261Y695662D01*
X25289Y695718D01*
X25289Y695720D01*
X25290Y695722D01*
X25328Y695777D01*
X25363Y695829D01*
X25364Y695830D01*
X25365Y695832D01*
X25409Y695882D01*
X25450Y695929D01*
X25452Y695930D01*
X25453Y695932D01*
X26213Y696686D01*
X26170Y696683D01*
X26037Y696692D01*
X25907Y696718D01*
X25781Y696760D01*
X25661Y696819D01*
X25550Y696893D01*
X25450Y696981D01*
X25363Y697081D01*
X25289Y697192D01*
X25229Y697311D01*
X25187Y697438D01*
X25161Y697568D01*
X25152Y697701D01*
X25152Y708398D01*
Y708607D01*
X25154Y708641D01*
Y708674D01*
X25159Y708707D01*
X25161Y708740D01*
X25167Y708773D01*
X25172Y708806D01*
X25253Y709217D01*
X25262Y709249D01*
X25268Y709281D01*
X25279Y709313D01*
X25288Y709345D01*
X25301Y709376D01*
X25311Y709407D01*
X25471Y709794D01*
X25486Y709824D01*
X25499Y709855D01*
X25516Y709884D01*
X25530Y709914D01*
X25549Y709941D01*
X25566Y709970D01*
X25798Y710318D01*
X25819Y710345D01*
X25837Y710372D01*
X25859Y710397D01*
X25879Y710424D01*
X25903Y710448D01*
X25925Y710472D01*
X26221Y710769D01*
X26246Y710791D01*
X26269Y710814D01*
X26296Y710834D01*
X26321Y710856D01*
X26349Y710875D01*
X26375Y710895D01*
X26723Y711128D01*
X26752Y711144D01*
X26780Y711163D01*
X26809Y711178D01*
X26838Y711194D01*
X26869Y711207D01*
X26899Y711222D01*
X27286Y711382D01*
X27317Y711393D01*
X27348Y711405D01*
X27380Y711414D01*
X27412Y711425D01*
X27445Y711431D01*
X27477Y711440D01*
X27887Y711522D01*
X27920Y711526D01*
X27953Y711532D01*
X27986Y711535D01*
X28019Y711539D01*
X28053D01*
X28086Y711541D01*
X33754D01*
X33788Y711539D01*
D02*
G37*
G36*
X784598Y683993D02*
X784692Y683964D01*
X784779Y683918D01*
X784855Y683855D01*
X784918Y683779D01*
X784964Y683692D01*
X784993Y683598D01*
X785002Y683500D01*
Y677500D01*
Y677106D01*
X784993Y677008D01*
X784839Y676235D01*
X784810Y676141D01*
X784509Y675413D01*
X784509Y675413D01*
X784463Y675326D01*
X784025Y674671D01*
X784025Y674671D01*
X783962Y674595D01*
X783405Y674038D01*
X783405Y674038D01*
X783329Y673975D01*
X782674Y673538D01*
X782587Y673491D01*
X782587Y673491D01*
X781859Y673190D01*
X781859Y673189D01*
X781765Y673161D01*
X780992Y673007D01*
X780894Y672998D01*
X776106D01*
X776008Y673007D01*
X775235Y673161D01*
X775141Y673189D01*
X774413Y673491D01*
X774413Y673491D01*
X774326Y673538D01*
X773671Y673975D01*
X773671Y673975D01*
X773595Y674038D01*
X773038Y674595D01*
X773038Y674595D01*
X772975Y674671D01*
X772538Y675326D01*
X772491Y675413D01*
X772491Y675413D01*
X772190Y676141D01*
X772190Y676141D01*
X772161Y676235D01*
X772007Y677008D01*
X771998Y677106D01*
Y677500D01*
Y677500D01*
Y683500D01*
X772007Y683598D01*
X772036Y683692D01*
X772082Y683779D01*
X772145Y683855D01*
X772221Y683918D01*
X772308Y683964D01*
X772402Y683993D01*
X772500Y684002D01*
X784500D01*
X784598Y683993D01*
D02*
G37*
G36*
X636394Y633502D02*
X636492Y633493D01*
X636492Y633493D01*
X637265Y633339D01*
X637265D01*
X637293Y633330D01*
X637359Y633311D01*
X637359Y633310D01*
X638087Y633009D01*
X638087Y633009D01*
X638174Y632962D01*
X638829Y632525D01*
X638829Y632525D01*
X638905Y632462D01*
X639462Y631905D01*
X639462Y631905D01*
X639525Y631829D01*
X639963Y631174D01*
X640009Y631087D01*
X640009Y631087D01*
X640310Y630359D01*
X640311Y630359D01*
X640339Y630265D01*
X640493Y629492D01*
X640502Y629394D01*
Y629000D01*
Y623000D01*
X640493Y622902D01*
X640464Y622808D01*
X640418Y622721D01*
X640355Y622645D01*
X640279Y622582D01*
X640192Y622536D01*
X640098Y622507D01*
X640000Y622498D01*
X628000D01*
X627902Y622507D01*
X627808Y622536D01*
X627721Y622582D01*
X627645Y622645D01*
X627582Y622721D01*
X627536Y622808D01*
X627507Y622902D01*
X627498Y623000D01*
Y629000D01*
Y629000D01*
D01*
X627498Y629394D01*
X627507Y629492D01*
X627507Y629492D01*
X627661Y630265D01*
Y630265D01*
X627670Y630293D01*
X627690Y630359D01*
X627690Y630359D01*
X627991Y631087D01*
X627991Y631087D01*
X628037Y631174D01*
X628475Y631829D01*
X628475Y631829D01*
X628538Y631905D01*
X629095Y632462D01*
X629095Y632462D01*
X629171Y632525D01*
X629826Y632962D01*
X629913Y633009D01*
X629913Y633009D01*
X630641Y633310D01*
X630641Y633311D01*
X630735Y633339D01*
X631508Y633493D01*
X631606Y633503D01*
X636000D01*
D01*
X636000D01*
X636394Y633502D01*
D02*
G37*
G36*
X332939Y665811D02*
Y661811D01*
Y657937D01*
Y653937D01*
Y650063D01*
Y646063D01*
Y642189D01*
Y632061D01*
X293061D01*
Y642189D01*
Y646063D01*
Y650063D01*
Y653937D01*
Y657937D01*
Y661811D01*
Y665811D01*
Y671939D01*
X332939D01*
Y665811D01*
D02*
G37*
G36*
X422988Y665302D02*
Y661302D01*
Y657428D01*
Y653428D01*
Y649554D01*
Y645554D01*
Y641680D01*
Y631552D01*
X383110D01*
Y637680D01*
Y641680D01*
Y645554D01*
Y649554D01*
Y653428D01*
Y657428D01*
Y661302D01*
Y665302D01*
Y671430D01*
X422988D01*
Y665302D01*
D02*
G37*
G36*
X294394Y609502D02*
X294492Y609493D01*
X294492Y609493D01*
X295265Y609339D01*
X295265D01*
X295293Y609330D01*
X295359Y609310D01*
X295359Y609310D01*
X296087Y609009D01*
X296087Y609009D01*
X296174Y608963D01*
X296829Y608525D01*
X296829Y608525D01*
X296905Y608462D01*
X297462Y607905D01*
X297462Y607905D01*
X297525Y607829D01*
X297962Y607174D01*
X298009Y607087D01*
X298009Y607087D01*
X298310Y606359D01*
X298311Y606359D01*
X298339Y606265D01*
X298493Y605492D01*
X298503Y605394D01*
Y605000D01*
Y601000D01*
Y600606D01*
X298493Y600508D01*
X298339Y599735D01*
X298311Y599641D01*
X298009Y598913D01*
X298009Y598913D01*
X297962Y598826D01*
X297525Y598171D01*
X297525Y598171D01*
X297462Y598095D01*
X296905Y597538D01*
X296905Y597538D01*
X296829Y597475D01*
X296174Y597038D01*
X296087Y596991D01*
X296087Y596991D01*
X295359Y596690D01*
X295359Y596689D01*
X295265Y596661D01*
X294492Y596507D01*
X294394Y596498D01*
X288000D01*
X287902Y596507D01*
X287808Y596536D01*
X287721Y596582D01*
X287645Y596645D01*
X287582Y596721D01*
X287536Y596808D01*
X287507Y596902D01*
X287498Y597000D01*
Y609000D01*
X287507Y609098D01*
X287536Y609192D01*
X287582Y609279D01*
X287645Y609355D01*
X287721Y609418D01*
X287808Y609464D01*
X287902Y609493D01*
X288000Y609502D01*
X294000D01*
D01*
X294000D01*
X294394Y609502D01*
D02*
G37*
G36*
X384443Y608993D02*
X384541Y608984D01*
X384541Y608984D01*
X385314Y608830D01*
X385314D01*
X385342Y608821D01*
X385408Y608801D01*
X385408Y608801D01*
X386136Y608500D01*
X386136Y608500D01*
X386223Y608453D01*
X386878Y608016D01*
X386878Y608016D01*
X386954Y607953D01*
X387511Y607396D01*
X387511Y607396D01*
X387574Y607320D01*
X388012Y606665D01*
X388058Y606578D01*
X388058Y606578D01*
X388359Y605850D01*
X388359Y605850D01*
X388388Y605756D01*
X388542Y604983D01*
X388551Y604885D01*
Y604491D01*
Y600491D01*
Y600097D01*
X388542Y599999D01*
X388388Y599226D01*
X388359Y599132D01*
X388058Y598404D01*
X388058Y598404D01*
X388012Y598317D01*
X387574Y597662D01*
X387574Y597662D01*
X387511Y597586D01*
X386954Y597029D01*
X386954Y597029D01*
X386878Y596966D01*
X386223Y596529D01*
X386136Y596482D01*
X386136Y596482D01*
X385408Y596181D01*
X385408Y596180D01*
X385314Y596152D01*
X384541Y595998D01*
X384443Y595989D01*
X378049D01*
X377951Y595998D01*
X377857Y596027D01*
X377770Y596073D01*
X377694Y596136D01*
X377631Y596212D01*
X377585Y596299D01*
X377556Y596393D01*
X377547Y596491D01*
Y608491D01*
X377556Y608589D01*
X377585Y608683D01*
X377631Y608770D01*
X377694Y608846D01*
X377770Y608909D01*
X377857Y608955D01*
X377951Y608984D01*
X378049Y608993D01*
X384049D01*
D01*
X384049D01*
X384443Y608993D01*
D02*
G37*
G36*
X640098Y617493D02*
X640192Y617464D01*
X640279Y617418D01*
X640355Y617355D01*
X640418Y617279D01*
X640464Y617192D01*
X640493Y617098D01*
X640502Y617000D01*
Y611000D01*
Y610606D01*
X640493Y610508D01*
X640339Y609735D01*
X640311Y609641D01*
X640009Y608913D01*
X640009Y608913D01*
X639963Y608826D01*
X639525Y608171D01*
X639525Y608171D01*
X639462Y608095D01*
X638905Y607538D01*
X638905Y607538D01*
X638829Y607475D01*
X638174Y607038D01*
X638087Y606991D01*
X638087Y606991D01*
X637359Y606690D01*
X637359Y606690D01*
X637265Y606661D01*
X636492Y606507D01*
X636394Y606498D01*
X631606D01*
X631508Y606507D01*
X630735Y606661D01*
X630641Y606690D01*
X629913Y606991D01*
X629913Y606991D01*
X629826Y607038D01*
X629171Y607475D01*
X629171Y607475D01*
X629095Y607538D01*
X628538Y608095D01*
X628538Y608095D01*
X628475Y608171D01*
X628037Y608826D01*
X627991Y608913D01*
X627991Y608913D01*
X627690Y609641D01*
X627690Y609641D01*
X627661Y609735D01*
X627507Y610508D01*
X627498Y610606D01*
Y611000D01*
Y611000D01*
Y617000D01*
X627507Y617098D01*
X627536Y617192D01*
X627582Y617279D01*
X627645Y617355D01*
X627721Y617418D01*
X627808Y617464D01*
X627902Y617493D01*
X628000Y617502D01*
X640000D01*
X640098Y617493D01*
D02*
G37*
G36*
X282098Y609493D02*
X282192Y609464D01*
X282279Y609418D01*
X282355Y609355D01*
X282418Y609279D01*
X282464Y609192D01*
X282493Y609098D01*
X282502Y609000D01*
Y597000D01*
X282493Y596902D01*
X282464Y596808D01*
X282418Y596721D01*
X282355Y596645D01*
X282279Y596582D01*
X282192Y596536D01*
X282098Y596507D01*
X282000Y596498D01*
X275606D01*
X275508Y596507D01*
X274735Y596661D01*
X274641Y596689D01*
X273913Y596991D01*
X273913Y596991D01*
X273826Y597038D01*
X273171Y597475D01*
X273171Y597475D01*
X273095Y597538D01*
X272538Y598095D01*
X272538Y598095D01*
X272475Y598171D01*
X272038Y598826D01*
X271991Y598913D01*
X271991Y598913D01*
X271690Y599641D01*
X271690Y599641D01*
X271661Y599735D01*
X271507Y600508D01*
X271498Y600606D01*
Y601000D01*
Y601000D01*
Y605000D01*
Y605000D01*
D01*
X271498Y605394D01*
X271507Y605492D01*
X271507Y605492D01*
X271661Y606265D01*
Y606265D01*
X271670Y606293D01*
X271689Y606359D01*
X271690Y606359D01*
X271991Y607087D01*
X271991Y607087D01*
X272038Y607174D01*
X272475Y607829D01*
X272475Y607829D01*
X272538Y607905D01*
X273095Y608462D01*
X273095Y608462D01*
X273171Y608525D01*
X273826Y608963D01*
X273913Y609009D01*
X273913Y609009D01*
X274641Y609310D01*
X274641Y609310D01*
X274735Y609339D01*
X275508Y609493D01*
X275606Y609502D01*
X282000D01*
X282098Y609493D01*
D02*
G37*
G36*
X372147Y608984D02*
X372241Y608955D01*
X372328Y608909D01*
X372404Y608846D01*
X372467Y608770D01*
X372513Y608683D01*
X372542Y608589D01*
X372551Y608491D01*
Y596491D01*
X372542Y596393D01*
X372513Y596299D01*
X372467Y596212D01*
X372404Y596136D01*
X372328Y596073D01*
X372241Y596027D01*
X372147Y595998D01*
X372049Y595989D01*
X365655D01*
X365557Y595998D01*
X364784Y596152D01*
X364690Y596180D01*
X363962Y596482D01*
X363962Y596482D01*
X363875Y596529D01*
X363220Y596966D01*
X363220Y596966D01*
X363144Y597029D01*
X362587Y597586D01*
X362587Y597586D01*
X362524Y597662D01*
X362086Y598317D01*
X362040Y598404D01*
X362040Y598404D01*
X361739Y599132D01*
X361739Y599132D01*
X361710Y599226D01*
X361556Y599999D01*
X361547Y600097D01*
Y600491D01*
Y600491D01*
Y604491D01*
D01*
Y604491D01*
X361547Y604885D01*
X361556Y604983D01*
X361556Y604983D01*
X361710Y605756D01*
Y605756D01*
X361719Y605784D01*
X361739Y605850D01*
X361739Y605850D01*
X362040Y606578D01*
X362040Y606578D01*
X362086Y606665D01*
X362524Y607320D01*
X362524Y607320D01*
X362587Y607396D01*
X363144Y607953D01*
X363144Y607953D01*
X363220Y608016D01*
X363875Y608453D01*
X363962Y608500D01*
X363962Y608500D01*
X364690Y608801D01*
X364690Y608801D01*
X364784Y608830D01*
X365557Y608984D01*
X365655Y608993D01*
X372049D01*
X372147Y608984D01*
D02*
G37*
G36*
X129788Y620539D02*
X129821D01*
X129854Y620535D01*
X129887Y620532D01*
X129920Y620526D01*
X129953Y620522D01*
X130364Y620440D01*
X130396Y620431D01*
X130429Y620425D01*
X130460Y620414D01*
X130492Y620405D01*
X130523Y620393D01*
X130555Y620382D01*
X130941Y620222D01*
X130971Y620207D01*
X131002Y620194D01*
X131031Y620178D01*
X131061Y620163D01*
X131089Y620144D01*
X131117Y620128D01*
X131466Y619895D01*
X131492Y619875D01*
X131520Y619856D01*
X131545Y619834D01*
X131571Y619814D01*
X131595Y619790D01*
X131620Y619768D01*
X131916Y619473D01*
X131938Y619447D01*
X131961Y619424D01*
X131981Y619398D01*
X132004Y619372D01*
X132022Y619345D01*
X132042Y619318D01*
X132275Y618970D01*
X132292Y618941D01*
X132310Y618914D01*
X132325Y618884D01*
X132342Y618855D01*
X132354Y618824D01*
X132369Y618794D01*
X132529Y618407D01*
X132540Y618376D01*
X132553Y618345D01*
X132561Y618313D01*
X132572Y618281D01*
X132579Y618248D01*
X132587Y618217D01*
X132669Y617806D01*
X132673Y617773D01*
X132680Y617740D01*
X132682Y617707D01*
X132686Y617674D01*
Y617640D01*
X132688Y617607D01*
Y617398D01*
Y606655D01*
X132680Y606522D01*
X132654Y606392D01*
X132611Y606265D01*
X132552Y606146D01*
X132478Y606035D01*
X132390Y605935D01*
X132290Y605847D01*
X132179Y605773D01*
X132060Y605714D01*
X131934Y605672D01*
X131803Y605646D01*
X131677Y605637D01*
X132387Y604932D01*
X132389Y604930D01*
X132390Y604929D01*
X132434Y604880D01*
X132476Y604832D01*
X132477Y604830D01*
X132478Y604829D01*
X132514Y604775D01*
X132550Y604722D01*
X132551Y604720D01*
X132552Y604718D01*
X132580Y604661D01*
X132609Y604602D01*
X132610Y604600D01*
X132611Y604599D01*
X132632Y604538D01*
X132653Y604476D01*
X132653Y604474D01*
X132654Y604473D01*
X132667Y604407D01*
X132679Y604346D01*
X132679Y604344D01*
X132680Y604342D01*
X132684Y604273D01*
X132688Y604213D01*
X132688Y604211D01*
X132688Y604209D01*
Y597778D01*
Y597569D01*
X132686Y597535D01*
Y597502D01*
X132682Y597469D01*
X132680Y597436D01*
X132673Y597403D01*
X132669Y597370D01*
X132587Y596959D01*
X132579Y596927D01*
X132572Y596895D01*
X132561Y596863D01*
X132553Y596831D01*
X132540Y596800D01*
X132529Y596768D01*
X132369Y596382D01*
X132354Y596352D01*
X132342Y596321D01*
X132325Y596292D01*
X132310Y596262D01*
X132292Y596235D01*
X132275Y596206D01*
X132042Y595858D01*
X132022Y595831D01*
X132004Y595803D01*
X131982Y595779D01*
X131961Y595752D01*
X131938Y595728D01*
X131916Y595703D01*
X131620Y595407D01*
X131595Y595385D01*
X131571Y595362D01*
X131545Y595342D01*
X131520Y595320D01*
X131492Y595301D01*
X131466Y595281D01*
X131117Y595048D01*
X131089Y595032D01*
X131061Y595013D01*
X131031Y594998D01*
X131002Y594982D01*
X130971Y594969D01*
X130941Y594954D01*
X130555Y594794D01*
X130523Y594783D01*
X130492Y594771D01*
X130460Y594762D01*
X130429Y594751D01*
X130396Y594745D01*
X130364Y594736D01*
X129953Y594654D01*
X129920Y594650D01*
X129887Y594644D01*
X129854Y594641D01*
X129821Y594637D01*
X129788D01*
X129754Y594635D01*
X124086D01*
X124053Y594637D01*
X124019D01*
X123986Y594641D01*
X123953Y594644D01*
X123920Y594650D01*
X123887Y594654D01*
X123477Y594736D01*
X123445Y594745D01*
X123412Y594751D01*
X123380Y594762D01*
X123348Y594771D01*
X123317Y594783D01*
X123286Y594794D01*
X122899Y594954D01*
X122869Y594969D01*
X122838Y594982D01*
X122809Y594998D01*
X122780Y595013D01*
X122752Y595032D01*
X122723Y595048D01*
X122375Y595281D01*
X122348Y595301D01*
X122321Y595320D01*
X122296Y595341D01*
X122269Y595362D01*
X122246Y595386D01*
X122221Y595407D01*
X121925Y595703D01*
X121903Y595729D01*
X121879Y595752D01*
X121859Y595778D01*
X121837Y595803D01*
X121818Y595831D01*
X121798Y595858D01*
X121566Y596206D01*
X121549Y596235D01*
X121530Y596262D01*
X121516Y596292D01*
X121499Y596321D01*
X121486Y596352D01*
X121471Y596382D01*
X121311Y596768D01*
X121300Y596800D01*
X121288Y596831D01*
X121279Y596863D01*
X121268Y596895D01*
X121262Y596927D01*
X121253Y596959D01*
X121172Y597370D01*
X121167Y597403D01*
X121161Y597436D01*
X121159Y597469D01*
X121154Y597502D01*
Y597535D01*
X121152Y597569D01*
Y597778D01*
Y597778D01*
Y604209D01*
X121152Y604211D01*
X121152Y604213D01*
X121157Y604279D01*
X121161Y604342D01*
X121161Y604344D01*
X121161Y604346D01*
X121174Y604410D01*
X121187Y604473D01*
X121187Y604474D01*
X121188Y604476D01*
X121209Y604538D01*
X121230Y604599D01*
X121230Y604600D01*
X121231Y604602D01*
X121261Y604662D01*
X121288Y604718D01*
X121290Y604720D01*
X121290Y604722D01*
X121328Y604777D01*
X121362Y604829D01*
X121364Y604830D01*
X121365Y604832D01*
X121409Y604882D01*
X121450Y604929D01*
X121452Y604930D01*
X121453Y604932D01*
X122213Y605686D01*
X122170Y605683D01*
X122037Y605692D01*
X121907Y605718D01*
X121781Y605760D01*
X121661Y605819D01*
X121550Y605893D01*
X121450Y605981D01*
X121362Y606081D01*
X121288Y606192D01*
X121229Y606311D01*
X121187Y606437D01*
X121161Y606568D01*
X121152Y606701D01*
X121152Y617398D01*
Y617607D01*
X121154Y617640D01*
Y617674D01*
X121159Y617707D01*
X121161Y617740D01*
X121167Y617773D01*
X121172Y617806D01*
X121253Y618217D01*
X121262Y618249D01*
X121268Y618281D01*
X121279Y618313D01*
X121288Y618345D01*
X121300Y618376D01*
X121311Y618407D01*
X121471Y618794D01*
X121486Y618824D01*
X121499Y618855D01*
X121516Y618884D01*
X121530Y618914D01*
X121549Y618941D01*
X121566Y618970D01*
X121798Y619318D01*
X121819Y619345D01*
X121837Y619372D01*
X121859Y619397D01*
X121879Y619424D01*
X121903Y619448D01*
X121925Y619473D01*
X122221Y619768D01*
X122246Y619791D01*
X122269Y619814D01*
X122296Y619834D01*
X122321Y619856D01*
X122348Y619875D01*
X122375Y619895D01*
X122723Y620128D01*
X122752Y620144D01*
X122780Y620163D01*
X122809Y620178D01*
X122838Y620194D01*
X122869Y620207D01*
X122899Y620222D01*
X123286Y620382D01*
X123317Y620393D01*
X123348Y620405D01*
X123380Y620414D01*
X123412Y620425D01*
X123445Y620431D01*
X123477Y620440D01*
X123887Y620522D01*
X123920Y620526D01*
X123953Y620532D01*
X123986Y620535D01*
X124019Y620539D01*
X124053D01*
X124086Y620541D01*
X129754D01*
X129788Y620539D01*
D02*
G37*
G36*
X33788D02*
X33821D01*
X33854Y620535D01*
X33887Y620532D01*
X33920Y620526D01*
X33953Y620522D01*
X34364Y620440D01*
X34396Y620431D01*
X34429Y620425D01*
X34460Y620414D01*
X34492Y620405D01*
X34523Y620393D01*
X34555Y620382D01*
X34941Y620222D01*
X34971Y620207D01*
X35002Y620194D01*
X35031Y620178D01*
X35061Y620163D01*
X35089Y620144D01*
X35117Y620128D01*
X35466Y619895D01*
X35492Y619875D01*
X35520Y619856D01*
X35545Y619834D01*
X35571Y619814D01*
X35595Y619790D01*
X35620Y619768D01*
X35916Y619473D01*
X35938Y619447D01*
X35961Y619424D01*
X35982Y619398D01*
X36004Y619372D01*
X36022Y619345D01*
X36042Y619318D01*
X36275Y618970D01*
X36292Y618941D01*
X36310Y618914D01*
X36325Y618884D01*
X36342Y618855D01*
X36354Y618824D01*
X36369Y618794D01*
X36529Y618407D01*
X36540Y618376D01*
X36553Y618345D01*
X36561Y618313D01*
X36572Y618281D01*
X36579Y618248D01*
X36587Y618217D01*
X36669Y617806D01*
X36673Y617773D01*
X36680Y617740D01*
X36682Y617707D01*
X36686Y617674D01*
Y617640D01*
X36688Y617607D01*
Y617398D01*
Y606655D01*
X36680Y606522D01*
X36654Y606392D01*
X36611Y606265D01*
X36552Y606146D01*
X36478Y606035D01*
X36390Y605935D01*
X36290Y605847D01*
X36179Y605773D01*
X36060Y605714D01*
X35934Y605672D01*
X35803Y605646D01*
X35677Y605637D01*
X36388Y604932D01*
X36389Y604930D01*
X36390Y604929D01*
X36434Y604880D01*
X36476Y604832D01*
X36477Y604830D01*
X36478Y604829D01*
X36514Y604775D01*
X36550Y604722D01*
X36551Y604720D01*
X36552Y604718D01*
X36580Y604661D01*
X36609Y604602D01*
X36610Y604600D01*
X36611Y604599D01*
X36632Y604538D01*
X36653Y604476D01*
X36653Y604474D01*
X36654Y604473D01*
X36667Y604407D01*
X36679Y604346D01*
X36679Y604344D01*
X36680Y604342D01*
X36684Y604273D01*
X36688Y604213D01*
X36688Y604211D01*
X36688Y604209D01*
Y597778D01*
Y597569D01*
X36686Y597535D01*
Y597502D01*
X36682Y597469D01*
X36680Y597436D01*
X36673Y597403D01*
X36669Y597370D01*
X36587Y596959D01*
X36579Y596927D01*
X36572Y596895D01*
X36561Y596863D01*
X36553Y596831D01*
X36540Y596800D01*
X36529Y596768D01*
X36369Y596382D01*
X36354Y596352D01*
X36342Y596321D01*
X36325Y596292D01*
X36310Y596262D01*
X36292Y596235D01*
X36275Y596206D01*
X36042Y595858D01*
X36022Y595831D01*
X36004Y595803D01*
X35982Y595779D01*
X35961Y595752D01*
X35938Y595728D01*
X35916Y595703D01*
X35620Y595407D01*
X35595Y595385D01*
X35571Y595362D01*
X35545Y595342D01*
X35520Y595320D01*
X35492Y595301D01*
X35466Y595281D01*
X35117Y595048D01*
X35089Y595032D01*
X35061Y595013D01*
X35031Y594998D01*
X35002Y594982D01*
X34971Y594969D01*
X34941Y594954D01*
X34555Y594794D01*
X34523Y594783D01*
X34492Y594771D01*
X34460Y594762D01*
X34429Y594751D01*
X34396Y594745D01*
X34364Y594736D01*
X33953Y594654D01*
X33920Y594650D01*
X33887Y594644D01*
X33854Y594641D01*
X33821Y594637D01*
X33788D01*
X33754Y594635D01*
X28086D01*
X28053Y594637D01*
X28019D01*
X27986Y594641D01*
X27953Y594644D01*
X27920Y594650D01*
X27887Y594654D01*
X27477Y594736D01*
X27445Y594745D01*
X27412Y594751D01*
X27380Y594762D01*
X27348Y594771D01*
X27317Y594783D01*
X27286Y594794D01*
X26899Y594954D01*
X26869Y594969D01*
X26838Y594982D01*
X26809Y594998D01*
X26780Y595013D01*
X26752Y595032D01*
X26723Y595048D01*
X26375Y595281D01*
X26348Y595301D01*
X26321Y595320D01*
X26296Y595341D01*
X26269Y595362D01*
X26246Y595386D01*
X26221Y595407D01*
X25925Y595703D01*
X25903Y595729D01*
X25879Y595752D01*
X25859Y595778D01*
X25837Y595803D01*
X25818Y595831D01*
X25798Y595858D01*
X25566Y596206D01*
X25549Y596235D01*
X25530Y596262D01*
X25516Y596292D01*
X25499Y596321D01*
X25486Y596352D01*
X25471Y596382D01*
X25311Y596768D01*
X25301Y596800D01*
X25288Y596831D01*
X25279Y596863D01*
X25268Y596895D01*
X25262Y596927D01*
X25253Y596959D01*
X25172Y597370D01*
X25167Y597403D01*
X25161Y597436D01*
X25159Y597469D01*
X25154Y597502D01*
Y597535D01*
X25152Y597569D01*
Y597778D01*
Y597778D01*
Y604209D01*
X25152Y604211D01*
X25152Y604213D01*
X25157Y604279D01*
X25161Y604342D01*
X25161Y604344D01*
X25161Y604346D01*
X25174Y604410D01*
X25187Y604473D01*
X25187Y604474D01*
X25188Y604476D01*
X25209Y604538D01*
X25230Y604599D01*
X25230Y604600D01*
X25231Y604602D01*
X25261Y604662D01*
X25289Y604718D01*
X25289Y604720D01*
X25290Y604722D01*
X25328Y604777D01*
X25363Y604829D01*
X25364Y604830D01*
X25365Y604832D01*
X25409Y604882D01*
X25450Y604929D01*
X25452Y604930D01*
X25453Y604932D01*
X26213Y605686D01*
X26170Y605683D01*
X26037Y605692D01*
X25907Y605718D01*
X25781Y605760D01*
X25661Y605819D01*
X25550Y605893D01*
X25450Y605981D01*
X25363Y606081D01*
X25289Y606192D01*
X25229Y606311D01*
X25187Y606437D01*
X25161Y606568D01*
X25152Y606701D01*
X25152Y617398D01*
Y617607D01*
X25154Y617640D01*
Y617674D01*
X25159Y617707D01*
X25161Y617740D01*
X25167Y617773D01*
X25172Y617806D01*
X25253Y618217D01*
X25262Y618249D01*
X25268Y618281D01*
X25279Y618313D01*
X25288Y618345D01*
X25301Y618376D01*
X25311Y618407D01*
X25471Y618794D01*
X25486Y618824D01*
X25499Y618855D01*
X25516Y618884D01*
X25530Y618914D01*
X25549Y618941D01*
X25566Y618970D01*
X25798Y619318D01*
X25819Y619345D01*
X25837Y619372D01*
X25859Y619397D01*
X25879Y619424D01*
X25903Y619448D01*
X25925Y619473D01*
X26221Y619768D01*
X26246Y619791D01*
X26269Y619814D01*
X26296Y619834D01*
X26321Y619856D01*
X26349Y619875D01*
X26375Y619895D01*
X26723Y620128D01*
X26752Y620144D01*
X26780Y620163D01*
X26809Y620178D01*
X26838Y620194D01*
X26869Y620207D01*
X26899Y620222D01*
X27286Y620382D01*
X27317Y620393D01*
X27348Y620405D01*
X27380Y620414D01*
X27412Y620425D01*
X27445Y620431D01*
X27477Y620440D01*
X27887Y620522D01*
X27920Y620526D01*
X27953Y620532D01*
X27986Y620535D01*
X28019Y620539D01*
X28053D01*
X28086Y620541D01*
X33754D01*
X33788Y620539D01*
D02*
G37*
G36*
X129788Y529539D02*
X129821D01*
X129854Y529535D01*
X129887Y529532D01*
X129920Y529526D01*
X129953Y529522D01*
X130364Y529440D01*
X130396Y529431D01*
X130429Y529425D01*
X130460Y529414D01*
X130492Y529405D01*
X130523Y529393D01*
X130555Y529382D01*
X130941Y529222D01*
X130971Y529207D01*
X131002Y529194D01*
X131031Y529178D01*
X131061Y529163D01*
X131089Y529144D01*
X131117Y529128D01*
X131466Y528895D01*
X131492Y528875D01*
X131520Y528856D01*
X131545Y528834D01*
X131571Y528814D01*
X131595Y528790D01*
X131620Y528769D01*
X131916Y528473D01*
X131938Y528447D01*
X131961Y528424D01*
X131981Y528397D01*
X132004Y528372D01*
X132022Y528345D01*
X132042Y528318D01*
X132275Y527970D01*
X132292Y527941D01*
X132310Y527914D01*
X132325Y527884D01*
X132342Y527855D01*
X132354Y527824D01*
X132369Y527794D01*
X132529Y527407D01*
X132540Y527376D01*
X132553Y527345D01*
X132561Y527313D01*
X132572Y527281D01*
X132579Y527249D01*
X132587Y527216D01*
X132669Y526806D01*
X132673Y526773D01*
X132680Y526740D01*
X132682Y526707D01*
X132686Y526674D01*
Y526641D01*
X132688Y526607D01*
Y526398D01*
Y515655D01*
X132680Y515522D01*
X132654Y515392D01*
X132611Y515265D01*
X132552Y515146D01*
X132478Y515035D01*
X132390Y514935D01*
X132290Y514847D01*
X132179Y514773D01*
X132060Y514714D01*
X131934Y514672D01*
X131803Y514646D01*
X131677Y514637D01*
X132387Y513932D01*
X132389Y513930D01*
X132390Y513929D01*
X132434Y513880D01*
X132476Y513832D01*
X132477Y513830D01*
X132478Y513829D01*
X132514Y513775D01*
X132550Y513722D01*
X132551Y513720D01*
X132552Y513718D01*
X132580Y513661D01*
X132609Y513602D01*
X132610Y513601D01*
X132611Y513599D01*
X132632Y513538D01*
X132653Y513476D01*
X132653Y513475D01*
X132654Y513473D01*
X132667Y513407D01*
X132679Y513346D01*
X132679Y513344D01*
X132680Y513342D01*
X132684Y513273D01*
X132688Y513213D01*
X132688Y513211D01*
X132688Y513209D01*
Y506778D01*
Y506569D01*
X132686Y506535D01*
Y506502D01*
X132682Y506469D01*
X132680Y506436D01*
X132673Y506403D01*
X132669Y506370D01*
X132587Y505960D01*
X132579Y505927D01*
X132572Y505895D01*
X132561Y505863D01*
X132553Y505831D01*
X132540Y505800D01*
X132529Y505769D01*
X132369Y505382D01*
X132354Y505352D01*
X132342Y505321D01*
X132325Y505292D01*
X132310Y505262D01*
X132292Y505235D01*
X132275Y505206D01*
X132042Y504858D01*
X132022Y504831D01*
X132004Y504804D01*
X131982Y504779D01*
X131961Y504752D01*
X131938Y504728D01*
X131916Y504703D01*
X131620Y504407D01*
X131595Y504385D01*
X131571Y504362D01*
X131545Y504342D01*
X131520Y504320D01*
X131492Y504301D01*
X131466Y504281D01*
X131117Y504048D01*
X131089Y504032D01*
X131061Y504013D01*
X131031Y503998D01*
X131002Y503982D01*
X130971Y503969D01*
X130941Y503954D01*
X130555Y503794D01*
X130523Y503783D01*
X130492Y503770D01*
X130460Y503762D01*
X130429Y503751D01*
X130396Y503745D01*
X130364Y503736D01*
X129953Y503654D01*
X129920Y503650D01*
X129887Y503643D01*
X129854Y503641D01*
X129821Y503637D01*
X129788D01*
X129754Y503635D01*
X124086D01*
X124053Y503637D01*
X124019D01*
X123986Y503641D01*
X123953Y503643D01*
X123920Y503650D01*
X123887Y503654D01*
X123477Y503736D01*
X123445Y503745D01*
X123412Y503751D01*
X123380Y503762D01*
X123348Y503770D01*
X123317Y503783D01*
X123286Y503794D01*
X122899Y503954D01*
X122869Y503969D01*
X122838Y503982D01*
X122809Y503998D01*
X122780Y504013D01*
X122752Y504032D01*
X122723Y504048D01*
X122375Y504281D01*
X122348Y504301D01*
X122321Y504320D01*
X122296Y504342D01*
X122269Y504362D01*
X122246Y504385D01*
X122221Y504407D01*
X121925Y504703D01*
X121903Y504729D01*
X121879Y504752D01*
X121859Y504778D01*
X121837Y504804D01*
X121818Y504831D01*
X121798Y504858D01*
X121566Y505206D01*
X121549Y505235D01*
X121530Y505262D01*
X121516Y505292D01*
X121499Y505321D01*
X121486Y505352D01*
X121471Y505382D01*
X121311Y505769D01*
X121300Y505800D01*
X121288Y505831D01*
X121279Y505863D01*
X121268Y505895D01*
X121262Y505927D01*
X121253Y505960D01*
X121172Y506370D01*
X121167Y506403D01*
X121161Y506436D01*
X121159Y506469D01*
X121154Y506502D01*
Y506535D01*
X121152Y506569D01*
Y506778D01*
Y506778D01*
Y513209D01*
X121152Y513211D01*
X121152Y513213D01*
X121157Y513279D01*
X121161Y513342D01*
X121161Y513344D01*
X121161Y513346D01*
X121174Y513410D01*
X121187Y513473D01*
X121187Y513475D01*
X121188Y513476D01*
X121209Y513538D01*
X121230Y513599D01*
X121230Y513601D01*
X121231Y513602D01*
X121261Y513662D01*
X121288Y513718D01*
X121290Y513720D01*
X121290Y513722D01*
X121328Y513777D01*
X121362Y513829D01*
X121364Y513830D01*
X121365Y513832D01*
X121409Y513882D01*
X121450Y513929D01*
X121452Y513930D01*
X121453Y513932D01*
X122213Y514686D01*
X122170Y514683D01*
X122037Y514692D01*
X121907Y514718D01*
X121781Y514760D01*
X121661Y514819D01*
X121550Y514893D01*
X121450Y514981D01*
X121362Y515081D01*
X121288Y515192D01*
X121229Y515311D01*
X121187Y515438D01*
X121161Y515568D01*
X121152Y515701D01*
X121152Y526398D01*
Y526607D01*
X121154Y526641D01*
Y526674D01*
X121159Y526707D01*
X121161Y526740D01*
X121167Y526773D01*
X121172Y526806D01*
X121253Y527216D01*
X121262Y527249D01*
X121268Y527281D01*
X121279Y527313D01*
X121288Y527345D01*
X121300Y527376D01*
X121311Y527407D01*
X121471Y527794D01*
X121486Y527824D01*
X121499Y527855D01*
X121516Y527884D01*
X121530Y527914D01*
X121549Y527941D01*
X121566Y527970D01*
X121798Y528318D01*
X121819Y528345D01*
X121837Y528372D01*
X121859Y528397D01*
X121879Y528424D01*
X121903Y528448D01*
X121925Y528473D01*
X122221Y528769D01*
X122246Y528791D01*
X122269Y528814D01*
X122296Y528834D01*
X122321Y528856D01*
X122348Y528875D01*
X122375Y528895D01*
X122723Y529128D01*
X122752Y529144D01*
X122780Y529163D01*
X122809Y529178D01*
X122838Y529194D01*
X122869Y529207D01*
X122899Y529222D01*
X123286Y529382D01*
X123317Y529393D01*
X123348Y529405D01*
X123380Y529414D01*
X123412Y529425D01*
X123445Y529431D01*
X123477Y529440D01*
X123887Y529522D01*
X123920Y529526D01*
X123953Y529532D01*
X123986Y529535D01*
X124019Y529539D01*
X124053D01*
X124086Y529541D01*
X129754D01*
X129788Y529539D01*
D02*
G37*
G36*
X33788D02*
X33821D01*
X33854Y529535D01*
X33887Y529532D01*
X33920Y529526D01*
X33953Y529522D01*
X34364Y529440D01*
X34396Y529431D01*
X34429Y529425D01*
X34460Y529414D01*
X34492Y529405D01*
X34523Y529393D01*
X34555Y529382D01*
X34941Y529222D01*
X34971Y529207D01*
X35002Y529194D01*
X35031Y529178D01*
X35061Y529163D01*
X35089Y529144D01*
X35117Y529128D01*
X35466Y528895D01*
X35492Y528875D01*
X35520Y528856D01*
X35545Y528834D01*
X35571Y528814D01*
X35595Y528790D01*
X35620Y528769D01*
X35916Y528473D01*
X35938Y528447D01*
X35961Y528424D01*
X35982Y528397D01*
X36004Y528372D01*
X36022Y528345D01*
X36042Y528318D01*
X36275Y527970D01*
X36292Y527941D01*
X36310Y527914D01*
X36325Y527884D01*
X36342Y527855D01*
X36354Y527824D01*
X36369Y527794D01*
X36529Y527407D01*
X36540Y527376D01*
X36553Y527345D01*
X36561Y527313D01*
X36572Y527281D01*
X36579Y527249D01*
X36587Y527216D01*
X36669Y526806D01*
X36673Y526773D01*
X36680Y526740D01*
X36682Y526707D01*
X36686Y526674D01*
Y526641D01*
X36688Y526607D01*
Y526398D01*
Y515655D01*
X36680Y515522D01*
X36654Y515392D01*
X36611Y515265D01*
X36552Y515146D01*
X36478Y515035D01*
X36390Y514935D01*
X36290Y514847D01*
X36179Y514773D01*
X36060Y514714D01*
X35934Y514672D01*
X35803Y514646D01*
X35677Y514637D01*
X36388Y513932D01*
X36389Y513930D01*
X36390Y513929D01*
X36434Y513880D01*
X36476Y513832D01*
X36477Y513830D01*
X36478Y513829D01*
X36514Y513775D01*
X36550Y513722D01*
X36551Y513720D01*
X36552Y513718D01*
X36580Y513661D01*
X36609Y513602D01*
X36610Y513601D01*
X36611Y513599D01*
X36632Y513538D01*
X36653Y513476D01*
X36653Y513475D01*
X36654Y513473D01*
X36667Y513407D01*
X36679Y513346D01*
X36679Y513344D01*
X36680Y513342D01*
X36684Y513273D01*
X36688Y513213D01*
X36688Y513211D01*
X36688Y513209D01*
Y506778D01*
Y506569D01*
X36686Y506535D01*
Y506502D01*
X36682Y506469D01*
X36680Y506436D01*
X36673Y506403D01*
X36669Y506370D01*
X36587Y505960D01*
X36579Y505927D01*
X36572Y505895D01*
X36561Y505863D01*
X36553Y505831D01*
X36540Y505800D01*
X36529Y505769D01*
X36369Y505382D01*
X36354Y505352D01*
X36342Y505321D01*
X36325Y505292D01*
X36310Y505262D01*
X36292Y505235D01*
X36275Y505206D01*
X36042Y504858D01*
X36022Y504831D01*
X36004Y504804D01*
X35982Y504779D01*
X35961Y504752D01*
X35938Y504728D01*
X35916Y504703D01*
X35620Y504407D01*
X35595Y504385D01*
X35571Y504362D01*
X35545Y504342D01*
X35520Y504320D01*
X35492Y504301D01*
X35466Y504281D01*
X35117Y504048D01*
X35089Y504032D01*
X35061Y504013D01*
X35031Y503998D01*
X35002Y503982D01*
X34971Y503969D01*
X34941Y503954D01*
X34555Y503794D01*
X34523Y503783D01*
X34492Y503770D01*
X34460Y503762D01*
X34429Y503751D01*
X34396Y503745D01*
X34364Y503736D01*
X33953Y503654D01*
X33920Y503650D01*
X33887Y503643D01*
X33854Y503641D01*
X33821Y503637D01*
X33788D01*
X33754Y503635D01*
X28086D01*
X28053Y503637D01*
X28019D01*
X27986Y503641D01*
X27953Y503643D01*
X27920Y503650D01*
X27887Y503654D01*
X27477Y503736D01*
X27445Y503745D01*
X27412Y503751D01*
X27380Y503762D01*
X27348Y503770D01*
X27317Y503783D01*
X27286Y503794D01*
X26899Y503954D01*
X26869Y503969D01*
X26838Y503982D01*
X26809Y503998D01*
X26780Y504013D01*
X26752Y504032D01*
X26723Y504048D01*
X26375Y504281D01*
X26348Y504301D01*
X26321Y504320D01*
X26296Y504342D01*
X26269Y504362D01*
X26246Y504385D01*
X26221Y504407D01*
X25925Y504703D01*
X25903Y504729D01*
X25879Y504752D01*
X25859Y504778D01*
X25837Y504804D01*
X25818Y504831D01*
X25798Y504858D01*
X25566Y505206D01*
X25549Y505235D01*
X25530Y505262D01*
X25516Y505292D01*
X25499Y505321D01*
X25486Y505352D01*
X25471Y505382D01*
X25311Y505769D01*
X25301Y505800D01*
X25288Y505831D01*
X25279Y505863D01*
X25268Y505895D01*
X25262Y505927D01*
X25253Y505960D01*
X25172Y506370D01*
X25167Y506403D01*
X25161Y506436D01*
X25159Y506469D01*
X25154Y506502D01*
Y506535D01*
X25152Y506569D01*
Y506778D01*
Y506778D01*
Y513209D01*
X25152Y513211D01*
X25152Y513213D01*
X25157Y513279D01*
X25161Y513342D01*
X25161Y513344D01*
X25161Y513346D01*
X25174Y513410D01*
X25187Y513473D01*
X25187Y513475D01*
X25188Y513476D01*
X25209Y513538D01*
X25230Y513599D01*
X25230Y513601D01*
X25231Y513602D01*
X25261Y513662D01*
X25289Y513718D01*
X25289Y513720D01*
X25290Y513722D01*
X25328Y513777D01*
X25363Y513829D01*
X25364Y513830D01*
X25365Y513832D01*
X25409Y513882D01*
X25450Y513929D01*
X25452Y513930D01*
X25453Y513932D01*
X26213Y514686D01*
X26170Y514683D01*
X26037Y514692D01*
X25907Y514718D01*
X25781Y514760D01*
X25661Y514819D01*
X25550Y514893D01*
X25450Y514981D01*
X25363Y515081D01*
X25289Y515192D01*
X25229Y515311D01*
X25187Y515438D01*
X25161Y515568D01*
X25152Y515701D01*
X25152Y526398D01*
Y526607D01*
X25154Y526641D01*
Y526674D01*
X25159Y526707D01*
X25161Y526740D01*
X25167Y526773D01*
X25172Y526806D01*
X25253Y527216D01*
X25262Y527249D01*
X25268Y527281D01*
X25279Y527313D01*
X25288Y527345D01*
X25301Y527376D01*
X25311Y527407D01*
X25471Y527794D01*
X25486Y527824D01*
X25499Y527855D01*
X25516Y527884D01*
X25530Y527914D01*
X25549Y527941D01*
X25566Y527970D01*
X25798Y528318D01*
X25819Y528345D01*
X25837Y528372D01*
X25859Y528397D01*
X25879Y528424D01*
X25903Y528448D01*
X25925Y528473D01*
X26221Y528769D01*
X26246Y528791D01*
X26269Y528814D01*
X26296Y528834D01*
X26321Y528856D01*
X26349Y528875D01*
X26375Y528895D01*
X26723Y529128D01*
X26752Y529144D01*
X26780Y529163D01*
X26809Y529178D01*
X26838Y529194D01*
X26869Y529207D01*
X26899Y529222D01*
X27286Y529382D01*
X27317Y529393D01*
X27348Y529405D01*
X27380Y529414D01*
X27412Y529425D01*
X27445Y529431D01*
X27477Y529440D01*
X27887Y529522D01*
X27920Y529526D01*
X27953Y529532D01*
X27986Y529535D01*
X28019Y529539D01*
X28053D01*
X28086Y529541D01*
X33754D01*
X33788Y529539D01*
D02*
G37*
G36*
X707868Y520886D02*
X707901D01*
X707934Y520882D01*
X707967Y520880D01*
X708000Y520873D01*
X708033Y520869D01*
X708444Y520787D01*
X708476Y520778D01*
X708508Y520772D01*
X708540Y520761D01*
X708572Y520752D01*
X708603Y520740D01*
X708634Y520729D01*
X709021Y520569D01*
X709051Y520554D01*
X709082Y520541D01*
X709111Y520525D01*
X709141Y520510D01*
X709168Y520491D01*
X709197Y520475D01*
X709545Y520242D01*
X709572Y520222D01*
X709599Y520203D01*
X709624Y520182D01*
X709651Y520161D01*
X709675Y520137D01*
X709699Y520116D01*
X709995Y519820D01*
X710018Y519794D01*
X710041Y519771D01*
X710061Y519745D01*
X710083Y519719D01*
X710102Y519692D01*
X710122Y519665D01*
X710355Y519317D01*
X710371Y519288D01*
X710390Y519261D01*
X710405Y519231D01*
X710421Y519202D01*
X710434Y519171D01*
X710449Y519141D01*
X710609Y518755D01*
X710620Y518723D01*
X710632Y518692D01*
X710641Y518660D01*
X710652Y518628D01*
X710658Y518596D01*
X710667Y518563D01*
X710749Y518153D01*
X710753Y518120D01*
X710760Y518087D01*
X710762Y518054D01*
X710766Y518021D01*
Y517988D01*
X710768Y517954D01*
Y517745D01*
Y507002D01*
X710760Y506869D01*
X710733Y506739D01*
X710691Y506613D01*
X710632Y506493D01*
X710558Y506382D01*
X710470Y506282D01*
X710370Y506194D01*
X710259Y506120D01*
X710140Y506061D01*
X710014Y506019D01*
X709883Y505993D01*
X709756Y505984D01*
X710467Y505279D01*
X710468Y505277D01*
X710470Y505276D01*
X710513Y505227D01*
X710555Y505179D01*
X710556Y505177D01*
X710558Y505176D01*
X710593Y505122D01*
X710630Y505069D01*
X710631Y505067D01*
X710632Y505065D01*
X710660Y505008D01*
X710689Y504949D01*
X710690Y504948D01*
X710691Y504946D01*
X710711Y504885D01*
X710732Y504823D01*
X710733Y504822D01*
X710733Y504820D01*
X710747Y504754D01*
X710759Y504693D01*
X710759Y504691D01*
X710760Y504689D01*
X710764Y504620D01*
X710768Y504560D01*
X710768Y504558D01*
X710768Y504556D01*
Y498125D01*
Y497916D01*
X710766Y497882D01*
Y497849D01*
X710762Y497816D01*
X710760Y497783D01*
X710753Y497750D01*
X710749Y497717D01*
X710667Y497307D01*
X710658Y497274D01*
X710652Y497242D01*
X710641Y497210D01*
X710632Y497178D01*
X710620Y497147D01*
X710609Y497116D01*
X710449Y496729D01*
X710434Y496699D01*
X710421Y496668D01*
X710405Y496639D01*
X710390Y496609D01*
X710371Y496582D01*
X710355Y496553D01*
X710122Y496205D01*
X710102Y496178D01*
X710083Y496151D01*
X710061Y496126D01*
X710041Y496099D01*
X710017Y496075D01*
X709995Y496050D01*
X709699Y495755D01*
X709674Y495732D01*
X709651Y495709D01*
X709624Y495689D01*
X709599Y495667D01*
X709572Y495648D01*
X709545Y495628D01*
X709197Y495395D01*
X709168Y495379D01*
X709141Y495360D01*
X709111Y495345D01*
X709082Y495329D01*
X709051Y495316D01*
X709021Y495301D01*
X708634Y495141D01*
X708603Y495130D01*
X708572Y495118D01*
X708540Y495109D01*
X708508Y495098D01*
X708476Y495092D01*
X708444Y495083D01*
X708033Y495001D01*
X708000Y494997D01*
X707967Y494991D01*
X707934Y494988D01*
X707901Y494984D01*
X707868D01*
X707834Y494982D01*
X702166D01*
X702132Y494984D01*
X702099D01*
X702066Y494988D01*
X702033Y494991D01*
X702000Y494997D01*
X701967Y495001D01*
X701556Y495083D01*
X701524Y495092D01*
X701492Y495098D01*
X701460Y495109D01*
X701428Y495118D01*
X701397Y495130D01*
X701366Y495141D01*
X700979Y495301D01*
X700949Y495316D01*
X700918Y495329D01*
X700889Y495345D01*
X700859Y495360D01*
X700832Y495379D01*
X700803Y495395D01*
X700455Y495628D01*
X700428Y495648D01*
X700401Y495667D01*
X700376Y495689D01*
X700349Y495709D01*
X700325Y495733D01*
X700300Y495755D01*
X700004Y496050D01*
X699982Y496076D01*
X699959Y496099D01*
X699939Y496125D01*
X699917Y496151D01*
X699898Y496178D01*
X699878Y496205D01*
X699645Y496553D01*
X699629Y496582D01*
X699610Y496609D01*
X699595Y496639D01*
X699579Y496668D01*
X699566Y496699D01*
X699551Y496729D01*
X699391Y497116D01*
X699380Y497147D01*
X699368Y497178D01*
X699359Y497210D01*
X699348Y497242D01*
X699342Y497274D01*
X699333Y497307D01*
X699251Y497717D01*
X699247Y497750D01*
X699240Y497783D01*
X699238Y497816D01*
X699234Y497849D01*
Y497882D01*
X699232Y497916D01*
Y498125D01*
Y498125D01*
Y504556D01*
X699232Y504558D01*
X699232Y504560D01*
X699236Y504627D01*
X699240Y504689D01*
X699241Y504691D01*
X699241Y504693D01*
X699254Y504757D01*
X699267Y504820D01*
X699267Y504822D01*
X699268Y504823D01*
X699288Y504885D01*
X699309Y504946D01*
X699310Y504948D01*
X699311Y504949D01*
X699341Y505009D01*
X699368Y505065D01*
X699369Y505067D01*
X699370Y505069D01*
X699407Y505124D01*
X699442Y505176D01*
X699444Y505177D01*
X699445Y505179D01*
X699488Y505229D01*
X699530Y505276D01*
X699531Y505277D01*
X699533Y505279D01*
X700292Y506033D01*
X700250Y506030D01*
X700117Y506039D01*
X699986Y506065D01*
X699860Y506107D01*
X699741Y506166D01*
X699630Y506240D01*
X699530Y506328D01*
X699442Y506428D01*
X699368Y506539D01*
X699309Y506658D01*
X699267Y506785D01*
X699240Y506915D01*
X699232Y507048D01*
X699232Y517745D01*
Y517954D01*
X699234Y517988D01*
Y518021D01*
X699238Y518054D01*
X699240Y518087D01*
X699247Y518120D01*
X699251Y518153D01*
X699333Y518563D01*
X699342Y518596D01*
X699348Y518628D01*
X699359Y518660D01*
X699368Y518692D01*
X699380Y518723D01*
X699391Y518754D01*
X699551Y519141D01*
X699566Y519171D01*
X699579Y519202D01*
X699595Y519231D01*
X699610Y519261D01*
X699629Y519288D01*
X699645Y519317D01*
X699878Y519665D01*
X699898Y519692D01*
X699917Y519719D01*
X699939Y519744D01*
X699959Y519771D01*
X699983Y519795D01*
X700004Y519820D01*
X700300Y520116D01*
X700326Y520138D01*
X700349Y520161D01*
X700375Y520181D01*
X700401Y520203D01*
X700428Y520222D01*
X700455Y520242D01*
X700803Y520475D01*
X700832Y520491D01*
X700859Y520510D01*
X700889Y520525D01*
X700918Y520541D01*
X700949Y520554D01*
X700979Y520569D01*
X701366Y520729D01*
X701397Y520740D01*
X701428Y520752D01*
X701460Y520761D01*
X701492Y520772D01*
X701524Y520778D01*
X701556Y520787D01*
X701967Y520869D01*
X702000Y520873D01*
X702033Y520880D01*
X702066Y520882D01*
X702099Y520886D01*
X702132D01*
X702166Y520888D01*
X707834D01*
X707868Y520886D01*
D02*
G37*
G36*
X129788Y438539D02*
X129821D01*
X129854Y438535D01*
X129887Y438532D01*
X129920Y438526D01*
X129953Y438522D01*
X130364Y438440D01*
X130396Y438431D01*
X130429Y438425D01*
X130460Y438414D01*
X130492Y438405D01*
X130523Y438393D01*
X130555Y438382D01*
X130941Y438222D01*
X130971Y438207D01*
X131002Y438194D01*
X131031Y438178D01*
X131061Y438163D01*
X131089Y438144D01*
X131117Y438128D01*
X131466Y437895D01*
X131492Y437875D01*
X131520Y437856D01*
X131545Y437835D01*
X131571Y437814D01*
X131595Y437790D01*
X131620Y437769D01*
X131916Y437472D01*
X131938Y437447D01*
X131961Y437424D01*
X131981Y437397D01*
X132004Y437372D01*
X132022Y437345D01*
X132042Y437318D01*
X132275Y436970D01*
X132292Y436941D01*
X132310Y436914D01*
X132325Y436884D01*
X132342Y436855D01*
X132354Y436824D01*
X132369Y436794D01*
X132529Y436407D01*
X132540Y436376D01*
X132553Y436345D01*
X132561Y436313D01*
X132572Y436281D01*
X132579Y436249D01*
X132587Y436217D01*
X132669Y435806D01*
X132673Y435773D01*
X132680Y435740D01*
X132682Y435707D01*
X132686Y435674D01*
Y435641D01*
X132688Y435607D01*
Y435398D01*
Y424655D01*
X132680Y424522D01*
X132654Y424392D01*
X132611Y424265D01*
X132552Y424146D01*
X132478Y424035D01*
X132390Y423935D01*
X132290Y423847D01*
X132179Y423773D01*
X132060Y423714D01*
X131934Y423672D01*
X131803Y423646D01*
X131677Y423637D01*
X132387Y422932D01*
X132389Y422930D01*
X132390Y422929D01*
X132434Y422880D01*
X132476Y422832D01*
X132477Y422830D01*
X132478Y422829D01*
X132514Y422775D01*
X132550Y422722D01*
X132551Y422720D01*
X132552Y422718D01*
X132580Y422661D01*
X132609Y422602D01*
X132610Y422601D01*
X132611Y422599D01*
X132632Y422538D01*
X132653Y422476D01*
X132653Y422475D01*
X132654Y422473D01*
X132667Y422407D01*
X132679Y422346D01*
X132679Y422344D01*
X132680Y422342D01*
X132684Y422273D01*
X132688Y422213D01*
X132688Y422211D01*
X132688Y422209D01*
Y415778D01*
Y415569D01*
X132686Y415535D01*
Y415502D01*
X132682Y415469D01*
X132680Y415436D01*
X132673Y415403D01*
X132669Y415370D01*
X132587Y414959D01*
X132579Y414927D01*
X132572Y414895D01*
X132561Y414863D01*
X132553Y414831D01*
X132540Y414800D01*
X132529Y414768D01*
X132369Y414382D01*
X132354Y414352D01*
X132342Y414321D01*
X132325Y414292D01*
X132310Y414262D01*
X132292Y414235D01*
X132275Y414206D01*
X132042Y413858D01*
X132022Y413831D01*
X132004Y413803D01*
X131982Y413779D01*
X131961Y413752D01*
X131938Y413728D01*
X131916Y413703D01*
X131620Y413407D01*
X131595Y413385D01*
X131571Y413362D01*
X131545Y413342D01*
X131520Y413320D01*
X131492Y413301D01*
X131466Y413281D01*
X131117Y413048D01*
X131089Y413032D01*
X131061Y413013D01*
X131031Y412998D01*
X131002Y412982D01*
X130971Y412969D01*
X130941Y412954D01*
X130555Y412794D01*
X130523Y412783D01*
X130492Y412771D01*
X130460Y412762D01*
X130429Y412751D01*
X130396Y412745D01*
X130364Y412736D01*
X129953Y412654D01*
X129920Y412650D01*
X129887Y412644D01*
X129854Y412641D01*
X129821Y412637D01*
X129788D01*
X129754Y412635D01*
X124086D01*
X124053Y412637D01*
X124019D01*
X123986Y412641D01*
X123953Y412644D01*
X123920Y412650D01*
X123887Y412654D01*
X123477Y412736D01*
X123445Y412745D01*
X123412Y412751D01*
X123380Y412762D01*
X123348Y412771D01*
X123317Y412783D01*
X123286Y412794D01*
X122899Y412954D01*
X122869Y412969D01*
X122838Y412982D01*
X122809Y412998D01*
X122780Y413013D01*
X122752Y413032D01*
X122723Y413048D01*
X122375Y413281D01*
X122348Y413301D01*
X122321Y413320D01*
X122296Y413341D01*
X122269Y413362D01*
X122246Y413386D01*
X122221Y413407D01*
X121925Y413703D01*
X121903Y413729D01*
X121879Y413752D01*
X121859Y413778D01*
X121837Y413803D01*
X121818Y413831D01*
X121798Y413858D01*
X121566Y414206D01*
X121549Y414235D01*
X121530Y414262D01*
X121516Y414292D01*
X121499Y414321D01*
X121486Y414352D01*
X121471Y414382D01*
X121311Y414768D01*
X121300Y414800D01*
X121288Y414831D01*
X121279Y414863D01*
X121268Y414895D01*
X121262Y414927D01*
X121253Y414959D01*
X121172Y415370D01*
X121167Y415403D01*
X121161Y415436D01*
X121159Y415469D01*
X121154Y415502D01*
Y415535D01*
X121152Y415569D01*
Y415778D01*
Y415778D01*
Y422209D01*
X121152Y422211D01*
X121152Y422213D01*
X121157Y422279D01*
X121161Y422342D01*
X121161Y422344D01*
X121161Y422346D01*
X121174Y422410D01*
X121187Y422473D01*
X121187Y422475D01*
X121188Y422476D01*
X121209Y422538D01*
X121230Y422599D01*
X121230Y422601D01*
X121231Y422602D01*
X121261Y422662D01*
X121288Y422718D01*
X121290Y422720D01*
X121290Y422722D01*
X121328Y422777D01*
X121362Y422829D01*
X121364Y422830D01*
X121365Y422832D01*
X121409Y422882D01*
X121450Y422929D01*
X121452Y422930D01*
X121453Y422932D01*
X122213Y423686D01*
X122170Y423683D01*
X122037Y423692D01*
X121907Y423718D01*
X121781Y423760D01*
X121661Y423819D01*
X121550Y423893D01*
X121450Y423981D01*
X121362Y424081D01*
X121288Y424192D01*
X121229Y424311D01*
X121187Y424438D01*
X121161Y424568D01*
X121152Y424701D01*
X121152Y435398D01*
Y435607D01*
X121154Y435641D01*
Y435674D01*
X121159Y435707D01*
X121161Y435740D01*
X121167Y435773D01*
X121172Y435806D01*
X121253Y436217D01*
X121262Y436249D01*
X121268Y436281D01*
X121279Y436313D01*
X121288Y436345D01*
X121300Y436376D01*
X121311Y436407D01*
X121471Y436794D01*
X121486Y436824D01*
X121499Y436855D01*
X121516Y436884D01*
X121530Y436914D01*
X121549Y436941D01*
X121566Y436970D01*
X121798Y437318D01*
X121819Y437345D01*
X121837Y437372D01*
X121859Y437397D01*
X121879Y437424D01*
X121903Y437448D01*
X121925Y437472D01*
X122221Y437769D01*
X122246Y437791D01*
X122269Y437814D01*
X122296Y437834D01*
X122321Y437856D01*
X122348Y437875D01*
X122375Y437895D01*
X122723Y438128D01*
X122752Y438144D01*
X122780Y438163D01*
X122809Y438178D01*
X122838Y438194D01*
X122869Y438207D01*
X122899Y438222D01*
X123286Y438382D01*
X123317Y438393D01*
X123348Y438405D01*
X123380Y438414D01*
X123412Y438425D01*
X123445Y438431D01*
X123477Y438440D01*
X123887Y438522D01*
X123920Y438526D01*
X123953Y438532D01*
X123986Y438535D01*
X124019Y438539D01*
X124053D01*
X124086Y438541D01*
X129754D01*
X129788Y438539D01*
D02*
G37*
G36*
X33788D02*
X33821D01*
X33854Y438535D01*
X33887Y438532D01*
X33920Y438526D01*
X33953Y438522D01*
X34364Y438440D01*
X34396Y438431D01*
X34429Y438425D01*
X34460Y438414D01*
X34492Y438405D01*
X34523Y438393D01*
X34555Y438382D01*
X34941Y438222D01*
X34971Y438207D01*
X35002Y438194D01*
X35031Y438178D01*
X35061Y438163D01*
X35089Y438144D01*
X35117Y438128D01*
X35466Y437895D01*
X35492Y437875D01*
X35520Y437856D01*
X35545Y437835D01*
X35571Y437814D01*
X35595Y437790D01*
X35620Y437769D01*
X35916Y437472D01*
X35938Y437447D01*
X35961Y437424D01*
X35982Y437397D01*
X36004Y437372D01*
X36022Y437345D01*
X36042Y437318D01*
X36275Y436970D01*
X36292Y436941D01*
X36310Y436914D01*
X36325Y436884D01*
X36342Y436855D01*
X36354Y436824D01*
X36369Y436794D01*
X36529Y436407D01*
X36540Y436376D01*
X36553Y436345D01*
X36561Y436313D01*
X36572Y436281D01*
X36579Y436249D01*
X36587Y436217D01*
X36669Y435806D01*
X36673Y435773D01*
X36680Y435740D01*
X36682Y435707D01*
X36686Y435674D01*
Y435641D01*
X36688Y435607D01*
Y435398D01*
Y424655D01*
X36680Y424522D01*
X36654Y424392D01*
X36611Y424265D01*
X36552Y424146D01*
X36478Y424035D01*
X36390Y423935D01*
X36290Y423847D01*
X36179Y423773D01*
X36060Y423714D01*
X35934Y423672D01*
X35803Y423646D01*
X35677Y423637D01*
X36388Y422932D01*
X36389Y422930D01*
X36390Y422929D01*
X36434Y422880D01*
X36476Y422832D01*
X36477Y422830D01*
X36478Y422829D01*
X36514Y422775D01*
X36550Y422722D01*
X36551Y422720D01*
X36552Y422718D01*
X36580Y422661D01*
X36609Y422602D01*
X36610Y422601D01*
X36611Y422599D01*
X36632Y422538D01*
X36653Y422476D01*
X36653Y422475D01*
X36654Y422473D01*
X36667Y422407D01*
X36679Y422346D01*
X36679Y422344D01*
X36680Y422342D01*
X36684Y422273D01*
X36688Y422213D01*
X36688Y422211D01*
X36688Y422209D01*
Y415778D01*
Y415569D01*
X36686Y415535D01*
Y415502D01*
X36682Y415469D01*
X36680Y415436D01*
X36673Y415403D01*
X36669Y415370D01*
X36587Y414959D01*
X36579Y414927D01*
X36572Y414895D01*
X36561Y414863D01*
X36553Y414831D01*
X36540Y414800D01*
X36529Y414768D01*
X36369Y414382D01*
X36354Y414352D01*
X36342Y414321D01*
X36325Y414292D01*
X36310Y414262D01*
X36292Y414235D01*
X36275Y414206D01*
X36042Y413858D01*
X36022Y413831D01*
X36004Y413803D01*
X35982Y413779D01*
X35961Y413752D01*
X35938Y413728D01*
X35916Y413703D01*
X35620Y413407D01*
X35595Y413385D01*
X35571Y413362D01*
X35545Y413342D01*
X35520Y413320D01*
X35492Y413301D01*
X35466Y413281D01*
X35117Y413048D01*
X35089Y413032D01*
X35061Y413013D01*
X35031Y412998D01*
X35002Y412982D01*
X34971Y412969D01*
X34941Y412954D01*
X34555Y412794D01*
X34523Y412783D01*
X34492Y412771D01*
X34460Y412762D01*
X34429Y412751D01*
X34396Y412745D01*
X34364Y412736D01*
X33953Y412654D01*
X33920Y412650D01*
X33887Y412644D01*
X33854Y412641D01*
X33821Y412637D01*
X33788D01*
X33754Y412635D01*
X28086D01*
X28053Y412637D01*
X28019D01*
X27986Y412641D01*
X27953Y412644D01*
X27920Y412650D01*
X27887Y412654D01*
X27477Y412736D01*
X27445Y412745D01*
X27412Y412751D01*
X27380Y412762D01*
X27348Y412771D01*
X27317Y412783D01*
X27286Y412794D01*
X26899Y412954D01*
X26869Y412969D01*
X26838Y412982D01*
X26809Y412998D01*
X26780Y413013D01*
X26752Y413032D01*
X26723Y413048D01*
X26375Y413281D01*
X26348Y413301D01*
X26321Y413320D01*
X26296Y413341D01*
X26269Y413362D01*
X26246Y413386D01*
X26221Y413407D01*
X25925Y413703D01*
X25903Y413729D01*
X25879Y413752D01*
X25859Y413778D01*
X25837Y413803D01*
X25818Y413831D01*
X25798Y413858D01*
X25566Y414206D01*
X25549Y414235D01*
X25530Y414262D01*
X25516Y414292D01*
X25499Y414321D01*
X25486Y414352D01*
X25471Y414382D01*
X25311Y414768D01*
X25301Y414800D01*
X25288Y414831D01*
X25279Y414863D01*
X25268Y414895D01*
X25262Y414927D01*
X25253Y414959D01*
X25172Y415370D01*
X25167Y415403D01*
X25161Y415436D01*
X25159Y415469D01*
X25154Y415502D01*
Y415535D01*
X25152Y415569D01*
Y415778D01*
Y415778D01*
Y422209D01*
X25152Y422211D01*
X25152Y422213D01*
X25157Y422279D01*
X25161Y422342D01*
X25161Y422344D01*
X25161Y422346D01*
X25174Y422410D01*
X25187Y422473D01*
X25187Y422475D01*
X25188Y422476D01*
X25209Y422538D01*
X25230Y422599D01*
X25230Y422601D01*
X25231Y422602D01*
X25261Y422662D01*
X25289Y422718D01*
X25289Y422720D01*
X25290Y422722D01*
X25328Y422777D01*
X25363Y422829D01*
X25364Y422830D01*
X25365Y422832D01*
X25409Y422882D01*
X25450Y422929D01*
X25452Y422930D01*
X25453Y422932D01*
X26213Y423686D01*
X26170Y423683D01*
X26037Y423692D01*
X25907Y423718D01*
X25781Y423760D01*
X25661Y423819D01*
X25550Y423893D01*
X25450Y423981D01*
X25363Y424081D01*
X25289Y424192D01*
X25229Y424311D01*
X25187Y424438D01*
X25161Y424568D01*
X25152Y424701D01*
X25152Y435398D01*
Y435607D01*
X25154Y435641D01*
Y435674D01*
X25159Y435707D01*
X25161Y435740D01*
X25167Y435773D01*
X25172Y435806D01*
X25253Y436217D01*
X25262Y436249D01*
X25268Y436281D01*
X25279Y436313D01*
X25288Y436345D01*
X25301Y436376D01*
X25311Y436407D01*
X25471Y436794D01*
X25486Y436824D01*
X25499Y436855D01*
X25516Y436884D01*
X25530Y436914D01*
X25549Y436941D01*
X25566Y436970D01*
X25798Y437318D01*
X25819Y437345D01*
X25837Y437372D01*
X25859Y437397D01*
X25879Y437424D01*
X25903Y437448D01*
X25925Y437472D01*
X26221Y437769D01*
X26246Y437791D01*
X26269Y437814D01*
X26296Y437834D01*
X26321Y437856D01*
X26349Y437875D01*
X26375Y437895D01*
X26723Y438128D01*
X26752Y438144D01*
X26780Y438163D01*
X26809Y438178D01*
X26838Y438194D01*
X26869Y438207D01*
X26899Y438222D01*
X27286Y438382D01*
X27317Y438393D01*
X27348Y438405D01*
X27380Y438414D01*
X27412Y438425D01*
X27445Y438431D01*
X27477Y438440D01*
X27887Y438522D01*
X27920Y438526D01*
X27953Y438532D01*
X27986Y438535D01*
X28019Y438539D01*
X28053D01*
X28086Y438541D01*
X33754D01*
X33788Y438539D01*
D02*
G37*
G36*
X1139118Y369766D02*
X1139151D01*
X1139184Y369762D01*
X1139217Y369759D01*
X1139250Y369753D01*
X1139283Y369749D01*
X1139694Y369667D01*
X1139726Y369658D01*
X1139758Y369652D01*
X1139790Y369641D01*
X1139822Y369632D01*
X1139853Y369620D01*
X1139884Y369609D01*
X1140271Y369449D01*
X1140301Y369434D01*
X1140332Y369421D01*
X1140361Y369405D01*
X1140391Y369390D01*
X1140418Y369371D01*
X1140447Y369355D01*
X1140795Y369122D01*
X1140822Y369102D01*
X1140849Y369083D01*
X1140874Y369062D01*
X1140901Y369041D01*
X1140925Y369017D01*
X1140949Y368996D01*
X1141245Y368700D01*
X1141268Y368674D01*
X1141291Y368651D01*
X1141311Y368625D01*
X1141333Y368599D01*
X1141352Y368572D01*
X1141372Y368545D01*
X1141605Y368197D01*
X1141621Y368168D01*
X1141640Y368141D01*
X1141655Y368111D01*
X1141671Y368082D01*
X1141684Y368051D01*
X1141699Y368021D01*
X1141859Y367635D01*
X1141870Y367603D01*
X1141882Y367572D01*
X1141891Y367540D01*
X1141902Y367508D01*
X1141908Y367476D01*
X1141917Y367444D01*
X1141999Y367033D01*
X1142003Y367000D01*
X1142010Y366967D01*
X1142012Y366934D01*
X1142016Y366901D01*
Y366868D01*
X1142018Y366834D01*
Y366625D01*
Y361375D01*
Y361166D01*
X1142016Y361132D01*
Y361099D01*
X1142012Y361066D01*
X1142010Y361033D01*
X1142003Y361000D01*
X1141999Y360967D01*
X1141917Y360556D01*
X1141908Y360524D01*
X1141902Y360492D01*
X1141891Y360460D01*
X1141882Y360428D01*
X1141870Y360397D01*
X1141859Y360366D01*
X1141699Y359979D01*
X1141684Y359949D01*
X1141671Y359918D01*
X1141655Y359889D01*
X1141640Y359859D01*
X1141621Y359832D01*
X1141605Y359803D01*
X1141372Y359455D01*
X1141352Y359428D01*
X1141333Y359401D01*
X1141311Y359376D01*
X1141291Y359349D01*
X1141267Y359325D01*
X1141245Y359300D01*
X1140949Y359005D01*
X1140924Y358982D01*
X1140901Y358959D01*
X1140874Y358939D01*
X1140849Y358917D01*
X1140822Y358898D01*
X1140795Y358878D01*
X1140447Y358645D01*
X1140418Y358629D01*
X1140391Y358610D01*
X1140361Y358595D01*
X1140332Y358579D01*
X1140301Y358566D01*
X1140271Y358551D01*
X1139884Y358391D01*
X1139853Y358380D01*
X1139822Y358368D01*
X1139790Y358359D01*
X1139758Y358348D01*
X1139726Y358342D01*
X1139694Y358333D01*
X1139283Y358251D01*
X1139250Y358247D01*
X1139217Y358241D01*
X1139184Y358238D01*
X1139151Y358234D01*
X1139118D01*
X1139084Y358232D01*
X1132444D01*
X1132442Y358232D01*
X1132440Y358232D01*
X1132374Y358236D01*
X1132311Y358241D01*
X1132309Y358241D01*
X1132307Y358241D01*
X1132243Y358254D01*
X1132180Y358266D01*
X1132178Y358267D01*
X1132177Y358268D01*
X1132115Y358289D01*
X1132054Y358309D01*
X1132052Y358310D01*
X1132051Y358311D01*
X1131991Y358341D01*
X1131935Y358368D01*
X1131933Y358369D01*
X1131931Y358370D01*
X1131876Y358407D01*
X1131824Y358442D01*
X1131823Y358443D01*
X1131821Y358445D01*
X1131771Y358488D01*
X1131724Y358530D01*
X1131723Y358531D01*
X1131721Y358533D01*
X1130967Y359292D01*
X1130970Y359250D01*
X1130961Y359117D01*
X1130935Y358987D01*
X1130893Y358860D01*
X1130834Y358741D01*
X1130760Y358630D01*
X1130672Y358530D01*
X1130572Y358442D01*
X1130461Y358368D01*
X1130341Y358309D01*
X1130215Y358266D01*
X1130085Y358241D01*
X1129952Y358232D01*
X1119255Y358232D01*
X1119046D01*
X1119012Y358234D01*
X1118979D01*
X1118946Y358238D01*
X1118913Y358241D01*
X1118880Y358247D01*
X1118847Y358251D01*
X1118437Y358333D01*
X1118404Y358342D01*
X1118372Y358348D01*
X1118340Y358359D01*
X1118308Y358368D01*
X1118277Y358380D01*
X1118245Y358391D01*
X1117859Y358551D01*
X1117829Y358566D01*
X1117798Y358579D01*
X1117769Y358595D01*
X1117739Y358610D01*
X1117712Y358629D01*
X1117683Y358645D01*
X1117335Y358878D01*
X1117308Y358898D01*
X1117281Y358917D01*
X1117256Y358938D01*
X1117229Y358959D01*
X1117205Y358983D01*
X1117180Y359005D01*
X1116884Y359300D01*
X1116862Y359326D01*
X1116839Y359349D01*
X1116819Y359375D01*
X1116797Y359401D01*
X1116778Y359428D01*
X1116758Y359455D01*
X1116525Y359803D01*
X1116509Y359832D01*
X1116490Y359859D01*
X1116475Y359889D01*
X1116459Y359918D01*
X1116446Y359949D01*
X1116431Y359979D01*
X1116271Y360365D01*
X1116260Y360397D01*
X1116247Y360428D01*
X1116239Y360460D01*
X1116228Y360492D01*
X1116222Y360524D01*
X1116213Y360556D01*
X1116131Y360967D01*
X1116127Y361000D01*
X1116121Y361033D01*
X1116118Y361066D01*
X1116114Y361099D01*
Y361132D01*
X1116112Y361166D01*
Y361375D01*
Y361375D01*
Y366625D01*
Y366834D01*
X1116114Y366868D01*
Y366901D01*
X1116118Y366934D01*
X1116121Y366967D01*
X1116127Y367000D01*
X1116131Y367033D01*
X1116213Y367444D01*
X1116222Y367476D01*
X1116228Y367508D01*
X1116239Y367540D01*
X1116247Y367572D01*
X1116260Y367603D01*
X1116271Y367634D01*
X1116431Y368021D01*
X1116446Y368051D01*
X1116459Y368082D01*
X1116475Y368111D01*
X1116490Y368141D01*
X1116509Y368168D01*
X1116525Y368197D01*
X1116758Y368545D01*
X1116778Y368572D01*
X1116797Y368599D01*
X1116818Y368624D01*
X1116839Y368651D01*
X1116862Y368675D01*
X1116884Y368700D01*
X1117180Y368996D01*
X1117206Y369018D01*
X1117229Y369041D01*
X1117255Y369061D01*
X1117281Y369083D01*
X1117308Y369102D01*
X1117335Y369122D01*
X1117683Y369355D01*
X1117712Y369371D01*
X1117739Y369390D01*
X1117769Y369405D01*
X1117798Y369421D01*
X1117829Y369434D01*
X1117859Y369449D01*
X1118245Y369609D01*
X1118277Y369620D01*
X1118308Y369632D01*
X1118340Y369641D01*
X1118372Y369652D01*
X1118404Y369658D01*
X1118437Y369667D01*
X1118847Y369749D01*
X1118880Y369753D01*
X1118913Y369759D01*
X1118946Y369762D01*
X1118979Y369766D01*
X1119012D01*
X1119046Y369768D01*
X1129998D01*
X1130131Y369759D01*
X1130261Y369734D01*
X1130387Y369691D01*
X1130507Y369632D01*
X1130618Y369558D01*
X1130718Y369470D01*
X1130806Y369370D01*
X1130880Y369259D01*
X1130938Y369140D01*
X1130981Y369013D01*
X1131007Y368883D01*
X1131016Y368756D01*
X1131721Y369467D01*
X1131722Y369468D01*
X1131724Y369470D01*
X1131773Y369513D01*
X1131821Y369555D01*
X1131823Y369557D01*
X1131824Y369558D01*
X1131878Y369594D01*
X1131931Y369630D01*
X1131933Y369631D01*
X1131935Y369632D01*
X1131992Y369660D01*
X1132051Y369689D01*
X1132052Y369690D01*
X1132054Y369691D01*
X1132115Y369711D01*
X1132177Y369733D01*
X1132178Y369733D01*
X1132180Y369734D01*
X1132246Y369747D01*
X1132307Y369759D01*
X1132309Y369759D01*
X1132311Y369759D01*
X1132380Y369764D01*
X1132440Y369768D01*
X1132442Y369768D01*
X1132444Y369768D01*
X1139084D01*
X1139118Y369766D01*
D02*
G37*
G36*
X477144Y336212D02*
X477242Y336203D01*
X477242Y336203D01*
X478015Y336049D01*
X478015D01*
X478043Y336040D01*
X478109Y336021D01*
X478109Y336020D01*
X478837Y335719D01*
X478837Y335719D01*
X478924Y335672D01*
X479579Y335235D01*
X479579Y335235D01*
X479655Y335172D01*
X480212Y334615D01*
X480212Y334615D01*
X480275Y334539D01*
X480713Y333884D01*
X480759Y333797D01*
X480759Y333797D01*
X481060Y333069D01*
X481060Y333069D01*
X481089Y332975D01*
X481243Y332202D01*
X481252Y332104D01*
Y331710D01*
Y325710D01*
X481243Y325612D01*
X481214Y325518D01*
X481168Y325431D01*
X481105Y325355D01*
X481029Y325292D01*
X480942Y325246D01*
X480848Y325217D01*
X480750Y325208D01*
X468750D01*
X468652Y325217D01*
X468558Y325246D01*
X468471Y325292D01*
X468395Y325355D01*
X468332Y325431D01*
X468286Y325518D01*
X468257Y325612D01*
X468248Y325710D01*
Y331710D01*
Y331710D01*
D01*
X468248Y332104D01*
X468257Y332202D01*
X468257Y332202D01*
X468411Y332975D01*
Y332975D01*
X468420Y333003D01*
X468439Y333069D01*
X468440Y333069D01*
X468741Y333797D01*
X468741Y333797D01*
X468787Y333884D01*
X469225Y334539D01*
X469225Y334539D01*
X469288Y334615D01*
X469845Y335172D01*
X469845Y335172D01*
X469921Y335235D01*
X470576Y335672D01*
X470663Y335719D01*
X470663Y335719D01*
X471391Y336020D01*
X471391Y336021D01*
X471485Y336049D01*
X472258Y336203D01*
X472356Y336212D01*
X476750D01*
X476750D01*
D01*
X477144Y336212D01*
D02*
G37*
G36*
X480848Y320203D02*
X480942Y320174D01*
X481029Y320128D01*
X481105Y320065D01*
X481168Y319989D01*
X481214Y319902D01*
X481243Y319808D01*
X481252Y319710D01*
Y313710D01*
Y313316D01*
X481243Y313218D01*
X481089Y312445D01*
X481060Y312351D01*
X480759Y311623D01*
X480759Y311623D01*
X480713Y311536D01*
X480275Y310881D01*
X480275Y310881D01*
X480212Y310805D01*
X479655Y310248D01*
X479655Y310248D01*
X479579Y310185D01*
X478924Y309748D01*
X478837Y309701D01*
X478837Y309701D01*
X478109Y309400D01*
X478109Y309400D01*
X478015Y309371D01*
X477242Y309217D01*
X477144Y309208D01*
X472356D01*
X472258Y309217D01*
X471485Y309371D01*
X471391Y309400D01*
X470663Y309701D01*
X470663Y309701D01*
X470576Y309748D01*
X469921Y310185D01*
X469921Y310185D01*
X469845Y310248D01*
X469288Y310805D01*
X469288Y310805D01*
X469225Y310881D01*
X468787Y311536D01*
X468741Y311623D01*
X468741Y311623D01*
X468440Y312351D01*
X468440Y312351D01*
X468411Y312445D01*
X468257Y313218D01*
X468248Y313316D01*
Y313710D01*
Y313710D01*
Y319710D01*
X468257Y319808D01*
X468286Y319902D01*
X468332Y319989D01*
X468395Y320065D01*
X468471Y320128D01*
X468558Y320174D01*
X468652Y320203D01*
X468750Y320212D01*
X480750D01*
X480848Y320203D01*
D02*
G37*
G36*
X438644Y188792D02*
X438742Y188783D01*
X438742Y188783D01*
X439515Y188629D01*
X439515D01*
X439543Y188620D01*
X439609Y188601D01*
X439609Y188601D01*
X440337Y188299D01*
X440337Y188299D01*
X440424Y188253D01*
X441079Y187815D01*
X441079Y187815D01*
X441155Y187752D01*
X441712Y187195D01*
X441712Y187195D01*
X441775Y187119D01*
X442212Y186464D01*
X442259Y186377D01*
X442259Y186377D01*
X442560Y185649D01*
X442560Y185649D01*
X442589Y185555D01*
X442743Y184782D01*
X442752Y184684D01*
Y184290D01*
Y178290D01*
X442743Y178192D01*
X442714Y178098D01*
X442668Y178011D01*
X442605Y177935D01*
X442529Y177872D01*
X442442Y177826D01*
X442348Y177797D01*
X442250Y177788D01*
X430250D01*
X430152Y177797D01*
X430058Y177826D01*
X429971Y177872D01*
X429895Y177935D01*
X429832Y178011D01*
X429786Y178098D01*
X429757Y178192D01*
X429748Y178290D01*
Y184290D01*
D01*
Y184290D01*
X429748Y184684D01*
X429757Y184782D01*
X429757Y184782D01*
X429911Y185555D01*
Y185555D01*
X429920Y185583D01*
X429939Y185649D01*
X429940Y185649D01*
X430241Y186377D01*
X430241Y186377D01*
X430288Y186464D01*
X430725Y187119D01*
X430725Y187119D01*
X430788Y187195D01*
X431345Y187752D01*
X431345Y187752D01*
X431421Y187815D01*
X432076Y188253D01*
X432163Y188299D01*
X432163Y188299D01*
X432891Y188601D01*
X432891Y188601D01*
X432985Y188629D01*
X433758Y188783D01*
X433856Y188792D01*
X438250D01*
D01*
X438250D01*
X438644Y188792D01*
D02*
G37*
G36*
X442348Y172783D02*
X442442Y172754D01*
X442529Y172708D01*
X442605Y172645D01*
X442668Y172569D01*
X442714Y172482D01*
X442743Y172388D01*
X442752Y172290D01*
Y166290D01*
Y165896D01*
X442743Y165798D01*
X442589Y165025D01*
X442560Y164931D01*
X442259Y164203D01*
X442259Y164203D01*
X442212Y164116D01*
X441775Y163461D01*
X441775Y163461D01*
X441712Y163385D01*
X441155Y162828D01*
X441155Y162828D01*
X441079Y162765D01*
X440424Y162327D01*
X440337Y162281D01*
X440337Y162281D01*
X439609Y161980D01*
X439609Y161980D01*
X439515Y161951D01*
X438742Y161797D01*
X438644Y161788D01*
X433856D01*
X433758Y161797D01*
X432985Y161951D01*
X432891Y161980D01*
X432163Y162281D01*
X432163Y162281D01*
X432076Y162327D01*
X431421Y162765D01*
X431421Y162765D01*
X431345Y162828D01*
X430788Y163385D01*
X430788Y163385D01*
X430725Y163461D01*
X430288Y164116D01*
X430241Y164203D01*
X430241Y164203D01*
X429940Y164931D01*
X429939Y164931D01*
X429911Y165025D01*
X429757Y165798D01*
X429748Y165896D01*
Y166290D01*
Y166290D01*
Y172290D01*
X429757Y172388D01*
X429786Y172482D01*
X429832Y172569D01*
X429895Y172645D01*
X429971Y172708D01*
X430058Y172754D01*
X430152Y172783D01*
X430250Y172792D01*
X442250D01*
X442348Y172783D01*
D02*
G37*
%LPC*%
G36*
X126897Y700988D02*
X126845Y700936D01*
X126851Y700937D01*
X126916Y700941D01*
X126920Y700941D01*
X126924Y700941D01*
X126946Y700940D01*
X126897Y700988D01*
D02*
G37*
G36*
X30897D02*
X30845Y700936D01*
X30851Y700937D01*
X30916Y700941D01*
X30921Y700941D01*
X30924Y700941D01*
X30946Y700940D01*
X30897Y700988D01*
D02*
G37*
G36*
X326811Y665811D02*
X322811D01*
Y661811D01*
X326811D01*
Y665811D01*
D02*
G37*
G36*
X318937D02*
X314937D01*
Y661811D01*
X318937D01*
Y665811D01*
D02*
G37*
G36*
X311063D02*
X307063D01*
Y661811D01*
X311063D01*
Y665811D01*
D02*
G37*
G36*
X303189D02*
X299189D01*
Y661811D01*
X303189D01*
Y665811D01*
D02*
G37*
G36*
X326811Y657937D02*
X322811D01*
Y653937D01*
X326811D01*
Y657937D01*
D02*
G37*
G36*
X318937D02*
X314937D01*
Y653937D01*
X318937D01*
Y657937D01*
D02*
G37*
G36*
X311063D02*
X307063D01*
Y653937D01*
X311063D01*
Y657937D01*
D02*
G37*
G36*
X303189D02*
X299189D01*
Y653937D01*
X303189D01*
Y657937D01*
D02*
G37*
G36*
X326811Y650063D02*
X322811D01*
Y646063D01*
X326811D01*
Y650063D01*
D02*
G37*
G36*
X318937D02*
X314937D01*
Y646063D01*
X318937D01*
Y650063D01*
D02*
G37*
G36*
X311063D02*
X307063D01*
Y646063D01*
X311063D01*
Y650063D01*
D02*
G37*
G36*
X303189D02*
X299189D01*
Y646063D01*
X303189D01*
Y650063D01*
D02*
G37*
G36*
X326811Y642189D02*
X322811D01*
Y638189D01*
X326811D01*
Y642189D01*
D02*
G37*
G36*
X318937D02*
X314937D01*
Y638189D01*
X318937D01*
Y642189D01*
D02*
G37*
G36*
X311063D02*
X307063D01*
Y638189D01*
X311063D01*
Y642189D01*
D02*
G37*
G36*
X303189D02*
X299189D01*
Y638189D01*
X303189D01*
Y642189D01*
D02*
G37*
G36*
X416860Y665302D02*
X412860D01*
Y661302D01*
X416860D01*
Y665302D01*
D02*
G37*
G36*
X408986D02*
X404986D01*
Y661302D01*
X408986D01*
Y665302D01*
D02*
G37*
G36*
X401112D02*
X397112D01*
Y661302D01*
X401112D01*
Y665302D01*
D02*
G37*
G36*
X393238D02*
X389238D01*
Y661302D01*
X393238D01*
Y665302D01*
D02*
G37*
G36*
X416860Y657428D02*
X412860D01*
Y653428D01*
X416860D01*
Y657428D01*
D02*
G37*
G36*
X408986D02*
X404986D01*
Y653428D01*
X408986D01*
Y657428D01*
D02*
G37*
G36*
X401112D02*
X397112D01*
Y653428D01*
X401112D01*
Y657428D01*
D02*
G37*
G36*
X393238D02*
X389238D01*
Y653428D01*
X393238D01*
Y657428D01*
D02*
G37*
G36*
X416860Y649554D02*
X412860D01*
Y645554D01*
X416860D01*
Y649554D01*
D02*
G37*
G36*
X408986D02*
X404986D01*
Y645554D01*
X408986D01*
Y649554D01*
D02*
G37*
G36*
X401112D02*
X397112D01*
Y645554D01*
X401112D01*
Y649554D01*
D02*
G37*
G36*
X393238D02*
X389238D01*
Y645554D01*
X393238D01*
Y649554D01*
D02*
G37*
G36*
X416860Y641680D02*
X412860D01*
Y637680D01*
X416860D01*
Y641680D01*
D02*
G37*
G36*
X408986D02*
X404986D01*
Y637680D01*
X408986D01*
Y641680D01*
D02*
G37*
G36*
X401112D02*
X397112D01*
Y637680D01*
X401112D01*
Y641680D01*
D02*
G37*
G36*
X393238D02*
X389238D01*
Y637680D01*
X393238D01*
Y641680D01*
D02*
G37*
G36*
X126897Y609988D02*
X126845Y609936D01*
X126851Y609937D01*
X126916Y609941D01*
X126920Y609941D01*
X126924Y609941D01*
X126946Y609940D01*
X126897Y609988D01*
D02*
G37*
G36*
X30897D02*
X30845Y609936D01*
X30851Y609937D01*
X30916Y609941D01*
X30921Y609941D01*
X30924Y609941D01*
X30946Y609940D01*
X30897Y609988D01*
D02*
G37*
G36*
X126897Y518988D02*
X126845Y518936D01*
X126851Y518937D01*
X126916Y518941D01*
X126920Y518941D01*
X126924Y518941D01*
X126946Y518940D01*
X126897Y518988D01*
D02*
G37*
G36*
X30897D02*
X30845Y518936D01*
X30851Y518937D01*
X30916Y518941D01*
X30921Y518941D01*
X30924Y518941D01*
X30946Y518940D01*
X30897Y518988D01*
D02*
G37*
G36*
X704977Y510335D02*
X704925Y510283D01*
X704930Y510284D01*
X704996Y510288D01*
X705000Y510288D01*
X705004Y510288D01*
X705025Y510287D01*
X704977Y510335D01*
D02*
G37*
G36*
X126897Y427988D02*
X126845Y427936D01*
X126851Y427937D01*
X126916Y427941D01*
X126920Y427941D01*
X126924Y427941D01*
X126946Y427940D01*
X126897Y427988D01*
D02*
G37*
G36*
X30897D02*
X30845Y427936D01*
X30851Y427937D01*
X30916Y427941D01*
X30921Y427941D01*
X30924Y427941D01*
X30946Y427940D01*
X30897Y427988D01*
D02*
G37*
G36*
X1126713Y364026D02*
X1126665Y363977D01*
X1126717Y363925D01*
X1126716Y363930D01*
X1126712Y363996D01*
X1126712Y364000D01*
X1126712Y364004D01*
X1126713Y364026D01*
D02*
G37*
%LPD*%
D32*
X828500Y159003D02*
D03*
X833500D02*
D03*
X838500D02*
D03*
X843500D02*
D03*
X848500D02*
D03*
X853500D02*
D03*
X858500D02*
D03*
X863500D02*
D03*
Y110997D02*
D03*
X858500D02*
D03*
X853500D02*
D03*
X848500D02*
D03*
X843500D02*
D03*
X838500D02*
D03*
X833500D02*
D03*
X828500D02*
D03*
X710500D02*
D03*
X715500D02*
D03*
X720500D02*
D03*
X725500D02*
D03*
X730500D02*
D03*
X735500D02*
D03*
X740500D02*
D03*
X745500D02*
D03*
Y159003D02*
D03*
X740500D02*
D03*
X735500D02*
D03*
X730500D02*
D03*
X725500D02*
D03*
X720500D02*
D03*
X715500D02*
D03*
X710500D02*
D03*
X1064500D02*
D03*
X1069500D02*
D03*
X1074500D02*
D03*
X1079500D02*
D03*
X1084500D02*
D03*
X1089500D02*
D03*
X1094500D02*
D03*
X1099500D02*
D03*
Y110997D02*
D03*
X1094500D02*
D03*
X1089500D02*
D03*
X1084500D02*
D03*
X1079500D02*
D03*
X1074500D02*
D03*
X1069500D02*
D03*
X1064500D02*
D03*
X946500D02*
D03*
X951500D02*
D03*
X956500D02*
D03*
X961500D02*
D03*
X966500D02*
D03*
X971500D02*
D03*
X976500D02*
D03*
X981500D02*
D03*
Y159003D02*
D03*
X976500D02*
D03*
X971500D02*
D03*
X966500D02*
D03*
X961500D02*
D03*
X956500D02*
D03*
X951500D02*
D03*
X946500D02*
D03*
X592500D02*
D03*
X597500D02*
D03*
X602500D02*
D03*
X607500D02*
D03*
X612500D02*
D03*
X617500D02*
D03*
X622500D02*
D03*
X627500D02*
D03*
Y110997D02*
D03*
X622500D02*
D03*
X617500D02*
D03*
X612500D02*
D03*
X607500D02*
D03*
X602500D02*
D03*
X597500D02*
D03*
X592500D02*
D03*
D33*
X870003Y152500D02*
D03*
Y147500D02*
D03*
Y142500D02*
D03*
Y137500D02*
D03*
Y132500D02*
D03*
Y127500D02*
D03*
Y122500D02*
D03*
Y117500D02*
D03*
X821997D02*
D03*
Y122500D02*
D03*
Y127500D02*
D03*
Y132500D02*
D03*
Y137500D02*
D03*
Y142500D02*
D03*
Y147500D02*
D03*
Y152500D02*
D03*
X703997D02*
D03*
Y147500D02*
D03*
Y142500D02*
D03*
Y137500D02*
D03*
Y132500D02*
D03*
Y127500D02*
D03*
Y122500D02*
D03*
Y117500D02*
D03*
X752003D02*
D03*
Y122500D02*
D03*
Y127500D02*
D03*
Y132500D02*
D03*
Y137500D02*
D03*
Y142500D02*
D03*
Y147500D02*
D03*
Y152500D02*
D03*
X1106003D02*
D03*
Y147500D02*
D03*
Y142500D02*
D03*
Y137500D02*
D03*
Y132500D02*
D03*
Y127500D02*
D03*
Y122500D02*
D03*
Y117500D02*
D03*
X1057997D02*
D03*
Y122500D02*
D03*
Y127500D02*
D03*
Y132500D02*
D03*
Y137500D02*
D03*
Y142500D02*
D03*
Y147500D02*
D03*
Y152500D02*
D03*
X939997D02*
D03*
Y147500D02*
D03*
Y142500D02*
D03*
Y137500D02*
D03*
Y132500D02*
D03*
Y127500D02*
D03*
Y122500D02*
D03*
Y117500D02*
D03*
X988003D02*
D03*
Y122500D02*
D03*
Y127500D02*
D03*
Y132500D02*
D03*
Y137500D02*
D03*
Y142500D02*
D03*
Y147500D02*
D03*
Y152500D02*
D03*
X634003D02*
D03*
Y147500D02*
D03*
Y142500D02*
D03*
Y137500D02*
D03*
Y132500D02*
D03*
Y127500D02*
D03*
Y122500D02*
D03*
Y117500D02*
D03*
X585997D02*
D03*
Y122500D02*
D03*
Y127500D02*
D03*
Y132500D02*
D03*
Y137500D02*
D03*
Y142500D02*
D03*
Y147500D02*
D03*
Y152500D02*
D03*
D35*
X254000Y330700D02*
D03*
Y318000D02*
D03*
Y305300D02*
D03*
Y292600D02*
D03*
X199517D02*
D03*
Y305300D02*
D03*
Y318000D02*
D03*
Y330700D02*
D03*
Y240200D02*
D03*
Y227500D02*
D03*
Y214800D02*
D03*
Y202100D02*
D03*
X254000D02*
D03*
Y214800D02*
D03*
Y227500D02*
D03*
Y240200D02*
D03*
D37*
X364450Y263242D02*
D03*
X377150D02*
D03*
X389850D02*
D03*
X402550D02*
D03*
Y208759D02*
D03*
X389850D02*
D03*
X377150D02*
D03*
X364450D02*
D03*
D43*
X333320Y623552D02*
D03*
X328240D02*
D03*
X323160D02*
D03*
X318080D02*
D03*
X313000D02*
D03*
X307920D02*
D03*
X302840D02*
D03*
X297760D02*
D03*
X292680D02*
D03*
Y680448D02*
D03*
X297760D02*
D03*
X302840D02*
D03*
X307920D02*
D03*
X313000D02*
D03*
X318080D02*
D03*
X323160D02*
D03*
X328240D02*
D03*
X333320D02*
D03*
X423369Y679939D02*
D03*
X418289D02*
D03*
X413209D02*
D03*
X408129D02*
D03*
X403049D02*
D03*
X397969D02*
D03*
X392889D02*
D03*
X387809D02*
D03*
X382729D02*
D03*
Y623043D02*
D03*
X387809D02*
D03*
X392889D02*
D03*
X397969D02*
D03*
X403049D02*
D03*
X408129D02*
D03*
X413209D02*
D03*
X418289D02*
D03*
X423369D02*
D03*
D44*
X284552Y631680D02*
D03*
Y636760D02*
D03*
Y641840D02*
D03*
Y646920D02*
D03*
Y652000D02*
D03*
Y657080D02*
D03*
Y662160D02*
D03*
Y667240D02*
D03*
Y672320D02*
D03*
X341448D02*
D03*
Y667240D02*
D03*
Y662160D02*
D03*
Y657080D02*
D03*
Y652000D02*
D03*
Y646920D02*
D03*
Y641840D02*
D03*
Y636760D02*
D03*
Y631680D02*
D03*
X431497Y631171D02*
D03*
Y636251D02*
D03*
Y641331D02*
D03*
Y646411D02*
D03*
Y651491D02*
D03*
Y656571D02*
D03*
Y661651D02*
D03*
Y666731D02*
D03*
Y671811D02*
D03*
X374601D02*
D03*
Y666731D02*
D03*
Y661651D02*
D03*
Y656571D02*
D03*
Y651491D02*
D03*
Y646411D02*
D03*
Y641331D02*
D03*
Y636251D02*
D03*
Y631171D02*
D03*
D53*
X805576Y519050D02*
D03*
X1152152Y601100D02*
D03*
X732424Y480950D02*
D03*
X1079000Y575700D02*
D03*
Y588400D02*
D03*
Y601100D02*
D03*
X1152152Y588400D02*
D03*
Y575700D02*
D03*
Y563000D02*
D03*
X1079000D02*
D03*
X732424Y519050D02*
D03*
Y506350D02*
D03*
Y493650D02*
D03*
X805576Y480950D02*
D03*
Y493650D02*
D03*
Y506350D02*
D03*
D68*
X1519000Y347350D02*
D03*
Y308650D02*
D03*
X1515000Y347350D02*
D03*
X1507000Y308650D02*
D03*
X1511000D02*
D03*
X1515000D02*
D03*
X1523000D02*
D03*
X1527000D02*
D03*
X1531000D02*
D03*
Y347350D02*
D03*
X1527000D02*
D03*
X1523000D02*
D03*
X1511000D02*
D03*
X1507000D02*
D03*
D69*
X1522501Y254000D02*
D03*
X1513501D02*
D03*
X1409501D02*
D03*
X1418501D02*
D03*
X1522501Y165000D02*
D03*
X1513501D02*
D03*
X1409501D02*
D03*
X1418501D02*
D03*
D73*
X1339900Y329000D02*
D03*
Y324000D02*
D03*
Y334000D02*
D03*
X1358100Y324000D02*
D03*
Y329000D02*
D03*
Y334000D02*
D03*
D87*
X167500Y78700D02*
D03*
X182500D02*
D03*
X152500D02*
D03*
X212500D02*
D03*
X227500D02*
D03*
X197500D02*
D03*
X137500D02*
D03*
X122500D02*
D03*
X107500D02*
D03*
D91*
X1467546Y613000D02*
D03*
X1366454D02*
D03*
D96*
X1341500Y317400D02*
D03*
X1356500Y340600D02*
D03*
X1351500D02*
D03*
X1346500D02*
D03*
X1341500D02*
D03*
X1346500Y317400D02*
D03*
X1351500D02*
D03*
X1356500D02*
D03*
D102*
X1499650Y340000D02*
D03*
Y336000D02*
D03*
Y332000D02*
D03*
Y328000D02*
D03*
Y324000D02*
D03*
Y320000D02*
D03*
Y316000D02*
D03*
X1538350D02*
D03*
Y320000D02*
D03*
Y324000D02*
D03*
Y328000D02*
D03*
Y332000D02*
D03*
Y336000D02*
D03*
Y340000D02*
D03*
D103*
X1163000Y426000D02*
D03*
X1147000D02*
D03*
X391250Y145000D02*
D03*
X1186250Y237000D02*
D03*
X1201750D02*
D03*
X61750Y98000D02*
D03*
X391250Y173000D02*
D03*
X406750D02*
D03*
X391250Y159000D02*
D03*
X406750D02*
D03*
Y145000D02*
D03*
X391250Y131000D02*
D03*
X406750D02*
D03*
X46250Y98000D02*
D03*
X61750Y83000D02*
D03*
X46250D02*
D03*
X730250Y661000D02*
D03*
X745750D02*
D03*
X745750Y687000D02*
D03*
X730250D02*
D03*
D104*
X311750Y733000D02*
D03*
X299250D02*
D03*
X286750D02*
D03*
X274250D02*
D03*
X927500Y736000D02*
D03*
X570000D02*
D03*
X607500D02*
D03*
X557500D02*
D03*
X940000D02*
D03*
X582500D02*
D03*
X595000D02*
D03*
X620000D02*
D03*
X632500D02*
D03*
X645000D02*
D03*
X657500D02*
D03*
X670000D02*
D03*
X682500D02*
D03*
X915000D02*
D03*
X902500D02*
D03*
X890000D02*
D03*
X877500D02*
D03*
X865000D02*
D03*
X852500D02*
D03*
X840000D02*
D03*
D105*
X248750Y762000D02*
D03*
X337250D02*
D03*
X965500Y765000D02*
D03*
X814500D02*
D03*
X708000D02*
D03*
X532000D02*
D03*
D106*
X103250Y762500D02*
D03*
X216750D02*
D03*
X1486750Y764500D02*
D03*
X1336750D02*
D03*
X1373250D02*
D03*
X1223250D02*
D03*
D107*
X128750Y733500D02*
D03*
X141250D02*
D03*
X153750D02*
D03*
X166250D02*
D03*
X178750D02*
D03*
X191250D02*
D03*
X1423750Y735500D02*
D03*
X1273750D02*
D03*
X1436250D02*
D03*
X1286250D02*
D03*
X1311250D02*
D03*
X1298750D02*
D03*
X1261250D02*
D03*
X1248750D02*
D03*
X1461250D02*
D03*
X1448750D02*
D03*
X1411250D02*
D03*
X1398750D02*
D03*
D108*
X275000Y589000D02*
D03*
Y573000D02*
D03*
X365000Y588000D02*
D03*
Y572000D02*
D03*
X1283000Y597000D02*
D03*
X1269000Y596000D02*
D03*
X1421000Y534000D02*
D03*
X1438000D02*
D03*
Y518000D02*
D03*
X1421000D02*
D03*
X1269000Y612000D02*
D03*
X1283000Y581000D02*
D03*
D109*
X301002Y337250D02*
D03*
Y282750D02*
D03*
Y248250D02*
D03*
Y193750D02*
D03*
D110*
X357900Y310243D02*
D03*
X412400D02*
D03*
D111*
X1146750Y256050D02*
D03*
Y243350D02*
D03*
Y230650D02*
D03*
Y217950D02*
D03*
X1097250D02*
D03*
Y230650D02*
D03*
Y243350D02*
D03*
Y256050D02*
D03*
X1067750D02*
D03*
Y243350D02*
D03*
Y230650D02*
D03*
Y217950D02*
D03*
X1018250D02*
D03*
Y230650D02*
D03*
Y243350D02*
D03*
Y256050D02*
D03*
X983750D02*
D03*
Y243350D02*
D03*
Y230650D02*
D03*
Y217950D02*
D03*
X934250D02*
D03*
Y230650D02*
D03*
Y243350D02*
D03*
Y256050D02*
D03*
D112*
X1409350Y408650D02*
D03*
X1396650D02*
D03*
X1383950D02*
D03*
X1396650Y461350D02*
D03*
X1409350D02*
D03*
X1422050D02*
D03*
Y408650D02*
D03*
X1383950Y461350D02*
D03*
X1341050Y653350D02*
D03*
X1328350D02*
D03*
X234650Y574650D02*
D03*
X247350D02*
D03*
X221950D02*
D03*
X260050D02*
D03*
X221950Y627350D02*
D03*
X234650D02*
D03*
X247350D02*
D03*
X260050D02*
D03*
X1328350Y600650D02*
D03*
X1341050D02*
D03*
X1315650Y653350D02*
D03*
X1302950D02*
D03*
Y600650D02*
D03*
X1315650D02*
D03*
D113*
X1317000Y345000D02*
D03*
X1327000D02*
D03*
X1381500Y310000D02*
D03*
X1371500D02*
D03*
Y319000D02*
D03*
X1381500D02*
D03*
X565000Y279000D02*
D03*
X555000Y260000D02*
D03*
X222983Y483019D02*
D03*
Y474007D02*
D03*
X397995Y430269D02*
D03*
X432990Y493770D02*
D03*
Y474770D02*
D03*
X555000Y333000D02*
D03*
X767756Y598000D02*
D03*
X808000Y589000D02*
D03*
X808250Y598000D02*
D03*
X747750Y628000D02*
D03*
X798378D02*
D03*
X747902Y618000D02*
D03*
X798378D02*
D03*
X778000Y568000D02*
D03*
X768378D02*
D03*
X778378Y545000D02*
D03*
X768547D02*
D03*
X397995Y412169D02*
D03*
Y421169D02*
D03*
X806000Y535000D02*
D03*
X808378Y618000D02*
D03*
X718378Y628000D02*
D03*
X718000Y618000D02*
D03*
X778000Y536000D02*
D03*
X718000Y598000D02*
D03*
X718000Y546000D02*
D03*
Y537000D02*
D03*
X717750Y578000D02*
D03*
X1393500Y713400D02*
D03*
Y686000D02*
D03*
X1232500Y713400D02*
D03*
Y686000D02*
D03*
X1449000Y407000D02*
D03*
X1185125Y503625D02*
D03*
X1185096Y493404D02*
D03*
X1185000Y418500D02*
D03*
X818378Y618000D02*
D03*
X707000Y687000D02*
D03*
Y661000D02*
D03*
X728378Y628000D02*
D03*
X728000Y618000D02*
D03*
Y598000D02*
D03*
X727750Y578000D02*
D03*
X1082786Y545800D02*
D03*
X973000Y546000D02*
D03*
X982500Y518500D02*
D03*
X983000Y508500D02*
D03*
Y498500D02*
D03*
X1024000Y483000D02*
D03*
X983000Y398500D02*
D03*
X816000Y535000D02*
D03*
X788000Y536000D02*
D03*
X728000Y546000D02*
D03*
Y537000D02*
D03*
X1464000Y311000D02*
D03*
X1557500Y269000D02*
D03*
X1557500Y260000D02*
D03*
X1553000Y212600D02*
D03*
Y222500D02*
D03*
X1477751Y270502D02*
D03*
X1453500Y269000D02*
D03*
X1453500Y260000D02*
D03*
X1381500Y346000D02*
D03*
X1317000Y336000D02*
D03*
Y319000D02*
D03*
X1373751Y270502D02*
D03*
X1449000Y222500D02*
D03*
Y212600D02*
D03*
X1308750Y188000D02*
D03*
X1224000Y244000D02*
D03*
Y234000D02*
D03*
X1557500Y180000D02*
D03*
X1557500Y171000D02*
D03*
X1553000Y123600D02*
D03*
Y133500D02*
D03*
X1477751Y181502D02*
D03*
X1453500Y180000D02*
D03*
X1453500Y171000D02*
D03*
X1373751Y181502D02*
D03*
X1449000Y133500D02*
D03*
Y123600D02*
D03*
X1309000Y101000D02*
D03*
X1162000Y364000D02*
D03*
X1185000Y363500D02*
D03*
X983000Y378500D02*
D03*
Y368500D02*
D03*
X1131000Y162000D02*
D03*
X1013000D02*
D03*
Y121000D02*
D03*
X1131000D02*
D03*
Y112000D02*
D03*
X1013000D02*
D03*
X895000Y162000D02*
D03*
X777000D02*
D03*
X895000Y121000D02*
D03*
Y112000D02*
D03*
X777000Y121000D02*
D03*
Y112000D02*
D03*
X492000Y657000D02*
D03*
Y648000D02*
D03*
X367500Y757000D02*
D03*
X404995Y494269D02*
D03*
X407995Y421169D02*
D03*
Y412169D02*
D03*
X659000Y162000D02*
D03*
Y121000D02*
D03*
Y112000D02*
D03*
X565000Y288000D02*
D03*
X555000Y249900D02*
D03*
X201500Y277000D02*
D03*
X113000Y297000D02*
D03*
X25000Y297100D02*
D03*
X113000Y288000D02*
D03*
X25000Y288100D02*
D03*
X432000Y155000D02*
D03*
Y146000D02*
D03*
Y137000D02*
D03*
Y128000D02*
D03*
X201000Y186000D02*
D03*
X24000Y98000D02*
D03*
Y83000D02*
D03*
X555000Y315000D02*
D03*
X758547Y545000D02*
D03*
X788378D02*
D03*
X757902Y618000D02*
D03*
X757750Y628000D02*
D03*
X788000Y568000D02*
D03*
X758378D02*
D03*
X777756Y598000D02*
D03*
X798250D02*
D03*
X798000Y589000D02*
D03*
X788378Y628000D02*
D03*
Y618000D02*
D03*
X1003000Y162000D02*
D03*
X690000Y164000D02*
D03*
X680000D02*
D03*
Y119000D02*
D03*
X690000D02*
D03*
X680000Y128000D02*
D03*
X690000D02*
D03*
X680000Y137000D02*
D03*
X690000D02*
D03*
X680000Y146000D02*
D03*
X690000D02*
D03*
Y155000D02*
D03*
X680000D02*
D03*
X324000Y608000D02*
D03*
X314000D02*
D03*
X407995Y430269D02*
D03*
X222995Y434269D02*
D03*
X232995D02*
D03*
X232983Y443269D02*
D03*
X222983D02*
D03*
X232983Y474007D02*
D03*
X422990Y493770D02*
D03*
X394995Y494269D02*
D03*
X422990Y474770D02*
D03*
X232983Y483019D02*
D03*
X774000Y391000D02*
D03*
X554000Y358000D02*
D03*
X927000Y411000D02*
D03*
X367500Y722500D02*
D03*
X357500D02*
D03*
Y739000D02*
D03*
X367500D02*
D03*
X357500Y748000D02*
D03*
X367500D02*
D03*
X357500Y757000D02*
D03*
X367500Y713500D02*
D03*
X357500D02*
D03*
X237000Y680000D02*
D03*
X227000D02*
D03*
X257000D02*
D03*
X247000D02*
D03*
X35000Y297100D02*
D03*
Y288100D02*
D03*
X35000Y278100D02*
D03*
X25000D02*
D03*
X35000Y269100D02*
D03*
X25000D02*
D03*
X123000Y288000D02*
D03*
Y297000D02*
D03*
X211500Y277000D02*
D03*
X222000D02*
D03*
X232000D02*
D03*
X222000Y186000D02*
D03*
X232000D02*
D03*
X211000D02*
D03*
X405000Y607000D02*
D03*
X415000D02*
D03*
X502000Y648000D02*
D03*
Y657000D02*
D03*
X492000Y677000D02*
D03*
X502000D02*
D03*
X492000Y686000D02*
D03*
X502000D02*
D03*
Y695000D02*
D03*
X492000D02*
D03*
Y704000D02*
D03*
X502000D02*
D03*
X492000Y713000D02*
D03*
X502000D02*
D03*
X523000D02*
D03*
X513000D02*
D03*
X565000Y315000D02*
D03*
Y324000D02*
D03*
X555000D02*
D03*
X565000Y333000D02*
D03*
X555000Y342000D02*
D03*
X565000D02*
D03*
X564000Y358000D02*
D03*
X555000Y279000D02*
D03*
Y288000D02*
D03*
X565000Y260000D02*
D03*
Y249900D02*
D03*
X680000Y110000D02*
D03*
X690000D02*
D03*
X649000Y112000D02*
D03*
Y121000D02*
D03*
Y130000D02*
D03*
X659000D02*
D03*
Y144000D02*
D03*
X649000D02*
D03*
X659000Y153000D02*
D03*
X649000D02*
D03*
Y162000D02*
D03*
X916000Y110000D02*
D03*
X926000D02*
D03*
X916000Y119000D02*
D03*
X926000D02*
D03*
Y128000D02*
D03*
X916000D02*
D03*
Y137000D02*
D03*
X926000D02*
D03*
X916000Y146000D02*
D03*
X926000D02*
D03*
Y155000D02*
D03*
X916000D02*
D03*
X926000Y164000D02*
D03*
X916000D02*
D03*
X885000Y112000D02*
D03*
Y121000D02*
D03*
Y130000D02*
D03*
X895000D02*
D03*
X885000Y144000D02*
D03*
X895000D02*
D03*
Y153000D02*
D03*
X885000D02*
D03*
Y162000D02*
D03*
X798000Y110000D02*
D03*
X808000D02*
D03*
X808000Y119000D02*
D03*
X798000D02*
D03*
X808000Y128000D02*
D03*
X798000D02*
D03*
Y137000D02*
D03*
X808000D02*
D03*
Y146000D02*
D03*
X798000D02*
D03*
Y155000D02*
D03*
X808000D02*
D03*
Y164000D02*
D03*
X798000D02*
D03*
X777000Y153000D02*
D03*
X767000D02*
D03*
Y144000D02*
D03*
X777000D02*
D03*
X767000Y112000D02*
D03*
Y130000D02*
D03*
X777000D02*
D03*
X767000Y121000D02*
D03*
Y162000D02*
D03*
X1280000Y101000D02*
D03*
X1290000D02*
D03*
X1289750Y188000D02*
D03*
X1279750D02*
D03*
X1299000Y101000D02*
D03*
X1298750Y188000D02*
D03*
X1214000Y234000D02*
D03*
Y244000D02*
D03*
X1163000Y463000D02*
D03*
X1173000D02*
D03*
X937000Y493000D02*
D03*
X927000D02*
D03*
X937000Y520000D02*
D03*
X927000D02*
D03*
X1072786Y545800D02*
D03*
X1073000Y535000D02*
D03*
X1083000D02*
D03*
X1106000Y548000D02*
D03*
X1116000D02*
D03*
X1064000Y575000D02*
D03*
X1054000D02*
D03*
X1064250Y588000D02*
D03*
X1054250D02*
D03*
X1054000Y602000D02*
D03*
X1064000D02*
D03*
X1034000D02*
D03*
X1044000D02*
D03*
X1155786Y545800D02*
D03*
X1145786D02*
D03*
X1403500Y686000D02*
D03*
X1242500D02*
D03*
X1443500Y269000D02*
D03*
X1195125Y503625D02*
D03*
X1195000Y418500D02*
D03*
X973000Y508500D02*
D03*
Y378500D02*
D03*
Y398500D02*
D03*
X1034000Y483000D02*
D03*
X1327000Y319000D02*
D03*
Y336000D02*
D03*
X1439000Y407000D02*
D03*
X1547500Y269000D02*
D03*
Y180000D02*
D03*
X1443500D02*
D03*
X572000Y110000D02*
D03*
X113000Y269000D02*
D03*
Y278000D02*
D03*
X562000Y164000D02*
D03*
X1023500Y454000D02*
D03*
Y463000D02*
D03*
X1464000Y349000D02*
D03*
X1013000Y130000D02*
D03*
X1131000D02*
D03*
X1381500Y355000D02*
D03*
X1044000Y110000D02*
D03*
X1034000Y164000D02*
D03*
X1024000Y509000D02*
D03*
X1449000Y420000D02*
D03*
X1449000Y440000D02*
D03*
X1449000Y430000D02*
D03*
X1024000Y496000D02*
D03*
X1317000Y354000D02*
D03*
X1023000Y415000D02*
D03*
X1232500Y695400D02*
D03*
Y704400D02*
D03*
X1393500Y695400D02*
D03*
Y704400D02*
D03*
X1464000Y320000D02*
D03*
X1443500Y189000D02*
D03*
Y278000D02*
D03*
X1547500Y189000D02*
D03*
Y278000D02*
D03*
X1182000Y581000D02*
D03*
X1034000Y509000D02*
D03*
Y496000D02*
D03*
X1152000Y504000D02*
D03*
X1162000D02*
D03*
X1195096Y493404D02*
D03*
X983000Y438500D02*
D03*
X973000D02*
D03*
X1033500Y463000D02*
D03*
Y454000D02*
D03*
Y445000D02*
D03*
X1023500D02*
D03*
X1033000Y436000D02*
D03*
X1023000D02*
D03*
Y424000D02*
D03*
X1033000D02*
D03*
Y415000D02*
D03*
Y406000D02*
D03*
X1023000D02*
D03*
Y397000D02*
D03*
X1033000D02*
D03*
Y388000D02*
D03*
X1023000D02*
D03*
X1152000Y364000D02*
D03*
X1195000Y363500D02*
D03*
X1121000Y162000D02*
D03*
Y153000D02*
D03*
X1131000D02*
D03*
X1121000Y144000D02*
D03*
X1131000D02*
D03*
X1121000Y130000D02*
D03*
Y121000D02*
D03*
Y112000D02*
D03*
X422000Y155000D02*
D03*
Y146000D02*
D03*
Y137000D02*
D03*
Y128000D02*
D03*
X34000Y83000D02*
D03*
Y98000D02*
D03*
X572000Y164000D02*
D03*
X562000Y137000D02*
D03*
X572000D02*
D03*
Y128000D02*
D03*
X562000D02*
D03*
Y119000D02*
D03*
X572000D02*
D03*
X562000Y110000D02*
D03*
X572000Y155000D02*
D03*
X562000D02*
D03*
X572000Y146000D02*
D03*
X562000D02*
D03*
X1371500Y355000D02*
D03*
Y346000D02*
D03*
X1327000Y354000D02*
D03*
X1371500Y328000D02*
D03*
X1381500D02*
D03*
Y337000D02*
D03*
X1371500D02*
D03*
X1454000Y311000D02*
D03*
Y320000D02*
D03*
Y331000D02*
D03*
X1464000D02*
D03*
X1454000Y340000D02*
D03*
X1464000D02*
D03*
X1454000Y349000D02*
D03*
X784000Y391000D02*
D03*
X1439000Y420000D02*
D03*
Y430000D02*
D03*
X1439000Y440000D02*
D03*
X1172000Y590000D02*
D03*
X1182000D02*
D03*
X1172000Y581000D02*
D03*
X717000Y687000D02*
D03*
Y661000D02*
D03*
X1242500Y695400D02*
D03*
Y713400D02*
D03*
Y704400D02*
D03*
X1403500Y713400D02*
D03*
Y704400D02*
D03*
Y695400D02*
D03*
X1068000Y343000D02*
D03*
X1058000D02*
D03*
X973000Y555000D02*
D03*
X983000D02*
D03*
X973000Y533500D02*
D03*
X983000D02*
D03*
X983000Y546000D02*
D03*
X972500Y518500D02*
D03*
X973000Y498500D02*
D03*
Y368500D02*
D03*
X937000Y438000D02*
D03*
X927000D02*
D03*
Y474000D02*
D03*
X937000D02*
D03*
Y465000D02*
D03*
X927000D02*
D03*
X937000Y456000D02*
D03*
X927000D02*
D03*
X937000Y447000D02*
D03*
X927000D02*
D03*
Y429000D02*
D03*
X937000D02*
D03*
Y420000D02*
D03*
X927000D02*
D03*
X937000Y411000D02*
D03*
Y402000D02*
D03*
X927000D02*
D03*
X937000Y393000D02*
D03*
X927000D02*
D03*
X937000Y381000D02*
D03*
X927000D02*
D03*
X774000Y382000D02*
D03*
X784000D02*
D03*
Y373000D02*
D03*
X774000D02*
D03*
X784000Y364000D02*
D03*
X774000D02*
D03*
X784000Y355000D02*
D03*
X774000D02*
D03*
Y346000D02*
D03*
X784000D02*
D03*
X774000Y337000D02*
D03*
X784000D02*
D03*
Y328000D02*
D03*
X774000D02*
D03*
X784000Y319000D02*
D03*
X774000D02*
D03*
Y310000D02*
D03*
X784000D02*
D03*
X774000Y301000D02*
D03*
X784000D02*
D03*
Y292000D02*
D03*
X774000D02*
D03*
X784000Y283000D02*
D03*
X774000D02*
D03*
X784000Y268000D02*
D03*
X774000D02*
D03*
Y259000D02*
D03*
X784000D02*
D03*
X1543000Y212600D02*
D03*
Y222500D02*
D03*
Y123600D02*
D03*
Y133500D02*
D03*
X1400000Y97000D02*
D03*
X1410000D02*
D03*
X1470500Y96500D02*
D03*
X1460500D02*
D03*
X1477751Y261502D02*
D03*
X1487751D02*
D03*
X1477751Y172502D02*
D03*
X1487751D02*
D03*
Y270502D02*
D03*
Y181502D02*
D03*
X1439000Y212600D02*
D03*
Y222500D02*
D03*
Y123600D02*
D03*
Y133500D02*
D03*
X1441000Y97000D02*
D03*
X1431000D02*
D03*
X1500000Y96000D02*
D03*
X1490000D02*
D03*
X1383751Y261502D02*
D03*
X1373751D02*
D03*
Y172502D02*
D03*
X1383751D02*
D03*
Y270502D02*
D03*
Y181502D02*
D03*
X1003000Y153000D02*
D03*
X1013000D02*
D03*
X1003000Y144000D02*
D03*
X1013000D02*
D03*
X1003000Y121000D02*
D03*
X1557500Y278000D02*
D03*
Y189000D02*
D03*
X1547500Y260000D02*
D03*
Y171000D02*
D03*
X1453500Y278000D02*
D03*
Y189000D02*
D03*
X1443500Y260000D02*
D03*
Y171000D02*
D03*
X1044000Y164000D02*
D03*
X1034000Y110000D02*
D03*
X1044000Y119000D02*
D03*
X1034000D02*
D03*
Y146000D02*
D03*
X1044000D02*
D03*
X1034000Y137000D02*
D03*
X1044000D02*
D03*
X1034000Y128000D02*
D03*
X1044000D02*
D03*
X1034000Y155000D02*
D03*
X1044000D02*
D03*
X1003000Y130000D02*
D03*
Y112000D02*
D03*
X123000Y278000D02*
D03*
Y269000D02*
D03*
D114*
X305000Y78700D02*
D03*
X320000D02*
D03*
X395000D02*
D03*
X410000D02*
D03*
X440000D02*
D03*
X455000D02*
D03*
X350000D02*
D03*
X365000D02*
D03*
X335000D02*
D03*
X380000D02*
D03*
X425000D02*
D03*
X1162500Y721300D02*
D03*
X1132500D02*
D03*
X1072500D02*
D03*
X1102500D02*
D03*
X577500Y78700D02*
D03*
X592500D02*
D03*
X607500D02*
D03*
X622500D02*
D03*
X637500D02*
D03*
X652500D02*
D03*
X667500D02*
D03*
X682500D02*
D03*
X952500D02*
D03*
X937500D02*
D03*
X922500D02*
D03*
X907500D02*
D03*
X892500D02*
D03*
X877500D02*
D03*
X862500D02*
D03*
X847500D02*
D03*
X1037500D02*
D03*
X1052500D02*
D03*
X1067500D02*
D03*
X1082500D02*
D03*
X1097500D02*
D03*
X1112500D02*
D03*
X1127500D02*
D03*
X1142500D02*
D03*
X1322500D02*
D03*
X1292500D02*
D03*
X1262500D02*
D03*
X1232500D02*
D03*
X1217500D02*
D03*
X1247500D02*
D03*
X1277500D02*
D03*
X1307500D02*
D03*
X1397500D02*
D03*
X1412500D02*
D03*
X1427500D02*
D03*
X1442500D02*
D03*
X1457500D02*
D03*
X1472500D02*
D03*
X1487500D02*
D03*
X1502500D02*
D03*
X1682500D02*
D03*
X1667500D02*
D03*
X1652500D02*
D03*
X1637500D02*
D03*
X1622500D02*
D03*
X1607500D02*
D03*
X1592500D02*
D03*
X1577500D02*
D03*
X1057500Y721300D02*
D03*
X1087500D02*
D03*
X1117500D02*
D03*
X1147500D02*
D03*
D115*
X278950Y26800D02*
D03*
X481050D02*
D03*
X1188550Y773200D02*
D03*
X1031450D02*
D03*
X1708550Y26800D02*
D03*
X1551450D02*
D03*
X1528550D02*
D03*
X1371450D02*
D03*
X1348550D02*
D03*
X1191450D02*
D03*
X1168550D02*
D03*
X978550D02*
D03*
X1011450D02*
D03*
X821450D02*
D03*
X708550D02*
D03*
X551450D02*
D03*
D116*
X1301002Y536000D02*
D03*
Y554000D02*
D03*
D117*
X846000Y135000D02*
D03*
X728000D02*
D03*
X1082000D02*
D03*
X964000D02*
D03*
X610000D02*
D03*
D118*
X226758Y311650D02*
D03*
Y221150D02*
D03*
D119*
X383500Y236000D02*
D03*
D120*
X537000Y672000D02*
D03*
X1519000Y328000D02*
D03*
D121*
X524500Y691550D02*
D03*
X529500D02*
D03*
X534500D02*
D03*
X549500D02*
D03*
X544500D02*
D03*
X539500D02*
D03*
X549500Y652450D02*
D03*
X544500D02*
D03*
X539500D02*
D03*
X524500D02*
D03*
X529500D02*
D03*
X534500D02*
D03*
D122*
X556550Y684500D02*
D03*
Y679500D02*
D03*
Y674500D02*
D03*
Y659500D02*
D03*
Y664500D02*
D03*
Y669500D02*
D03*
X517450Y659500D02*
D03*
Y664500D02*
D03*
Y669500D02*
D03*
Y679500D02*
D03*
Y674500D02*
D03*
D123*
X517300Y684500D02*
D03*
D124*
X313000Y652000D02*
D03*
X403049Y651491D02*
D03*
D125*
X409745Y458519D02*
D03*
X369745Y452019D02*
D03*
Y458519D02*
D03*
Y471519D02*
D03*
X409745Y452019D02*
D03*
X369745Y465019D02*
D03*
X409745Y471519D02*
D03*
Y465019D02*
D03*
D126*
X392995Y441769D02*
D03*
X386495D02*
D03*
X379995D02*
D03*
Y481769D02*
D03*
X386495D02*
D03*
X399495D02*
D03*
X392995D02*
D03*
X399495Y441769D02*
D03*
D127*
X389745Y461769D02*
D03*
D128*
X718000Y245000D02*
D03*
X657000Y600000D02*
D03*
X422995Y445269D02*
D03*
X431995Y455269D02*
D03*
X422995D02*
D03*
X738378Y618000D02*
D03*
X810000Y574000D02*
D03*
X794000Y697000D02*
D03*
X628000Y218000D02*
D03*
X637000D02*
D03*
X717000Y520000D02*
D03*
X1197500Y703000D02*
D03*
X1188500D02*
D03*
X1165000D02*
D03*
X1133000D02*
D03*
X1156000D02*
D03*
X1123000D02*
D03*
X1526000Y489000D02*
D03*
X1533000Y461000D02*
D03*
X1126000Y651000D02*
D03*
X1171500Y546500D02*
D03*
X1168000Y481000D02*
D03*
X1163000Y453000D02*
D03*
X1134000Y452000D02*
D03*
Y430000D02*
D03*
X1086000Y703000D02*
D03*
X1077000D02*
D03*
X1054000D02*
D03*
X1045000D02*
D03*
X1022000D02*
D03*
X1012000D02*
D03*
X1015000Y652000D02*
D03*
X810000Y564000D02*
D03*
X738378Y628000D02*
D03*
X1061500Y546500D02*
D03*
X1026596Y546596D02*
D03*
X1105000Y391000D02*
D03*
X1518900Y375950D02*
D03*
X1491900D02*
D03*
X1500900D02*
D03*
X1557000Y239000D02*
D03*
X1547000D02*
D03*
X1490000D02*
D03*
X1480000D02*
D03*
X1477000Y223000D02*
D03*
X1453000Y239000D02*
D03*
X1399000Y343000D02*
D03*
Y323000D02*
D03*
X1443000Y239000D02*
D03*
X1386000D02*
D03*
X1376000D02*
D03*
X1373000Y223000D02*
D03*
X1263000Y217000D02*
D03*
X1212250D02*
D03*
X1547000Y150000D02*
D03*
X1557000D02*
D03*
X1490000D02*
D03*
X1480000D02*
D03*
X1443000D02*
D03*
X1386000D02*
D03*
X1263625Y154000D02*
D03*
X1376000Y150000D02*
D03*
X1213750Y154000D02*
D03*
X1477000Y134000D02*
D03*
X1453000Y150000D02*
D03*
X1373000Y134000D02*
D03*
X1105000Y365000D02*
D03*
X1088000Y375000D02*
D03*
X1101500Y345500D02*
D03*
X1046500D02*
D03*
X1001000Y344500D02*
D03*
X1019000D02*
D03*
X1028000Y344307D02*
D03*
X1010000Y344500D02*
D03*
X1092000Y191000D02*
D03*
X1104000D02*
D03*
X1025280D02*
D03*
X1047000Y191000D02*
D03*
X1119000D02*
D03*
X1013780Y191000D02*
D03*
X999000Y201000D02*
D03*
X940000Y191000D02*
D03*
X956000Y191000D02*
D03*
X929000Y191000D02*
D03*
X846500Y196000D02*
D03*
X688000Y624000D02*
D03*
X648000Y630000D02*
D03*
X679000Y624000D02*
D03*
X519000Y628000D02*
D03*
X509000D02*
D03*
X459000Y746500D02*
D03*
X417000Y746500D02*
D03*
X418400Y711500D02*
D03*
X409400D02*
D03*
X442049Y578491D02*
D03*
X386049Y588491D02*
D03*
X422995Y465269D02*
D03*
X431995D02*
D03*
X327350Y711450D02*
D03*
X318350D02*
D03*
X169920Y712653D02*
D03*
Y621653D02*
D03*
X141920Y713653D02*
D03*
X150920D02*
D03*
X73920Y712653D02*
D03*
X45920Y713653D02*
D03*
X54920D02*
D03*
X143920Y639653D02*
D03*
X125920Y659653D02*
D03*
Y639653D02*
D03*
X141920Y622653D02*
D03*
X150920D02*
D03*
X29920Y659653D02*
D03*
X47920Y639653D02*
D03*
X29920D02*
D03*
X54920Y622653D02*
D03*
X73920Y621653D02*
D03*
X45920Y622653D02*
D03*
X352000Y579000D02*
D03*
X296000Y589000D02*
D03*
X169920Y530653D02*
D03*
Y439653D02*
D03*
X143920Y548653D02*
D03*
X125920Y569153D02*
D03*
X125920Y548653D02*
D03*
X141920Y531653D02*
D03*
X150920D02*
D03*
X29920Y569153D02*
D03*
X47920Y548653D02*
D03*
X29920D02*
D03*
X45920Y531653D02*
D03*
X73920Y530653D02*
D03*
X54920Y531653D02*
D03*
X143920Y457653D02*
D03*
X125920Y478153D02*
D03*
Y457653D02*
D03*
X141920Y440653D02*
D03*
X150920D02*
D03*
X29920Y476653D02*
D03*
X47920Y457653D02*
D03*
X29920D02*
D03*
X54920Y440653D02*
D03*
X73920Y439653D02*
D03*
X45920Y440393D02*
D03*
X598000Y219000D02*
D03*
X490750Y320710D02*
D03*
X428000Y209000D02*
D03*
X418000D02*
D03*
X187000Y257000D02*
D03*
X125940Y386356D02*
D03*
X143920Y366653D02*
D03*
X125920D02*
D03*
X55920Y366153D02*
D03*
X38920Y386153D02*
D03*
X154000Y257000D02*
D03*
X145000D02*
D03*
X58000D02*
D03*
X67000Y257000D02*
D03*
X423000Y166000D02*
D03*
X709000Y245000D02*
D03*
X470000Y95000D02*
D03*
Y105000D02*
D03*
X455000D02*
D03*
Y95000D02*
D03*
X422995Y435269D02*
D03*
X502250Y320710D02*
D03*
X423000Y176000D02*
D03*
X296000Y579000D02*
D03*
X287000Y589000D02*
D03*
Y579000D02*
D03*
X417000Y736500D02*
D03*
X459000Y736500D02*
D03*
X409400Y701500D02*
D03*
X418400D02*
D03*
X318350Y701450D02*
D03*
X327350D02*
D03*
X418000Y239000D02*
D03*
Y229000D02*
D03*
X428000Y239000D02*
D03*
Y229000D02*
D03*
X418000Y219000D02*
D03*
X428000D02*
D03*
X442049Y588491D02*
D03*
X539000Y628000D02*
D03*
Y638000D02*
D03*
X519000D02*
D03*
X559000Y638000D02*
D03*
Y628000D02*
D03*
X549000Y638000D02*
D03*
Y628000D02*
D03*
X529000Y638000D02*
D03*
Y628000D02*
D03*
X509000Y638000D02*
D03*
X679000Y614000D02*
D03*
X688000D02*
D03*
X648000Y620000D02*
D03*
X657000Y610000D02*
D03*
X648000Y600000D02*
D03*
Y610000D02*
D03*
X490750Y330710D02*
D03*
X502250D02*
D03*
X1263625Y125000D02*
D03*
Y135000D02*
D03*
Y144000D02*
D03*
X1213750Y125000D02*
D03*
Y135000D02*
D03*
Y144000D02*
D03*
X1263000Y188000D02*
D03*
Y198000D02*
D03*
Y207000D02*
D03*
X1212250Y198000D02*
D03*
Y188000D02*
D03*
Y207000D02*
D03*
X1134000Y440000D02*
D03*
Y462000D02*
D03*
X1163000Y443000D02*
D03*
X1061500Y556500D02*
D03*
X1044000Y577000D02*
D03*
Y587000D02*
D03*
X1132000Y522000D02*
D03*
X1088000Y385000D02*
D03*
X1126000Y641000D02*
D03*
X1171500Y556500D02*
D03*
X1104000Y201000D02*
D03*
X1092000D02*
D03*
X1015000Y642000D02*
D03*
X1026596Y556596D02*
D03*
X1046500Y335500D02*
D03*
X1105000Y401000D02*
D03*
X1518900Y365950D02*
D03*
X1399000Y353000D02*
D03*
Y333000D02*
D03*
X1533000Y451000D02*
D03*
X67000Y267000D02*
D03*
X58000Y267000D02*
D03*
X154000D02*
D03*
X145000D02*
D03*
X1001000Y334500D02*
D03*
X99000Y257000D02*
D03*
X1550900Y375950D02*
D03*
X1172000Y391000D02*
D03*
X1544000Y461000D02*
D03*
X1504000D02*
D03*
X1513000D02*
D03*
X1495000D02*
D03*
X1522000D02*
D03*
X840000Y700000D02*
D03*
X852000D02*
D03*
X865000D02*
D03*
X878000D02*
D03*
X1541900Y375950D02*
D03*
X1133500Y491000D02*
D03*
X1152000Y532000D02*
D03*
Y522000D02*
D03*
X1132000Y532000D02*
D03*
X1145000Y491000D02*
D03*
Y481000D02*
D03*
X1168000Y491000D02*
D03*
X1156500D02*
D03*
Y481000D02*
D03*
X1133500D02*
D03*
X1163000Y391000D02*
D03*
Y401000D02*
D03*
X1172000D02*
D03*
X1105000Y375000D02*
D03*
X1130000Y191000D02*
D03*
Y201000D02*
D03*
X989000D02*
D03*
Y191000D02*
D03*
X1152000Y201000D02*
D03*
Y191000D02*
D03*
X1141000D02*
D03*
Y201000D02*
D03*
X1119000D02*
D03*
X1047000D02*
D03*
X1059000Y191000D02*
D03*
Y201000D02*
D03*
X1025280Y201000D02*
D03*
X999000Y191000D02*
D03*
X956000Y201000D02*
D03*
X978000Y201000D02*
D03*
Y191000D02*
D03*
X967000Y201000D02*
D03*
Y191000D02*
D03*
X940000Y201000D02*
D03*
X929000D02*
D03*
X1013780D02*
D03*
X759000Y428000D02*
D03*
Y438000D02*
D03*
X768000Y428000D02*
D03*
Y438000D02*
D03*
X750000Y448000D02*
D03*
Y458000D02*
D03*
X739000Y448000D02*
D03*
Y458000D02*
D03*
X715500D02*
D03*
Y448000D02*
D03*
X727000Y458000D02*
D03*
Y448000D02*
D03*
X687000Y469000D02*
D03*
Y459000D02*
D03*
X696500Y469000D02*
D03*
Y459000D02*
D03*
X669000D02*
D03*
Y469000D02*
D03*
X678000D02*
D03*
Y459000D02*
D03*
X705500Y469000D02*
D03*
Y459000D02*
D03*
X717000Y490000D02*
D03*
Y500000D02*
D03*
Y510000D02*
D03*
X846500Y186000D02*
D03*
X682000Y245000D02*
D03*
Y255000D02*
D03*
X709000D02*
D03*
X718000D02*
D03*
X700000Y245000D02*
D03*
Y255000D02*
D03*
X691000D02*
D03*
Y245000D02*
D03*
X673000D02*
D03*
Y255000D02*
D03*
X637000Y228000D02*
D03*
X628000D02*
D03*
X637000Y255000D02*
D03*
Y245000D02*
D03*
X628000Y255000D02*
D03*
Y245000D02*
D03*
X598000Y209000D02*
D03*
X1504000Y451000D02*
D03*
X1509900Y375950D02*
D03*
X1513000Y451000D02*
D03*
X1532900Y375950D02*
D03*
X1509900Y365950D02*
D03*
X1532900D02*
D03*
X1550900D02*
D03*
X1541900D02*
D03*
X1500900D02*
D03*
X1491900D02*
D03*
X1544000Y451000D02*
D03*
X1495000D02*
D03*
X1522000D02*
D03*
X1526000Y499000D02*
D03*
X657488Y712000D02*
D03*
Y702000D02*
D03*
X632488Y712000D02*
D03*
Y702000D02*
D03*
X669988D02*
D03*
Y712000D02*
D03*
X620000Y702000D02*
D03*
Y712000D02*
D03*
X644988Y702000D02*
D03*
Y712000D02*
D03*
X595012D02*
D03*
Y702000D02*
D03*
X582512D02*
D03*
Y712000D02*
D03*
X682488D02*
D03*
Y702000D02*
D03*
X805500Y697000D02*
D03*
Y687000D02*
D03*
X794000D02*
D03*
X1206500Y693000D02*
D03*
Y703000D02*
D03*
X1197500Y693000D02*
D03*
X1165000D02*
D03*
X1156000D02*
D03*
X1123000D02*
D03*
X1133000D02*
D03*
X1188500D02*
D03*
X1176000Y703000D02*
D03*
Y693000D02*
D03*
X902000Y710000D02*
D03*
Y700000D02*
D03*
X890000Y710000D02*
D03*
Y700000D02*
D03*
X878000Y710000D02*
D03*
X865000D02*
D03*
X852000D02*
D03*
X915000D02*
D03*
Y700000D02*
D03*
X840000Y710000D02*
D03*
X1144000Y703000D02*
D03*
Y693000D02*
D03*
X1095000D02*
D03*
Y703000D02*
D03*
X1086000Y693000D02*
D03*
X1077000D02*
D03*
X1065000Y703000D02*
D03*
Y693000D02*
D03*
X1012000D02*
D03*
X1022000D02*
D03*
X1033000Y703000D02*
D03*
Y693000D02*
D03*
X1045000D02*
D03*
X1054000D02*
D03*
X1015000Y676804D02*
D03*
Y666804D02*
D03*
X1126000Y676804D02*
D03*
Y666804D02*
D03*
X1101500Y335500D02*
D03*
X1028000Y334307D02*
D03*
X1010000Y334500D02*
D03*
X1019000D02*
D03*
X992000Y344500D02*
D03*
Y334500D02*
D03*
X1016500Y546500D02*
D03*
Y556500D02*
D03*
X664000Y255000D02*
D03*
Y245000D02*
D03*
X1490000Y249000D02*
D03*
X1547000D02*
D03*
X1557000D02*
D03*
X1480000D02*
D03*
X1490000Y160000D02*
D03*
X1547000D02*
D03*
X1557000D02*
D03*
X1480000D02*
D03*
X1477000Y213000D02*
D03*
Y124000D02*
D03*
X1386000Y249000D02*
D03*
X1443000D02*
D03*
X1453000D02*
D03*
X1376000D02*
D03*
X1386000Y160000D02*
D03*
X1443000D02*
D03*
X1453000D02*
D03*
X1376000D02*
D03*
X1373000Y213000D02*
D03*
Y124000D02*
D03*
X125920Y488153D02*
D03*
X141920Y521653D02*
D03*
X169920Y520653D02*
D03*
X125920Y669653D02*
D03*
X141920Y703653D02*
D03*
X169920Y702653D02*
D03*
X29920Y669653D02*
D03*
X45920Y703653D02*
D03*
X73920Y702653D02*
D03*
X125920Y579153D02*
D03*
X141920Y612653D02*
D03*
X169920Y611653D02*
D03*
X29920Y579153D02*
D03*
X45920Y612653D02*
D03*
X73920Y611653D02*
D03*
X29920Y486653D02*
D03*
X45920Y521653D02*
D03*
X73920Y520653D02*
D03*
X352000Y589000D02*
D03*
X386049Y578491D02*
D03*
X125940Y396356D02*
D03*
X141920Y430653D02*
D03*
X169920Y429653D02*
D03*
X220000Y692000D02*
D03*
Y702000D02*
D03*
X38920Y548653D02*
D03*
Y558653D02*
D03*
Y579153D02*
D03*
Y569153D02*
D03*
X70920Y558653D02*
D03*
Y548653D02*
D03*
X79920D02*
D03*
Y558653D02*
D03*
X47920D02*
D03*
X29920D02*
D03*
X54920Y612653D02*
D03*
X38920Y457653D02*
D03*
Y467653D02*
D03*
Y486653D02*
D03*
Y476653D02*
D03*
X70920Y467653D02*
D03*
Y457653D02*
D03*
X79920Y467653D02*
D03*
Y457653D02*
D03*
X81000Y267000D02*
D03*
Y257000D02*
D03*
X169000D02*
D03*
Y267000D02*
D03*
X47920Y467653D02*
D03*
X29920D02*
D03*
X134920Y457653D02*
D03*
Y467653D02*
D03*
Y488153D02*
D03*
Y478153D02*
D03*
X166920Y467653D02*
D03*
Y457653D02*
D03*
X175920D02*
D03*
Y467653D02*
D03*
X143920D02*
D03*
X125920D02*
D03*
X150920Y521653D02*
D03*
X54920D02*
D03*
X377049Y578491D02*
D03*
Y588491D02*
D03*
X134920Y639653D02*
D03*
Y649653D02*
D03*
Y669653D02*
D03*
Y659653D02*
D03*
X166920Y649653D02*
D03*
Y639653D02*
D03*
X175920D02*
D03*
Y649653D02*
D03*
X143920D02*
D03*
X125920D02*
D03*
X150920Y703653D02*
D03*
X38920Y639653D02*
D03*
Y649653D02*
D03*
Y669653D02*
D03*
Y659653D02*
D03*
X70920Y649653D02*
D03*
Y639653D02*
D03*
X79920D02*
D03*
Y649653D02*
D03*
X47920D02*
D03*
X29920D02*
D03*
X54920Y703653D02*
D03*
X134908Y548639D02*
D03*
Y558639D02*
D03*
X134920Y579153D02*
D03*
Y569153D02*
D03*
X166920Y558653D02*
D03*
Y548653D02*
D03*
X175920D02*
D03*
Y558653D02*
D03*
X143920D02*
D03*
X125920D02*
D03*
X150920Y612653D02*
D03*
X134920Y376653D02*
D03*
Y366653D02*
D03*
X134940Y386356D02*
D03*
Y396356D02*
D03*
X166920Y366653D02*
D03*
Y376653D02*
D03*
X175920D02*
D03*
Y366653D02*
D03*
X143920Y376653D02*
D03*
X125920D02*
D03*
X150920Y430653D02*
D03*
X38920Y396153D02*
D03*
X45920Y430393D02*
D03*
X73920Y429653D02*
D03*
X29920Y396153D02*
D03*
Y386153D02*
D03*
X70920Y376653D02*
D03*
Y366653D02*
D03*
X79920D02*
D03*
Y376653D02*
D03*
X29920Y376153D02*
D03*
Y366153D02*
D03*
X55920Y376153D02*
D03*
X54920Y430653D02*
D03*
X99000Y267000D02*
D03*
X187000D02*
D03*
X90000Y257000D02*
D03*
Y267000D02*
D03*
X178000D02*
D03*
Y257000D02*
D03*
D129*
X250000Y372000D02*
D03*
X472000Y593000D02*
D03*
X597000Y486000D02*
D03*
X468300Y478000D02*
D03*
X318369Y434011D02*
D03*
X335369Y387010D02*
D03*
X386000Y365000D02*
D03*
X401370Y379011D02*
D03*
X348369Y489011D02*
D03*
X400369Y536011D02*
D03*
X306000Y554000D02*
D03*
X353000Y521000D02*
D03*
X369000Y554000D02*
D03*
X521000Y440000D02*
D03*
X510000D02*
D03*
X515000Y354000D02*
D03*
X1208000Y468000D02*
D03*
X1191000Y380000D02*
D03*
D130*
X263493Y432769D02*
D03*
X283493Y482769D02*
D03*
Y432769D02*
D03*
X278493Y482769D02*
D03*
Y432769D02*
D03*
X268493D02*
D03*
X293493D02*
D03*
Y482769D02*
D03*
X268493D02*
D03*
X273493D02*
D03*
X288493D02*
D03*
X298493D02*
D03*
Y432769D02*
D03*
X263493Y482769D02*
D03*
X288493Y432769D02*
D03*
X273493D02*
D03*
D131*
X330495Y375269D02*
D03*
Y363269D02*
D03*
X360495D02*
D03*
Y375269D02*
D03*
X371245Y388269D02*
D03*
Y400269D02*
D03*
X401245D02*
D03*
Y388269D02*
D03*
X323000Y542019D02*
D03*
Y554019D02*
D03*
X353000D02*
D03*
Y542019D02*
D03*
X401245Y514019D02*
D03*
Y526019D02*
D03*
X371245D02*
D03*
Y514019D02*
D03*
X76000Y354000D02*
D03*
Y342000D02*
D03*
X46000D02*
D03*
Y354000D02*
D03*
X140000D02*
D03*
Y342000D02*
D03*
X170000D02*
D03*
Y354000D02*
D03*
D132*
X232621Y395894D02*
D03*
Y415894D02*
D03*
X232245Y499769D02*
D03*
Y519769D02*
D03*
X329745Y499769D02*
D03*
Y519769D02*
D03*
X329745Y395519D02*
D03*
Y415519D02*
D03*
D133*
X254995Y397769D02*
D03*
X292210Y517371D02*
D03*
X271245Y517269D02*
D03*
X290745Y397769D02*
D03*
X270995D02*
D03*
X306745D02*
D03*
X308210Y517371D02*
D03*
X255245Y517269D02*
D03*
D134*
X1461500Y709750D02*
D03*
X1300500D02*
D03*
Y690250D02*
D03*
X1259500D02*
D03*
X1461500D02*
D03*
X1420500D02*
D03*
X1259500Y709750D02*
D03*
Y703250D02*
D03*
Y696750D02*
D03*
X1300500Y703250D02*
D03*
Y696750D02*
D03*
X1420500Y709750D02*
D03*
Y703250D02*
D03*
Y696750D02*
D03*
X1461500Y703250D02*
D03*
Y696750D02*
D03*
D135*
X1620000Y660000D02*
D03*
D136*
X1511000Y414000D02*
D03*
X1535000Y436000D02*
D03*
X1511000D02*
D03*
X1519000D02*
D03*
X1543000D02*
D03*
X1527000D02*
D03*
X1519000Y414000D02*
D03*
X1527000D02*
D03*
X1535000D02*
D03*
X1543000D02*
D03*
D137*
X1283000Y657000D02*
D03*
X524000Y102000D02*
D03*
X404500Y751750D02*
D03*
Y736250D02*
D03*
X446500Y736250D02*
D03*
Y751750D02*
D03*
X1283000Y611000D02*
D03*
X1150000Y460750D02*
D03*
Y445250D02*
D03*
X834000Y185750D02*
D03*
Y201250D02*
D03*
X584000Y222750D02*
D03*
Y207250D02*
D03*
X524000Y86000D02*
D03*
X1539000Y482250D02*
D03*
Y497750D02*
D03*
X1283000Y641000D02*
D03*
X1283000Y627000D02*
D03*
D138*
X1322000Y627000D02*
D03*
D139*
X1196350Y679050D02*
D03*
X1085350D02*
D03*
X1143650Y640950D02*
D03*
X1032650D02*
D03*
X1143650Y653650D02*
D03*
Y666350D02*
D03*
Y679050D02*
D03*
X1196350Y666350D02*
D03*
Y653650D02*
D03*
Y640950D02*
D03*
X1032650Y653650D02*
D03*
Y666350D02*
D03*
Y679050D02*
D03*
X1085350Y666350D02*
D03*
Y653650D02*
D03*
Y640950D02*
D03*
D140*
X1181000Y518498D02*
D03*
X1180000Y435498D02*
D03*
X1198000D02*
D03*
X1199000Y518498D02*
D03*
D141*
X1121450Y391000D02*
D03*
X253090Y657250D02*
D03*
Y666750D02*
D03*
Y647750D02*
D03*
X227990D02*
D03*
Y666750D02*
D03*
Y657250D02*
D03*
X1121450Y400500D02*
D03*
X1146550D02*
D03*
Y391000D02*
D03*
Y381500D02*
D03*
X1121450D02*
D03*
D142*
X1111242Y521050D02*
D03*
X1056758Y482950D02*
D03*
X1111242D02*
D03*
Y495650D02*
D03*
Y508350D02*
D03*
X1056758Y521050D02*
D03*
Y508350D02*
D03*
Y495650D02*
D03*
D143*
X1052473Y416250D02*
D03*
X1111527Y455250D02*
D03*
Y448750D02*
D03*
Y442250D02*
D03*
Y435750D02*
D03*
Y429250D02*
D03*
Y422750D02*
D03*
Y416250D02*
D03*
X1052473Y422750D02*
D03*
Y429250D02*
D03*
Y435750D02*
D03*
Y442250D02*
D03*
Y448750D02*
D03*
Y455250D02*
D03*
Y461749D02*
D03*
X1111527D02*
D03*
D144*
X738077Y432000D02*
D03*
X739500Y315000D02*
D03*
X530550Y588750D02*
D03*
X486000Y613000D02*
D03*
X591800Y430250D02*
D03*
X288460Y501871D02*
D03*
X274245Y501769D02*
D03*
X330495Y468769D02*
D03*
X330995Y457769D02*
D03*
X330495Y442769D02*
D03*
X286495Y413519D02*
D03*
X234500Y461000D02*
D03*
X274245Y413519D02*
D03*
X619535Y353769D02*
D03*
X599050Y351750D02*
D03*
X729077Y432000D02*
D03*
X608050Y351750D02*
D03*
X600800Y430250D02*
D03*
X243500Y461000D02*
D03*
X295495Y413519D02*
D03*
X265245Y413519D02*
D03*
X321995Y457769D02*
D03*
X321495Y468769D02*
D03*
Y442769D02*
D03*
X265245Y501769D02*
D03*
X297460Y501871D02*
D03*
X730500Y315000D02*
D03*
X495000Y613000D02*
D03*
X539550Y588750D02*
D03*
X628535Y353769D02*
D03*
D145*
X715000Y434500D02*
D03*
X613329Y294907D02*
D03*
X594000Y277500D02*
D03*
X585000D02*
D03*
X613329Y303906D02*
D03*
X715000Y425500D02*
D03*
X585000Y286500D02*
D03*
X594000D02*
D03*
D146*
X707550Y429625D02*
D03*
X715066Y401125D02*
D03*
X697746Y392137D02*
D03*
X704554Y391375D02*
D03*
X711000Y313375D02*
D03*
X707550Y299875D02*
D03*
X560862Y594040D02*
D03*
X560550Y578125D02*
D03*
X546550Y570125D02*
D03*
X484550Y591375D02*
D03*
X560550Y482125D02*
D03*
X611050Y437750D02*
D03*
X649151Y433545D02*
D03*
X560550Y567375D02*
D03*
X560550Y552750D02*
D03*
X560550Y498125D02*
D03*
X688050Y429625D02*
D03*
X629550Y427875D02*
D03*
X611050Y432375D02*
D03*
X546550Y559375D02*
D03*
X502080Y531294D02*
D03*
X484550Y562125D02*
D03*
X484550Y551375D02*
D03*
X474320Y519497D02*
D03*
X476451Y498125D02*
D03*
X476550Y482125D02*
D03*
X681550Y410125D02*
D03*
X658000Y409625D02*
D03*
X643300Y406375D02*
D03*
X645792Y382959D02*
D03*
X671800Y365375D02*
D03*
X694550Y341375D02*
D03*
X662443Y343230D02*
D03*
X661535Y361992D02*
D03*
X655848Y343137D02*
D03*
X632845Y398032D02*
D03*
X626229D02*
D03*
X639427Y326246D02*
D03*
X632561Y331664D02*
D03*
X626300Y331625D02*
D03*
X681233Y315742D02*
D03*
X655550Y318625D02*
D03*
X688050Y299875D02*
D03*
X668550Y299875D02*
D03*
X650034Y299859D02*
D03*
X644233Y313069D02*
D03*
X644233Y296375D02*
D03*
X629550Y299875D02*
D03*
X602800Y297125D02*
D03*
X643300Y401125D02*
D03*
X632845Y403283D02*
D03*
X626229D02*
D03*
X707550Y424375D02*
D03*
X602800Y302375D02*
D03*
X688050Y424375D02*
D03*
X649151Y428295D02*
D03*
X629550Y433125D02*
D03*
X611050Y427125D02*
D03*
X611050Y443000D02*
D03*
X650034Y305109D02*
D03*
X629550Y305125D02*
D03*
X681233Y320992D02*
D03*
X668550Y305125D02*
D03*
X707550D02*
D03*
X688050Y305125D02*
D03*
X681550Y404875D02*
D03*
X655550Y323875D02*
D03*
X639427Y331496D02*
D03*
X715066Y406375D02*
D03*
X655848Y348387D02*
D03*
X694550Y336125D02*
D03*
X711000Y318625D02*
D03*
X658000Y404375D02*
D03*
X671800Y370625D02*
D03*
X661535Y367242D02*
D03*
X645792Y377709D02*
D03*
X484550Y546125D02*
D03*
X546550Y554125D02*
D03*
X560550Y562125D02*
D03*
X484550Y567375D02*
D03*
X546550Y575375D02*
D03*
X484550Y586125D02*
D03*
X560550Y583375D02*
D03*
X560862Y599290D02*
D03*
X560550Y503375D02*
D03*
X476451D02*
D03*
X560550Y487375D02*
D03*
X476550D02*
D03*
X502080Y526044D02*
D03*
X474320Y524748D02*
D03*
X560550Y547500D02*
D03*
X626300Y326375D02*
D03*
X632561Y326414D02*
D03*
X697746Y397387D02*
D03*
X704554Y396625D02*
D03*
X644233Y307819D02*
D03*
X644233Y301625D02*
D03*
X662443Y348480D02*
D03*
D147*
X736300Y422871D02*
D03*
X733695Y406492D02*
D03*
X735969Y384197D02*
D03*
X695175Y405173D02*
D03*
X705375Y383000D02*
D03*
X733425Y364750D02*
D03*
X733248Y344551D02*
D03*
X714164Y377419D02*
D03*
X714127Y351852D02*
D03*
X707079Y328897D02*
D03*
X736180Y307293D02*
D03*
X733625Y326000D02*
D03*
X695175Y322500D02*
D03*
X487925Y602750D02*
D03*
X536425Y596750D02*
D03*
X497175Y576750D02*
D03*
X597424Y419752D02*
D03*
X497425Y556750D02*
D03*
X539925Y536750D02*
D03*
X480550Y516750D02*
D03*
X676300Y390750D02*
D03*
X693625Y381000D02*
D03*
X681608Y381064D02*
D03*
X690675Y352500D02*
D03*
X659423Y335407D02*
D03*
X637012Y393925D02*
D03*
X598523Y402988D02*
D03*
X600669Y383996D02*
D03*
X623350Y377750D02*
D03*
X638310Y346676D02*
D03*
X603863Y344218D02*
D03*
X603600Y364750D02*
D03*
X603675Y325750D02*
D03*
X694443Y314711D02*
D03*
X639334Y318282D02*
D03*
X642262Y393925D02*
D03*
X731050Y422871D02*
D03*
X608925Y325750D02*
D03*
X609113Y344218D02*
D03*
X608850Y364750D02*
D03*
X605919Y383996D02*
D03*
X603773Y402988D02*
D03*
X602674Y419752D02*
D03*
X692425Y413695D02*
D03*
X676358Y381064D02*
D03*
X654173Y335407D02*
D03*
X708914Y377419D02*
D03*
X708877Y351852D02*
D03*
X727998Y344551D02*
D03*
X700425Y405173D02*
D03*
X685425Y352500D02*
D03*
X688375Y381000D02*
D03*
X728445Y406492D02*
D03*
X730719Y384197D02*
D03*
X728175Y364750D02*
D03*
X730930Y307293D02*
D03*
X728375Y326000D02*
D03*
X700425Y322500D02*
D03*
X701829Y328897D02*
D03*
X681550Y390750D02*
D03*
X628600Y377750D02*
D03*
X493175Y602750D02*
D03*
X545175Y536750D02*
D03*
X502675Y556750D02*
D03*
X491925Y576750D02*
D03*
X541675Y596750D02*
D03*
X485800Y516750D02*
D03*
X633060Y346676D02*
D03*
X697675Y413695D02*
D03*
X644585Y318282D02*
D03*
X710625Y383000D02*
D03*
X689193Y314711D02*
D03*
D148*
X1532251Y247000D02*
D03*
X1503751Y267000D02*
D03*
Y247000D02*
D03*
X1399751Y267000D02*
D03*
X1428251Y247000D02*
D03*
X1399751D02*
D03*
X1503751Y178000D02*
D03*
X1532251Y158000D02*
D03*
X1503751D02*
D03*
X1399751Y178000D02*
D03*
X1428251Y158000D02*
D03*
X1399751D02*
D03*
X1428251Y267000D02*
D03*
X1532251D02*
D03*
Y178000D02*
D03*
X1428251D02*
D03*
X1399751Y262000D02*
D03*
Y257000D02*
D03*
Y252000D02*
D03*
X1428251D02*
D03*
Y262000D02*
D03*
X1532251D02*
D03*
Y252000D02*
D03*
X1503751D02*
D03*
Y257000D02*
D03*
Y262000D02*
D03*
X1399751Y173000D02*
D03*
Y168000D02*
D03*
Y163000D02*
D03*
X1428251D02*
D03*
Y173000D02*
D03*
X1532251D02*
D03*
Y163000D02*
D03*
X1503751D02*
D03*
Y168000D02*
D03*
Y173000D02*
D03*
D149*
X1513251Y263502D02*
D03*
X1409251D02*
D03*
X1513251Y174502D02*
D03*
X1409251D02*
D03*
X1418751Y263502D02*
D03*
X1522751D02*
D03*
X1418751Y174502D02*
D03*
X1522751D02*
D03*
D150*
X1437000Y351000D02*
D03*
X1413000Y343000D02*
D03*
Y335000D02*
D03*
Y351000D02*
D03*
X1437000Y343000D02*
D03*
Y335000D02*
D03*
Y327000D02*
D03*
X1413000D02*
D03*
D151*
X1300250Y203000D02*
D03*
X1230500Y212000D02*
D03*
X1300500Y116000D02*
D03*
X1231125Y149000D02*
D03*
X1065000Y370000D02*
D03*
X1179750Y212000D02*
D03*
X1181250Y149000D02*
D03*
X251500Y695000D02*
D03*
X232500D02*
D03*
X242000Y715000D02*
D03*
X1281500Y116000D02*
D03*
X1291000Y136000D02*
D03*
X1250125Y149000D02*
D03*
X1240625Y129000D02*
D03*
X1200250Y149000D02*
D03*
X1190750Y129000D02*
D03*
X1290750Y223000D02*
D03*
X1281250Y203000D02*
D03*
X1198750Y212000D02*
D03*
X1189250Y192000D02*
D03*
X1240000D02*
D03*
X1249500Y212000D02*
D03*
X1074500Y390000D02*
D03*
X1055500D02*
D03*
D152*
X425098Y573982D02*
D03*
X403000Y591000D02*
D03*
X312951Y591509D02*
D03*
X335049Y574491D02*
D03*
X312951D02*
D03*
X335049Y591509D02*
D03*
X425098Y591000D02*
D03*
X403000Y573982D02*
D03*
D153*
X191920Y704153D02*
D03*
Y613153D02*
D03*
X95920Y704153D02*
D03*
Y613153D02*
D03*
X191920Y522153D02*
D03*
Y431153D02*
D03*
X95920Y522153D02*
D03*
Y431153D02*
D03*
X191920Y663153D02*
D03*
Y572153D02*
D03*
X95920Y481153D02*
D03*
X191920D02*
D03*
Y390153D02*
D03*
X95920D02*
D03*
Y572153D02*
D03*
Y663153D02*
D03*
X1331000Y575500D02*
D03*
Y534500D02*
D03*
D154*
X158248Y689741D02*
D03*
X62248D02*
D03*
X158248Y598741D02*
D03*
X62248D02*
D03*
Y507741D02*
D03*
X158248D02*
D03*
Y416741D02*
D03*
X62248D02*
D03*
X153757Y671271D02*
D03*
X158248Y671241D02*
D03*
X153757Y689741D02*
D03*
X57757Y671271D02*
D03*
X62248Y671241D02*
D03*
X57757Y689741D02*
D03*
X153757Y580271D02*
D03*
X158248Y580241D02*
D03*
X153757Y598741D02*
D03*
X57757Y489271D02*
D03*
X62248Y489241D02*
D03*
X57757Y507741D02*
D03*
X153757Y489271D02*
D03*
X158248Y489241D02*
D03*
X153757Y507741D02*
D03*
Y398271D02*
D03*
X158248Y398241D02*
D03*
X153757Y416741D02*
D03*
X57757D02*
D03*
X62248Y398241D02*
D03*
X57757Y398271D02*
D03*
Y580271D02*
D03*
X62248Y580241D02*
D03*
X57757Y598741D02*
D03*
D155*
X280995Y457769D02*
D03*
D156*
X255993Y465269D02*
D03*
Y460269D02*
D03*
X305993Y455269D02*
D03*
Y465269D02*
D03*
Y450269D02*
D03*
X255993Y470269D02*
D03*
X305993Y460269D02*
D03*
Y470269D02*
D03*
X255993Y440269D02*
D03*
Y455269D02*
D03*
X305993Y475269D02*
D03*
X255993D02*
D03*
Y445269D02*
D03*
X305993D02*
D03*
X255993Y450269D02*
D03*
X305993Y440269D02*
D03*
D157*
X161250Y282000D02*
D03*
X74250D02*
D03*
X61250D02*
D03*
X80750D02*
D03*
Y322000D02*
D03*
X74250D02*
D03*
X67750D02*
D03*
X61250D02*
D03*
X67750Y282000D02*
D03*
X148250Y322000D02*
D03*
X154750D02*
D03*
X161250D02*
D03*
X167750D02*
D03*
Y282000D02*
D03*
X148250D02*
D03*
X154750D02*
D03*
D158*
X158000Y302000D02*
D03*
X71000D02*
D03*
D159*
X154723Y223250D02*
D03*
X160423Y116750D02*
D03*
D160*
X122873Y223250D02*
D03*
D161*
X276766Y166708D02*
D03*
X191000Y165000D02*
D03*
X276766Y120708D02*
D03*
X191000Y142000D02*
D03*
Y119000D02*
D03*
X276766Y143708D02*
D03*
D162*
X250550Y26800D02*
D03*
X84450D02*
D03*
D163*
X94823Y189500D02*
D03*
Y211500D02*
D03*
Y200500D02*
D03*
Y178500D02*
D03*
Y156500D02*
D03*
Y145500D02*
D03*
Y134500D02*
D03*
Y167500D02*
D03*
D164*
X134323Y116750D02*
D03*
D165*
X360495Y369269D02*
D03*
X330495D02*
D03*
X371245Y394269D02*
D03*
X401245D02*
D03*
X323000Y548019D02*
D03*
X353000D02*
D03*
X401245Y520019D02*
D03*
X371245D02*
D03*
X76000Y348000D02*
D03*
X46000D02*
D03*
X140000D02*
D03*
X170000D02*
D03*
D166*
X149000Y671271D02*
D03*
X163000Y689741D02*
D03*
Y671241D02*
D03*
X149000Y689741D02*
D03*
X53000Y671271D02*
D03*
X67000Y689741D02*
D03*
Y671241D02*
D03*
X53000Y689741D02*
D03*
X149000Y580271D02*
D03*
X163000Y598741D02*
D03*
Y580241D02*
D03*
X149000Y598741D02*
D03*
X53000Y489271D02*
D03*
X67000Y507741D02*
D03*
Y489241D02*
D03*
X53000Y507741D02*
D03*
X149000Y489271D02*
D03*
X163000Y507741D02*
D03*
Y489241D02*
D03*
X149000Y507741D02*
D03*
X149000Y398271D02*
D03*
X163000Y416741D02*
D03*
Y398241D02*
D03*
X149000Y416741D02*
D03*
X53000D02*
D03*
X67000Y398241D02*
D03*
Y416741D02*
D03*
X53000Y398271D02*
D03*
Y580271D02*
D03*
X67000Y598741D02*
D03*
Y580241D02*
D03*
X53000Y598741D02*
D03*
D167*
X147250Y673271D02*
D03*
Y687741D02*
D03*
X164750Y687741D02*
D03*
Y673241D02*
D03*
X51250Y673271D02*
D03*
Y687741D02*
D03*
X68750Y687741D02*
D03*
Y673241D02*
D03*
X147250Y582271D02*
D03*
Y596741D02*
D03*
X164750Y596741D02*
D03*
Y582241D02*
D03*
X51250Y491271D02*
D03*
Y505741D02*
D03*
X68750Y505741D02*
D03*
Y491241D02*
D03*
X147250Y491271D02*
D03*
Y505741D02*
D03*
X164750Y505741D02*
D03*
Y491241D02*
D03*
X147250Y400271D02*
D03*
Y414741D02*
D03*
X164750Y414741D02*
D03*
Y400241D02*
D03*
X68750D02*
D03*
Y414741D02*
D03*
X51250Y414741D02*
D03*
Y400271D02*
D03*
Y582271D02*
D03*
Y596741D02*
D03*
X68750Y596741D02*
D03*
Y582241D02*
D03*
D168*
X155989Y683000D02*
D03*
X156000Y678000D02*
D03*
X60000D02*
D03*
X59989Y683000D02*
D03*
X155989Y592000D02*
D03*
X156000Y587000D02*
D03*
X59989Y501000D02*
D03*
X60000Y496000D02*
D03*
X155989Y501000D02*
D03*
X156000Y496000D02*
D03*
X155989Y410000D02*
D03*
X156000Y405000D02*
D03*
X60000D02*
D03*
X59989Y410000D02*
D03*
Y592000D02*
D03*
X60000Y587000D02*
D03*
D169*
X91000Y292250D02*
D03*
Y298750D02*
D03*
Y305250D02*
D03*
Y311750D02*
D03*
X51000D02*
D03*
Y305250D02*
D03*
Y292250D02*
D03*
Y298750D02*
D03*
X138000Y292250D02*
D03*
Y305250D02*
D03*
Y311750D02*
D03*
X178000D02*
D03*
Y305250D02*
D03*
Y298750D02*
D03*
Y292250D02*
D03*
X138000Y298750D02*
D03*
D170*
X1494810Y524968D02*
D03*
X1461200Y525000D02*
D03*
X1229815Y109032D02*
D03*
X1263425Y109000D02*
D03*
X1179940Y109032D02*
D03*
X1213550Y109000D02*
D03*
X1229189Y172032D02*
D03*
X1262800Y172000D02*
D03*
X1178439Y172032D02*
D03*
X1212050Y172000D02*
D03*
D171*
X1395000Y526000D02*
D03*
X1367000D02*
D03*
D172*
X1342968Y104190D02*
D03*
X1343000Y137800D02*
D03*
X1320968Y104190D02*
D03*
X1321000Y137800D02*
D03*
X1342718Y191189D02*
D03*
X1342750Y224800D02*
D03*
X1320718Y191189D02*
D03*
X1320750Y224800D02*
D03*
D173*
X1283450Y164000D02*
D03*
X1344550D02*
D03*
X1283200Y251000D02*
D03*
X1344300D02*
D03*
D174*
X249000Y142000D02*
D03*
X334766Y143708D02*
D03*
D175*
X167173Y149550D02*
D03*
Y191450D02*
D03*
D176*
X121623Y116900D02*
D03*
D177*
X1406501Y242900D02*
D03*
X1411501D02*
D03*
X1416501D02*
D03*
X1421501Y271100D02*
D03*
Y242900D02*
D03*
X1416501Y271100D02*
D03*
X1411501D02*
D03*
X1406501D02*
D03*
X1510501D02*
D03*
X1515501D02*
D03*
X1520501D02*
D03*
X1510501Y242900D02*
D03*
X1515501D02*
D03*
X1525501D02*
D03*
Y271100D02*
D03*
X1520501Y242900D02*
D03*
X1406501Y182100D02*
D03*
X1411501D02*
D03*
X1416501D02*
D03*
X1406501Y153900D02*
D03*
X1411501D02*
D03*
X1416501D02*
D03*
X1421501Y182100D02*
D03*
Y153900D02*
D03*
X1510501Y182100D02*
D03*
X1515501D02*
D03*
X1520501D02*
D03*
X1525501Y153900D02*
D03*
Y182100D02*
D03*
X1520501Y153900D02*
D03*
X1515501D02*
D03*
X1510501D02*
D03*
D178*
X1428251Y257000D02*
D03*
X1532251D02*
D03*
X1428251Y168000D02*
D03*
X1532251D02*
D03*
D179*
X1417849Y127315D02*
D03*
X1389387D02*
D03*
X1493387D02*
D03*
X1521849D02*
D03*
Y216315D02*
D03*
X1493387D02*
D03*
X1417849D02*
D03*
X1389387D02*
D03*
D180*
X158000Y242000D02*
D03*
X75000Y730000D02*
D03*
X27000Y311000D02*
D03*
X118000Y257000D02*
D03*
Y242000D02*
D03*
X68000D02*
D03*
X27000Y257000D02*
D03*
Y242000D02*
D03*
Y327000D02*
D03*
D181*
X1760000Y760000D02*
D03*
X760000D02*
D03*
X1300000Y400000D02*
D03*
X1760000Y40000D02*
D03*
X760000D02*
D03*
X40000Y760000D02*
D03*
Y40000D02*
D03*
D182*
X1697400Y518000D02*
D03*
X1570400D02*
D03*
X1672000D02*
D03*
X1646600D02*
D03*
X1595800D02*
D03*
X1722800D02*
D03*
X1621200D02*
D03*
D183*
X1741200Y444700D02*
D03*
X1588800Y470100D02*
D03*
X1741200D02*
D03*
Y419300D02*
D03*
Y393900D02*
D03*
Y368500D02*
D03*
Y343100D02*
D03*
Y317700D02*
D03*
Y292300D02*
D03*
Y266900D02*
D03*
Y241500D02*
D03*
Y139900D02*
D03*
X1588800Y444700D02*
D03*
Y266900D02*
D03*
Y241500D02*
D03*
Y292300D02*
D03*
Y216100D02*
D03*
Y317700D02*
D03*
Y190700D02*
D03*
Y343100D02*
D03*
Y165300D02*
D03*
Y368500D02*
D03*
Y139900D02*
D03*
Y393900D02*
D03*
Y419300D02*
D03*
X1741200Y165300D02*
D03*
Y190700D02*
D03*
Y216100D02*
D03*
D184*
X1727950Y660000D02*
D03*
X1512050D02*
D03*
D185*
X1748200Y518000D02*
D03*
D186*
X1762537Y789484D02*
D03*
X1771282Y787357D02*
D03*
X1753557Y788886D02*
D03*
X1745171Y785619D02*
D03*
X1778984Y782702D02*
D03*
X1737516Y780885D02*
D03*
X1647580Y779816D02*
D03*
X1656580D02*
D03*
X1602580D02*
D03*
X1611580D02*
D03*
X1584580D02*
D03*
X1593580D02*
D03*
X1629580D02*
D03*
X1638580D02*
D03*
X1620580D02*
D03*
X1719580D02*
D03*
X1728580D02*
D03*
X1701580D02*
D03*
X1710580D02*
D03*
X1788579Y767720D02*
D03*
X1789621Y758780D02*
D03*
X1784933Y775948D02*
D03*
X1683580Y779816D02*
D03*
X1692580D02*
D03*
X1665580D02*
D03*
X1674580D02*
D03*
X1530580D02*
D03*
X1539580D02*
D03*
X1512580D02*
D03*
X1521580D02*
D03*
X1566580D02*
D03*
X1575580D02*
D03*
X1548580D02*
D03*
X1557580D02*
D03*
X1485580D02*
D03*
X1494580D02*
D03*
X1467580D02*
D03*
X1476580D02*
D03*
X1503580D02*
D03*
X1386580Y779816D02*
D03*
X1377580D02*
D03*
X1449580D02*
D03*
X1458580D02*
D03*
X1431580D02*
D03*
X1440580D02*
D03*
X1413580D02*
D03*
X1422580D02*
D03*
X1395580D02*
D03*
X1404580D02*
D03*
X1789623Y749780D02*
D03*
X1789626Y740780D02*
D03*
X1789816Y724003D02*
D03*
Y715003D02*
D03*
X1789628Y731780D02*
D03*
X1789816Y706003D02*
D03*
Y697003D02*
D03*
X1789816Y688003D02*
D03*
X1332580Y779816D02*
D03*
X1341580D02*
D03*
X1314580D02*
D03*
X1323580D02*
D03*
X1359580D02*
D03*
X1368580D02*
D03*
X1350580D02*
D03*
X1269581D02*
D03*
X1278580D02*
D03*
X1251581D02*
D03*
X1260581D02*
D03*
X1296581D02*
D03*
X1305580D02*
D03*
X1287581D02*
D03*
X1206581D02*
D03*
X1215581D02*
D03*
X1188581D02*
D03*
X1197581D02*
D03*
X1233581D02*
D03*
X1242581D02*
D03*
X1224581D02*
D03*
X1179581Y779816D02*
D03*
X1134581D02*
D03*
X1143581D02*
D03*
X1116581D02*
D03*
X1125581D02*
D03*
X1161581D02*
D03*
X1170581D02*
D03*
X1152581D02*
D03*
X1789816Y634003D02*
D03*
Y625003D02*
D03*
Y652003D02*
D03*
Y643003D02*
D03*
X1789816Y598003D02*
D03*
Y589003D02*
D03*
Y616003D02*
D03*
Y607003D02*
D03*
X1789816Y679003D02*
D03*
Y670003D02*
D03*
Y661003D02*
D03*
X1789816Y508004D02*
D03*
Y499004D02*
D03*
X1789816Y526003D02*
D03*
X1789816Y517004D02*
D03*
X1789816Y481004D02*
D03*
Y472004D02*
D03*
X1789816Y490004D02*
D03*
X1789816Y562004D02*
D03*
X1789816Y553004D02*
D03*
X1789816Y580003D02*
D03*
Y571003D02*
D03*
X1789816Y544003D02*
D03*
Y535004D02*
D03*
X1789816Y463004D02*
D03*
Y454004D02*
D03*
X1789816Y445004D02*
D03*
Y418004D02*
D03*
X1789816Y409004D02*
D03*
X1789816Y436004D02*
D03*
Y427004D02*
D03*
X1789816Y391004D02*
D03*
X1789816Y382004D02*
D03*
X1789816Y400004D02*
D03*
X1062581Y779816D02*
D03*
X1071581D02*
D03*
X1044581D02*
D03*
X1053581D02*
D03*
X1098581D02*
D03*
X1107581D02*
D03*
X1080581D02*
D03*
X1089581D02*
D03*
X1008581D02*
D03*
X1017581D02*
D03*
X990581D02*
D03*
X999581D02*
D03*
X1035581D02*
D03*
X1026581D02*
D03*
X936581D02*
D03*
X945581D02*
D03*
X918581D02*
D03*
X927581D02*
D03*
X972581D02*
D03*
X981581D02*
D03*
X954581D02*
D03*
X963581D02*
D03*
X909581D02*
D03*
X828581Y779816D02*
D03*
X810581D02*
D03*
X819581D02*
D03*
X846581D02*
D03*
X855581D02*
D03*
X837581D02*
D03*
X891581D02*
D03*
X900581D02*
D03*
X873581D02*
D03*
X882581D02*
D03*
X864581D02*
D03*
X792581D02*
D03*
X801581D02*
D03*
X774582D02*
D03*
X783581D02*
D03*
X756581D02*
D03*
X765582D02*
D03*
X738582D02*
D03*
X747582D02*
D03*
X720582D02*
D03*
X729582D02*
D03*
X711582D02*
D03*
X702582D02*
D03*
X1789816Y373004D02*
D03*
Y364004D02*
D03*
Y355004D02*
D03*
X1789816Y346004D02*
D03*
X1789816Y310004D02*
D03*
Y301004D02*
D03*
X1789816Y328004D02*
D03*
Y319004D02*
D03*
X1789816Y283004D02*
D03*
X1789816Y274004D02*
D03*
X1789816Y292004D02*
D03*
X1789816Y337004D02*
D03*
X1789816Y247004D02*
D03*
Y265004D02*
D03*
Y256004D02*
D03*
X1789816Y229004D02*
D03*
Y220004D02*
D03*
Y238004D02*
D03*
X1789816Y202004D02*
D03*
Y193004D02*
D03*
Y211004D02*
D03*
X1789816Y148004D02*
D03*
X1789816Y139004D02*
D03*
X1789816Y166004D02*
D03*
Y157004D02*
D03*
X1789816Y112004D02*
D03*
X1789816Y103004D02*
D03*
X1789816Y130004D02*
D03*
Y121004D02*
D03*
X1789816Y184004D02*
D03*
X1789816Y175004D02*
D03*
X1789816Y76004D02*
D03*
X1789816Y67004D02*
D03*
X1789816Y94004D02*
D03*
Y85004D02*
D03*
X1789816Y58004D02*
D03*
Y49005D02*
D03*
X1789752Y40005D02*
D03*
X1788301Y31123D02*
D03*
X1784320Y23051D02*
D03*
X1727417Y20184D02*
D03*
X1709417D02*
D03*
X1718417D02*
D03*
X1664417D02*
D03*
X1673417D02*
D03*
X1691417D02*
D03*
X1700417D02*
D03*
X1682417D02*
D03*
X1778102Y16545D02*
D03*
X1744196Y14978D02*
D03*
X1736387Y19452D02*
D03*
X1770218Y12203D02*
D03*
X1761396Y10426D02*
D03*
X1752446Y11381D02*
D03*
X1529418Y20184D02*
D03*
X1484418D02*
D03*
X1493418D02*
D03*
X1511418D02*
D03*
X1520417D02*
D03*
X1502417D02*
D03*
X1619417D02*
D03*
X1628417D02*
D03*
X1601417D02*
D03*
X1610417D02*
D03*
X1646417D02*
D03*
X1655417D02*
D03*
X1637417D02*
D03*
X1556417D02*
D03*
X1565417D02*
D03*
X1538418D02*
D03*
X1547417D02*
D03*
X1583417D02*
D03*
X1592417D02*
D03*
X1574417D02*
D03*
X1457418D02*
D03*
X1466418D02*
D03*
X1475418D02*
D03*
X1412418Y20184D02*
D03*
X1421418D02*
D03*
X1439418D02*
D03*
X1448418D02*
D03*
X1430418D02*
D03*
X1367418D02*
D03*
X1376418D02*
D03*
X1349418D02*
D03*
X1358418D02*
D03*
X1394418D02*
D03*
X1403418D02*
D03*
X1385418D02*
D03*
X1214418D02*
D03*
X1304418D02*
D03*
X1313418D02*
D03*
X1286418D02*
D03*
X1295418D02*
D03*
X1331418D02*
D03*
X1340418D02*
D03*
X1322418D02*
D03*
X1241418D02*
D03*
X1250418D02*
D03*
X1223418D02*
D03*
X1232418D02*
D03*
X1268418D02*
D03*
X1277418D02*
D03*
X1259418D02*
D03*
X1196418D02*
D03*
X1178418D02*
D03*
X1187418D02*
D03*
X1205418D02*
D03*
X1169418Y20184D02*
D03*
X1160418D02*
D03*
X1115418D02*
D03*
X1124418D02*
D03*
X1097418D02*
D03*
X1106418D02*
D03*
X1142418D02*
D03*
X1151418D02*
D03*
X1133418D02*
D03*
X971419D02*
D03*
X1052418D02*
D03*
X1061418D02*
D03*
X1034418D02*
D03*
X1043419D02*
D03*
X1079418D02*
D03*
X1088418D02*
D03*
X1070418D02*
D03*
X989419D02*
D03*
X998419D02*
D03*
X980419D02*
D03*
X1016419D02*
D03*
X1025418D02*
D03*
X1007419D02*
D03*
X899419D02*
D03*
X926419D02*
D03*
X935419D02*
D03*
X908419D02*
D03*
X917419D02*
D03*
X953419D02*
D03*
X962419D02*
D03*
X944419D02*
D03*
X863419Y20184D02*
D03*
X881419D02*
D03*
X890419D02*
D03*
X872419D02*
D03*
X827419D02*
D03*
X845419D02*
D03*
X854419D02*
D03*
X836419D02*
D03*
X701419D02*
D03*
X719419D02*
D03*
X710419D02*
D03*
X791419D02*
D03*
X809419D02*
D03*
X818419D02*
D03*
X800419D02*
D03*
X746419D02*
D03*
X755419D02*
D03*
X728419D02*
D03*
X737419D02*
D03*
X773419D02*
D03*
X782419D02*
D03*
X764419D02*
D03*
X657582Y779816D02*
D03*
X666582D02*
D03*
X639582D02*
D03*
X648582D02*
D03*
X693582D02*
D03*
X675582D02*
D03*
X684582D02*
D03*
X630582D02*
D03*
X594582Y779816D02*
D03*
X576582D02*
D03*
X585582D02*
D03*
X612582D02*
D03*
X621582D02*
D03*
X603582D02*
D03*
X549582D02*
D03*
X558582D02*
D03*
X531582D02*
D03*
X540582D02*
D03*
X567582D02*
D03*
X513582D02*
D03*
X522582D02*
D03*
X495582D02*
D03*
X504582D02*
D03*
X450582D02*
D03*
X459582D02*
D03*
X432582D02*
D03*
X441582D02*
D03*
X477582D02*
D03*
X486582D02*
D03*
X468582D02*
D03*
X423582D02*
D03*
X405582D02*
D03*
X414582D02*
D03*
X396582D02*
D03*
X378582D02*
D03*
X387582D02*
D03*
X360582D02*
D03*
X369582D02*
D03*
X351582D02*
D03*
X324582Y779816D02*
D03*
X306582D02*
D03*
X315582D02*
D03*
X333582D02*
D03*
X342582D02*
D03*
X261583D02*
D03*
X270583D02*
D03*
X243583D02*
D03*
X252583D02*
D03*
X288582D02*
D03*
X297582D02*
D03*
X279583D02*
D03*
X207583D02*
D03*
X216583D02*
D03*
X189583D02*
D03*
X198583D02*
D03*
X225583D02*
D03*
X234583D02*
D03*
X180583D02*
D03*
X162583D02*
D03*
X171583D02*
D03*
X126583D02*
D03*
X135583D02*
D03*
X108583D02*
D03*
X117583D02*
D03*
X144583D02*
D03*
X153583D02*
D03*
X99583D02*
D03*
X90583D02*
D03*
X47554Y788619D02*
D03*
X55803Y785022D02*
D03*
X38605Y789574D02*
D03*
X29782Y787797D02*
D03*
X72583Y779816D02*
D03*
X81583D02*
D03*
X21898Y783456D02*
D03*
X63613Y780548D02*
D03*
X15680Y776949D02*
D03*
X11699Y768877D02*
D03*
X10248Y759995D02*
D03*
X10184Y750995D02*
D03*
Y732996D02*
D03*
Y741995D02*
D03*
X10184Y723996D02*
D03*
Y714996D02*
D03*
Y696996D02*
D03*
Y705996D02*
D03*
X10184Y669996D02*
D03*
Y687996D02*
D03*
Y678996D02*
D03*
X10184Y651996D02*
D03*
Y642996D02*
D03*
X10184Y660996D02*
D03*
X10184Y633996D02*
D03*
Y624996D02*
D03*
X10184Y606996D02*
D03*
Y615996D02*
D03*
X10184Y579996D02*
D03*
Y570996D02*
D03*
X10184Y597996D02*
D03*
Y588996D02*
D03*
X10184Y552996D02*
D03*
X10184Y561996D02*
D03*
X10184Y543996D02*
D03*
Y534996D02*
D03*
X10184Y516996D02*
D03*
Y507996D02*
D03*
X10184Y525996D02*
D03*
X10184Y480996D02*
D03*
X10184Y498996D02*
D03*
Y489996D02*
D03*
X10184Y462996D02*
D03*
Y471996D02*
D03*
Y453996D02*
D03*
X10184Y444996D02*
D03*
Y426996D02*
D03*
Y417996D02*
D03*
Y435996D02*
D03*
X683419Y20184D02*
D03*
X692419D02*
D03*
X674419D02*
D03*
X656419D02*
D03*
X665419D02*
D03*
X647419D02*
D03*
X629419D02*
D03*
X638419D02*
D03*
X620419D02*
D03*
X575419Y20184D02*
D03*
X584419D02*
D03*
X557419D02*
D03*
X566419D02*
D03*
X602419D02*
D03*
X611419D02*
D03*
X593419D02*
D03*
X539420D02*
D03*
X548419D02*
D03*
X530420D02*
D03*
X521419D02*
D03*
X485420D02*
D03*
X503419D02*
D03*
X512420D02*
D03*
X494420D02*
D03*
X10184Y390996D02*
D03*
Y408996D02*
D03*
Y399996D02*
D03*
X10184Y372996D02*
D03*
Y363996D02*
D03*
Y381996D02*
D03*
X10184Y336996D02*
D03*
Y327996D02*
D03*
X10184Y354996D02*
D03*
X10184Y345996D02*
D03*
X10184Y309996D02*
D03*
Y300996D02*
D03*
X10184Y318996D02*
D03*
X10184Y282996D02*
D03*
X10184Y273997D02*
D03*
Y264996D02*
D03*
X10184Y291996D02*
D03*
X10184Y192997D02*
D03*
X10184Y237997D02*
D03*
Y228997D02*
D03*
X10184Y255996D02*
D03*
Y246996D02*
D03*
X10184Y210997D02*
D03*
Y201997D02*
D03*
X10184Y219997D02*
D03*
X449420Y20184D02*
D03*
X467420D02*
D03*
X476420D02*
D03*
X458420D02*
D03*
X404420D02*
D03*
X413420D02*
D03*
X386420D02*
D03*
X395420D02*
D03*
X431420D02*
D03*
X440420D02*
D03*
X422420D02*
D03*
X350420D02*
D03*
X359420D02*
D03*
X341420D02*
D03*
X368420D02*
D03*
X377420D02*
D03*
X296420Y20184D02*
D03*
X305420D02*
D03*
X323420D02*
D03*
X332420D02*
D03*
X314420D02*
D03*
X251420D02*
D03*
X260420D02*
D03*
X233420D02*
D03*
X242420D02*
D03*
X278420D02*
D03*
X287420D02*
D03*
X269420D02*
D03*
X10184Y183997D02*
D03*
X10184Y174997D02*
D03*
Y156997D02*
D03*
Y147997D02*
D03*
Y165997D02*
D03*
X10184Y138997D02*
D03*
Y129997D02*
D03*
Y111997D02*
D03*
Y120997D02*
D03*
X89420Y20184D02*
D03*
X107420D02*
D03*
X116420D02*
D03*
X98420D02*
D03*
X188420D02*
D03*
X197420D02*
D03*
X170420D02*
D03*
X179420D02*
D03*
X215420D02*
D03*
X224420D02*
D03*
X206420D02*
D03*
X125420D02*
D03*
X134420D02*
D03*
X152420D02*
D03*
X161420D02*
D03*
X143420D02*
D03*
X10379Y41220D02*
D03*
X10184Y84997D02*
D03*
Y75997D02*
D03*
Y102997D02*
D03*
Y93997D02*
D03*
X10374Y59220D02*
D03*
X10377Y50220D02*
D03*
X10372Y68220D02*
D03*
X71420Y20184D02*
D03*
X80420D02*
D03*
X62484Y19115D02*
D03*
X21016Y17298D02*
D03*
X54829Y14381D02*
D03*
X11421Y32280D02*
D03*
X15067Y24052D02*
D03*
X46443Y11114D02*
D03*
X37463Y10516D02*
D03*
X28718Y12643D02*
D03*
M02*
